# Blender 4.4.1
# www.blender.org
o dino4
v -5.274200 9.180634 -4.000000
v -5.312958 9.084991 -4.000000
v -5.493774 8.994385 -4.000000
v -5.554260 -7.782227 4.000000
v -5.249969 -6.458069 4.000000
v -5.601135 -7.207062 4.000000
v -4.227020 -7.796814 4.000000
v -4.589081 -5.177307 4.000000
v -4.545227 -4.999756 4.000000
v -4.412598 -4.778564 4.000000
v -9.854767 1.573517 4.000000
v -9.390625 4.528107 4.000000
v -9.916351 3.164825 4.000000
v -9.703979 -0.011688 4.000000
v -9.245819 -1.143524 4.000000
v -8.727539 5.895142 4.000000
v -8.697937 -2.497010 4.000000
v -7.789062 7.034149 4.000000
v -7.577057 -3.404785 4.000000
v -5.493774 8.994385 4.000000
v -6.053711 3.350128 4.000000
v -6.181274 1.986847 4.000000
v -6.281921 -4.178406 4.000000
v -5.655457 4.715698 4.000000
v -4.849182 5.944275 4.000000
v -5.312958 9.084991 4.000000
v -5.274200 9.180634 4.000000
v -5.088531 9.638733 4.000000
v -4.681946 10.098419 4.000000
v -4.174072 6.534180 4.000000
v -4.229309 10.511688 4.000000
v -3.367249 10.827850 4.000000
v -3.813080 6.622223 4.000000
v -2.458588 6.653320 4.000000
v -2.686035 10.866882 4.000000
v -2.260498 10.604370 4.000000
v -0.923004 6.820465 4.000000
v -2.005066 10.301270 4.000000
v -1.687836 9.833313 4.000000
v -0.872253 9.453217 4.000000
v -0.199371 7.134857 4.000000
v -0.328827 9.261810 4.000000
v 0.168518 8.932068 4.000000
v 0.253815 7.498627 4.000000
v 0.573730 8.326202 4.000000
v 0.571808 7.864258 4.000000
v -5.257721 -4.546448 4.000000
v -5.726349 0.622345 4.000000
v -5.591431 0.485199 4.000000
v -5.233856 0.616913 4.000000
v -4.946106 -4.683594 4.000000
v -4.563690 1.062134 4.000000
v -4.590485 -4.732056 4.000000
v -3.265503 1.863953 4.000000
v -2.957825 -7.774597 4.000000
v -2.772308 2.176422 4.000000
v -2.678589 -7.769684 4.000000
v -2.233826 2.306823 4.000000
v -2.386566 -7.772919 4.000000
v -2.324646 -7.773590 4.000000
v -2.014832 -7.600281 4.000000
v -0.662048 2.698791 4.000000
v -1.660187 -7.029175 4.000000
v -1.037689 -5.794373 4.000000
v -0.459656 -5.356201 4.000000
v 0.910065 2.772522 4.000000
v 0.074036 -5.095093 4.000000
v 0.741241 -4.879822 4.000000
v 1.319519 -4.752533 4.000000
v 1.583466 2.719604 4.000000
v 2.874512 -4.814178 4.000000
v 2.345398 2.483734 4.000000
v 4.804901 1.502899 4.000000
v 4.427124 -5.098480 4.000000
v 5.002686 -5.282867 4.000000
v 6.097473 0.854248 4.000000
v 5.486176 -5.732849 4.000000
v 6.054535 -6.449432 4.000000
v 6.268036 -7.116425 4.000000
v 6.585052 0.441650 4.000000
v 6.445251 -7.746948 4.000000
v 10.288177 -7.735657 4.000000
v 7.295197 -0.018128 4.000000
v 8.313965 -0.706177 4.000000
v 9.622437 -5.244690 4.000000
v 8.754578 -1.116516 4.000000
v 9.541168 -4.798431 4.000000
v 9.838318 -5.602936 4.000000
v 10.305756 -6.762207 4.000000
v 10.383118 -7.382965 4.000000
v 9.597229 -1.485840 4.000000
v 9.764130 -4.756317 4.000000
v 12.700592 -2.553101 4.000000
v 11.098267 -4.726440 4.000000
v 12.655762 -4.654419 4.000000
v 13.908630 -4.311340 4.000000
v 14.070160 -3.105988 4.000000
v 14.227295 -4.002289 4.000000
v 14.369263 -3.646302 4.000000
v -2.772308 2.176422 -4.000000
v -3.265503 1.863953 -4.000000
v -2.686035 10.866882 -4.000000
v -3.367249 10.827850 -4.000000
v 0.571808 7.864258 -4.000000
v 0.253815 7.498627 -4.000000
v -2.005066 10.301270 -4.000000
v -1.687836 9.833313 -4.000000
v 0.168518 8.932068 -4.000000
v 0.573730 8.326202 -4.000000
v -4.563690 1.062134 -4.000000
v -5.233856 0.616913 -4.000000
v -0.662048 2.698792 -4.000000
v -2.233826 2.306824 -4.000000
v -5.726349 0.622345 -4.000000
v -5.591431 0.485199 -4.000000
v 0.910065 2.772522 -4.000000
v -0.199371 7.134857 -4.000000
v -6.181274 1.986847 -4.000000
v -0.328827 9.261810 -4.000000
v -2.260498 10.604370 -4.000000
v -0.872253 9.453217 -4.000000
v -0.923004 6.820465 -4.000000
v -3.813080 6.622223 -4.000000
v -2.458588 6.653320 -4.000000
v -5.655457 4.715698 -4.000000
v -6.053711 3.350128 -4.000000
v -4.849182 5.944275 -4.000000
v -4.174072 6.534180 -4.000000
v 12.700592 -2.553100 -4.000000
v 9.597229 -1.485840 -4.000000
v 2.345398 2.483734 -4.000000
v 1.583466 2.719605 -4.000000
v 14.070160 -3.105987 -4.000000
v 9.541168 -4.798431 -4.000000
v 9.622437 -5.244690 -4.000000
v 1.319519 -4.752533 -4.000000
v 2.874512 -4.814178 -4.000000
v 0.741241 -4.879822 -4.000000
v 7.295197 -0.018127 -4.000000
v 6.585052 0.441651 -4.000000
v 12.655762 -4.654419 -4.000000
v 13.908630 -4.311340 -4.000000
v 14.369263 -3.646301 -4.000000
v 14.227295 -4.002289 -4.000000
v 9.764130 -4.756317 -4.000000
v 8.754578 -1.116516 -4.000000
v 8.313965 -0.706177 -4.000000
v 11.098267 -4.726440 -4.000000
v 6.097473 0.854248 -4.000000
v 4.804901 1.502899 -4.000000
v 9.838318 -5.602936 -4.000000
v 10.305756 -6.762207 -4.000000
v 10.383118 -7.382965 -4.000000
v 10.288177 -7.735657 -4.000000
v 6.268036 -7.116425 -4.000000
v 6.054535 -6.449432 -4.000000
v 5.486176 -5.732849 -4.000000
v 5.002686 -5.282867 -4.000000
v 4.427124 -5.098480 -4.000000
v 6.445251 -7.746948 -4.000000
v -9.245819 -1.143524 -4.000000
v -9.703979 -0.011688 -4.000000
v -9.854767 1.573517 -4.000000
v -9.916351 3.164826 -4.000000
v -5.554260 -7.782227 -4.000000
v -5.601135 -7.207062 -4.000000
v -9.390625 4.528107 -4.000000
v -8.727539 5.895142 -4.000000
v -7.789062 7.034149 -4.000000
v -4.590485 -4.732056 -4.000000
v -4.412598 -4.778564 -4.000000
v -2.957825 -7.774597 -4.000000
v -2.678589 -7.769684 -4.000000
v -4.545227 -4.999756 -4.000000
v -4.589081 -5.177307 -4.000000
v -6.281921 -4.178406 -4.000000
v -5.257721 -4.546448 -4.000000
v -7.577057 -3.404785 -4.000000
v -2.386566 -7.772919 -4.000000
v -2.324646 -7.773590 -4.000000
v -4.227020 -7.796814 -4.000000
v -5.249969 -6.458069 -4.000000
v -2.014832 -7.600281 -4.000000
v -1.660187 -7.029175 -4.000000
v -0.459656 -5.356201 -4.000000
v 0.074036 -5.095093 -4.000000
v -4.946106 -4.683594 -4.000000
v -1.037689 -5.794373 -4.000000
v -8.697937 -2.497009 -4.000000
v -4.229309 10.511688 -4.000000
v -4.681946 10.098419 -4.000000
v -5.088531 9.638733 -4.000000
vn -0.0000 -0.0000 -1.0000
vn -0.0000 -0.0000 1.0000
vn -0.5303 0.8478 -0.0000
vn -0.3905 0.9206 -0.0000
vn -0.2030 0.9792 -0.0000
vn -0.0572 0.9984 -0.0000
vn 0.7546 -0.6562 -0.0000
vn 0.6930 -0.7209 -0.0000
vn 0.7973 0.6036 -0.0000
vn 0.8277 0.5611 -0.0000
vn 0.7057 0.7085 -0.0000
vn 0.8312 0.5559 -0.0000
vn -0.4526 0.8917 -0.0000
vn -0.5395 0.8420 -0.0000
vn -0.2387 0.9711 -0.0000
vn -0.1451 0.9894 -0.0000
vn 0.8528 0.5223 -0.0000
vn 0.7129 0.7013 -0.0000
vn 0.0158 0.9999 -0.0000
vn 0.5168 -0.8561 -0.0000
vn 1.0000 -0.0042 -0.0000
vn 0.9935 0.1140 -0.0000
vn 0.4458 0.8951 -0.0000
vn 0.5250 0.8511 -0.0000
vn 0.6531 0.7573 -0.0000
vn 0.4224 0.9064 -0.0000
vn 0.3778 0.9259 -0.0000
vn 0.2563 -0.9666 -0.0000
vn 0.0656 -0.9978 -0.0000
vn 0.1307 -0.9914 -0.0000
vn 0.9080 -0.4189 -0.0000
vn 0.9823 -0.1874 -0.0000
vn -0.3456 0.9384 -0.0000
vn 0.4606 -0.8876 -0.0000
vn 0.7540 -0.6569 -0.0000
vn 0.3636 0.9315 -0.0000
vn 0.3499 0.9368 -0.0000
vn 0.1882 0.9821 -0.0000
vn 0.3333 0.9428 -0.0000
vn 0.3743 0.9273 -0.0000
vn 0.9838 0.1792 -0.0000
vn 0.9355 0.3534 -0.0000
vn -0.1101 -0.9939 -0.0000
vn 0.0884 -0.9961 -0.0000
vn 0.2613 -0.9653 -0.0000
vn 0.5959 0.8030 -0.0000
vn 0.5516 0.8341 -0.0000
vn 0.4957 -0.8685 -0.0000
vn 0.1561 -0.9877 -0.0000
vn 0.9289 -0.3704 -0.0000
vn 0.8309 -0.5564 -0.0000
vn 0.1043 -0.9945 -0.0000
vn 0.1856 -0.9826 -0.0000
vn 0.6225 0.7826 -0.0000
vn 0.5492 0.8357 -0.0000
vn 0.0343 -0.9994 -0.0000
vn 0.4098 0.9122 -0.0000
vn 0.5511 0.8344 -0.0000
vn 0.8749 0.4843 -0.0000
vn 0.8948 0.4465 -0.0000
vn 0.9680 0.2509 -0.0000
vn 0.9976 -0.0694 -0.0000
vn 0.9656 -0.2599 -0.0000
vn -0.8823 -0.4708 -0.0000
vn -0.9577 -0.2878 -0.0000
vn -0.7345 -0.6786 -0.0000
vn -0.5053 -0.8629 -0.0000
vn -0.2431 -0.9700 -0.0000
vn -0.9627 -0.2706 -0.0000
vn 0.0029 -1.0000 -0.0000
vn -0.9714 -0.2374 -0.0000
vn -0.9269 -0.3752 -0.0000
vn -0.9978 -0.0667 -0.0000
vn -0.9865 0.1639 -0.0000
vn -0.9841 0.1776 -0.0000
vn -0.9967 -0.0812 -0.0000
vn -0.8417 0.5400 -0.0000
vn -0.9172 0.3985 -0.0000
vn -0.7133 0.7008 -0.0000
vn -0.5528 0.8333 -0.0000
vn -0.4480 0.8940 -0.0000
vn -0.2529 -0.9675 -0.0000
vn -0.1943 -0.9809 -0.0000
vn 0.0033 -1.0000 -0.0000
vn 0.0175 -0.9998 -0.0000
vn -0.8576 0.5143 -0.0000
vn -0.9245 0.3812 -0.0000
vn -0.9268 0.3756 -0.0000
vn -0.9362 0.3516 -0.0000
vn -0.3707 -0.9287 -0.0000
vn -0.4275 -0.9040 -0.0000
vn -0.5725 -0.8199 -0.0000
vn 0.2470 -0.9690 -0.0000
vn -0.0110 -0.9999 -0.0000
vn -0.8972 0.4416 -0.0000
vn 0.6908 -0.7231 -0.0000
vn 0.8721 -0.4893 -0.0000
vn 0.3742 -0.9273 -0.0000
vn 0.5242 -0.8516 -0.0000
vn -0.2716 -0.9624 -0.0000
vn 0.7683 -0.6400 -0.0000
vn -0.8037 -0.5951 -0.0000
vn -0.7127 0.7015 -0.0000
vn -0.5191 0.8547 -0.0000
vn -0.8501 0.5266 -0.0000
vt 0.084654 0.586236
vt 0.087104 0.585400
vt 0.091791 0.587341
vt 0.410894 0.313023
vt 0.440998 0.328995
vt 0.421030 0.323355
vt 0.432410 0.287617
vt 0.476135 0.337493
vt 0.480221 0.339577
vt 0.486593 0.340694
vt 0.517680 0.548184
vt 0.581324 0.587897
vt 0.546842 0.575481
vt 0.490098 0.519297
vt 0.476159 0.492025
vt 0.618133 0.597770
vt 0.459491 0.459413
vt 0.655140 0.598677
vt 0.460683 0.423254
vt 0.729996 0.587341
vt 0.613779 0.505282
vt 0.585835 0.485316
vt 0.467280 0.385994
vt 0.646211 0.520153
vt 0.682746 0.525037
vt 0.734683 0.585400
vt 0.737133 0.586236
vt 0.748868 0.590237
vt 0.764260 0.590075
vt 0.705016 0.521922
vt 0.779529 0.588278
vt 0.799678 0.577124
vt 0.712613 0.516523
vt 0.735443 0.491350
vt 0.811604 0.564848
vt 0.813613 0.552469
vt 0.763826 0.464978
vt 0.812060 0.542649
vt 0.808396 0.528950
vt 0.814580 0.507244
vt 0.781669 0.456419
vt 0.819874 0.493797
vt 0.821787 0.478952
vt 0.796008 0.453799
vt 0.816953 0.461321
vt 0.808162 0.453772
vt 0.477118 0.360530
vt 0.567431 0.454285
vt 0.567046 0.449475
vt 0.575415 0.444858
vt 0.479634 0.352369
vt 0.594861 0.439461
vt 0.484554 0.344831
vt 0.631380 0.428011
vt 0.453671 0.263916
vt 0.645403 0.423790
vt 0.458349 0.258702
vt 0.656717 0.415721
vt 0.463082 0.253111
vt 0.464086 0.251926
vt 0.472460 0.248897
vt 0.689958 0.392353
vt 0.489112 0.251550
vt 0.522747 0.260022
vt 0.540546 0.256256
vt 0.717169 0.363754
vt 0.554260 0.250423
vt 0.569297 0.241307
vt 0.581206 0.232432
vt 0.727223 0.350117
vt 0.605569 0.201935
vt 0.735261 0.331796
vt 0.757047 0.269056
vt 0.625672 0.167827
vt 0.631626 0.153886
vt 0.765971 0.233896
vt 0.631033 0.137330
vt 0.626777 0.114787
vt 0.617636 0.099787
vt 0.766153 0.217876
vt 0.608590 0.086073
vt 0.671903 0.013391
vt 0.769096 0.196861
vt 0.772777 0.166246
vt 0.708205 0.066915
vt 0.772231 0.151154
vt 0.715332 0.075784
vt 0.704956 0.056940
vt 0.690650 0.029041
vt 0.680150 0.017382
vt 0.779064 0.129112
vt 0.719791 0.072247
vt 0.809783 0.052744
vt 0.742264 0.047441
vt 0.769203 0.019091
vt 0.796280 0.000968
vt 0.821787 0.017696
vt 0.807372 0.000000
vt 0.816453 0.003153
vt 0.976910 0.200662
vt 0.989057 0.401323
vt 0.976910 0.401323
vt 0.989057 0.200662
vt 0.688545 0.598677
vt 0.701239 0.799338
vt 0.688545 0.799338
vt 0.701239 0.598677
vt 0.669780 1.000000
vt 0.681181 0.799338
vt 0.681181 1.000000
vt 0.669780 0.799338
vt 0.723440 0.799338
vt 0.737000 0.598677
vt 0.737000 0.799338
vt 0.723440 0.598677
vt 0.787442 0.799338
vt 0.804890 0.598677
vt 0.804890 0.799338
vt 0.787442 0.598677
vt 0.928430 0.200662
vt 0.945410 0.401323
vt 0.928430 0.401323
vt 0.945410 0.200662
vt 0.719604 0.799338
vt 0.744447 1.000000
vt 0.719604 1.000000
vt 0.744447 0.799338
vt 0.654133 1.000000
vt 0.658927 0.799338
vt 0.658927 1.000000
vt 0.654133 0.799338
vt -0.000000 0.992139
vt 0.200662 0.962588
vt 0.200662 0.992139
vt -0.000000 0.962588
vt 0.693739 1.000000
vt 0.693739 0.799338
vt 0.658927 1.000000
vt 0.658927 0.799338
vt 0.787130 0.799338
vt 0.795597 1.000000
vt 0.787130 1.000000
vt 0.795597 0.799338
vt 0.623779 1.000000
vt 0.623779 0.799338
vt 0.772539 0.598677
vt 0.772539 0.799338
vt 0.713681 0.799338
vt 0.713681 0.598677
vt 0.758912 0.799338
vt 0.758912 0.598677
vt 0.821787 0.200662
vt 0.840113 0.401323
vt 0.821787 0.401323
vt 0.840113 0.200662
vt 0.878715 0.200662
vt 0.912698 0.401323
vt 0.878715 0.401323
vt 0.912698 0.200662
vt 0.619862 0.799338
vt 0.655432 0.598677
vt 0.655432 0.799338
vt 0.619862 0.598677
vt 0.688545 0.598677
vt 0.688545 0.799338
vt 0.921801 0.200662
vt 0.921801 0.401323
vt 0.564049 0.598677
vt 0.583882 0.799338
vt 0.564049 0.799338
vt 0.583882 0.598677
vt 0.000000 0.725889
vt 0.200662 0.648474
vt 0.200662 0.725889
vt 0.000000 0.648474
vt 0.000000 0.948601
vt 0.200662 0.930006
vt 0.200662 0.948601
vt 0.000000 0.930006
vt 0.200662 0.613021
vt 0.000000 0.613021
vt 0.989057 0.401323
vt 0.998804 0.200662
vt 0.998804 0.401323
vt 0.989057 0.200662
vt 0.480131 0.598677
vt 0.519089 0.799338
vt 0.480131 0.799338
vt 0.519089 0.598677
vt 0.533663 0.799338
vt 0.533663 0.598677
vt 0.000000 0.815057
vt 0.200662 0.793950
vt 0.200662 0.815057
vt 0.000000 0.793950
vt 0.836504 0.799338
vt 0.836504 0.598677
vt 0.767439 1.000000
vt 0.777050 0.799338
vt 0.777050 1.000000
vt 0.767439 0.799338
vt 0.909073 0.598677
vt 0.914688 0.799338
vt 0.909073 0.799338
vt 0.914688 0.598677
vt 0.000000 0.763224
vt 0.200662 0.748160
vt 0.200662 0.763224
vt 0.000000 0.748160
vt 0.875601 0.598677
vt 0.875601 0.799338
vt 0.000000 0.866528
vt 0.200662 0.831073
vt 0.200662 0.866528
vt 0.000000 0.831073
vt 0.000000 0.598677
vt 0.200662 0.598677
vt 0.596408 1.000000
vt 0.596408 0.799338
vt 0.758322 0.799338
vt 0.758322 1.000000
vt 0.719604 0.799338
vt 0.706435 1.000000
vt 0.706435 0.799338
vt 0.719604 1.000000
vt 0.415166 0.598677
vt 0.401323 0.799338
vt 0.401323 0.598677
vt 0.415166 0.799338
vt 0.427033 0.799338
vt 0.427033 0.598677
vt 0.441360 0.598677
vt 0.441360 0.799338
vt 0.401323 0.799338
vt 0.497696 1.000000
vt 0.401323 1.000000
vt 0.497696 0.799338
vt 0.586555 1.000000
vt 0.586555 0.799338
vt 0.200662 0.911511
vt 0.401323 0.932892
vt 0.200662 0.932892
vt 0.401323 0.911511
vt 0.200662 0.876620
vt 0.401323 0.876620
vt 0.200662 0.840690
vt 0.401323 0.840690
vt 0.927427 0.598677
vt 0.914688 0.799338
vt 0.914688 0.598677
vt 0.927427 0.799338
vt 0.200662 0.765996
vt 0.401323 0.804078
vt 0.200662 0.804078
vt 0.401323 0.765996
vt 0.200662 0.730377
vt 0.401323 0.730377
vt 0.401323 0.662221
vt 0.200662 0.662221
vt 0.401323 0.658317
vt 0.200662 0.658317
vt 0.821787 0.000000
vt 0.826222 0.200662
vt 0.821787 0.200662
vt 0.826222 0.000000
vt 0.514437 0.799338
vt 0.521442 1.000000
vt 0.514437 1.000000
vt 0.521442 0.799338
vt 0.995185 0.598677
vt 0.988768 0.799338
vt 0.988768 0.598677
vt 0.995185 0.799338
vt 0.200662 0.655730
vt 0.401323 0.655730
vt 0.984248 0.799338
vt 0.984248 0.598677
vt 0.842847 0.000000
vt 0.868320 0.200662
vt 0.842847 0.200662
vt 0.868320 0.000000
vt 0.900354 0.200662
vt 0.900354 0.000000
vt 0.505563 0.799338
vt 0.507116 1.000000
vt 0.505563 1.000000
vt 0.507116 0.799338
vt 0.553281 1.000000
vt 0.553281 0.799338
vt 0.948169 0.799338
vt 0.948169 0.598677
vt 0.497695 0.799338
vt 0.497695 1.000000
vt 0.977848 0.200662
vt 0.994395 0.000000
vt 0.994395 0.200662
vt 0.977848 0.000000
vt 0.550517 0.598677
vt 0.550517 0.799338
vt 0.835111 0.200662
vt 0.835111 0.000000
vt 0.943354 0.200662
vt 0.943354 0.000000
vt 0.927943 0.200662
vt 0.927943 0.000000
vt 0.401323 0.958459
vt 0.200662 0.958459
vt 0.200662 0.628680
vt 0.401323 0.614626
vt 0.401323 0.628680
vt 0.200662 0.614626
vt 0.401323 0.643336
vt 0.200662 0.643336
vt 0.401323 0.598677
vt 0.200662 0.598677
vt 0.240463 0.587897
vt 0.304107 0.548184
vt 0.274945 0.575481
vt 0.331689 0.519297
vt 0.345628 0.492025
vt 0.203654 0.597770
vt 0.362296 0.459413
vt 0.166648 0.598677
vt 0.361104 0.423254
vt 0.208008 0.505282
vt 0.235953 0.485316
vt 0.354508 0.385994
vt 0.175576 0.520153
vt 0.139042 0.525037
vt 0.072919 0.590237
vt 0.057527 0.590075
vt 0.116771 0.521922
vt 0.042259 0.588279
vt 0.022109 0.577124
vt 0.109174 0.516523
vt 0.086344 0.491350
vt 0.010184 0.564848
vt 0.008174 0.552469
vt 0.057961 0.464978
vt 0.009727 0.542649
vt 0.013392 0.528950
vt 0.007207 0.507244
vt 0.040118 0.456419
vt 0.001914 0.493797
vt -0.000000 0.478952
vt 0.025780 0.453799
vt 0.004835 0.461321
vt 0.013625 0.453772
vt 0.042723 0.129112
vt 0.106456 0.075784
vt 0.049556 0.151154
vt 0.101996 0.072247
vt 0.012004 0.052744
vt 0.079524 0.047441
vt 0.052584 0.019091
vt 0.025508 0.000968
vt 0.000000 0.017696
vt 0.014415 0.000000
vt 0.005334 0.003153
vt 0.344669 0.360530
vt 0.254356 0.454286
vt 0.254741 0.449475
vt 0.246373 0.444858
vt 0.342153 0.352370
vt 0.226927 0.439461
vt 0.337233 0.344831
vt 0.335194 0.340694
vt 0.190407 0.428011
vt 0.389378 0.287617
vt 0.368117 0.263916
vt 0.176384 0.423790
vt 0.363438 0.258702
vt 0.165070 0.415721
vt 0.358705 0.253111
vt 0.357701 0.251926
vt 0.349328 0.248897
vt 0.131830 0.392353
vt 0.332676 0.251550
vt 0.299041 0.260022
vt 0.281241 0.256256
vt 0.104618 0.363754
vt 0.267527 0.250424
vt 0.252490 0.241307
vt 0.240581 0.232432
vt 0.094565 0.350117
vt 0.216218 0.201935
vt 0.086527 0.331796
vt 0.064741 0.269056
vt 0.196115 0.167827
vt 0.190161 0.153886
vt 0.055816 0.233896
vt 0.190755 0.137330
vt 0.195010 0.114787
vt 0.204152 0.099787
vt 0.055634 0.217876
vt 0.213198 0.086073
vt 0.149884 0.013391
vt 0.052692 0.196861
vt 0.049010 0.166246
vt 0.113583 0.066915
vt 0.116831 0.056940
vt 0.131137 0.029041
vt 0.141638 0.017382
vt 0.380789 0.328995
vt 0.410894 0.313023
vt 0.400757 0.323356
vt 0.345653 0.337493
vt 0.341566 0.339577
s 1
f 1/1/1 2/2/1 3/3/1
f 4/4/2 5/5/2 6/6/2
f 5/5/2 4/4/2 7/7/2
f 5/5/2 7/7/2 8/8/2
f 8/8/2 7/7/2 9/9/2
f 9/9/2 7/7/2 10/10/2
f 11/11/2 12/12/2 13/13/2
f 12/12/2 11/11/2 14/14/2
f 12/12/2 14/14/2 15/15/2
f 12/12/2 15/15/2 16/16/2
f 16/16/2 15/15/2 17/17/2
f 16/16/2 17/17/2 18/18/2
f 18/18/2 17/17/2 19/19/2
f 18/18/2 19/19/2 20/20/2
f 20/20/2 19/19/2 21/21/2
f 21/21/2 19/19/2 22/22/2
f 22/22/2 19/19/2 23/23/2
f 20/20/2 21/21/2 24/24/2
f 20/20/2 24/24/2 25/25/2
f 20/20/2 25/25/2 26/26/2
f 26/26/2 25/25/2 27/27/2
f 27/27/2 25/25/2 28/28/2
f 28/28/2 25/25/2 29/29/2
f 29/29/2 25/25/2 30/30/2
f 29/29/2 30/30/2 31/31/2
f 31/31/2 30/30/2 32/32/2
f 32/32/2 30/30/2 33/33/2
f 32/32/2 33/33/2 34/34/2
f 32/32/2 34/34/2 35/35/2
f 35/35/2 34/34/2 36/36/2
f 36/36/2 34/34/2 37/37/2
f 36/36/2 37/37/2 38/38/2
f 38/38/2 37/37/2 39/39/2
f 39/39/2 37/37/2 40/40/2
f 40/40/2 37/37/2 41/41/2
f 40/40/2 41/41/2 42/42/2
f 42/42/2 41/41/2 43/43/2
f 43/43/2 41/41/2 44/44/2
f 43/43/2 44/44/2 45/45/2
f 45/45/2 44/44/2 46/46/2
f 47/47/2 22/22/2 23/23/2
f 22/22/2 47/47/2 48/48/2
f 48/48/2 47/47/2 49/49/2
f 49/49/2 47/47/2 50/50/2
f 50/50/2 47/47/2 51/51/2
f 50/50/2 51/51/2 52/52/2
f 52/52/2 51/51/2 53/53/2
f 52/52/2 53/53/2 10/10/2
f 52/52/2 10/10/2 54/54/2
f 54/54/2 10/10/2 7/7/2
f 54/54/2 7/7/2 55/55/2
f 54/54/2 55/55/2 56/56/2
f 56/56/2 55/55/2 57/57/2
f 56/56/2 57/57/2 58/58/2
f 58/58/2 57/57/2 59/59/2
f 58/58/2 59/59/2 60/60/2
f 58/58/2 60/60/2 61/61/2
f 58/58/2 61/61/2 62/62/2
f 62/62/2 61/61/2 63/63/2
f 62/62/2 63/63/2 64/64/2
f 62/62/2 64/64/2 65/65/2
f 62/62/2 65/65/2 66/66/2
f 66/66/2 65/65/2 67/67/2
f 66/66/2 67/67/2 68/68/2
f 66/66/2 68/68/2 69/69/2
f 66/66/2 69/69/2 70/70/2
f 70/70/2 69/69/2 71/71/2
f 70/70/2 71/71/2 72/72/2
f 72/72/2 71/71/2 73/73/2
f 73/73/2 71/71/2 74/74/2
f 73/73/2 74/74/2 75/75/2
f 73/73/2 75/75/2 76/76/2
f 76/76/2 75/75/2 77/77/2
f 76/76/2 77/77/2 78/78/2
f 76/76/2 78/78/2 79/79/2
f 76/76/2 79/79/2 80/80/2
f 80/80/2 79/79/2 81/81/2
f 80/80/2 81/81/2 82/82/2
f 80/80/2 82/82/2 83/83/2
f 83/83/2 82/82/2 84/84/2
f 84/84/2 82/82/2 85/85/2
f 84/84/2 85/85/2 86/86/2
f 86/86/2 85/85/2 87/87/2
f 85/85/2 82/82/2 88/88/2
f 88/88/2 82/82/2 89/89/2
f 89/89/2 82/82/2 90/90/2
f 87/87/2 91/91/2 86/86/2
f 91/91/2 87/87/2 92/92/2
f 91/91/2 92/92/2 93/93/2
f 93/93/2 92/92/2 94/94/2
f 93/93/2 94/94/2 95/95/2
f 93/93/2 95/95/2 96/96/2
f 93/93/2 96/96/2 97/97/2
f 97/97/2 96/96/2 98/98/2
f 97/97/2 98/98/2 99/99/2
f 54/100/3 100/101/4 101/102/3
f 100/101/4 54/100/3 56/103/4
f 32/104/5 102/105/6 103/106/5
f 102/105/6 32/104/5 35/107/6
f 104/108/7 44/109/8 105/110/8
f 44/109/8 104/108/7 46/111/7
f 106/112/9 39/113/10 107/114/10
f 39/113/10 106/112/9 38/115/9
f 108/116/11 45/117/12 109/118/12
f 45/117/12 108/116/11 43/119/11
f 50/120/13 110/121/14 111/122/13
f 110/121/14 50/120/13 52/123/14
f 58/124/15 112/125/16 113/126/15
f 112/125/16 58/124/15 62/127/16
f 114/128/17 49/129/18 115/130/18
f 49/129/18 114/128/17 48/131/17
f 62/132/16 116/133/19 112/134/16
f 116/133/19 62/132/16 66/135/19
f 44/109/8 117/136/20 105/110/8
f 117/136/20 44/109/8 41/137/20
f 109/138/21 46/111/21 104/108/21
f 46/111/21 109/138/21 45/139/21
f 56/140/4 113/141/15 100/142/4
f 113/141/15 56/140/4 58/143/15
f 118/144/22 48/131/17 114/128/17
f 48/131/17 118/144/22 22/145/22
f 42/146/23 108/116/11 119/147/23
f 108/116/11 42/146/23 43/119/11
f 35/107/24 120/148/25 102/105/24
f 120/148/25 35/107/24 36/149/25
f 39/113/26 121/150/27 107/114/26
f 121/150/27 39/113/26 40/151/27
f 120/148/25 38/115/9 106/112/9
f 38/115/9 120/148/25 36/149/25
f 41/152/20 122/153/28 117/154/20
f 122/153/28 41/152/20 37/155/28
f 40/151/27 119/147/23 121/150/27
f 119/147/23 40/151/27 42/146/23
f 34/156/29 123/157/30 124/158/29
f 123/157/30 34/156/29 33/159/30
f 125/160/31 21/161/32 126/162/32
f 21/161/32 125/160/31 24/163/31
f 126/162/32 22/164/22 118/165/22
f 22/164/22 126/162/32 21/161/32
f 49/166/33 111/122/13 115/167/33
f 111/122/13 49/166/33 50/120/13
f 30/168/34 127/169/35 128/170/34
f 127/169/35 30/168/34 25/171/35
f 127/169/35 24/163/31 125/160/31
f 24/163/31 127/169/35 25/171/35
f 37/155/28 124/158/29 122/153/28
f 124/158/29 37/155/28 34/156/29
f 52/123/14 101/102/3 110/121/14
f 101/102/3 52/123/14 54/100/3
f 33/159/30 128/167/34 123/157/30
f 128/167/34 33/159/30 30/166/34
f 91/172/36 129/173/37 130/174/36
f 129/173/37 91/172/36 93/175/37
f 70/176/38 131/177/39 132/178/38
f 131/177/39 70/176/38 72/179/39
f 66/135/19 132/178/38 116/133/19
f 132/178/38 66/135/19 70/176/38
f 93/175/37 133/180/40 129/173/37
f 133/180/40 93/175/37 97/181/40
f 134/182/41 85/183/42 135/184/42
f 85/183/42 134/182/41 87/185/41
f 71/186/43 136/187/44 137/188/43
f 136/187/44 71/186/43 69/189/44
f 69/189/44 138/190/45 136/187/44
f 138/190/45 69/189/44 68/191/45
f 80/192/46 139/193/47 140/194/46
f 139/193/47 80/192/46 83/195/47
f 96/117/48 141/196/49 142/118/48
f 141/196/49 96/117/48 95/197/49
f 143/198/50 98/199/51 144/200/51
f 98/199/51 143/198/50 99/201/50
f 92/202/52 134/203/53 145/204/52
f 134/203/53 92/202/52 87/205/53
f 84/206/54 146/207/55 147/208/54
f 146/207/55 84/206/54 86/209/55
f 94/210/56 145/204/52 148/211/56
f 145/204/52 94/210/56 92/202/52
f 73/212/57 149/213/58 150/214/57
f 149/213/58 73/212/57 76/215/58
f 98/199/51 142/142/48 144/200/51
f 142/142/48 98/199/51 96/140/48
f 72/179/39 150/214/57 131/177/39
f 150/214/57 72/179/39 73/212/57
f 133/180/59 99/216/59 143/217/59
f 99/216/59 133/180/59 97/181/59
f 95/197/49 148/211/56 141/196/49
f 148/211/56 95/197/49 94/210/56
f 151/218/60 89/145/61 152/144/61
f 89/145/61 151/218/60 88/219/60
f 152/125/61 90/220/62 153/221/62
f 90/220/62 152/125/61 89/127/61
f 153/221/62 82/201/63 154/198/63
f 82/201/63 153/221/62 90/220/62
f 78/222/64 155/223/65 79/224/65
f 155/223/65 78/222/64 156/225/64
f 77/226/66 156/227/64 78/228/64
f 156/227/64 77/226/66 157/229/66
f 77/226/66 158/230/67 157/229/66
f 158/230/67 77/226/66 75/231/67
f 86/209/55 130/174/36 146/207/55
f 130/174/36 86/209/55 91/172/36
f 74/232/68 137/188/43 159/233/68
f 137/188/43 74/232/68 71/186/43
f 79/224/65 160/136/69 81/137/69
f 160/136/69 79/224/65 155/223/65
f 82/234/70 160/235/70 154/236/70
f 160/235/70 82/234/70 81/237/70
f 83/195/47 147/208/54 139/193/47
f 147/208/54 83/195/47 84/206/54
f 75/231/67 159/233/68 158/230/67
f 159/233/68 75/231/67 74/232/68
f 135/238/42 88/219/60 151/218/60
f 88/219/60 135/238/42 85/239/42
f 76/215/58 140/194/46 149/213/58
f 140/194/46 76/215/58 80/192/46
f 14/240/71 161/241/72 15/242/72
f 161/241/72 14/240/71 162/243/71
f 11/244/73 162/243/71 14/240/71
f 162/243/71 11/244/73 163/245/73
f 13/246/74 163/245/73 11/244/73
f 163/245/73 13/246/74 164/247/74
f 6/248/75 165/249/76 4/250/76
f 165/249/76 6/248/75 166/251/75
f 16/252/77 167/253/78 12/254/78
f 167/253/78 16/252/77 168/255/77
f 18/256/79 168/255/77 16/252/77
f 168/255/77 18/256/79 169/257/79
f 18/256/79 3/258/80 169/257/79
f 3/258/80 18/256/79 20/259/80
f 20/259/80 2/260/81 3/258/80
f 2/260/81 20/259/80 26/261/81
f 10/262/82 170/263/83 171/264/82
f 170/263/83 10/262/82 53/265/83
f 57/266/84 172/267/85 173/268/84
f 172/267/85 57/266/84 55/269/85
f 10/270/86 174/271/87 9/272/87
f 174/271/87 10/270/86 171/273/86
f 27/274/88 2/260/88 26/261/88
f 2/260/88 27/274/88 1/275/88
f 9/272/87 175/276/89 8/277/89
f 175/276/89 9/272/87 174/271/87
f 47/278/90 176/279/91 177/280/90
f 176/279/91 47/278/90 23/281/91
f 23/281/91 178/282/92 176/279/91
f 178/282/92 23/281/91 19/283/92
f 12/254/78 164/247/74 13/246/74
f 164/247/74 12/254/78 167/253/78
f 60/284/93 179/285/94 180/286/93
f 179/285/94 60/284/93 59/287/94
f 55/269/85 181/288/84 172/267/85
f 181/288/84 55/269/85 7/289/84
f 8/277/89 182/290/95 5/291/95
f 182/290/95 8/277/89 175/276/89
f 61/292/96 180/286/93 183/293/96
f 180/286/93 61/292/96 60/284/93
f 184/294/97 61/295/96 183/296/96
f 61/295/96 184/294/97 63/297/97
f 7/289/84 165/238/94 181/288/84
f 165/238/94 7/289/84 4/239/94
f 67/298/98 185/170/99 186/299/98
f 185/170/99 67/298/98 65/168/99
f 68/191/45 186/299/98 138/190/45
f 186/299/98 68/191/45 67/298/98
f 53/265/83 187/300/100 170/263/83
f 187/300/100 53/265/83 51/301/100
f 188/302/101 63/297/97 184/294/97
f 63/297/97 188/302/101 64/303/101
f 19/283/92 189/304/102 178/282/92
f 189/304/102 19/283/92 17/305/102
f 15/242/72 189/306/102 17/307/102
f 189/306/102 15/242/72 161/241/72
f 59/287/94 173/268/84 179/285/94
f 173/268/84 59/287/94 57/266/84
f 5/291/95 166/251/75 6/248/75
f 166/251/75 5/291/95 182/290/95
f 51/301/100 177/280/90 187/300/100
f 177/280/90 51/301/100 47/278/90
f 65/305/99 188/302/101 185/304/99
f 188/302/101 65/305/99 64/303/101
f 29/308/103 190/309/104 191/310/103
f 190/309/104 29/308/103 31/311/104
f 29/308/103 192/312/105 28/313/105
f 192/312/105 29/308/103 191/310/103
f 28/313/105 1/275/88 27/274/88
f 1/275/88 28/313/105 192/312/105
f 31/311/104 103/314/5 190/309/104
f 103/314/5 31/311/104 32/315/5
f 167/316/1 163/317/1 164/318/1
f 163/317/1 167/316/1 162/319/1
f 162/319/1 167/316/1 161/320/1
f 161/320/1 167/316/1 168/321/1
f 161/320/1 168/321/1 189/322/1
f 189/322/1 168/321/1 169/323/1
f 189/322/1 169/323/1 178/324/1
f 178/324/1 169/323/1 3/3/1
f 178/324/1 3/3/1 126/325/1
f 178/324/1 126/325/1 118/326/1
f 178/324/1 118/326/1 176/327/1
f 126/325/1 3/3/1 125/328/1
f 125/328/1 3/3/1 127/329/1
f 127/329/1 3/3/1 2/2/1
f 127/329/1 2/2/1 1/1/1
f 127/329/1 1/1/1 192/330/1
f 127/329/1 192/330/1 191/331/1
f 127/329/1 191/331/1 128/332/1
f 128/332/1 191/331/1 190/333/1
f 128/332/1 190/333/1 103/334/1
f 128/332/1 103/334/1 123/335/1
f 123/335/1 103/334/1 124/336/1
f 124/336/1 103/334/1 102/337/1
f 124/336/1 102/337/1 120/338/1
f 124/336/1 120/338/1 122/339/1
f 122/339/1 120/338/1 106/340/1
f 122/339/1 106/340/1 107/341/1
f 122/339/1 107/341/1 121/342/1
f 122/339/1 121/342/1 117/343/1
f 117/343/1 121/342/1 119/344/1
f 117/343/1 119/344/1 108/345/1
f 117/343/1 108/345/1 105/346/1
f 105/346/1 108/345/1 109/347/1
f 105/346/1 109/347/1 104/348/1
f 130/349/1 134/350/1 146/351/1
f 134/350/1 130/349/1 145/352/1
f 145/352/1 130/349/1 129/353/1
f 145/352/1 129/353/1 148/354/1
f 148/354/1 129/353/1 141/355/1
f 141/355/1 129/353/1 142/356/1
f 142/356/1 129/353/1 133/357/1
f 142/356/1 133/357/1 144/358/1
f 144/358/1 133/357/1 143/359/1
f 118/326/1 177/360/1 176/327/1
f 177/360/1 118/326/1 114/361/1
f 177/360/1 114/361/1 115/362/1
f 177/360/1 115/362/1 111/363/1
f 177/360/1 111/363/1 187/364/1
f 187/364/1 111/363/1 110/365/1
f 187/364/1 110/365/1 170/366/1
f 170/366/1 110/365/1 171/367/1
f 171/367/1 110/365/1 101/368/1
f 171/367/1 101/368/1 181/369/1
f 181/369/1 101/368/1 172/370/1
f 172/370/1 101/368/1 100/371/1
f 172/370/1 100/371/1 173/372/1
f 173/372/1 100/371/1 113/373/1
f 173/372/1 113/373/1 179/374/1
f 179/374/1 113/373/1 180/375/1
f 180/375/1 113/373/1 183/376/1
f 183/376/1 113/373/1 112/377/1
f 183/376/1 112/377/1 184/378/1
f 184/378/1 112/377/1 188/379/1
f 188/379/1 112/377/1 185/380/1
f 185/380/1 112/377/1 116/381/1
f 185/380/1 116/381/1 186/382/1
f 186/382/1 116/381/1 138/383/1
f 138/383/1 116/381/1 136/384/1
f 136/384/1 116/381/1 132/385/1
f 136/384/1 132/385/1 137/386/1
f 137/386/1 132/385/1 131/387/1
f 137/386/1 131/387/1 150/388/1
f 137/386/1 150/388/1 159/389/1
f 159/389/1 150/388/1 158/390/1
f 158/390/1 150/388/1 149/391/1
f 158/390/1 149/391/1 157/392/1
f 157/392/1 149/391/1 156/393/1
f 156/393/1 149/391/1 155/394/1
f 155/394/1 149/391/1 140/395/1
f 155/394/1 140/395/1 160/396/1
f 160/396/1 140/395/1 154/397/1
f 154/397/1 140/395/1 139/398/1
f 154/397/1 139/398/1 147/399/1
f 154/397/1 147/399/1 135/400/1
f 135/400/1 147/399/1 146/351/1
f 135/400/1 146/351/1 134/350/1
f 154/397/1 135/400/1 151/401/1
f 154/397/1 151/401/1 152/402/1
f 154/397/1 152/402/1 153/403/1
f 182/404/1 165/405/1 166/406/1
f 165/405/1 182/404/1 181/369/1
f 181/369/1 182/404/1 175/407/1
f 181/369/1 175/407/1 174/408/1
f 181/369/1 174/408/1 171/367/1
