# Blender 4.4.1
# www.blender.org
o dino1
v 13.352539 -9.410889 4.000000
v 6.670746 -9.617371 -4.000000
v 13.352539 -9.410889 -4.000000
v 6.670746 -9.617371 4.000000
v 1.841919 -9.766571 4.000000
v -1.345764 -9.865082 -4.000000
v 1.841919 -9.766571 -4.000000
v -1.345764 -9.865082 4.000000
v 2.492706 -8.121002 4.000000
v 2.376099 -8.221161 -4.000000
v 2.492706 -8.121002 -4.000000
v 2.376099 -8.221161 4.000000
v 6.188232 -9.558838 -4.000000
v 6.188232 -9.558838 4.000000
v 3.146484 -8.459564 4.000000
v 2.666870 -8.190613 -4.000000
v 3.146484 -8.459564 -4.000000
v 2.666870 -8.190613 4.000000
v 1.975006 -8.967255 -4.000000
v 1.971100 -9.530151 4.000000
v 1.971100 -9.530151 -4.000000
v 1.975006 -8.967255 4.000000
v 5.419250 -9.367950 -4.000000
v 5.419250 -9.367950 4.000000
v 4.302856 -9.037811 4.000000
v 4.302856 -9.037811 -4.000000
v 2.234833 -8.480621 -4.000000
v 2.234833 -8.480621 4.000000
v -7.011932 4.725220 4.000000
v -7.704407 4.662506 -4.000000
v -7.011932 4.725220 -4.000000
v -7.704407 4.662506 4.000000
v -2.782532 -2.403534 4.000000
v -2.302612 -3.480102 -4.000000
v -2.302612 -3.480103 4.000000
v -2.782532 -2.403534 -4.000000
v -8.347504 4.384216 -4.000000
v -8.347504 4.384216 4.000000
v -4.601593 3.621765 4.000000
v -5.664642 4.410034 -4.000000
v -4.601593 3.621765 -4.000000
v -5.664642 4.410034 4.000000
v -2.069672 -4.123138 -4.000000
v -2.069672 -4.123138 4.000000
v -3.864227 2.670257 4.000000
v -3.380981 1.327545 -4.000000
v -3.380981 1.327545 4.000000
v -3.864227 2.670258 -4.000000
v -4.096344 3.150635 4.000000
v -4.096344 3.150635 -4.000000
v -8.880463 4.361664 -4.000000
v -8.880463 4.361664 4.000000
v -1.664093 -4.832306 4.000000
v -1.218628 -5.477295 -4.000000
v -1.218628 -5.477295 4.000000
v -1.664093 -4.832306 -4.000000
v -3.863770 -1.155609 4.000000
v -4.171875 -1.225830 -4.000000
v -3.863770 -1.155609 -4.000000
v -4.171875 -1.225830 4.000000
v -4.437805 -1.367951 4.000000
v -4.733765 -1.489532 -4.000000
v -4.437805 -1.367950 -4.000000
v -4.733765 -1.489533 4.000000
v -3.441040 -1.522125 4.000000
v -3.441040 -1.522125 -4.000000
v -5.363007 0.276977 4.000000
v -5.765594 -0.365875 -4.000000
v -5.765594 -0.365875 4.000000
v -5.363007 0.276978 -4.000000
v -4.179504 0.555389 4.000000
v -3.754974 0.738403 -4.000000
v -4.179504 0.555390 -4.000000
v -3.754974 0.738403 4.000000
v -5.657684 -0.886352 -4.000000
v -5.657684 -0.886353 4.000000
v -5.102173 -1.383637 4.000000
v -5.102173 -1.383636 -4.000000
v -2.956848 -1.928681 4.000000
v -2.956848 -1.928680 -4.000000
v -1.138031 -5.618286 4.000000
v -1.241913 -5.771027 -4.000000
v -1.241913 -5.771027 4.000000
v -1.138031 -5.618286 -4.000000
v -1.391235 -9.863770 -4.000000
v -1.391235 -9.863770 4.000000
v -1.315094 -5.943359 -4.000000
v -1.315094 -5.943359 4.000000
v -1.881927 -9.881622 4.000000
v -2.190857 -9.764313 -4.000000
v -1.881927 -9.881622 -4.000000
v -2.190857 -9.764313 4.000000
v -2.389496 -9.550262 4.000000
v -2.389496 -9.550262 -4.000000
v -2.011688 -8.180573 4.000000
v -2.011688 -8.180573 -4.000000
v -9.431213 4.674988 4.000000
v -9.643188 5.648438 4.000000
v -9.779053 5.040802 4.000000
v -9.507660 8.151855 4.000000
v -8.298004 8.127747 4.000000
v -7.111908 8.124359 4.000000
v -6.554535 8.245056 4.000000
v -5.881073 8.634033 4.000000
v -5.425568 8.876129 4.000000
v -4.645752 9.057434 4.000000
v -3.418030 9.000366 4.000000
v -2.194885 8.550934 4.000000
v -1.577759 8.148041 4.000000
v -1.016754 7.582184 4.000000
v -10.726349 6.542023 4.000000
v -10.752808 7.637573 4.000000
v -10.798828 6.869598 4.000000
v -10.619293 7.644684 4.000000
v -10.482605 6.289642 4.000000
v -10.199890 8.080475 4.000000
v -9.902618 6.097595 4.000000
v -0.508423 6.356384 4.000000
v -0.275970 5.858887 4.000000
v -0.161041 5.537567 4.000000
v 0.074646 5.334503 4.000000
v 0.461243 5.723328 4.000000
v 1.078247 5.469025 4.000000
v 1.841919 5.367401 4.000000
v 2.579712 5.433868 4.000000
v 3.786346 5.851257 4.000000
v 4.304657 5.715027 4.000000
v 4.760620 5.063873 4.000000
v 5.001617 4.654724 4.000000
v 5.597229 4.215576 4.000000
v 6.320557 3.894317 4.000000
v 7.106781 3.936249 4.000000
v 9.946503 -6.299194 4.000000
v 10.109619 -6.827240 4.000000
v 10.524323 -7.331482 4.000000
v 7.997284 1.547882 4.000000
v 7.587402 3.875732 4.000000
v 7.897797 3.774536 4.000000
v 8.218048 0.857330 4.000000
v 9.343933 -3.773285 4.000000
v 9.225311 -3.168213 4.000000
v 8.638916 0.384521 4.000000
v 9.180176 -0.117127 4.000000
v 9.793274 -5.066956 4.000000
v 13.108826 -8.457550 4.000000
v 13.507172 -8.858185 4.000000
v 13.548462 -9.165771 4.000000
v 9.567291 -0.567291 4.000000
v 9.345825 -2.620117 4.000000
v 9.533081 -1.331207 4.000000
v 8.152100 3.456360 4.000000
v 8.051361 2.161773 4.000000
v -10.752808 7.637573 -4.000000
v -10.726349 6.542023 -4.000000
v -10.798828 6.869598 -4.000000
v -10.619293 7.644684 -4.000000
v -10.482605 6.289642 -4.000000
v -10.199890 8.080475 -4.000000
v -9.902618 6.097595 -4.000000
v -9.507660 8.151855 -4.000000
v -9.643188 5.648438 -4.000000
v -9.431213 4.674988 -4.000000
v -9.779053 5.040802 -4.000000
v -8.298004 8.127747 -4.000000
v -7.111908 8.124359 -4.000000
v -6.554535 8.245056 -4.000000
v -5.881073 8.634033 -4.000000
v -5.425568 8.876129 -4.000000
v -4.645752 9.057434 -4.000000
v -3.418030 9.000366 -4.000000
v -2.194885 8.550934 -4.000000
v -1.577759 8.148041 -4.000000
v -1.016754 7.582184 -4.000000
v 8.152100 3.456360 -4.000000
v 7.997284 1.547882 -4.000000
v 7.897797 3.774536 -4.000000
v 8.051361 2.161774 -4.000000
v 9.567291 -0.567291 -4.000000
v 9.225311 -3.168213 -4.000000
v 9.180176 -0.117126 -4.000000
v 9.345825 -2.620117 -4.000000
v 9.533081 -1.331207 -4.000000
v -0.508423 6.356384 -4.000000
v -0.275970 5.858887 -4.000000
v -0.161041 5.537567 -4.000000
v 0.074646 5.334503 -4.000000
v 0.461243 5.723328 -4.000000
v 1.078247 5.469025 -4.000000
v 1.841919 5.367401 -4.000000
v 2.579712 5.433868 -4.000000
v 3.786346 5.851257 -4.000000
v 4.304657 5.715027 -4.000000
v 4.760620 5.063873 -4.000000
v 5.001617 4.654724 -4.000000
v 5.597229 4.215576 -4.000000
v 6.320557 3.894318 -4.000000
v 7.106781 3.936249 -4.000000
v 9.946503 -6.299194 -4.000000
v 10.109619 -6.827240 -4.000000
v 10.524323 -7.331482 -4.000000
v 7.587402 3.875733 -4.000000
v 8.218048 0.857331 -4.000000
v 9.343933 -3.773285 -4.000000
v 8.638916 0.384522 -4.000000
v 9.793274 -5.066956 -4.000000
v 13.108826 -8.457550 -4.000000
v 13.507172 -8.858185 -4.000000
v 13.548462 -9.165771 -4.000000
vn 0.0309 -0.9995 -0.0000
vn -0.0449 -0.9990 -0.0000
vn 0.0010 -1.0000 -0.0000
vn 0.6516 -0.7586 -0.0000
vn 0.7777 -0.6287 -0.0000
vn -0.1810 -0.9835 -0.0000
vn -0.4683 -0.8836 -0.0000
vn -0.4310 -0.9023 -0.0000
vn 0.9692 -0.2461 -0.0000
vn 0.9680 -0.2508 -0.0000
vn -0.2623 -0.9650 -0.0000
vn 0.8775 -0.4795 -0.0000
vn -0.3668 -0.9303 -0.0000
vn 0.8802 -0.4746 -0.0000
vn -0.3711 -0.9286 -0.0000
vn -0.0697 -0.9976 -0.0000
vn 0.2468 -0.9691 -0.0000
vn -0.9266 -0.3761 -0.0000
vn -0.9274 -0.3741 -0.0000
vn 0.2234 -0.9747 -0.0000
vn -0.6398 -0.7685 -0.0000
vn -0.4204 -0.9073 -0.0000
vn -0.9075 -0.4201 -0.0000
vn -0.9219 -0.3874 -0.0000
vn -0.9409 -0.3386 -0.0000
vn -0.8049 -0.5934 -0.0000
vn 0.0423 -0.9991 -0.0000
vn -0.8462 -0.5329 -0.0000
vn -0.8463 -0.5328 -0.0000
vn 0.2222 -0.9750 -0.0000
vn 0.3499 -0.9368 -0.0000
vn 0.4262 -0.9046 -0.0000
vn 0.3800 -0.9250 -0.0000
vn -0.6491 -0.7607 -0.0000
vn -0.6551 -0.7556 -0.0000
vn -0.8475 0.5308 -0.0000
vn -0.3136 0.9495 -0.0000
vn -0.3959 0.9183 -0.0000
vn -0.9792 -0.2030 -0.0000
vn -0.4838 -0.8752 -0.0000
vn -0.6670 -0.7451 -0.0000
vn -0.8185 -0.5746 -0.0000
vn -0.2763 -0.9611 -0.0000
vn -0.2290 0.9734 -0.0000
vn -0.8443 0.5359 -0.0000
vn -0.8269 0.5624 -0.0000
vn -0.8779 0.4789 -0.0000
vn -0.8682 -0.4963 -0.0000
vn 0.0038 -1.0000 -0.0000
vn -0.9388 0.3445 -0.0000
vn -0.1625 -0.9867 -0.0000
vn -0.5587 -0.8294 -0.0000
vn -0.7330 -0.6802 -0.0000
vn -0.9595 0.2816 -0.0000
vn -0.9640 0.2659 -0.0000
vn -0.0000 -0.0000 1.0000
vn -0.0000 -0.0000 -1.0000
vn 0.2542 0.9672 -0.0000
vn 0.7426 0.6698 -0.0000
vn 0.5026 0.8645 -0.0000
vn -0.7091 0.7051 -0.0000
vn 0.0212 0.9998 -0.0000
vn -0.2099 0.9777 -0.0000
vn 0.1813 0.9834 -0.0000
vn -0.9982 0.0598 -0.0000
vn -0.9969 -0.0789 -0.0000
vn 0.3811 0.9246 -0.0000
vn 0.2586 0.9660 -0.0000
vn 0.0360 0.9994 -0.0000
vn 0.2184 0.9759 -0.0000
vn 0.3100 0.9507 -0.0000
vn -0.3602 0.9329 -0.0000
vn -0.4848 0.8746 -0.0000
vn 0.8245 0.5659 -0.0000
vn 0.6527 0.7576 -0.0000
vn -0.0909 0.9959 -0.0000
vn 0.1980 0.9802 -0.0000
vn 0.4486 0.8937 -0.0000
vn -0.3509 0.9364 -0.0000
vn 0.6319 0.7750 -0.0000
vn -0.0532 0.9986 -0.0000
vn -0.7205 0.6934 -0.0000
vn 0.9248 0.3805 -0.0000
vn 0.8191 0.5736 -0.0000
vn 0.8410 0.5410 -0.0000
vn -0.1050 0.9945 -0.0000
vn 0.0114 0.9999 -0.0000
vn -0.1026 0.9947 -0.0000
vn -0.0414 0.9991 -0.0000
vn 0.8325 0.5540 -0.0000
vn -0.9764 -0.2160 -0.0000
vn 0.9151 0.4033 -0.0000
vn -0.3269 0.9451 -0.0000
vn 0.9970 -0.0776 -0.0000
vn 0.9966 -0.0827 -0.0000
vn 0.9777 0.2101 -0.0000
vn 0.8805 0.4741 -0.0000
vn 0.7812 0.6243 -0.0000
vn 0.9654 0.2609 -0.0000
vn 0.9739 0.2270 -0.0000
vn 0.6026 0.7981 -0.0000
vn 0.5643 0.8256 -0.0000
vn 0.9955 -0.0944 -0.0000
vn 0.9838 -0.1794 -0.0000
vn 0.7091 0.7051 -0.0000
vn 0.7142 0.7000 -0.0000
vn 0.7201 0.6938 -0.0000
vn 0.7582 0.6520 -0.0000
vn 0.9939 0.1106 -0.0000
vn 0.8686 0.4955 -0.0000
vn 0.9911 0.1330 -0.0000
vn 0.9999 -0.0114 -0.0000
vn 0.7811 -0.6244 -0.0000
vn 0.9990 -0.0447 -0.0000
vn -0.7193 -0.6947 -0.0000
vn -0.5323 -0.8466 -0.0000
vn -0.4945 -0.8692 -0.0000
vn -0.6162 -0.7876 -0.0000
vn -0.7247 -0.6891 -0.0000
vn -0.9759 0.2182 -0.0000
vn -0.8659 -0.5002 -0.0000
vn -0.3143 -0.9493 -0.0000
vt 0.000000 0.909647
vt 0.194550 0.748406
vt 0.194550 0.909647
vt 0.000000 0.748406
vt 0.746252 0.194550
vt 0.823175 0.389100
vt 0.746252 0.389100
vt 0.823175 0.194550
vt 0.000000 0.643752
vt 0.194550 0.641165
vt 0.194550 0.643752
vt 0.000000 0.641165
vt 0.194550 0.736589
vt 0.000000 0.736589
vt 0.000000 0.660374
vt 0.194550 0.648131
vt 0.194550 0.660374
vt 0.000000 0.648131
vt 0.934853 0.389100
vt 0.948533 0.194550
vt 0.948533 0.389100
vt 0.934853 0.194550
vt 0.194550 0.717526
vt 0.000000 0.717526
vt 0.954185 0.194550
vt 0.954185 0.389100
vt 0.000000 0.689726
vt 0.194550 0.689726
vt 0.923213 0.389100
vt 0.923213 0.194550
vt 0.917009 0.389100
vt 0.917009 0.194550
vt 0.820534 0.000000
vt 0.837147 0.194550
vt 0.820534 0.194550
vt 0.837147 0.000000
vt 0.562356 0.641165
vt 0.536680 0.835716
vt 0.536680 0.641165
vt 0.562356 0.835716
vt 0.852057 0.194550
vt 0.852057 0.000000
vt 0.759592 0.000000
vt 0.787181 0.194550
vt 0.759592 0.194550
vt 0.787181 0.000000
vt 0.521290 0.835716
vt 0.521290 0.641165
vt 0.935084 0.000000
vt 0.902945 0.194550
vt 0.902945 0.000000
vt 0.935084 0.194550
vt 0.746252 0.000000
vt 0.746252 0.194550
vt 0.864903 0.194550
vt 0.864903 0.000000
vt 0.504467 0.641165
vt 0.489243 0.835716
vt 0.489243 0.641165
vt 0.504467 0.835716
vt 0.872954 0.194550
vt 0.880246 0.389100
vt 0.872954 0.389100
vt 0.880246 0.194550
vt 0.886348 0.194550
vt 0.893224 0.389100
vt 0.886348 0.389100
vt 0.893224 0.194550
vt 0.861858 0.194550
vt 0.861858 0.389100
vt 0.975086 0.000000
vt 0.959061 0.194550
vt 0.959061 0.000000
vt 0.975086 0.194550
vt 0.939489 0.389100
vt 0.949377 0.583651
vt 0.939489 0.583651
vt 0.949377 0.389100
vt 0.946523 0.194550
vt 0.946523 0.000000
vt 0.902391 0.194550
vt 0.917009 0.389100
vt 0.902391 0.389100
vt 0.917009 0.194550
vt 0.573719 0.641165
vt 0.573719 0.835716
vt 0.849180 0.194550
vt 0.849180 0.389100
vt 0.911422 0.389100
vt 0.911422 0.583651
vt 0.888254 0.194550
vt 0.888254 0.000000
vt 0.485898 0.641165
vt 0.482082 0.835716
vt 0.482082 0.641165
vt 0.485898 0.835716
vt 0.824279 0.389100
vt 0.824279 0.194550
vt 0.477821 0.835716
vt 0.477821 0.641165
vt 0.836114 0.194550
vt 0.843868 0.389100
vt 0.836114 0.389100
vt 0.843868 0.194550
vt 0.422761 0.641165
vt 0.389100 0.835716
vt 0.389100 0.641165
vt 0.422761 0.835716
vt 0.026350 0.396732
vt 0.045726 0.418555
vt 0.029842 0.409178
vt 0.032782 0.379779
vt 0.074396 0.411327
vt 0.039552 0.373372
vt 0.047303 0.372686
vt 0.054635 0.372780
vt 0.085611 0.410530
vt 0.062074 0.370850
vt 0.067102 0.358207
vt 0.100277 0.419068
vt 0.073009 0.344011
vt 0.007080 0.559031
vt 0.013393 0.582422
vt 0.003661 0.570822
vt 0.044324 0.634963
vt 0.070174 0.620910
vt 0.015468 0.546105
vt 0.027228 0.540630
vt 0.044228 0.539445
vt 0.095748 0.607569
vt 0.059882 0.533052
vt 0.109134 0.603940
vt 0.085448 0.511175
vt 0.128027 0.604805
vt 0.140571 0.604937
vt 0.099585 0.482262
vt 0.159438 0.600129
vt 0.185310 0.585162
vt 0.105224 0.466437
vt 0.104862 0.453467
vt 0.206694 0.561775
vt 0.071461 0.331808
vt 0.069781 0.303193
vt 0.067617 0.286702
vt 0.215512 0.546172
vt 0.068442 0.266851
vt 0.070845 0.247941
vt 0.221296 0.527677
vt 0.071009 0.243995
vt -0.000000 0.613835
vt 0.011684 0.637787
vt 0.002099 0.621719
vt 0.014647 0.636447
vt 0.002440 0.605658
vt 0.028578 0.641165
vt 0.012815 0.595023
vt 0.001895 0.166247
vt 0.023480 0.198440
vt 0.000000 0.173091
vt 0.007253 0.160258
vt 0.063549 0.238956
vt 0.018048 0.155154
vt 0.019016 0.154617
vt 0.088950 0.121085
vt 0.067057 0.241859
vt 0.218560 0.495522
vt 0.218014 0.482179
vt 0.216901 0.473955
vt 0.219719 0.466934
vt 0.232416 0.471005
vt 0.242895 0.458612
vt 0.258248 0.447874
vt 0.274923 0.441056
vt 0.100765 0.136856
vt 0.094384 0.124745
vt 0.111819 0.144457
vt 0.117772 0.148479
vt 0.121411 0.149338
vt 0.124393 0.145886
vt 0.305647 0.436571
vt 0.131740 0.134713
vt 0.150241 0.109291
vt 0.315315 0.427831
vt 0.170655 0.089674
vt 0.317876 0.408670
vt 0.318503 0.397139
vt 0.326452 0.380994
vt 0.185124 0.076950
vt 0.338477 0.365965
vt 0.194888 0.070288
vt 0.355923 0.358075
vt 0.302741 0.105293
vt 0.300356 0.092066
vt 0.303670 0.076539
vt 0.341479 0.000000
vt 0.348434 0.296541
vt 0.365624 0.351392
vt 0.371194 0.345734
vt 0.345476 0.279160
vt 0.317986 0.166576
vt 0.322193 0.180969
vt 0.349274 0.264243
vt 0.355350 0.247356
vt 0.313217 0.133615
vt 0.346881 0.023312
vt 0.351000 0.010205
vt 0.348451 0.003101
vt 0.358673 0.233305
vt 0.330927 0.191455
vt 0.349389 0.217192
vt 0.373126 0.336019
vt 0.356469 0.309192
vt 0.734568 0.637787
vt 0.746252 0.613835
vt 0.744153 0.621719
vt 0.731606 0.636447
vt 0.743812 0.605658
vt 0.717674 0.641165
vt 0.733437 0.595023
vt 0.701928 0.634963
vt 0.732860 0.582422
vt 0.739172 0.559031
vt 0.742591 0.570822
vt 0.676078 0.620910
vt 0.730785 0.546105
vt 0.719024 0.540630
vt 0.702025 0.539445
vt 0.650504 0.607569
vt 0.686370 0.533052
vt 0.637119 0.603940
vt 0.660804 0.511175
vt 0.618225 0.604805
vt 0.605681 0.604937
vt 0.646668 0.482262
vt 0.586814 0.600129
vt 0.560942 0.585162
vt 0.641028 0.466437
vt 0.641390 0.453467
vt 0.645975 0.419068
vt 0.539558 0.561775
vt 0.673243 0.344011
vt 0.674791 0.331808
vt 0.676471 0.303193
vt 0.678635 0.286702
vt 0.530740 0.546172
vt 0.677810 0.266851
vt 0.675407 0.247941
vt 0.524956 0.527677
vt 0.675244 0.243995
vt 0.397819 0.296541
vt 0.375058 0.345734
vt 0.389783 0.309192
vt 0.387579 0.233305
vt 0.424059 0.180969
vt 0.390902 0.247356
vt 0.415325 0.191455
vt 0.396863 0.217192
vt 0.722772 0.198440
vt 0.744358 0.166247
vt 0.746252 0.173091
vt 0.738999 0.160258
vt 0.682703 0.238956
vt 0.728204 0.155154
vt 0.727237 0.154617
vt 0.657303 0.121085
vt 0.679195 0.241859
vt 0.527692 0.495522
vt 0.528238 0.482179
vt 0.529351 0.473955
vt 0.526533 0.466934
vt 0.513836 0.471005
vt 0.503358 0.458612
vt 0.488004 0.447874
vt 0.471330 0.441056
vt 0.645487 0.136856
vt 0.651868 0.124745
vt 0.634433 0.144457
vt 0.628480 0.148479
vt 0.624842 0.149338
vt 0.621860 0.145886
vt 0.440605 0.436571
vt 0.614512 0.134713
vt 0.596011 0.109291
vt 0.430937 0.427831
vt 0.575598 0.089674
vt 0.428376 0.408670
vt 0.427749 0.397139
vt 0.419801 0.380994
vt 0.561128 0.076950
vt 0.407776 0.365965
vt 0.551364 0.070288
vt 0.390329 0.358075
vt 0.443511 0.105293
vt 0.445896 0.092066
vt 0.442582 0.076539
vt 0.404774 -0.000000
vt 0.380628 0.351392
vt 0.400776 0.279160
vt 0.428266 0.166576
vt 0.396978 0.264243
vt 0.433035 0.133615
vt 0.399372 0.023312
vt 0.395252 0.010205
vt 0.397801 0.003101
vt 0.700526 0.418555
vt 0.719903 0.396732
vt 0.716410 0.409178
vt 0.713470 0.379779
vt 0.671856 0.411327
vt 0.706700 0.373372
vt 0.698949 0.372686
vt 0.691617 0.372780
vt 0.660642 0.410530
vt 0.684178 0.370850
vt 0.679151 0.358207
vt 0.826519 0.389100
vt 0.839368 0.583651
vt 0.826519 0.583651
vt 0.839368 0.389100
vt 0.854744 0.583651
vt 0.854744 0.389100
vt 1.000000 0.389100
vt 0.990164 0.583651
vt 0.990164 0.389100
vt 1.000000 0.583651
vt 0.780465 0.389100
vt 0.798192 0.583651
vt 0.780465 0.583651
vt 0.798192 0.389100
vt 0.872958 0.583651
vt 0.872958 0.389100
vt 0.975970 0.389100
vt 0.957263 0.583651
vt 0.957263 0.389100
vt 0.975970 0.583651
vt 0.746252 0.389100
vt 0.761747 0.583651
vt 0.746252 0.583651
vt 0.761747 0.389100
vt 0.891912 0.389100
vt 0.903685 0.583651
vt 0.891912 0.583651
vt 0.903685 0.389100
vt 0.194550 0.776737
vt 0.389100 0.761264
vt 0.389100 0.776737
vt 0.194550 0.761264
vt 0.993789 0.194550
vt 0.999937 0.389100
vt 0.993789 0.389100
vt 0.999937 0.194550
vt 0.194550 0.732255
vt 0.389100 0.702393
vt 0.389100 0.732255
vt 0.194550 0.702393
vt 0.389100 0.671795
vt 0.194550 0.671795
vt 0.389100 0.750753
vt 0.194550 0.750753
vt 0.389100 0.655976
vt 0.194550 0.655976
vt 0.995447 0.641165
vt 0.998666 0.835716
vt 0.995447 0.835716
vt 0.998666 0.641165
vt 0.995447 0.641165
vt 0.984436 0.835716
vt 0.984436 0.641165
vt 0.995447 0.835716
vt 0.950988 0.835716
vt 0.958883 0.641165
vt 0.958883 0.835716
vt 0.950988 0.641165
vt 0.954185 0.389100
vt 0.970346 0.194550
vt 0.970346 0.389100
vt 0.954185 0.194550
vt 0.980467 0.194550
vt 0.980467 0.389100
vt 0.194550 0.789977
vt 0.389100 0.789977
vt 0.194550 0.818715
vt 0.389100 0.818715
vt 0.194550 0.864682
vt 0.389100 0.848068
vt 0.389100 0.864682
vt 0.194550 0.848068
vt 0.908558 0.835716
vt 0.938726 0.641165
vt 0.938726 0.835716
vt 0.908558 0.641165
vt 0.757984 0.835716
vt 0.789379 0.641165
vt 0.789379 0.835716
vt 0.757984 0.641165
vt 0.724551 0.835716
vt 0.737505 0.641165
vt 0.737505 0.835716
vt 0.724551 0.641165
vt 0.750065 0.835716
vt 0.750065 0.641165
vt 0.662712 0.835716
vt 0.694486 0.641165
vt 0.694486 0.835716
vt 0.662712 0.641165
vt 0.833009 0.641165
vt 0.898044 0.835716
vt 0.833009 0.835716
vt 0.898044 0.641165
vt 0.603488 0.835716
vt 0.634682 0.641165
vt 0.634682 0.835716
vt 0.603488 0.641165
vt 0.908558 0.641165
vt 0.908558 0.835716
vt 0.573719 0.835716
vt 0.584944 0.641165
vt 0.584944 0.835716
vt 0.573719 0.641165
vt 0.804262 0.835716
vt 0.821209 0.641165
vt 0.821209 0.835716
vt 0.804262 0.641165
vt 0.980467 0.389100
vt 0.987974 0.194550
vt 0.987974 0.389100
vt 0.980467 0.194550
vt 0.647917 0.641165
vt 0.647917 0.835716
vt 0.833009 0.641165
vt 0.833009 0.835716
vt 0.996071 0.000000
vt 0.989577 0.194550
vt 0.989577 0.000000
vt 0.996071 0.194550
vt 0.878972 0.194550
vt 0.878972 0.000000
vt 0.973783 0.641165
vt 0.973783 0.835716
s 1
f 1/1/1 2/2/2 3/3/1
f 2/2/2 1/1/1 4/4/2
f 5/5/1 6/6/3 7/7/1
f 6/6/3 5/5/1 8/8/3
f 9/9/4 10/10/5 11/11/4
f 10/10/5 9/9/4 12/12/5
f 4/4/2 13/13/6 2/2/2
f 13/13/6 4/4/2 14/14/6
f 15/15/7 16/16/8 17/17/7
f 16/16/8 15/15/7 18/18/8
f 19/19/9 20/20/10 21/21/10
f 20/20/10 19/19/9 22/22/9
f 14/14/6 23/23/11 13/13/6
f 23/23/11 14/14/6 24/24/11
f 21/21/10 5/25/12 7/26/12
f 5/25/12 21/21/10 20/20/10
f 25/27/13 17/17/7 26/28/13
f 17/17/7 25/27/13 15/15/7
f 24/24/11 26/28/13 23/23/11
f 26/28/13 24/24/11 25/27/13
f 27/29/14 22/22/9 19/19/9
f 22/22/9 27/29/14 28/30/14
f 10/31/5 28/30/14 27/29/14
f 28/30/14 10/31/5 12/32/5
f 18/18/8 11/11/15 16/16/8
f 11/11/15 18/18/8 9/9/15
f 29/33/16 30/34/17 31/35/16
f 30/34/17 29/33/16 32/36/17
f 33/37/18 34/38/19 35/39/19
f 34/38/19 33/37/18 36/40/18
f 32/36/17 37/41/20 30/34/17
f 37/41/20 32/36/17 38/42/20
f 39/43/21 40/44/22 41/45/21
f 40/44/22 39/43/21 42/46/22
f 35/39/19 43/47/23 44/48/23
f 43/47/23 35/39/19 34/38/19
f 45/49/24 46/50/25 47/51/25
f 46/50/25 45/49/24 48/52/24
f 49/53/26 41/45/21 50/54/26
f 41/45/21 49/53/26 39/43/21
f 38/42/20 51/55/27 37/41/20
f 51/55/27 38/42/20 52/56/27
f 53/57/28 54/58/29 55/59/29
f 54/58/29 53/57/28 56/60/28
f 57/61/30 58/62/31 59/63/30
f 58/62/31 57/61/30 60/64/31
f 61/65/32 62/66/33 63/67/32
f 62/66/33 61/65/32 64/68/33
f 65/69/34 59/63/35 66/70/34
f 59/63/35 65/69/34 57/61/35
f 67/71/36 68/72/36 69/73/36
f 68/72/36 67/71/36 70/74/36
f 42/46/22 31/35/16 40/44/22
f 31/35/16 42/46/22 29/33/16
f 60/64/31 63/67/32 58/62/31
f 63/67/32 60/64/31 61/65/32
f 71/75/37 72/76/38 73/77/37
f 72/76/38 71/75/37 74/78/38
f 69/73/39 75/79/39 76/80/39
f 75/79/39 69/73/39 68/72/39
f 44/48/23 56/60/28 53/57/28
f 56/60/28 44/48/23 43/47/23
f 49/80/26 48/52/24 45/49/24
f 48/52/24 49/80/26 50/79/26
f 77/81/40 75/82/41 78/83/40
f 75/82/41 77/81/40 76/84/41
f 79/85/42 36/40/18 33/37/18
f 36/40/18 79/85/42 80/86/42
f 64/68/43 78/83/40 62/66/43
f 78/83/40 64/68/43 77/81/40
f 79/87/42 66/70/34 80/88/42
f 66/70/34 79/87/42 65/69/34
f 67/89/44 73/77/37 70/90/44
f 73/77/37 67/89/44 71/75/37
f 47/51/45 72/91/45 74/92/45
f 72/91/45 47/51/45 46/50/45
f 81/93/46 82/94/47 83/95/47
f 82/94/47 81/93/46 84/96/46
f 55/59/29 84/96/48 81/93/48
f 84/96/48 55/59/29 54/58/29
f 8/8/3 85/97/49 6/6/3
f 85/97/49 8/8/3 86/98/49
f 83/95/47 87/99/50 88/100/50
f 87/99/50 83/95/47 82/94/47
f 89/101/51 90/102/52 91/103/51
f 90/102/52 89/101/51 92/104/52
f 93/87/53 90/102/52 92/104/52
f 90/102/52 93/87/53 94/88/53
f 95/105/54 94/106/55 93/107/55
f 94/106/55 95/105/54 96/108/54
f 88/100/50 96/108/54 95/105/54
f 96/108/54 88/100/50 87/99/50
f 76/109/56 67/110/56 69/111/56
f 67/110/56 76/109/56 77/112/56
f 67/110/56 77/112/56 71/113/56
f 71/113/56 77/112/56 64/114/56
f 71/113/56 64/114/56 61/115/56
f 71/113/56 61/115/56 60/116/56
f 71/113/56 60/116/56 74/117/56
f 74/117/56 60/116/56 57/118/56
f 74/117/56 57/118/56 65/119/56
f 74/117/56 65/119/56 47/120/56
f 47/120/56 65/119/56 79/121/56
f 97/122/56 98/123/56 99/124/56
f 98/123/56 97/122/56 100/125/56
f 100/125/56 97/122/56 101/126/56
f 101/126/56 97/122/56 52/127/56
f 101/126/56 52/127/56 38/128/56
f 101/126/56 38/128/56 32/129/56
f 101/126/56 32/129/56 102/130/56
f 102/130/56 32/129/56 29/131/56
f 102/130/56 29/131/56 103/132/56
f 103/132/56 29/131/56 42/133/56
f 103/132/56 42/133/56 104/134/56
f 104/134/56 42/133/56 105/135/56
f 105/135/56 42/133/56 39/136/56
f 105/135/56 39/136/56 106/137/56
f 106/137/56 39/136/56 107/138/56
f 107/138/56 39/136/56 49/139/56
f 107/138/56 49/139/56 45/140/56
f 107/138/56 45/140/56 47/120/56
f 107/138/56 47/120/56 108/141/56
f 108/141/56 47/120/56 79/121/56
f 108/141/56 79/121/56 33/142/56
f 108/141/56 33/142/56 35/143/56
f 108/141/56 35/143/56 44/144/56
f 108/141/56 44/144/56 109/145/56
f 109/145/56 44/144/56 53/146/56
f 109/145/56 53/146/56 55/147/56
f 109/145/56 55/147/56 110/148/56
f 110/148/56 55/147/56 81/149/56
f 111/150/56 112/151/56 113/152/56
f 112/151/56 111/150/56 114/153/56
f 114/153/56 111/150/56 115/154/56
f 114/153/56 115/154/56 116/155/56
f 116/155/56 115/154/56 117/156/56
f 116/155/56 117/156/56 100/125/56
f 100/125/56 117/156/56 98/123/56
f 92/157/56 95/158/56 93/159/56
f 95/158/56 92/157/56 89/160/56
f 95/158/56 89/160/56 88/161/56
f 88/161/56 89/160/56 86/162/56
f 88/161/56 86/162/56 8/163/56
f 88/161/56 8/163/56 5/164/56
f 88/161/56 5/164/56 83/165/56
f 83/165/56 5/164/56 81/149/56
f 81/149/56 5/164/56 110/148/56
f 110/148/56 5/164/56 118/166/56
f 118/166/56 5/164/56 119/167/56
f 119/167/56 5/164/56 120/168/56
f 120/168/56 5/164/56 121/169/56
f 121/169/56 5/164/56 122/170/56
f 122/170/56 5/164/56 123/171/56
f 123/171/56 5/164/56 124/172/56
f 124/172/56 5/164/56 125/173/56
f 125/173/56 5/164/56 22/174/56
f 22/174/56 5/164/56 20/175/56
f 125/173/56 22/174/56 28/176/56
f 125/173/56 28/176/56 12/177/56
f 125/173/56 12/177/56 9/178/56
f 125/173/56 9/178/56 18/179/56
f 125/173/56 18/179/56 126/180/56
f 126/180/56 18/179/56 15/181/56
f 126/180/56 15/181/56 25/182/56
f 126/180/56 25/182/56 127/183/56
f 127/183/56 25/182/56 24/184/56
f 127/183/56 24/184/56 128/185/56
f 128/185/56 24/184/56 129/186/56
f 129/186/56 24/184/56 130/187/56
f 130/187/56 24/184/56 14/188/56
f 130/187/56 14/188/56 131/189/56
f 131/189/56 14/188/56 4/190/56
f 131/189/56 4/190/56 132/191/56
f 132/191/56 4/190/56 133/192/56
f 133/192/56 4/190/56 134/193/56
f 134/193/56 4/190/56 135/194/56
f 135/194/56 4/190/56 1/195/56
f 132/191/56 133/192/56 136/196/56
f 132/191/56 136/196/56 137/197/56
f 137/197/56 136/196/56 138/198/56
f 136/196/56 133/192/56 139/199/56
f 139/199/56 133/192/56 140/200/56
f 139/199/56 140/200/56 141/201/56
f 139/199/56 141/201/56 142/202/56
f 142/202/56 141/201/56 143/203/56
f 140/200/56 133/192/56 144/204/56
f 135/194/56 1/195/56 145/205/56
f 145/205/56 1/195/56 146/206/56
f 146/206/56 1/195/56 147/207/56
f 141/201/56 148/208/56 143/203/56
f 148/208/56 141/201/56 149/209/56
f 148/208/56 149/209/56 150/210/56
f 136/196/56 151/211/56 138/198/56
f 151/211/56 136/196/56 152/212/56
f 153/213/57 154/214/57 155/215/57
f 154/214/57 153/213/57 156/216/57
f 154/214/57 156/216/57 157/217/57
f 157/217/57 156/216/57 158/218/57
f 157/217/57 158/218/57 159/219/57
f 159/219/57 158/218/57 160/220/57
f 159/219/57 160/220/57 161/221/57
f 161/221/57 162/222/57 163/223/57
f 162/222/57 161/221/57 160/220/57
f 162/222/57 160/220/57 164/224/57
f 162/222/57 164/224/57 51/225/57
f 51/225/57 164/224/57 37/226/57
f 37/226/57 164/224/57 30/227/57
f 30/227/57 164/224/57 165/228/57
f 30/227/57 165/228/57 31/229/57
f 31/229/57 165/228/57 166/230/57
f 31/229/57 166/230/57 40/231/57
f 40/231/57 166/230/57 167/232/57
f 40/231/57 167/232/57 168/233/57
f 40/231/57 168/233/57 41/234/57
f 41/234/57 168/233/57 169/235/57
f 41/234/57 169/235/57 170/236/57
f 41/234/57 170/236/57 50/237/57
f 50/237/57 170/236/57 48/238/57
f 48/238/57 170/236/57 46/239/57
f 46/239/57 170/236/57 171/240/57
f 46/239/57 171/240/57 80/241/57
f 80/241/57 171/240/57 36/242/57
f 36/242/57 171/240/57 34/243/57
f 34/243/57 171/240/57 43/244/57
f 43/244/57 171/240/57 172/245/57
f 43/244/57 172/245/57 56/246/57
f 56/246/57 172/245/57 54/247/57
f 54/247/57 172/245/57 173/248/57
f 54/247/57 173/248/57 84/249/57
f 174/211/57 175/250/57 176/251/57
f 175/250/57 174/211/57 177/252/57
f 178/253/57 179/254/57 180/255/57
f 179/254/57 178/253/57 181/256/57
f 181/256/57 178/253/57 182/257/57
f 96/258/57 90/259/57 94/260/57
f 90/259/57 96/258/57 91/261/57
f 91/261/57 96/258/57 87/262/57
f 91/261/57 87/262/57 85/263/57
f 85/263/57 87/262/57 6/264/57
f 6/264/57 87/262/57 7/265/57
f 7/265/57 87/262/57 82/266/57
f 7/265/57 82/266/57 84/249/57
f 7/265/57 84/249/57 173/248/57
f 7/265/57 173/248/57 183/267/57
f 7/265/57 183/267/57 184/268/57
f 7/265/57 184/268/57 185/269/57
f 7/265/57 185/269/57 186/270/57
f 7/265/57 186/270/57 187/271/57
f 7/265/57 187/271/57 188/272/57
f 7/265/57 188/272/57 189/273/57
f 7/265/57 189/273/57 190/274/57
f 7/265/57 190/274/57 19/275/57
f 7/265/57 19/275/57 21/276/57
f 19/275/57 190/274/57 27/277/57
f 27/277/57 190/274/57 10/278/57
f 10/278/57 190/274/57 11/279/57
f 11/279/57 190/274/57 16/280/57
f 16/280/57 190/274/57 191/281/57
f 16/280/57 191/281/57 17/282/57
f 17/282/57 191/281/57 26/283/57
f 26/283/57 191/281/57 192/284/57
f 26/283/57 192/284/57 23/285/57
f 23/285/57 192/284/57 193/286/57
f 23/285/57 193/286/57 194/287/57
f 23/285/57 194/287/57 195/288/57
f 23/285/57 195/288/57 13/289/57
f 13/289/57 195/288/57 196/290/57
f 13/289/57 196/290/57 2/291/57
f 2/291/57 196/290/57 197/292/57
f 2/291/57 197/292/57 198/293/57
f 2/291/57 198/293/57 199/294/57
f 2/291/57 199/294/57 200/295/57
f 2/291/57 200/295/57 3/296/57
f 198/293/57 197/292/57 175/250/57
f 175/250/57 197/292/57 201/297/57
f 175/250/57 201/297/57 176/251/57
f 198/293/57 175/250/57 202/298/57
f 198/293/57 202/298/57 203/299/57
f 203/299/57 202/298/57 179/254/57
f 179/254/57 202/298/57 204/300/57
f 179/254/57 204/300/57 180/255/57
f 198/293/57 203/299/57 205/301/57
f 3/296/57 200/295/57 206/302/57
f 3/296/57 206/302/57 207/303/57
f 3/296/57 207/303/57 208/304/57
f 70/305/57 75/306/57 68/307/57
f 75/306/57 70/305/57 78/308/57
f 78/308/57 70/305/57 73/309/57
f 78/308/57 73/309/57 62/310/57
f 62/310/57 73/309/57 63/311/57
f 63/311/57 73/309/57 58/312/57
f 58/312/57 73/309/57 72/313/57
f 58/312/57 72/313/57 59/314/57
f 59/314/57 72/313/57 66/315/57
f 66/315/57 72/313/57 46/239/57
f 66/315/57 46/239/57 80/241/57
f 126/316/58 192/317/58 191/318/58
f 192/317/58 126/316/58 127/319/58
f 129/319/59 195/320/60 194/317/59
f 195/320/60 129/319/59 130/321/60
f 122/322/61 186/323/61 121/324/61
f 186/323/61 122/322/61 187/325/61
f 124/326/62 190/327/63 189/328/62
f 190/327/63 124/326/62 125/329/63
f 130/321/60 196/330/64 195/320/60
f 196/330/64 130/321/60 131/331/64
f 112/332/65 155/333/66 113/334/66
f 155/333/66 112/332/65 153/335/65
f 122/336/67 188/337/68 187/338/67
f 188/337/68 122/336/67 123/339/68
f 132/340/69 201/341/70 197/342/69
f 201/341/70 132/340/69 137/343/70
f 137/343/70 176/90/71 201/341/70
f 176/90/71 137/343/70 138/89/71
f 103/344/72 167/345/73 166/346/72
f 167/345/73 103/344/72 104/347/73
f 131/331/64 197/342/69 196/330/64
f 197/342/69 131/331/64 132/340/69
f 120/348/74 186/349/75 185/350/74
f 186/349/75 120/348/74 121/351/75
f 106/352/76 170/353/77 169/354/76
f 170/353/77 106/352/76 107/355/77
f 107/355/77 171/356/78 170/353/77
f 171/356/78 107/355/77 108/357/78
f 104/347/73 168/358/79 167/345/73
f 168/358/79 104/347/73 105/359/79
f 108/357/78 172/360/80 171/356/78
f 172/360/80 108/357/78 109/361/80
f 112/362/81 156/363/81 153/364/81
f 156/363/81 112/362/81 114/365/81
f 116/366/82 156/367/82 114/368/82
f 156/367/82 116/366/82 158/369/82
f 184/370/83 120/371/74 185/372/74
f 120/371/74 184/370/83 119/373/83
f 192/374/84 128/375/85 193/376/85
f 128/375/85 192/374/84 127/377/84
f 193/376/85 129/378/59 194/379/59
f 129/378/59 193/376/85 128/375/85
f 102/380/86 166/346/72 165/381/86
f 166/346/72 102/380/86 103/344/72
f 101/382/87 165/381/86 164/383/87
f 165/381/86 101/382/87 102/380/86
f 116/384/88 160/385/89 158/386/88
f 160/385/89 116/384/88 100/387/89
f 100/387/89 164/383/87 160/385/89
f 164/383/87 100/387/89 101/382/87
f 105/359/79 169/354/76 168/358/79
f 169/354/76 105/359/79 106/352/76
f 172/360/80 110/10/90 173/107/90
f 110/10/90 172/360/80 109/361/80
f 113/334/66 154/76/91 111/78/91
f 154/76/91 113/334/66 155/333/66
f 173/388/90 118/389/92 183/390/92
f 118/389/92 173/388/90 110/391/90
f 123/339/68 189/328/62 188/337/68
f 189/328/62 123/339/68 124/326/62
f 125/329/63 191/318/93 190/327/63
f 191/318/93 125/329/63 126/316/93
f 183/390/92 119/373/83 184/370/83
f 119/373/83 183/390/92 118/389/92
f 174/392/94 152/393/95 177/394/95
f 152/393/95 174/392/94 151/395/94
f 198/396/96 134/397/97 199/398/97
f 134/397/97 198/396/96 133/399/96
f 176/400/98 151/395/98 174/392/98
f 151/395/98 176/400/98 138/401/98
f 203/402/99 144/403/100 205/404/100
f 144/403/100 203/402/99 140/405/99
f 135/406/101 206/407/102 200/408/101
f 206/407/102 135/406/101 145/409/102
f 182/410/103 149/411/104 181/412/104
f 149/411/104 182/410/103 150/413/103
f 206/407/102 146/414/105 207/415/105
f 146/414/105 206/407/102 145/409/102
f 142/332/106 180/323/107 204/335/106
f 180/323/107 142/332/106 143/324/107
f 180/416/107 148/417/108 178/418/108
f 148/417/108 180/416/107 143/419/107
f 175/420/109 139/421/110 202/422/110
f 139/421/110 175/420/109 136/423/109
f 207/424/111 147/425/111 208/426/111
f 147/425/111 207/424/111 146/427/111
f 205/404/100 133/399/96 198/396/96
f 133/399/96 205/404/100 144/403/100
f 177/394/95 136/423/109 175/420/109
f 136/423/109 177/394/95 152/393/95
f 181/412/104 141/428/112 179/429/112
f 141/428/112 181/412/104 149/411/104
f 179/429/112 140/405/99 203/402/99
f 140/405/99 179/429/112 141/428/112
f 202/422/110 142/430/106 204/431/106
f 142/430/106 202/422/110 139/421/110
f 208/426/113 1/348/113 3/350/113
f 1/348/113 208/426/113 147/425/113
f 178/418/114 150/413/103 182/410/103
f 150/413/103 178/418/114 148/417/114
f 199/398/97 135/401/101 200/400/101
f 135/401/101 199/398/97 134/397/97
f 111/432/115 157/433/116 115/434/116
f 157/433/116 111/432/115 154/435/115
f 52/56/117 162/436/118 51/55/117
f 162/436/118 52/56/117 97/437/118
f 99/92/119 162/436/118 97/437/118
f 162/436/118 99/92/119 163/91/119
f 98/438/120 163/372/120 99/371/120
f 163/372/120 98/438/120 161/439/120
f 117/368/121 161/439/121 98/438/121
f 161/439/121 117/368/121 159/367/121
f 117/71/122 157/433/116 159/74/122
f 157/433/116 117/71/122 115/434/116
f 86/98/49 91/103/51 85/97/49
f 91/103/51 86/98/49 89/101/51
