# Blender 4.4.1
# www.blender.org
o dino5
v -5.291260 -1.281250 4.000000
v -5.580017 -1.235474 -4.000000
v -5.291260 -1.281250 -4.000000
v -5.580017 -1.235474 4.000000
v -3.983215 -1.327576 4.000000
v -4.557556 -1.177887 -4.000000
v -3.983215 -1.327576 -4.000000
v -4.557556 -1.177887 4.000000
v -5.772217 -1.109131 -4.000000
v -5.772217 -1.109131 4.000000
v -5.885315 -0.955628 4.000000
v -5.885315 -0.955627 -4.000000
v -1.357727 -5.410126 4.000000
v -1.718506 -5.123779 -4.000000
v -1.357727 -5.410126 -4.000000
v -1.718506 -5.123779 4.000000
v -5.875305 -0.227448 4.000000
v -5.919617 -0.557098 -4.000000
v -5.919617 -0.557099 4.000000
v -5.875305 -0.227447 -4.000000
v -2.912842 -9.114838 4.000000
v -2.851379 -9.842224 -4.000000
v -2.851379 -9.842224 4.000000
v -2.912842 -9.114838 -4.000000
v -2.235046 -6.819672 4.000000
v -2.619690 -7.710083 -4.000000
v -2.619690 -7.710083 4.000000
v -2.235046 -6.819672 -4.000000
v 5.414856 -9.971741 4.000000
v 3.984741 -9.599762 -4.000000
v 5.414856 -9.971741 -4.000000
v 3.984741 -9.599762 4.000000
v -2.703247 -3.468262 4.000000
v -2.420959 -4.153351 -4.000000
v -2.420959 -4.153351 4.000000
v -2.703247 -3.468261 -4.000000
v -3.087708 -1.990906 4.000000
v -3.586304 -1.525268 -4.000000
v -3.087708 -1.990906 -4.000000
v -3.586304 -1.525269 4.000000
v -2.184021 -4.602997 4.000000
v -2.184021 -4.602997 -4.000000
v -3.016602 -2.286194 4.000000
v -3.016602 -2.286194 -4.000000
v -5.559814 0.220978 4.000000
v -5.559814 0.220978 -4.000000
v 2.990112 -9.223877 4.000000
v 1.836304 -8.578003 -4.000000
v 2.990112 -9.223877 -4.000000
v 1.836304 -8.578003 4.000000
v 1.582336 -8.447479 -4.000000
v 1.582336 -8.447479 4.000000
v -2.822327 -8.395905 -4.000000
v -2.822327 -8.395905 4.000000
v 1.424438 -8.670135 4.000000
v 1.424438 -8.670135 -4.000000
v -1.357727 -5.435028 4.000000
v -1.357727 -5.435028 -4.000000
v 1.211365 -9.352936 4.000000
v 1.211365 -9.352936 -4.000000
v -8.856262 4.033356 4.000000
v -8.566895 3.431732 -4.000000
v -8.566895 3.431732 4.000000
v -8.856262 4.033356 -4.000000
v -5.335327 3.303802 4.000000
v -6.658203 3.116974 -4.000000
v -5.335327 3.303803 -4.000000
v -6.658203 3.116974 4.000000
v -6.124939 6.540833 4.000000
v -5.124451 7.216248 -4.000000
v -6.124939 6.540833 -4.000000
v -5.124451 7.216248 4.000000
v -4.005859 3.607330 4.000000
v -4.741028 3.503479 -4.000000
v -4.005859 3.607331 -4.000000
v -4.741028 3.503479 4.000000
v -3.635681 3.439728 4.000000
v -3.622498 3.146515 -4.000000
v -3.622498 3.146515 4.000000
v -3.635681 3.439728 -4.000000
v -3.588074 0.574035 4.000000
v -3.294312 0.615448 -4.000000
v -3.588074 0.574036 -4.000000
v -3.294312 0.615448 4.000000
v -2.884705 8.169830 4.000000
v -2.569153 8.223206 -4.000000
v -2.884705 8.169830 -4.000000
v -2.569153 8.223206 4.000000
v -8.403137 3.217621 -4.000000
v -8.403137 3.217621 4.000000
v -7.898682 5.588165 4.000000
v -8.300232 5.172028 -4.000000
v -8.300232 5.172028 4.000000
v -7.898682 5.588165 -4.000000
v -4.042358 7.770020 4.000000
v -4.042358 7.770020 -4.000000
v -4.611816 7.509399 4.000000
v -4.611816 7.509399 -4.000000
v -3.694092 1.835510 4.000000
v -3.585327 1.157623 -4.000000
v -3.585327 1.157623 4.000000
v -3.694092 1.835510 -4.000000
v -3.654297 2.563690 4.000000
v -3.654297 2.563690 -4.000000
v -5.019592 0.510711 4.000000
v -4.314392 0.615936 -4.000000
v -5.019592 0.510712 -4.000000
v -4.314392 0.615936 4.000000
v -8.116943 3.113404 -4.000000
v -8.116943 3.113403 4.000000
v -5.347046 0.383728 -4.000000
v -5.347046 0.383728 4.000000
v -8.733765 4.699341 4.000000
v -8.840942 4.325043 -4.000000
v -8.840942 4.325043 4.000000
v -8.733765 4.699341 -4.000000
v -7.354614 5.937622 -4.000000
v -7.354614 5.937622 4.000000
v -4.941772 7.352386 -4.000000
v -4.941772 7.352386 4.000000
v -1.269287 8.226532 -4.000000
v -1.269287 8.226532 4.000000
v 0.047180 8.238708 -4.000000
v 0.047180 8.238708 4.000000
v 7.671082 -5.627441 -4.000000
v 7.888733 -5.968384 4.000000
v 7.888733 -5.968384 -4.000000
v 7.671082 -5.627441 4.000000
v 6.401855 -4.051605 -4.000000
v 7.160889 -4.996704 4.000000
v 7.160889 -4.996704 -4.000000
v 6.401855 -4.051605 4.000000
v 8.648438 -6.883148 4.000000
v 9.762146 -7.701721 -4.000000
v 8.648438 -6.883148 -4.000000
v 9.762146 -7.701721 4.000000
v 12.991882 -9.540131 -4.000000
v 13.124146 -9.750488 4.000000
v 13.124146 -9.750488 -4.000000
v 12.991882 -9.540131 4.000000
v 13.115295 -9.894775 4.000000
v 13.115295 -9.894775 -4.000000
v 5.819214 -3.119110 -4.000000
v 6.273621 -3.888123 4.000000
v 6.273621 -3.888122 -4.000000
v 5.819214 -3.119110 4.000000
v 11.862244 -9.011444 -4.000000
v 11.862244 -9.011444 4.000000
v 7.259399 -5.094299 -4.000000
v 7.259399 -5.094299 4.000000
v 12.902039 -10.056213 -4.000000
v 12.902039 -10.056213 4.000000
v 12.227539 -10.162048 4.000000
v 10.843323 -10.241425 -4.000000
v 12.227539 -10.162048 -4.000000
v 10.843323 -10.241425 4.000000
v 5.595154 -2.592621 -4.000000
v 5.595154 -2.592621 4.000000
v 6.407471 -10.117706 4.000000
v 6.407471 -10.117706 -4.000000
v 3.731262 6.331360 -4.000000
v 3.661499 6.211731 4.000000
v 3.661499 6.211731 -4.000000
v 3.731262 6.331360 4.000000
v 0.815979 2.685852 4.000000
v 1.910400 1.921265 -4.000000
v 0.815979 2.685852 -4.000000
v 1.910400 1.921265 4.000000
v 3.513489 6.982056 -4.000000
v 3.669861 6.650330 4.000000
v 3.669861 6.650330 -4.000000
v 3.513489 6.982056 4.000000
v -0.570801 5.546356 -4.000000
v -0.612976 5.314392 4.000000
v -0.612976 5.314392 -4.000000
v -0.570801 5.546356 4.000000
v 3.512695 6.132172 -4.000000
v 3.512695 6.132172 4.000000
v 3.421875 0.811829 -4.000000
v 3.829285 0.292114 4.000000
v 3.829285 0.292114 -4.000000
v 3.421875 0.811828 4.000000
v 2.865601 1.281921 4.000000
v 2.865601 1.281922 -4.000000
v 4.530762 -0.681885 4.000000
v 4.530762 -0.681885 -4.000000
v 3.300354 7.252350 4.000000
v 3.384155 7.177704 -4.000000
v 3.300354 7.252350 -4.000000
v 3.384155 7.177704 4.000000
v 1.837219 6.286804 4.000000
v 1.259644 6.408081 -4.000000
v 1.837219 6.286804 -4.000000
v 1.259644 6.408081 4.000000
v 0.236938 6.408417 4.000000
v -0.122375 6.253235 -4.000000
v 0.236938 6.408417 -4.000000
v -0.122375 6.253235 4.000000
v 0.194153 3.043335 4.000000
v 0.194153 3.043335 -4.000000
v 5.160156 -1.884094 4.000000
v 5.160156 -1.884094 -4.000000
v 3.137817 6.035858 -4.000000
v 3.137817 6.035858 4.000000
v 0.529846 6.420837 -4.000000
v 0.529846 6.420837 4.000000
v 1.497925 8.037567 -4.000000
v 1.497925 8.037567 4.000000
v 2.074158 7.886871 -4.000000
v 2.074158 7.886871 4.000000
v 3.724731 6.446777 4.000000
v 3.724731 6.446777 -4.000000
v 2.472961 6.162170 4.000000
v 2.472961 6.162170 -4.000000
v 2.698669 7.557312 4.000000
v 2.698669 7.557312 -4.000000
v 2.846558 6.052643 4.000000
v 2.846558 6.052643 -4.000000
v -0.472046 5.745758 4.000000
v -0.472046 5.745758 -4.000000
v -0.740967 4.589600 4.000000
v -0.740967 4.589600 -4.000000
v -0.166016 3.385834 4.000000
v -0.166016 3.385834 -4.000000
v -2.272705 -9.875610 -4.000000
v 1.126343 -9.970398 -4.000000
v -2.272705 -9.875610 4.000000
v 1.126343 -9.970398 4.000000
vn -0.0086 -1.0000 -0.0000
vn -0.3610 -0.9326 -0.0000
vn -0.3509 -0.9364 -0.0000
vn -0.0575 -0.9983 -0.0000
vn -0.6880 -0.7258 -0.0000
vn -0.8051 -0.5932 -0.0000
vn -0.6217 -0.7833 -0.0000
vn -0.6861 -0.7275 -0.0000
vn -0.9311 0.3647 -0.0000
vn -0.9997 0.0239 -0.0000
vn -0.9311 0.3648 -0.0000
vn -0.9998 0.0205 -0.0000
vn -0.9964 -0.0842 -0.0000
vn -0.8841 0.4673 -0.0000
vn -0.9402 0.3406 -0.0000
vn -0.1989 -0.9800 -0.0000
vn -0.3031 -0.9530 -0.0000
vn -0.9477 -0.3193 -0.0000
vn -0.9056 -0.4240 -0.0000
vn -0.6825 -0.7309 -0.0000
vn -0.5701 -0.8216 -0.0000
vn -0.9963 -0.0858 -0.0000
vn -0.8213 -0.5706 -0.0000
vn -0.9695 -0.2452 -0.0000
vn -0.7211 0.6929 -0.0000
vn -0.4222 -0.9065 -0.0000
vn -0.4729 -0.8811 -0.0000
vn -0.4571 -0.8894 -0.0000
vn -0.9788 0.2048 -0.0000
vn 0.8157 -0.5785 -0.0000
vn 0.8962 -0.4436 -0.0000
vn -0.8447 0.5352 -0.0000
vn 0.9760 -0.2179 -0.0000
vn -1.0000 -0.0000 -0.0000
vn -0.9722 -0.2341 -0.0000
vn -0.9805 -0.1966 -0.0000
vn -0.8522 -0.5232 -0.0000
vn 0.2301 -0.9732 -0.0000
vn 0.0713 -0.9975 -0.0000
vn -0.5012 0.8654 -0.0000
vn -0.5787 0.8155 -0.0000
vn 0.1399 -0.9902 -0.0000
vn 0.2302 -0.9732 -0.0000
vn -0.9990 -0.0449 -0.0000
vn -1.0000 0.0048 -0.0000
vn -0.0412 0.9992 -0.0000
vn -0.1396 0.9902 -0.0000
vn -0.2475 0.9689 -0.0000
vn -0.0850 0.9964 -0.0000
vn -0.7943 -0.6075 -0.0000
vn -0.6343 0.7731 -0.0000
vn -0.7283 0.6852 -0.0000
vn -0.3717 0.9283 -0.0000
vn -0.4229 0.9062 -0.0000
vn -0.9986 -0.0522 -0.0000
vn -0.9474 -0.3201 -0.0000
vn -0.9985 0.0545 -0.0000
vn -0.2561 0.9666 -0.0000
vn -0.0452 0.9990 -0.0000
vn -0.1725 -0.9850 -0.0000
vn -0.4895 0.8720 -0.0000
vn -0.4894 0.8720 -0.0000
vn -0.4125 -0.9110 -0.0000
vn -0.3422 -0.9396 -0.0000
vn -0.8725 0.4887 -0.0000
vn -0.9863 0.1649 -0.0000
vn -0.4912 0.8710 -0.0000
vn -0.5161 0.8565 -0.0000
vn -0.0059 1.0000 -0.0000
vn 0.0642 0.9979 -0.0000
vn -0.8811 -0.4729 -0.0000
vn 0.8180 0.5752 -0.0000
vn 0.8077 0.5896 -0.0000
vn 0.7833 0.6217 -0.0000
vn 0.7429 0.6694 -0.0000
vn 0.6859 0.7277 -0.0000
vn 0.5611 0.8277 -0.0000
vn 0.8466 0.5323 -0.0000
vn 0.9981 -0.0612 -0.0000
vn 0.8925 0.4511 -0.0000
vn 0.8257 0.5642 -0.0000
vn 0.4774 0.8787 -0.0000
vn 0.4239 0.9057 -0.0000
vn 0.7493 0.6622 -0.0000
vn 0.6036 -0.7973 -0.0000
vn 0.3911 -0.9204 -0.0000
vn 0.1063 -0.9943 -0.0000
vn 0.0147 -0.9999 -0.0000
vn 0.8886 0.4587 -0.0000
vn -0.0868 -0.9962 -0.0000
vn 0.8638 -0.5038 -0.0000
vn 0.5361 0.8442 -0.0000
vn 0.5645 0.8254 -0.0000
vn 0.8716 0.4902 -0.0000
vn 0.9387 0.3447 -0.0000
vn 0.9493 -0.3144 -0.0000
vn 0.9843 -0.1764 -0.0000
vn 0.4715 -0.8819 -0.0000
vn 0.3628 -0.9319 -0.0000
vn 0.7200 0.6940 -0.0000
vn 0.7994 0.6008 -0.0000
vn 0.6018 0.7987 -0.0000
vn 0.8508 0.5254 -0.0000
vn 0.5633 0.8262 -0.0000
vn 0.7560 0.6546 -0.0000
vn -0.1120 -0.9937 -0.0000
vn 0.2231 -0.9748 -0.0000
vn 0.3965 -0.9180 -0.0000
vn 0.5980 0.8015 -0.0000
vn 0.8696 0.4938 -0.0000
vn 0.0968 -0.9953 -0.0000
vn 0.0125 -0.9999 -0.0000
vn 0.1955 0.9807 -0.0000
vn 0.3622 0.9321 -0.0000
vn 0.9872 0.1592 -0.0000
vn -0.2371 -0.9715 -0.0000
vn 0.4594 0.8882 -0.0000
vn -0.1705 -0.9854 -0.0000
vn 0.8235 -0.5674 -0.0000
vn 0.8620 -0.5069 -0.0000
vn 0.9848 -0.1739 -0.0000
vn 0.9024 0.4310 -0.0000
vn 0.8092 0.5876 -0.0000
vn 0.9984 0.0565 -0.0000
vn -0.0000 -0.0000 -1.0000
vn -0.0000 -0.0000 1.0000
vn -0.0427 -0.9991 -0.0000
vn -0.0576 -0.9983 -0.0000
vn -0.0279 -0.9996 -0.0000
vn 0.9907 -0.1364 -0.0000
vt 0.945435 0.200085
vt 0.952730 0.400170
vt 0.945435 0.400170
vt 0.952730 0.200085
vt 0.912749 0.200085
vt 0.927393 0.400170
vt 0.912749 0.400170
vt 0.927393 0.200085
vt 0.957803 0.400170
vt 0.957803 0.200085
vt 0.958962 0.000000
vt 0.955104 0.200085
vt 0.955104 0.000000
vt 0.958962 0.200085
vt 0.988335 0.000000
vt 0.997969 0.200085
vt 0.988335 0.200085
vt 0.997969 0.000000
vt 0.977172 0.000000
vt 0.968935 0.200085
vt 0.968935 0.000000
vt 0.977172 0.200085
vt 0.713435 0.000000
vt 0.695232 0.200085
vt 0.695232 0.000000
vt 0.713435 0.200085
vt 0.770725 0.000000
vt 0.748519 0.200085
vt 0.748519 0.000000
vt 0.770725 0.200085
vt 0.000000 0.698736
vt 0.200085 0.662274
vt 0.200085 0.698736
vt 0.000000 0.662274
vt 0.847400 0.000000
vt 0.830220 0.200085
vt 0.830220 0.000000
vt 0.847400 0.200085
vt 0.888944 0.200085
vt 0.902416 0.400170
vt 0.888944 0.400170
vt 0.902416 0.200085
vt 0.818935 0.000000
vt 0.805833 0.200085
vt 0.805833 0.000000
vt 0.818935 0.200085
vt 0.877016 0.000000
vt 0.877016 0.200085
vt 0.000000 0.636650
vt 0.200085 0.606451
vt 0.200085 0.636650
vt 0.000000 0.606451
vt 0.200085 0.599830
vt 0.000000 0.599830
vt 0.731400 0.200085
vt 0.731400 0.000000
vt 0.957803 0.400170
vt 0.963619 0.200085
vt 0.963619 0.400170
vt 0.957803 0.200085
vt 0.805211 0.000000
vt 0.805211 0.200085
vt 0.981009 0.200085
vt 0.981009 0.400170
vt 0.805833 0.000000
vt 0.805833 0.200085
vt 0.884412 0.000000
vt 0.884412 0.200085
vt 0.957667 0.599830
vt 0.942573 0.799915
vt 0.942573 0.599830
vt 0.957667 0.799915
vt 0.581032 0.599830
vt 0.613560 0.799915
vt 0.581032 0.799915
vt 0.613560 0.599830
vt 0.200085 0.835589
vt 0.400170 0.812015
vt 0.400170 0.835589
vt 0.200085 0.812015
vt 0.548603 0.599830
vt 0.566680 0.799915
vt 0.548603 0.799915
vt 0.566680 0.599830
vt 0.947769 0.200085
vt 0.947769 0.000000
vt 0.448608 0.799915
vt 0.455847 1.000000
vt 0.448608 1.000000
vt 0.455847 0.799915
vt 0.200085 0.758112
vt 0.400170 0.750354
vt 0.400170 0.758112
vt 0.200085 0.750354
vt 0.937191 0.799915
vt 0.937191 0.599830
vt 0.996395 0.599830
vt 0.986054 0.799915
vt 0.986054 0.599830
vt 0.996395 0.799915
vt 0.200085 0.786161
vt 0.400170 0.786161
vt 0.200085 0.799830
vt 0.400170 0.799830
vt 0.914992 0.000000
vt 0.898020 0.200085
vt 0.898020 0.000000
vt 0.914992 0.200085
vt 0.933197 0.000000
vt 0.933197 0.200085
vt 0.413050 0.799915
vt 0.430417 1.000000
vt 0.413050 1.000000
vt 0.430417 0.799915
vt 0.649887 0.799915
vt 0.649887 0.599830
vt 0.400170 0.799915
vt 0.405144 1.000000
vt 0.400170 1.000000
vt 0.405144 0.799915
vt 0.539004 0.599830
vt 0.539004 0.799915
vt 0.657251 0.799915
vt 0.657251 0.599830
vt 0.974303 0.599830
vt 0.964960 0.799915
vt 0.964960 0.599830
vt 0.974303 0.799915
vt 0.200085 0.877877
vt 0.400170 0.865021
vt 0.400170 0.877877
vt 0.200085 0.865021
vt 0.400170 0.807737
vt 0.200085 0.807737
vt 0.400170 0.717957
vt 0.200085 0.717957
vt 0.400170 0.685164
vt 0.200085 0.685164
vt 0.468478 1.000000
vt 0.476630 0.799915
vt 0.476630 1.000000
vt 0.468478 0.799915
vt 0.516661 0.799915
vt 0.516661 0.599830
vt 0.686671 0.799915
vt 0.686671 0.599830
vt 0.521867 1.000000
vt 0.526900 0.799915
vt 0.526900 1.000000
vt 0.521867 0.799915
vt 0.530516 0.799915
vt 0.530516 1.000000
vt 0.498214 0.799915
vt 0.498214 1.000000
vt 0.494344 0.799915
vt 0.512791 0.599830
vt 0.512791 0.799915
vt 0.494344 0.599830
vt 0.741675 0.799915
vt 0.741675 0.599830
vt 0.770906 0.799915
vt 0.770906 0.599830
vt 0.999048 0.799915
vt 0.999048 0.599830
vt -0.000000 0.890367
vt 0.200085 0.885420
vt 0.200085 0.890367
vt -0.000000 0.885420
vt -0.000000 0.868859
vt 0.200085 0.834560
vt 0.200085 0.868859
vt -0.000000 0.834560
vt 0.481572 0.799915
vt 0.481572 0.599830
vt 0.000000 0.723790
vt 0.200085 0.723790
vt 0.455847 1.000000
vt 0.455847 0.799915
vt 0.518767 1.000000
vt 0.521867 0.799915
vt 0.521867 1.000000
vt 0.518767 0.799915
vt 0.796803 0.599830
vt 0.825633 0.799915
vt 0.796803 0.799915
vt 0.825633 0.599830
vt 0.502885 1.000000
vt 0.510907 0.799915
vt 0.510907 1.000000
vt 0.502885 0.799915
vt 0.883934 0.799915
vt 0.889793 0.599830
vt 0.889793 0.799915
vt 0.883934 0.599830
vt 0.794600 0.200085
vt 0.798127 0.400170
vt 0.794600 0.400170
vt 0.798127 0.200085
vt 0.400170 0.799915
vt 0.412472 0.599830
vt 0.412472 0.799915
vt 0.400170 0.599830
vt 0.850739 0.599830
vt 0.865558 0.799915
vt 0.850739 0.799915
vt 0.865558 0.599830
vt 0.435631 0.599830
vt 0.435631 0.799915
vt 0.200085 0.602070
vt 0.400170 0.599830
vt 0.400170 0.602070
vt 0.200085 0.599830
vt 0.840210 0.200085
vt 0.854870 0.400170
vt 0.840210 0.400170
vt 0.854870 0.200085
vt 0.880345 0.200085
vt 0.880345 0.400170
vt 0.780578 0.599830
vt 0.780578 0.799915
vt 0.464602 0.599830
vt 0.464602 0.799915
vt 0.807247 0.400170
vt 0.807247 0.200085
vt 0.873077 0.400170
vt 0.873077 0.200085
vt 0.400170 0.648592
vt 0.200085 0.648592
vt 0.400170 0.633922
vt 0.200085 0.633922
vt 0.515897 0.799915
vt 0.515897 1.000000
vt 0.824093 0.200085
vt 0.824093 0.400170
vt 0.200085 0.617687
vt 0.400170 0.617687
vt 0.814540 0.200085
vt 0.814540 0.400170
vt 0.865558 0.799915
vt 0.878796 0.599830
vt 0.878796 0.799915
vt 0.865558 0.599830
vt 0.908091 0.599830
vt 0.908091 0.799915
vt 0.770906 0.599830
vt 0.770906 0.799915
vt 0.498214 1.000000
vt 0.498214 0.799915
vt 0.301038 0.582745
vt 0.306222 0.559957
vt 0.305004 0.576610
vt 0.294051 0.589528
vt 0.278760 0.594379
vt 0.305338 0.553274
vt 0.300429 0.547449
vt 0.264868 0.598402
vt 0.268748 0.529355
vt 0.248715 0.599203
vt 0.214532 0.596968
vt 0.237730 0.516928
vt 0.184420 0.599153
vt 0.222354 0.513855
vt 0.178763 0.599830
vt 0.169651 0.599125
vt 0.205116 0.506950
vt 0.154054 0.597684
vt 0.123967 0.591934
vt 0.199176 0.498704
vt 0.202542 0.492180
vt 0.226511 0.448583
vt 0.226953 0.433199
vt 0.254939 0.374099
vt 0.257076 0.366809
vt 0.265005 0.337270
vt 0.116458 0.589161
vt 0.267416 0.318895
vt 0.088226 0.573041
vt 0.267879 0.306192
vt 0.264270 0.289098
vt 0.260013 0.278394
vt 0.260323 0.277854
vt 0.110268 0.501708
vt 0.122072 0.487583
vt 0.106463 0.506213
vt 0.059523 0.556906
vt 0.101838 0.509308
vt 0.087933 0.515958
vt 0.078207 0.514847
vt 0.030565 0.534472
vt 0.071700 0.511468
vt 0.056031 0.502101
vt 0.045015 0.492276
vt 0.019945 0.524026
vt 0.032780 0.481653
vt 0.010506 0.509099
vt 0.026042 0.474624
vt 0.001255 0.494990
vt 0.019934 0.470632
vt 0.010604 0.468051
vt 0.000368 0.492327
vt 0.000000 0.486473
vt 0.006386 0.467923
vt 0.000741 0.477331
vt 0.003383 0.469648
vt 0.002086 0.472233
vt 0.328970 0.231883
vt 0.347616 0.200878
vt 0.339888 0.217419
vt 0.335482 0.192945
vt 0.316032 0.244233
vt 0.296598 0.258753
vt 0.262945 0.148548
vt 0.124598 0.454314
vt 0.121053 0.442399
vt 0.112020 0.426900
vt 0.097809 0.396685
vt 0.253409 0.160881
vt 0.240283 0.173035
vt 0.234085 0.175897
vt 0.230203 0.169903
vt 0.213225 0.141522
vt 0.085057 0.370921
vt 0.078848 0.353796
vt 0.196336 0.120980
vt 0.076486 0.337449
vt 0.073406 0.307587
vt 0.169953 0.095098
vt 0.074731 0.273674
vt 0.074123 0.252889
vt 0.150244 0.079568
vt 0.075822 0.238679
vt 0.075546 0.216341
vt 0.074802 0.211198
vt 0.070113 0.181246
vt 0.055581 0.021628
vt 0.069192 0.177902
vt 0.066432 0.151106
vt 0.066905 0.161211
vt 0.061350 0.121803
vt 0.047393 0.090177
vt 0.018162 0.035611
vt 0.024572 0.006107
vt 0.000248 0.010074
vt 0.008625 -0.000000
vt 0.001989 0.000845
vt 0.000000 0.003864
vt 0.293429 0.447069
vt 0.302717 0.431401
vt 0.298497 0.440472
vt 0.302176 0.426663
vt 0.281001 0.452865
vt 0.299582 0.421529
vt 0.293890 0.416939
vt 0.274359 0.453744
vt 0.265676 0.452419
vt 0.276690 0.410041
vt 0.249071 0.445916
vt 0.266098 0.399641
vt 0.233840 0.435960
vt 0.259953 0.390409
vt 0.210492 0.479936
vt 0.220426 0.464639
vt 0.468721 0.448583
vt 0.484741 0.479936
vt 0.474807 0.464639
vt 0.492690 0.492180
vt 0.392515 0.431401
vt 0.401803 0.447069
vt 0.396736 0.440472
vt 0.393056 0.426663
vt 0.414231 0.452865
vt 0.395651 0.421529
vt 0.401343 0.416939
vt 0.420873 0.453744
vt 0.429557 0.452419
vt 0.418543 0.410041
vt 0.446162 0.445916
vt 0.429134 0.399641
vt 0.461392 0.435960
vt 0.435280 0.390409
vt 0.468279 0.433199
vt 0.440293 0.374099
vt 0.389010 0.559957
vt 0.394195 0.582745
vt 0.390229 0.576610
vt 0.401182 0.589528
vt 0.416472 0.594379
vt 0.389895 0.553274
vt 0.394803 0.547448
vt 0.430365 0.598402
vt 0.426485 0.529355
vt 0.446517 0.599203
vt 0.480700 0.596968
vt 0.457502 0.516928
vt 0.510812 0.599153
vt 0.472879 0.513855
vt 0.516470 0.599830
vt 0.525582 0.599125
vt 0.490116 0.506950
vt 0.541178 0.597684
vt 0.571266 0.591934
vt 0.496057 0.498704
vt 0.438157 0.366809
vt 0.430228 0.337270
vt 0.578774 0.589161
vt 0.427816 0.318895
vt 0.607007 0.573041
vt 0.427354 0.306192
vt 0.430962 0.289098
vt 0.435220 0.278394
vt 0.347616 0.200878
vt 0.366263 0.231883
vt 0.355344 0.217419
vt 0.359751 0.192945
vt 0.379201 0.244233
vt 0.398634 0.258753
vt 0.432288 0.148548
vt 0.434910 0.277854
vt 0.573160 0.487583
vt 0.570635 0.454314
vt 0.574180 0.442399
vt 0.583213 0.426900
vt 0.597424 0.396685
vt 0.441823 0.160881
vt 0.454950 0.173035
vt 0.461148 0.175897
vt 0.465030 0.169903
vt 0.482008 0.141522
vt 0.610176 0.370921
vt 0.616384 0.353796
vt 0.498897 0.120980
vt 0.618746 0.337449
vt 0.621827 0.307587
vt 0.525279 0.095098
vt 0.620501 0.273674
vt 0.621109 0.252889
vt 0.544988 0.079568
vt 0.619410 0.238679
vt 0.619686 0.216341
vt 0.620431 0.211198
vt 0.625120 0.181246
vt 0.639651 0.021628
vt 0.626040 0.177902
vt 0.628801 0.151106
vt 0.628328 0.161211
vt 0.633882 0.121803
vt 0.647839 0.090177
vt 0.677071 0.035611
vt 0.670660 0.006107
vt 0.694984 0.010074
vt 0.686607 -0.000000
vt 0.693243 0.000845
vt 0.695232 0.003864
vt 0.588769 0.506213
vt 0.635710 0.556906
vt 0.584965 0.501708
vt 0.593395 0.509308
vt 0.607300 0.515958
vt 0.617026 0.514847
vt 0.664668 0.534472
vt 0.623533 0.511468
vt 0.639202 0.502101
vt 0.650217 0.492276
vt 0.675288 0.524026
vt 0.662453 0.481653
vt 0.684727 0.509099
vt 0.669191 0.474624
vt 0.693977 0.494990
vt 0.675298 0.470632
vt 0.684628 0.468051
vt 0.694865 0.492327
vt 0.695232 0.486473
vt 0.688847 0.467923
vt 0.694492 0.477331
vt 0.691850 0.469648
vt 0.693146 0.472233
vt 0.780111 0.200085
vt 0.794600 0.400170
vt 0.780111 0.400170
vt 0.794600 0.200085
vt 0.695232 0.400170
vt 0.996558 0.200085
vt 0.996558 0.400170
s 1
f 1/1/1 2/2/2 3/3/1
f 2/2/2 1/1/1 4/4/2
f 5/5/3 6/6/4 7/7/3
f 6/6/4 5/5/3 8/8/4
f 4/4/2 9/9/5 2/2/2
f 9/9/5 4/4/2 10/10/5
f 11/11/6 9/12/5 10/13/5
f 9/12/5 11/11/6 12/14/6
f 13/15/7 14/16/8 15/17/7
f 14/16/8 13/15/7 16/18/8
f 17/19/9 18/20/10 19/21/10
f 18/20/10 17/19/9 20/22/11
f 21/23/12 22/24/13 23/25/13
f 22/24/13 21/23/12 24/26/12
f 25/27/14 26/28/15 27/29/15
f 26/28/15 25/27/14 28/30/14
f 29/31/16 30/32/17 31/33/16
f 30/32/17 29/31/16 32/34/17
f 33/35/18 34/36/19 35/37/19
f 34/36/19 33/35/18 36/38/18
f 37/39/20 38/40/21 39/41/20
f 38/40/21 37/39/20 40/42/21
f 19/21/10 12/14/22 11/11/22
f 12/14/22 19/21/10 18/20/10
f 41/43/23 14/44/8 16/45/8
f 14/44/8 41/43/23 42/46/23
f 43/47/24 36/38/18 33/35/18
f 36/38/18 43/47/24 44/48/24
f 45/15/25 20/22/11 17/19/9
f 20/22/11 45/15/25 46/17/25
f 47/49/26 48/50/27 49/51/26
f 48/50/27 47/49/26 50/52/27
f 50/52/27 51/53/28 48/50/27
f 51/53/28 50/52/27 52/54/28
f 8/8/4 3/3/1 6/6/4
f 3/3/1 8/8/4 1/1/1
f 27/29/15 53/55/29 54/56/29
f 53/55/29 27/29/15 26/28/15
f 51/57/30 55/58/31 56/59/31
f 55/58/31 51/57/30 52/60/30
f 57/61/32 28/30/14 25/27/14
f 28/30/14 57/61/32 58/62/32
f 56/59/31 59/63/33 60/64/33
f 59/63/33 56/59/31 55/58/31
f 32/34/17 49/51/26 30/32/17
f 49/51/26 32/34/17 47/49/26
f 54/56/29 24/26/12 21/23/12
f 24/26/12 54/56/29 53/55/29
f 13/65/34 58/62/34 57/61/34
f 58/62/34 13/65/34 15/66/34
f 35/37/19 42/46/23 41/43/23
f 42/46/23 35/37/19 34/36/19
f 37/67/35 44/48/24 43/47/24
f 44/48/24 37/67/35 39/68/35
f 40/42/21 7/7/3 38/40/21
f 7/7/3 40/42/21 5/5/3
f 61/69/36 62/70/37 63/71/37
f 62/70/37 61/69/36 64/72/36
f 65/73/38 66/74/39 67/75/38
f 66/74/39 65/73/38 68/76/39
f 69/77/40 70/78/41 71/79/40
f 70/78/41 69/77/40 72/80/41
f 73/81/42 74/82/43 75/83/42
f 74/82/43 73/81/42 76/84/43
f 77/13/44 78/85/45 79/86/45
f 78/85/45 77/13/44 80/12/44
f 81/87/46 82/88/47 83/89/46
f 82/88/47 81/87/46 84/90/47
f 85/91/48 86/92/49 87/93/48
f 86/92/49 85/91/48 88/94/49
f 63/71/37 89/95/50 90/96/50
f 89/95/50 63/71/37 62/70/37
f 91/97/51 92/98/52 93/99/52
f 92/98/52 91/97/51 94/100/51
f 95/101/53 87/93/48 96/102/53
f 87/93/48 95/101/53 85/91/48
f 97/103/54 96/102/53 98/104/54
f 96/102/53 97/103/54 95/101/53
f 99/105/55 100/106/56 101/107/56
f 100/106/56 99/105/55 102/108/55
f 103/109/57 102/108/55 99/105/55
f 102/108/55 103/109/57 104/110/57
f 105/111/58 106/112/59 107/113/58
f 106/112/59 105/111/58 108/114/59
f 68/76/39 109/115/60 66/74/39
f 109/115/60 68/76/39 110/116/60
f 45/117/25 111/118/61 46/119/25
f 111/118/61 45/117/25 112/120/62
f 77/121/63 75/83/63 80/122/63
f 75/83/63 77/121/63 73/81/63
f 110/116/60 89/123/64 109/115/60
f 89/123/64 110/116/60 90/124/64
f 113/125/65 114/126/66 115/127/66
f 114/126/66 113/125/65 116/128/65
f 91/129/51 117/130/67 94/131/51
f 117/130/67 91/129/51 118/132/67
f 118/132/67 71/79/40 117/130/67
f 71/79/40 118/132/67 69/77/40
f 76/84/43 67/75/38 74/82/43
f 67/75/38 76/84/43 65/73/38
f 93/99/52 116/128/65 113/125/65
f 116/128/65 93/99/52 92/98/52
f 115/127/66 64/72/36 61/69/36
f 64/72/36 115/127/66 114/126/66
f 112/120/62 107/113/58 111/118/61
f 107/113/58 112/120/62 105/111/58
f 108/114/59 83/89/46 106/112/59
f 83/89/46 108/114/59 81/87/46
f 79/86/45 104/110/57 103/109/57
f 104/110/57 79/86/45 78/85/45
f 72/80/41 119/133/68 70/78/41
f 119/133/68 72/80/41 120/134/68
f 120/134/68 98/104/54 119/133/68
f 98/104/54 120/134/68 97/103/54
f 88/94/49 121/135/69 86/92/49
f 121/135/69 88/94/49 122/136/69
f 122/136/69 123/137/70 121/135/69
f 123/137/70 122/136/69 124/138/70
f 101/107/56 82/68/71 84/67/71
f 82/68/71 101/107/56 100/106/56
f 125/139/72 126/140/73 127/141/73
f 126/140/73 125/139/72 128/142/72
f 129/143/74 130/121/75 131/122/75
f 130/121/75 129/143/74 132/144/74
f 133/124/76 134/145/77 135/123/76
f 134/145/77 133/124/76 136/146/77
f 137/147/78 138/148/78 139/149/78
f 138/148/78 137/147/78 140/150/78
f 139/149/79 141/151/79 142/152/79
f 141/151/79 139/149/79 138/148/79
f 127/141/73 133/153/76 135/154/76
f 133/153/76 127/141/73 126/140/73
f 143/155/80 144/156/81 145/157/81
f 144/156/81 143/155/80 146/158/80
f 136/146/77 147/159/82 134/145/77
f 147/159/82 136/146/77 148/160/82
f 148/160/82 137/161/83 147/159/82
f 137/161/83 148/160/82 140/162/83
f 130/97/75 149/163/84 131/100/75
f 149/163/84 130/97/75 150/164/84
f 141/165/85 151/166/86 142/167/85
f 151/166/86 141/165/85 152/168/86
f 153/169/87 154/170/88 155/171/87
f 154/170/88 153/169/87 156/172/88
f 157/173/89 146/158/80 143/155/80
f 146/158/80 157/173/89 158/174/89
f 152/168/86 155/171/87 151/166/86
f 155/171/87 152/168/86 153/169/87
f 159/175/90 31/33/16 160/176/90
f 31/33/16 159/175/90 29/31/16
f 149/177/84 128/142/72 125/139/72
f 128/142/72 149/177/84 150/178/84
f 145/157/81 132/144/74 129/143/74
f 132/144/74 145/157/81 144/156/81
f 161/179/91 162/180/91 163/181/91
f 162/180/91 161/179/91 164/182/91
f 165/183/92 166/184/93 167/185/92
f 166/184/93 165/183/92 168/186/93
f 169/187/94 170/188/95 171/189/95
f 170/188/95 169/187/94 172/190/94
f 173/191/96 174/192/97 175/193/97
f 174/192/97 173/191/96 176/194/96
f 162/195/98 177/196/99 163/197/98
f 177/196/99 162/195/98 178/198/99
f 179/199/100 180/200/101 181/201/101
f 180/200/101 179/199/100 182/202/100
f 183/203/102 179/204/100 184/205/102
f 179/204/100 183/203/102 182/206/100
f 181/201/101 185/207/103 186/208/103
f 185/207/103 181/201/101 180/200/101
f 187/209/104 188/210/105 189/211/104
f 188/210/105 187/209/104 190/212/105
f 191/213/16 192/214/106 193/215/16
f 192/214/106 191/213/16 194/216/106
f 168/186/93 184/205/102 166/184/93
f 184/205/102 168/186/93 183/203/102
f 195/217/107 196/41/108 197/218/107
f 196/41/108 195/217/107 198/39/108
f 199/219/109 167/185/92 200/220/109
f 167/185/92 199/219/109 165/183/92
f 186/208/103 201/221/110 202/222/110
f 201/221/110 186/208/103 185/207/103
f 178/198/99 203/223/111 177/196/99
f 203/223/111 178/198/99 204/224/111
f 194/216/106 205/225/112 192/214/106
f 205/225/112 194/216/106 206/226/112
f 124/138/70 207/227/113 123/137/70
f 207/227/113 124/138/70 208/228/113
f 208/228/113 209/229/114 207/227/113
f 209/229/114 208/228/113 210/230/114
f 171/189/95 211/231/115 212/232/115
f 211/231/115 171/189/95 170/188/95
f 213/233/116 193/215/16 214/234/116
f 193/215/16 213/233/116 191/213/16
f 206/226/112 197/218/107 205/225/112
f 197/218/107 206/226/112 195/217/107
f 215/235/117 189/211/104 216/236/117
f 189/211/104 215/235/117 187/209/104
f 217/237/118 214/234/116 218/238/118
f 214/234/116 217/237/118 213/233/116
f 196/239/119 219/240/120 220/241/120
f 219/240/120 196/239/119 198/242/119
f 175/193/97 221/243/121 222/244/121
f 221/243/121 175/193/97 174/192/97
f 222/244/122 223/96/123 224/95/123
f 223/96/123 222/244/122 221/243/122
f 220/241/120 176/194/96 173/191/96
f 176/194/96 220/241/120 219/240/120
f 223/245/123 200/220/109 224/246/123
f 200/220/109 223/245/123 199/219/109
f 210/230/114 216/236/117 209/229/114
f 216/236/117 210/230/114 215/235/117
f 212/232/115 164/182/124 161/179/124
f 164/182/124 212/232/115 211/231/115
f 204/224/111 218/238/118 203/223/111
f 218/238/118 204/224/111 217/237/118
f 188/247/105 172/190/94 169/187/94
f 172/190/94 188/247/105 190/248/105
f 202/222/110 158/174/89 157/173/89
f 158/174/89 202/222/110 201/221/110
f 114/249/125 62/250/125 64/251/125
f 62/250/125 114/249/125 116/252/125
f 62/250/125 116/252/125 92/253/125
f 62/250/125 92/253/125 89/254/125
f 89/254/125 92/253/125 109/255/125
f 109/255/125 92/253/125 94/256/125
f 109/255/125 94/256/125 66/257/125
f 66/257/125 94/256/125 117/258/125
f 66/257/125 117/258/125 71/259/125
f 66/257/125 71/259/125 67/260/125
f 67/260/125 71/259/125 70/261/125
f 67/260/125 70/261/125 74/262/125
f 74/262/125 70/261/125 119/263/125
f 74/262/125 119/263/125 98/264/125
f 74/262/125 98/264/125 75/265/125
f 75/265/125 98/264/125 96/266/125
f 75/265/125 96/266/125 87/267/125
f 75/265/125 87/267/125 80/268/125
f 80/268/125 87/267/125 78/269/125
f 78/269/125 87/267/125 100/270/125
f 100/270/125 87/267/125 82/271/125
f 82/271/125 87/267/125 39/272/125
f 39/272/125 87/267/125 44/273/125
f 44/273/125 87/267/125 36/274/125
f 36/274/125 87/267/125 86/275/125
f 36/274/125 86/275/125 34/276/125
f 34/276/125 86/275/125 121/277/125
f 34/276/125 121/277/125 42/278/125
f 42/278/125 121/277/125 14/279/125
f 14/279/125 121/277/125 15/280/125
f 15/280/125 121/277/125 58/281/125
f 121/277/125 175/282/125 222/283/125
f 175/282/125 121/277/125 173/284/125
f 173/284/125 121/277/125 123/285/125
f 173/284/125 123/285/125 220/286/125
f 220/286/125 123/285/125 196/287/125
f 196/287/125 123/285/125 197/288/125
f 197/288/125 123/285/125 207/289/125
f 197/288/125 207/289/125 205/290/125
f 205/290/125 207/289/125 192/291/125
f 192/291/125 207/289/125 193/292/125
f 193/292/125 207/289/125 209/293/125
f 193/292/125 209/293/125 214/294/125
f 214/294/125 209/293/125 216/295/125
f 214/294/125 216/295/125 218/296/125
f 218/296/125 216/295/125 189/297/125
f 218/296/125 189/297/125 203/298/125
f 203/298/125 189/297/125 177/299/125
f 177/299/125 189/297/125 188/300/125
f 177/299/125 188/300/125 169/301/125
f 177/299/125 169/301/125 163/302/125
f 163/302/125 169/301/125 171/303/125
f 163/302/125 171/303/125 161/304/125
f 161/304/125 171/303/125 212/305/125
f 53/306/125 22/307/125 24/308/125
f 22/307/125 53/306/125 225/309/125
f 225/309/125 53/306/125 26/310/125
f 225/309/125 26/310/125 28/311/125
f 225/309/125 28/311/125 226/312/125
f 226/312/125 28/311/125 58/281/125
f 226/312/125 58/281/125 121/277/125
f 226/312/125 121/277/125 222/283/125
f 226/312/125 222/283/125 224/313/125
f 226/312/125 224/313/125 200/314/125
f 226/312/125 200/314/125 167/315/125
f 226/312/125 167/315/125 166/316/125
f 226/312/125 166/316/125 60/317/125
f 60/317/125 166/316/125 56/318/125
f 56/318/125 166/316/125 51/319/125
f 51/319/125 166/316/125 48/320/125
f 48/320/125 166/316/125 49/321/125
f 49/321/125 166/316/125 184/322/125
f 49/321/125 184/322/125 179/323/125
f 49/321/125 179/323/125 30/324/125
f 30/324/125 179/323/125 181/325/125
f 30/324/125 181/325/125 186/326/125
f 30/324/125 186/326/125 31/327/125
f 31/327/125 186/326/125 202/328/125
f 31/327/125 202/328/125 157/329/125
f 31/327/125 157/329/125 160/330/125
f 160/330/125 157/329/125 143/331/125
f 160/330/125 143/331/125 145/332/125
f 160/330/125 145/332/125 129/333/125
f 160/330/125 129/333/125 131/334/125
f 160/330/125 131/334/125 154/335/125
f 154/335/125 131/334/125 149/336/125
f 154/335/125 149/336/125 127/337/125
f 127/337/125 149/336/125 125/338/125
f 154/335/125 127/337/125 135/339/125
f 154/335/125 135/339/125 134/340/125
f 154/335/125 134/340/125 147/341/125
f 154/335/125 147/341/125 155/342/125
f 155/342/125 147/341/125 137/343/125
f 155/342/125 137/343/125 151/344/125
f 151/344/125 137/343/125 142/345/125
f 142/345/125 137/343/125 139/346/125
f 20/347/125 12/348/125 18/349/125
f 12/348/125 20/347/125 9/350/125
f 9/350/125 20/347/125 46/351/125
f 9/350/125 46/351/125 2/352/125
f 2/352/125 46/351/125 3/353/125
f 3/353/125 46/351/125 111/354/125
f 3/353/125 111/354/125 107/355/125
f 3/353/125 107/355/125 6/356/125
f 6/356/125 107/355/125 106/357/125
f 6/356/125 106/357/125 7/358/125
f 7/358/125 106/357/125 83/359/125
f 7/358/125 83/359/125 38/360/125
f 38/360/125 83/359/125 82/271/125
f 38/360/125 82/271/125 39/272/125
f 104/361/125 100/270/125 102/362/125
f 100/270/125 104/361/125 78/269/125
f 101/363/126 103/364/126 99/365/126
f 103/364/126 101/363/126 79/366/126
f 11/367/126 17/368/126 19/369/126
f 17/368/126 11/367/126 10/370/126
f 17/368/126 10/370/126 45/371/126
f 45/371/126 10/370/126 4/372/126
f 45/371/126 4/372/126 1/373/126
f 45/371/126 1/373/126 112/374/126
f 112/374/126 1/373/126 105/375/126
f 105/375/126 1/373/126 8/376/126
f 105/375/126 8/376/126 108/377/126
f 108/377/126 8/376/126 5/378/126
f 108/377/126 5/378/126 81/379/126
f 81/379/126 5/378/126 40/380/126
f 81/379/126 40/380/126 84/381/126
f 84/381/126 40/380/126 37/382/126
f 63/383/126 115/384/126 61/385/126
f 115/384/126 63/383/126 113/386/126
f 113/386/126 63/383/126 93/387/126
f 93/387/126 63/383/126 90/388/126
f 93/387/126 90/388/126 110/389/126
f 93/387/126 110/389/126 91/390/126
f 91/390/126 110/389/126 68/391/126
f 91/390/126 68/391/126 118/392/126
f 118/392/126 68/391/126 69/393/126
f 69/393/126 68/391/126 65/394/126
f 69/393/126 65/394/126 72/395/126
f 72/395/126 65/394/126 76/396/126
f 72/395/126 76/396/126 120/397/126
f 120/397/126 76/396/126 97/398/126
f 97/398/126 76/396/126 73/399/126
f 97/398/126 73/399/126 95/400/126
f 95/400/126 73/399/126 85/401/126
f 85/401/126 73/399/126 77/402/126
f 85/401/126 77/402/126 79/366/126
f 85/401/126 79/366/126 101/363/126
f 85/401/126 101/363/126 84/381/126
f 85/401/126 84/381/126 37/382/126
f 85/401/126 37/382/126 43/403/126
f 85/401/126 43/403/126 33/404/126
f 85/401/126 33/404/126 88/405/126
f 88/405/126 33/404/126 35/406/126
f 88/405/126 35/406/126 122/407/126
f 122/407/126 35/406/126 41/408/126
f 122/407/126 41/408/126 16/409/126
f 122/407/126 16/409/126 13/410/126
f 23/411/126 54/412/126 21/413/126
f 54/412/126 23/411/126 227/414/126
f 54/412/126 227/414/126 27/415/126
f 27/415/126 227/414/126 25/416/126
f 25/416/126 227/414/126 228/417/126
f 25/416/126 228/417/126 57/418/126
f 57/418/126 228/417/126 13/410/126
f 13/410/126 228/417/126 122/407/126
f 122/407/126 228/417/126 221/419/126
f 221/419/126 228/417/126 223/420/126
f 223/420/126 228/417/126 199/421/126
f 199/421/126 228/417/126 165/422/126
f 165/422/126 228/417/126 168/423/126
f 168/423/126 228/417/126 59/424/126
f 168/423/126 59/424/126 55/425/126
f 168/423/126 55/425/126 52/426/126
f 168/423/126 52/426/126 50/427/126
f 168/423/126 50/427/126 47/428/126
f 168/423/126 47/428/126 183/429/126
f 183/429/126 47/428/126 182/430/126
f 182/430/126 47/428/126 32/431/126
f 182/430/126 32/431/126 180/432/126
f 180/432/126 32/431/126 185/433/126
f 185/433/126 32/431/126 29/434/126
f 185/433/126 29/434/126 201/435/126
f 201/435/126 29/434/126 158/436/126
f 158/436/126 29/434/126 159/437/126
f 158/436/126 159/437/126 146/438/126
f 146/438/126 159/437/126 144/439/126
f 144/439/126 159/437/126 132/440/126
f 132/440/126 159/437/126 130/441/126
f 130/441/126 159/437/126 156/442/126
f 130/441/126 156/442/126 150/443/126
f 150/443/126 156/442/126 126/444/126
f 150/443/126 126/444/126 128/445/126
f 126/444/126 156/442/126 133/446/126
f 133/446/126 156/442/126 136/447/126
f 136/447/126 156/442/126 148/448/126
f 148/448/126 156/442/126 153/449/126
f 148/448/126 153/449/126 140/450/126
f 140/450/126 153/449/126 152/451/126
f 140/450/126 152/451/126 141/452/126
f 140/450/126 141/452/126 138/453/126
f 122/407/126 176/454/126 124/455/126
f 176/454/126 122/407/126 174/456/126
f 174/456/126 122/407/126 221/419/126
f 124/455/126 176/454/126 219/457/126
f 124/455/126 219/457/126 198/458/126
f 124/455/126 198/458/126 195/459/126
f 124/455/126 195/459/126 208/460/126
f 208/460/126 195/459/126 206/461/126
f 208/460/126 206/461/126 194/462/126
f 208/460/126 194/462/126 191/463/126
f 208/460/126 191/463/126 210/464/126
f 210/464/126 191/463/126 213/465/126
f 210/464/126 213/465/126 215/466/126
f 215/466/126 213/465/126 217/467/126
f 215/466/126 217/467/126 187/468/126
f 187/468/126 217/467/126 204/469/126
f 187/468/126 204/469/126 178/470/126
f 187/468/126 178/470/126 190/471/126
f 190/471/126 178/470/126 172/472/126
f 172/472/126 178/470/126 162/473/126
f 172/472/126 162/473/126 170/474/126
f 170/474/126 162/473/126 164/475/126
f 170/474/126 164/475/126 211/476/126
f 227/477/127 22/478/128 225/479/127
f 22/478/128 227/477/127 23/480/128
f 156/172/88 160/176/90 154/170/88
f 160/176/90 156/172/88 159/175/90
f 228/24/129 225/479/127 226/481/129
f 225/479/127 228/24/129 227/477/127
f 60/64/33 228/482/130 226/483/130
f 228/482/130 60/64/33 59/63/33
