# Blender 4.4.1
# www.blender.org
o dino3
v -14.272675 -4.514435 4.021377
v -14.035400 -4.741058 -3.978624
v -14.272675 -4.514435 -3.978624
v -14.035400 -4.741058 4.021377
v -13.897156 -4.969391 -3.978624
v -13.897156 -4.969391 4.021377
v -8.528137 -5.993683 4.021376
v -8.056549 -4.964600 4.021377
v -8.570801 -5.566589 4.021376
v -8.391113 -6.221466 4.021376
v -7.629700 -6.372375 4.021376
v -7.828583 -4.828705 4.021377
v -7.701294 -0.094208 4.021377
v 4.052277 3.112030 4.021377
v 4.144684 3.714996 4.021377
v 4.048279 3.445953 4.021377
v 4.058319 2.611480 4.021377
v -9.028534 2.879852 4.021377
v -8.988892 4.050354 4.021377
v -9.047699 3.714874 4.021377
v -8.876678 2.048370 4.021377
v -8.692078 4.156006 4.021377
v -8.712189 0.652466 4.021377
v -8.104614 0.164459 4.021377
v -8.034027 4.468933 4.021377
v -7.803528 4.573456 4.021377
v -7.338806 4.615173 4.021377
v -4.335358 -6.313904 4.021376
v -6.542267 4.696289 4.021377
v -4.846558 4.726379 4.021377
v -4.547302 4.731720 4.021377
v -4.381073 4.734650 4.021377
v -4.143280 4.471008 4.021377
v -3.747314 -6.040405 4.021376
v -3.765198 3.808624 4.021377
v -3.423828 3.313324 4.021377
v -3.127808 -5.667480 4.021376
v -3.286743 3.081939 4.021377
v -3.152130 2.984161 4.021377
v -2.853912 3.022857 4.021377
v -2.376068 -5.292023 4.021377
v -2.522491 3.062134 4.021377
v -2.356476 3.065063 4.021377
v -0.735504 -4.768738 4.021377
v -2.190460 3.068023 4.021377
v -1.740356 7.904114 4.021377
v -1.250824 8.552734 4.021377
v -1.088440 8.825287 4.021377
v -0.956085 8.895050 4.021377
v -0.687561 8.798676 4.021377
v 0.914703 -4.805359 4.021377
v 0.757812 8.083130 4.021377
v 1.464111 7.658081 4.021377
v 1.641693 -4.891296 4.021377
v 2.138428 7.098328 4.021377
v 2.238495 -5.111298 4.021377
v 3.248779 6.244690 4.021377
v 3.034119 -5.426453 4.021377
v 3.222290 3.097290 4.021377
v 3.444214 3.936584 4.021377
v 3.418152 6.012787 4.021377
v 3.489746 5.611572 4.021377
v 3.533447 4.774658 4.021377
v -2.910339 4.325562 4.021377
v -2.485962 6.680206 4.021377
v -3.058319 5.160126 4.021377
v -2.602386 3.829254 4.021377
v -2.192780 3.201568 4.021377
v -14.347748 -4.185822 4.021377
v -14.125732 -3.851746 4.021377
v -14.352295 -4.020844 4.021377
v -13.472504 -3.575928 4.021377
v -10.629181 -5.010254 4.021377
v -13.409973 -3.442658 4.021377
v -13.179077 -2.181549 4.021377
v -12.681427 -2.238953 4.021377
v -12.515259 -2.269104 4.021377
v -12.496124 -0.770142 4.021377
v -11.218414 -1.218872 4.021377
v -10.850403 -1.378143 4.021377
v -10.802094 -0.647400 4.021377
v -10.487946 0.055694 4.021377
v -8.980835 -4.948029 4.021377
v -10.226959 0.226532 4.021377
v -9.857849 0.033661 4.021377
v -9.034637 -1.180115 4.021377
v -8.581909 -0.707581 4.021377
v -8.159180 -4.801605 4.021377
v -7.929443 -0.264374 4.021377
v -12.551758 -2.137299 4.021377
v -12.618469 -0.845612 4.021377
v -12.629974 -1.674896 4.021377
v -13.511719 -3.345307 4.021377
v -13.657196 -2.215760 4.021377
v -13.657196 -2.851959 4.021377
v 3.224426 2.930420 4.021377
v 3.697906 -5.776672 4.021376
v 3.358032 2.866028 4.021377
v 3.791595 2.706848 4.021377
v 4.182983 -6.088226 4.021376
v 4.702454 4.326843 4.021377
v 7.342590 -4.295685 4.021377
v 8.017517 -5.996002 4.021376
v 5.855072 5.351868 4.021377
v 6.119080 5.557648 4.021377
v 7.306488 -3.966461 4.021377
v 6.583160 5.733551 4.021377
v 6.915863 5.739441 4.021377
v 7.251099 5.477173 4.021377
v 7.874878 -4.780670 4.021377
v 8.210938 -5.499146 4.021376
v 8.280518 -5.925568 4.021376
v 8.279114 -5.761139 4.021376
v 8.983551 -3.177338 4.021377
v 8.423950 0.524322 4.021377
v 8.157959 -3.191986 4.021377
v 8.624878 0.261993 4.021377
v 8.790497 0.264953 4.021377
v 8.987610 0.467834 4.021377
v 9.809143 -3.162689 4.021377
v 9.118286 0.702881 4.021377
v 9.614502 0.811462 4.021377
v 10.276489 0.922973 4.021377
v 10.470734 -3.316101 4.021377
v 11.105530 0.837921 4.021377
v 11.132355 -3.502503 4.021377
v 11.769684 0.583710 4.021377
v 11.795227 -3.952790 4.021377
v 12.101501 0.489868 4.021377
v 12.126801 -4.243744 4.021377
v 12.467529 0.164093 4.021377
v 12.456726 -4.237885 4.021377
v 12.852478 -4.197876 4.021377
v 13.000244 -0.457276 4.021377
v 13.082397 -3.962921 4.021377
v 13.133820 -0.720307 4.021377
v 14.366760 -3.180908 4.021377
v 13.498932 -0.979126 4.021377
v 14.096008 -1.399353 4.021377
v 14.328064 -1.560883 4.021377
v 14.594116 -2.019654 4.021377
v 14.729462 -3.009278 4.021377
v 14.827515 -2.677063 4.021377
v 7.994324 4.184540 4.021377
v 7.404572 -3.865723 4.021377
v 7.600494 -3.631226 4.021377
v 7.827728 -3.197876 4.021377
v 8.453156 0.990417 4.021377
v 8.701111 3.094391 4.021377
v 8.616638 1.259521 4.021377
v 9.043610 1.766540 4.021377
v 9.038086 2.466369 4.021377
v 9.139709 2.201446 4.021377
v -13.440918 -2.285553 -3.978624
v -13.511719 -3.345306 -3.978624
v -13.657196 -2.851959 -3.978624
v -13.409973 -3.442657 -3.978624
v -13.179077 -2.181549 -3.978624
v -12.618469 -0.845611 -3.978624
v -12.551758 -2.137298 -3.978624
v -12.629974 -1.674896 -3.978624
v -12.496124 -0.770141 -3.978624
v -12.515259 -2.269104 -3.978624
v -14.125732 -3.851745 -3.978624
v -14.347748 -4.185822 -3.978624
v -14.352295 -4.020844 -3.978624
v -13.472504 -3.575927 -3.978624
v -13.935516 -4.772278 -3.978624
v -10.629181 -5.010254 -3.978624
v -12.681427 -2.238952 -3.978624
v -11.218414 -1.218872 -3.978624
v -10.850403 -1.378143 -3.978624
v -10.802094 -0.647400 -3.978624
v -10.487946 0.055695 -3.978624
v -8.980835 -4.948029 -3.978624
v -10.226959 0.226532 -3.978624
v -9.857849 0.033661 -3.978624
v -9.034637 -1.180115 -3.978624
v -8.581909 -0.707580 -3.978624
v -8.159180 -4.801605 -3.978624
v -7.929443 -0.264374 -3.978624
v -7.828583 -4.828705 -3.978624
v -7.701294 -0.094208 -3.978624
v -2.485962 6.680206 -3.978623
v -2.910339 4.325562 -3.978623
v -3.058319 5.160126 -3.978623
v -2.602386 3.829254 -3.978623
v -2.192780 3.201569 -3.978623
v -1.740356 7.904114 -3.978623
v -2.190460 3.068024 -3.978623
v -8.056549 -4.964600 -3.978624
v -8.528137 -5.993683 -3.978624
v -8.570801 -5.566589 -3.978624
v -8.391113 -6.221466 -3.978624
v -7.629700 -6.372375 -3.978624
v -8.988892 4.050354 -3.978623
v -9.028534 2.879853 -3.978623
v -9.047699 3.714875 -3.978623
v -8.876678 2.048371 -3.978624
v -8.692078 4.156006 -3.978623
v -8.712189 0.652466 -3.978624
v -8.104614 0.164459 -3.978624
v -8.034027 4.468933 -3.978623
v -7.803528 4.573456 -3.978623
v -7.338806 4.615173 -3.978623
v -4.335358 -6.313904 -3.978624
v -6.542267 4.696289 -3.978623
v -4.846558 4.726379 -3.978623
v -4.547302 4.731720 -3.978623
v -4.381073 4.734650 -3.978623
v -4.143280 4.471008 -3.978623
v -3.747314 -6.040405 -3.978624
v -3.765198 3.808625 -3.978623
v -3.423828 3.313324 -3.978623
v -3.127808 -5.667480 -3.978624
v -3.286743 3.081940 -3.978623
v -3.152130 2.984162 -3.978623
v -2.853912 3.022858 -3.978623
v -2.376068 -5.292023 -3.978624
v -2.522491 3.062134 -3.978623
v -2.356476 3.065064 -3.978623
v -0.735504 -4.768738 -3.978624
v -1.250824 8.552734 -3.978623
v -1.088440 8.825287 -3.978623
v -0.956085 8.895050 -3.978623
v -0.687561 8.798676 -3.978623
v 0.914703 -4.805359 -3.978624
v 0.757812 8.083130 -3.978623
v 1.464111 7.658081 -3.978623
v 1.641693 -4.891296 -3.978624
v 2.138428 7.098328 -3.978623
v 2.238495 -5.111298 -3.978624
v 3.248779 6.244690 -3.978623
v 3.034119 -5.426453 -3.978624
v 3.222290 3.097290 -3.978623
v 3.444214 3.936585 -3.978623
v 3.418152 6.012787 -3.978623
v 3.489746 5.611572 -3.978623
v 3.533447 4.774658 -3.978623
v 7.994324 4.184540 -3.978623
v 7.306488 -3.966461 -3.978624
v 7.251099 5.477173 -3.978623
v 7.404572 -3.865722 -3.978624
v 7.600494 -3.631225 -3.978624
v 7.827728 -3.197876 -3.978624
v 8.157959 -3.191986 -3.978624
v 8.453156 0.990418 -3.978624
v 8.701111 3.094391 -3.978623
v 8.423950 0.524323 -3.978624
v 8.616638 1.259522 -3.978624
v 9.043610 1.766541 -3.978624
v 9.038086 2.466370 -3.978624
v 9.139709 2.201447 -3.978624
v 8.983551 -3.177337 -3.978624
v 8.624878 0.261994 -3.978624
v 8.790497 0.264954 -3.978624
v 8.987610 0.467835 -3.978624
v 9.809143 -3.162689 -3.978624
v 9.118286 0.702881 -3.978624
v 9.614502 0.811463 -3.978624
v 10.276489 0.922974 -3.978624
v 10.470734 -3.316101 -3.978624
v 11.105530 0.837921 -3.978624
v 11.132355 -3.502502 -3.978624
v 11.769684 0.583710 -3.978624
v 11.795227 -3.952789 -3.978624
v 12.101501 0.489868 -3.978624
v 12.126801 -4.243744 -3.978624
v 12.467529 0.164093 -3.978624
v 12.456726 -4.237885 -3.978624
v 12.852478 -4.197876 -3.978624
v 13.000244 -0.457275 -3.978624
v 13.082397 -3.962921 -3.978624
v 13.133820 -0.720306 -3.978624
v 14.366760 -3.180908 -3.978624
v 13.498932 -0.979126 -3.978624
v 14.096008 -1.399353 -3.978624
v 14.328064 -1.560882 -3.978624
v 14.594116 -2.019653 -3.978624
v 14.729462 -3.009277 -3.978624
v 14.827515 -2.677063 -3.978624
v 4.144684 3.714997 -3.978623
v 4.052277 3.112030 -3.978623
v 4.048279 3.445954 -3.978623
v 4.058319 2.611481 -3.978624
v 3.224426 2.930420 -3.978623
v 3.697906 -5.776672 -3.978624
v 3.358032 2.866028 -3.978623
v 3.791595 2.706848 -3.978624
v 4.182983 -6.088226 -3.978624
v 4.702454 4.326843 -3.978623
v 7.342590 -4.295685 -3.978624
v 8.017517 -5.996002 -3.978624
v 5.855072 5.351868 -3.978623
v 6.119080 5.557648 -3.978623
v 6.583160 5.733551 -3.978623
v 6.915863 5.739441 -3.978623
v 7.874878 -4.780670 -3.978624
v 8.210938 -5.499146 -3.978624
v 8.280518 -5.925568 -3.978624
v 8.279114 -5.761139 -3.978624
v 4.192627 -6.094421 1.544291
v -13.657196 -2.215759 -3.978624
vn 0.6907 0.7232 -0.0000
vn 0.7798 0.6260 -0.0000
vn -0.7712 -0.6366 -0.0000
vn 0.8554 0.5179 -0.0000
vn -0.0000 -0.0000 -1.0000
vn -0.0000 -0.0000 1.0000
vn -0.0001 -0.0000 1.0000
vn -0.0001 -0.0000 -1.0000
vn -0.5477 0.8367 -0.0000
vn -0.5250 0.8511 -0.0000
vn -0.6455 0.7637 -0.0000
vn -0.5800 0.8146 -0.0000
vn 0.1466 0.9892 -0.0000
vn 0.1785 0.9839 -0.0000
vn -0.5979 0.8016 -0.0000
vn -0.9999 0.0139 -0.0000
vn -0.9970 -0.0768 -0.0000
vn -0.9130 0.4079 -0.0000
vn -0.9706 0.2407 -0.0000
vn 0.3645 0.9312 -0.0000
vn 0.3972 0.9177 -0.0000
vn -0.5399 -0.8418 -0.0000
vn -0.5839 -0.8119 -0.0000
vn -0.6262 -0.7796 -0.0000
vn -0.9889 -0.1484 -0.0000
vn -0.9931 -0.1170 -0.0000
vn -0.9761 -0.2171 -0.0000
vn -0.9978 0.0660 -0.0000
vn 0.0217 0.9998 -0.0000
vn -0.9637 -0.2669 -0.0000
vn -0.7221 0.6918 -0.0000
vn 0.4631 0.8863 -0.0000
vn 0.6655 0.7464 -0.0000
vn 0.8276 0.5613 -0.0000
vn 0.0126 -0.9999 -0.0000
vn -0.0125 -0.9999 -0.0000
vn -0.0178 0.9998 -0.0000
vn -0.0177 0.9998 -0.0000
vn 0.7426 0.6698 -0.0000
vn 0.8102 0.5861 -0.0000
vn 0.8424 0.5389 -0.0000
vn 0.7393 0.6733 -0.0000
vn -0.1287 0.9917 -0.0000
vn -0.1232 0.9924 -0.0000
vn -0.9998 -0.0174 -0.0000
vn -0.8436 -0.5369 -0.0000
vn -0.8375 -0.5465 -0.0000
vn -0.9948 -0.1016 -0.0000
vn -0.9972 0.0752 -0.0000
vn -0.3353 0.9421 -0.0000
vn -0.3829 0.9238 -0.0000
vn -0.9846 -0.1746 -0.0000
vn -0.9340 -0.3573 -0.0000
vn -0.8299 0.5580 -0.0000
vn -0.8271 0.5620 -0.0000
vn -0.8591 0.5118 -0.0000
vn -0.4663 0.8846 -0.0000
vn 0.3914 0.9202 -0.0000
vn 0.4801 0.8772 -0.0000
vn 0.5788 0.8155 -0.0000
vn -0.0954 0.9954 -0.0000
vn -0.0596 0.9982 -0.0000
vn 0.3378 0.9412 -0.0000
vn -0.4212 0.9070 -0.0000
vn -0.9850 0.1727 -0.0000
vn -0.2548 0.9670 -0.0000
vn 0.5877 0.8091 -0.0000
vn -0.0678 0.9977 -0.0000
vn -0.0677 0.9977 -0.0000
vn 0.8467 0.5321 -0.0000
vn -0.8989 0.4382 -0.0000
vn -0.9359 0.3524 -0.0000
vn -0.0176 0.9998 -0.0000
vn 0.9935 0.1141 -0.0000
vn 0.9996 -0.0269 -0.0000
vn -0.8569 0.5155 -0.0000
vn -0.9862 0.1653 -0.0000
vn 0.7158 0.6984 -0.0000
vn 0.9196 0.3928 -0.0000
vn -0.9999 -0.0120 -0.0000
vn -0.9999 -0.0121 -0.0000
vn 0.3899 0.9209 -0.0000
vn 0.3407 0.9402 -0.0000
vn 0.4342 0.9008 -0.0000
vn 0.9834 -0.1813 -0.0000
vn 0.9925 -0.1225 -0.0000
vn 0.3367 0.9416 -0.0000
vn 0.6242 0.7813 -0.0000
vn 0.9999 0.0128 -0.0000
vn -0.5404 -0.8414 -0.0000
vn -0.5040 -0.8637 -0.0000
vn 0.1428 -0.9898 0.0003
vn 0.0247 -0.9997 -0.0003
vn 0.1424 -0.9898 -0.0000
vn 0.0240 -0.9997 0.0026
vn 0.0257 -0.9997 -0.0000
vn 0.2246 -0.9744 -0.0000
vn -0.0888 -0.9960 -0.0000
vn 0.3314 0.9435 -0.0000
vn -0.0714 0.9975 -0.0000
vn -0.0714 0.9974 -0.0000
vn -1.0000 -0.0000 -0.0000
vn -0.9897 -0.1429 -0.0000
vn 0.7555 0.6551 -0.0000
vn 0.8533 0.5214 -0.0000
vn 0.6162 0.7876 -0.0000
vn 0.9764 -0.2158 -0.0000
vn 0.8966 -0.4428 -0.0000
vn 0.8122 -0.5834 -0.0000
vn 0.9541 -0.2996 -0.0000
vn 0.9980 -0.0625 -0.0000
vn 0.8609 0.5088 -0.0000
vn -0.8740 0.4859 -0.0000
vn -0.8026 0.5965 -0.0000
vn -0.6400 0.7684 -0.0000
vn -0.4901 0.8717 -0.0000
vn 0.4807 0.8769 -0.0000
vn 0.7136 0.7005 -0.0000
vn -0.2138 0.9769 -0.0000
vn -0.1900 0.9818 -0.0000
vn 0.8313 0.5558 -0.0000
vn 0.7570 0.6534 -0.0000
vn 0.2318 0.9728 -0.0000
vn 0.3151 0.9491 -0.0000
vn 0.5769 0.8168 -0.0000
vn 0.5734 0.8193 -0.0000
vn 0.7357 0.6773 -0.0000
vn 0.9076 0.4199 -0.0000
vn -0.7027 0.7114 -0.0000
vn -0.7027 0.7115 -0.0000
vn -0.0179 0.9998 -0.0000
vn -0.1889 0.9820 -0.0000
vn 0.9424 0.3346 -0.0000
vn -0.0323 0.9995 -0.0000
vn 0.9591 -0.2831 -0.0000
vn -0.7172 0.6968 -0.0000
vn 0.9092 0.4163 -0.0000
vn 0.7939 0.6081 -0.0000
vn 0.9337 0.3582 -0.0000
vn -0.4220 -0.9066 -0.0000
vn -0.2486 -0.9686 -0.0000
vn 0.4745 -0.8802 -0.0000
vn 0.6222 -0.7828 -0.0000
vn -0.1049 -0.9945 -0.0000
vn 0.0177 -0.9998 -0.0000
vn 0.1006 -0.9949 -0.0000
vn 0.0592 -0.9982 -0.0000
vn 0.0178 -0.9998 -0.0000
vn 0.8856 -0.4644 -0.0000
vn 0.8312 -0.5559 -0.0000
vn 0.7425 -0.6699 -0.0000
vn -0.6596 -0.7516 -0.0000
vn -0.6119 -0.7909 -0.0000
vn 0.4277 -0.9039 -0.0000
vn 0.7147 -0.6994 -0.0000
vn 0.3765 -0.9264 -0.0000
vn 0.4817 -0.8764 -0.0000
vn 0.9407 0.3392 -0.0000
vn 0.9914 0.1312 -0.0000
vn -0.0699 -0.9976 -0.0000
vn 0.1428 -0.9898 -0.0000
vn 0.4694 -0.8830 -0.0000
vn 0.9940 0.1090 -0.0000
vn -0.1944 -0.9809 -0.0000
vn 0.7165 -0.6976 -0.0000
vn -0.2333 -0.9724 -0.0000
vn -0.3571 -0.9341 -0.0000
vn -0.9950 -0.0994 -0.0000
vn -0.9491 -0.3151 -0.0000
vn -0.6448 0.7644 -0.0000
vn -0.7603 0.6495 -0.0000
vn 0.0473 -0.9989 -0.0000
vn 0.1068 -0.9943 -0.0000
vn 0.2587 -0.9660 -0.0000
vn 0.6735 0.7392 -0.0000
vn 0.8053 0.5929 -0.0000
vn -0.5120 0.8590 -0.0000
vn -0.4181 -0.9084 -0.0000
vn -0.0817 -0.9967 -0.0000
vn 1.0000 0.0085 -0.0000
vn -0.8569 -0.5155 -0.0000
vn -0.5981 0.8014 -0.0000
vn -0.4972 0.8676 -0.0000
vn -0.9053 0.4248 -0.0000
vn -0.6913 -0.7225 -0.0000
vn -0.8540 -0.5202 -0.0000
vn -0.3890 0.9212 -0.0000
vn -0.9921 -0.1257 -0.0000
vn -0.9749 -0.2227 -0.0000
vn -0.9996 -0.0276 -0.0000
vt 0.967078 0.794237
vt 0.974737 0.992796
vt 0.967078 0.992796
vt 0.974737 0.794237
vt 0.907687 0.794237
vt 0.896432 0.992796
vt 0.896432 0.794237
vt 0.907687 0.992796
vt 0.980164 0.794237
vt 0.980164 0.992796
vt 0.039465 0.010687
vt 0.050993 0.001660
vt 0.045219 0.007403
vt 0.710939 0.010687
vt 0.705185 0.007403
vt 0.699411 0.001660
vt 0.739782 0.143247
vt 0.714549 0.155605
vt 0.729157 0.142462
vt 0.745521 0.146502
vt 0.749751 0.165297
vt 0.711323 0.161348
vt 0.593934 0.167530
vt 0.521886 0.461203
vt 0.506985 0.463881
vt 0.513599 0.461317
vt 0.534310 0.461033
vt 0.519295 0.136498
vt 0.490278 0.138229
vt 0.498564 0.136555
vt 0.540022 0.139735
vt 0.487846 0.145661
vt 0.574762 0.142925
vt 0.587258 0.157688
vt 0.480502 0.162188
vt 0.478056 0.167974
vt 0.477317 0.179531
vt 0.750404 0.247073
vt 0.475813 0.199346
vt 0.476150 0.241439
vt 0.476208 0.248867
vt 0.476242 0.252993
vt 0.482935 0.258725
vt 0.743994 0.261838
vt 0.499611 0.267683
vt 0.512118 0.275837
vt 0.735136 0.277447
vt 0.517947 0.279090
vt 0.520459 0.282368
vt 0.519689 0.289792
vt 0.726300 0.296339
vt 0.518926 0.298040
vt 0.518960 0.302161
vt 0.714364 0.337378
vt 0.518992 0.306282
vt 0.399288 0.320538
vt 0.383507 0.333098
vt 0.376848 0.337301
vt 0.375202 0.340630
vt 0.377765 0.347231
vt 0.716327 0.378299
vt 0.396441 0.382636
vt 0.407439 0.399889
vt 0.718923 0.396282
vt 0.421758 0.416263
vt 0.724763 0.410949
vt 0.443647 0.443267
vt 0.733091 0.430489
vt 0.521722 0.440600
vt 0.501040 0.446642
vt 0.449509 0.447322
vt 0.459509 0.448842
vt 0.480303 0.449392
vt 0.487331 0.289224
vt 0.429179 0.301257
vt 0.466529 0.286085
vt 0.499842 0.296548
vt 0.515677 0.306310
vt 0.691209 0.000007
vt 0.683062 0.005729
vt 0.687113 0.000000
vt 0.676636 0.022113
vt 0.714039 0.091745
vt 0.673369 0.023750
vt 0.642226 0.030284
vt 0.643968 0.042595
vt 0.644823 0.046699
vt 0.607643 0.048130
vt 0.619593 0.079546
vt 0.623779 0.088575
vt 0.605679 0.090241
vt 0.588435 0.098484
vt 0.713548 0.132683
vt 0.584363 0.105069
vt 0.589384 0.114104
vt 0.620025 0.133754
vt 0.608590 0.145289
vt 0.710440 0.153163
vt 0.598010 0.161760
vt 0.641529 0.045877
vt 0.609437 0.045047
vt 0.630006 0.044232
vt 0.670889 0.021287
vt 0.642770 0.018399
vt 0.658555 0.017993
vt 0.525864 0.440547
vt 0.742204 0.446735
vt 0.527547 0.443821
vt 0.531773 0.454476
vt 0.750244 0.458571
vt 0.492160 0.478111
vt 0.707785 0.538111
vt 0.750404 0.553772
vt 0.467463 0.507364
vt 0.462526 0.514045
vt 0.699594 0.537426
vt 0.458458 0.525672
vt 0.458524 0.533931
vt 0.465246 0.542081
vt 0.720159 0.551008
vt 0.738200 0.558888
vt 0.748824 0.560342
vt 0.744744 0.560412
vt 0.681085 0.579540
vt 0.588883 0.568019
vt 0.680921 0.559047
vt 0.595520 0.572837
vt 0.595553 0.576948
vt 0.590645 0.581969
vt 0.681249 0.600034
vt 0.584896 0.585361
vt 0.582519 0.597742
vt 0.580175 0.614238
vt 0.685478 0.616351
vt 0.582815 0.634754
vt 0.690525 0.632648
vt 0.589546 0.651070
vt 0.702121 0.648808
vt 0.592086 0.659243
vt 0.709551 0.656849
vt 0.600403 0.668117
vt 0.709617 0.665038
vt 0.708877 0.674883
vt 0.616161 0.680938
vt 0.703194 0.680738
vt 0.622772 0.684084
vt 0.684611 0.713104
vt 0.629427 0.692978
vt 0.640235 0.707524
vt 0.644391 0.713179
vt 0.655943 0.719487
vt 0.680584 0.722213
vt 0.672404 0.724858
vt 0.497793 0.559697
vt 0.697157 0.539924
vt 0.691464 0.544934
vt 0.680857 0.550849
vt 0.577337 0.569041
vt 0.525293 0.576537
vt 0.570765 0.573270
vt 0.558457 0.584187
vt 0.541090 0.584497
vt 0.547728 0.586849
vt 0.105764 0.023721
vt 0.079515 0.021287
vt 0.091849 0.017993
vt 0.077035 0.023750
vt 0.108178 0.030284
vt 0.140967 0.045047
vt 0.108875 0.045877
vt 0.120398 0.044232
vt 0.142761 0.048130
vt 0.105581 0.046699
vt 0.067342 0.005729
vt 0.059195 0.000007
vt 0.063291 0.000000
vt 0.073768 0.022113
vt 0.044380 0.009861
vt 0.036365 0.091745
vt 0.106436 0.042595
vt 0.130811 0.079546
vt 0.126625 0.088575
vt 0.144725 0.090241
vt 0.161969 0.098484
vt 0.036856 0.132683
vt 0.166041 0.105069
vt 0.161020 0.114104
vt 0.130379 0.133754
vt 0.141814 0.145289
vt 0.039964 0.153163
vt 0.152394 0.161760
vt 0.039081 0.161348
vt 0.156470 0.167530
vt 0.321225 0.301257
vt 0.263073 0.289224
vt 0.283875 0.286085
vt 0.250562 0.296548
vt 0.234727 0.306310
vt 0.351116 0.320538
vt 0.231412 0.306282
vt 0.035855 0.155605
vt 0.010622 0.143247
vt 0.021247 0.142462
vt 0.004883 0.146502
vt 0.000653 0.165297
vt 0.260126 0.138229
vt 0.231109 0.136498
vt 0.251840 0.136555
vt 0.210382 0.139735
vt 0.262558 0.145661
vt 0.175642 0.142925
vt 0.163146 0.157688
vt 0.269902 0.162188
vt 0.272348 0.167974
vt 0.273087 0.179531
vt -0.000000 0.247073
vt 0.274591 0.199346
vt 0.274254 0.241439
vt 0.274196 0.248867
vt 0.274162 0.252993
vt 0.267469 0.258725
vt 0.006410 0.261838
vt 0.250793 0.267683
vt 0.238286 0.275837
vt 0.015268 0.277447
vt 0.232457 0.279090
vt 0.229945 0.282368
vt 0.230715 0.289792
vt 0.024104 0.296339
vt 0.231478 0.298040
vt 0.231444 0.302161
vt 0.036040 0.337378
vt 0.366897 0.333098
vt 0.373556 0.337301
vt 0.372639 0.347231
vt 0.034077 0.378299
vt 0.353963 0.382636
vt 0.342965 0.399889
vt 0.031481 0.396282
vt 0.328646 0.416263
vt 0.025641 0.410949
vt 0.306757 0.443267
vt 0.017314 0.430489
vt 0.228682 0.440600
vt 0.249364 0.446642
vt 0.300895 0.447322
vt 0.290895 0.448842
vt 0.270101 0.449392
vt 0.252611 0.559697
vt 0.050810 0.537426
vt 0.285158 0.542081
vt 0.053247 0.539924
vt 0.058940 0.544935
vt 0.069547 0.550849
vt 0.069483 0.559047
vt 0.173067 0.569041
vt 0.225111 0.576537
vt 0.161521 0.568019
vt 0.179639 0.573270
vt 0.191947 0.584187
vt 0.209314 0.584497
vt 0.202676 0.586849
vt 0.069319 0.579540
vt 0.154884 0.572837
vt 0.154851 0.576948
vt 0.159759 0.581969
vt 0.069155 0.600034
vt 0.165508 0.585361
vt 0.167885 0.597742
vt 0.170229 0.614238
vt 0.064926 0.616351
vt 0.167589 0.634754
vt 0.059879 0.632648
vt 0.160858 0.651070
vt 0.048283 0.648808
vt 0.158318 0.659244
vt 0.040853 0.656849
vt 0.150001 0.668117
vt 0.040787 0.665038
vt 0.041527 0.674883
vt 0.134244 0.680938
vt 0.047210 0.680738
vt 0.127632 0.684084
vt 0.065793 0.713104
vt 0.120977 0.692978
vt 0.110169 0.707524
vt 0.106013 0.713179
vt 0.094461 0.719487
vt 0.069820 0.722213
vt 0.078000 0.724858
vt 0.243419 0.463881
vt 0.228518 0.461203
vt 0.236805 0.461317
vt 0.216094 0.461033
vt 0.224540 0.440547
vt 0.008200 0.446735
vt 0.222857 0.443821
vt 0.218631 0.454476
vt 0.000160 0.458571
vt 0.258244 0.478111
vt 0.042619 0.538111
vt -0.000000 0.553772
vt 0.282941 0.507364
vt 0.287878 0.514045
vt 0.291946 0.525672
vt 0.291880 0.533931
vt 0.030245 0.551008
vt 0.012204 0.558888
vt 0.001580 0.560342
vt 0.005660 0.560412
vt 0.827197 0.794237
vt 0.831463 0.992796
vt 0.827197 0.992796
vt 0.831463 0.794237
vt 0.700287 0.724858
vt 0.702308 0.923418
vt 0.700287 0.923418
vt 0.702308 0.724858
vt 0.210332 0.724858
vt 0.221397 0.923418
vt 0.210332 0.923418
vt 0.221397 0.724858
vt 0.946538 0.794237
vt 0.950613 0.992796
vt 0.946538 0.992796
vt 0.950613 0.794237
vt 0.225643 0.923418
vt 0.225643 0.724858
vt 0.991732 0.000000
vt 0.971148 0.198559
vt 0.971148 0.000000
vt 0.991732 0.198559
vt 0.809715 0.992796
vt 0.809715 0.794237
vt 0.735818 0.724858
vt 0.745771 0.923418
vt 0.735818 0.923418
vt 0.745771 0.724858
vt 0.232023 0.923418
vt 0.232023 0.724858
vt 0.244075 0.923418
vt 0.244075 0.724858
vt 0.278705 0.724858
vt 0.278705 0.923418
vt 0.959679 0.198559
vt 0.959679 0.000000
vt 0.791574 0.992796
vt 0.791574 0.794237
vt 0.934663 0.794237
vt 0.934663 0.992796
vt 0.956411 0.198559
vt 0.956411 0.000000
vt 0.198559 0.923418
vt 0.198559 0.724858
vt 0.750404 0.794237
vt 0.760718 0.992796
vt 0.750404 0.992796
vt 0.760718 0.794237
vt 0.791574 0.794237
vt 0.791574 0.992796
vt 0.381267 0.724858
vt 0.438594 0.923418
vt 0.381267 0.923418
vt 0.438594 0.724858
vt 0.837690 0.000000
vt 0.844432 0.198559
vt 0.837690 0.198559
vt 0.844432 0.000000
vt 0.848177 0.198559
vt 0.856219 0.000000
vt 0.856219 0.198559
vt 0.848177 0.000000
vt 0.884156 0.198559
vt 0.889588 0.000000
vt 0.889588 0.198559
vt 0.884156 0.000000
vt 0.893624 0.000000
vt 0.900008 0.198559
vt 0.893624 0.198559
vt 0.900008 0.000000
vt 0.753718 0.397118
vt 0.750404 0.595678
vt 0.750404 0.397118
vt 0.753718 0.595678
vt 0.769257 0.397118
vt 0.769257 0.595678
vt 0.299327 0.724858
vt 0.299327 0.923418
vt 0.320050 0.724858
vt 0.320050 0.923418
vt 0.750404 0.000000
vt 0.756085 0.198559
vt 0.750404 0.198559
vt 0.756085 0.000000
vt 0.802244 0.397118
vt 0.781545 0.595678
vt 0.781545 0.397118
vt 0.802244 0.595678
vt 0.886626 0.397118
vt 0.870479 0.595678
vt 0.870479 0.397118
vt 0.886626 0.595678
vt 0.893406 0.397118
vt 0.893406 0.595678
vt 0.752710 0.794237
vt 0.750404 0.794237
vt 0.752710 0.595678
vt 0.759773 0.595678
vt 0.799764 0.794237
vt 0.759773 0.794237
vt 0.799764 0.595678
vt 0.820061 0.595678
vt 0.820061 0.794237
vt 0.782213 0.000000
vt 0.799487 0.198559
vt 0.782213 0.198559
vt 0.799487 0.000000
vt 0.910880 0.000000
vt 0.914620 0.198559
vt 0.910880 0.198559
vt 0.914620 0.000000
vt 0.767892 0.198559
vt 0.767892 0.000000
vt 0.328382 0.724858
vt 0.328382 0.923418
vt 0.772078 0.000000
vt 0.772078 0.198559
vt 0.907140 0.198559
vt 0.907140 0.000000
vt 0.871441 0.000000
vt 0.871441 0.198559
vt 0.840028 0.595678
vt 0.840028 0.397118
vt 0.919599 0.397118
vt 0.933334 0.198559
vt 0.933334 0.397118
vt 0.919599 0.198559
vt 0.920804 0.397118
vt 0.914117 0.595678
vt 0.914117 0.397118
vt 0.920804 0.595678
vt 0.874749 0.794237
vt 0.880919 0.595678
vt 0.880919 0.794237
vt 0.874749 0.595678
vt 0.905829 0.595678
vt 0.905829 0.397118
vt 0.970412 0.397118
vt 0.981852 0.595678
vt 0.970412 0.595678
vt 0.981852 0.397118
vt 0.966732 0.397118
vt 0.966732 0.595678
vt 0.949450 0.397118
vt 0.967944 0.198559
vt 0.967944 0.397118
vt 0.949450 0.198559
vt 0.988864 0.595678
vt 0.988864 0.397118
vt 0.840982 0.595678
vt 0.840982 0.794237
vt 0.970799 0.198559
vt 0.970799 0.397118
vt 0.913913 0.397118
vt 0.913913 0.198559
vt 0.950613 0.855718
vt 0.958451 0.992796
vt 0.950766 0.992796
vt 0.958451 0.794237
vt 0.950766 0.794237
vt 0.630590 0.724858
vt 0.700287 0.923418
vt 0.630590 0.923418
vt 0.700287 0.724858
vt 0.700223 0.786339
vt 0.000000 0.795282
vt 0.198559 0.735764
vt 0.198559 0.795282
vt 0.000000 0.735764
vt 0.107634 0.018399
vt 0.924149 0.794237
vt 0.924149 0.992796
vt 0.865204 0.794237
vt 0.849413 0.992796
vt 0.849413 0.794237
vt 0.865204 0.992796
vt 0.465106 0.923418
vt 0.494935 0.724858
vt 0.494935 0.923418
vt 0.465106 0.724858
vt 0.454865 0.724858
vt 0.454865 0.923418
vt 0.914621 0.198559
vt 0.923868 0.000000
vt 0.923868 0.198559
vt 0.914621 0.000000
vt 0.940242 0.198559
vt 0.947811 0.000000
vt 0.947811 0.198559
vt 0.940242 0.000000
vt 0.956411 0.000000
vt 0.956411 0.198559
vt 0.521908 0.724858
vt 0.521908 0.923418
vt 1.000000 0.198559
vt 0.994153 0.397118
vt 0.994153 0.198559
vt 1.000000 0.397118
vt 0.961599 0.397118
vt 0.961599 0.595678
vt 0.966732 0.397118
vt 0.820279 0.397118
vt 0.831855 0.198559
vt 0.831855 0.397118
vt 0.820279 0.198559
vt 0.750404 0.397118
vt 0.760584 0.198559
vt 0.760584 0.397118
vt 0.850178 0.397118
vt 0.855846 0.198559
vt 0.855846 0.397118
vt 0.850178 0.198559
vt 0.794175 0.198559
vt 0.811804 0.397118
vt 0.794175 0.397118
vt 0.811804 0.198559
vt 0.866731 0.198559
vt 0.884500 0.397118
vt 0.866731 0.397118
vt 0.884500 0.198559
vt 0.891387 0.198559
vt 0.891387 0.397118
vt 0.902026 0.198559
vt 0.902026 0.397118
vt 0.936045 0.397118
vt 0.936045 0.595678
vt 0.996055 0.397118
vt 0.999786 0.595678
vt 0.996055 0.595678
vt 0.999786 0.397118
vt 0.447370 0.923418
vt 0.447370 0.724858
vt 0.913913 0.397118
vt 0.774498 0.198559
vt 0.774498 0.397118
vt 0.880919 0.794237
vt 0.888421 0.595678
vt 0.888421 0.794237
vt 0.880919 0.595678
vt 0.989098 0.397118
vt 0.989098 0.198559
vt 0.535853 0.724858
vt 0.535853 0.923418
vt 0.438594 0.724858
vt 0.988864 0.595678
vt 0.988864 0.397118
vt 0.540816 0.724858
vt 0.540816 0.923418
vt 0.540816 0.724858
vt 0.549333 0.923418
vt 0.540816 0.923418
vt 0.549333 0.724858
vt 0.897838 0.595678
vt 0.934206 0.794237
vt 0.897838 0.794237
vt 0.934206 0.595678
vt 0.558423 0.724858
vt 0.573339 0.923418
vt 0.558423 0.923418
vt 0.573339 0.724858
vt 0.942363 0.595678
vt 0.950085 0.794237
vt 0.942363 0.794237
vt 0.950085 0.595678
vt 0.588254 0.724858
vt 0.594221 0.923418
vt 0.588254 0.923418
vt 0.594221 0.724858
vt 0.605770 0.724858
vt 0.605770 0.923418
vt 0.613316 0.724858
vt 0.613316 0.923418
vt 0.970799 0.198559
vt 0.977988 0.397118
vt 0.970799 0.397118
vt 0.977988 0.198559
vt 0.956046 0.595678
vt 0.956046 0.794237
vt 0.000000 0.847796
vt 0.198559 0.827936
vt 0.198559 0.847796
vt 0.000000 0.827936
vt 0.987823 0.794237
vt 0.991997 0.595678
vt 0.991997 0.794237
vt 0.987823 0.595678
vt 0.000000 0.914675
vt 0.198559 0.886004
vt 0.198559 0.914675
vt 0.000000 0.886004
vt 0.198559 0.810468
vt 0.000000 0.810468
vt 0.616804 0.923418
vt 0.621872 0.724858
vt 0.621872 0.923418
vt 0.616804 0.724858
vt 0.198559 0.724858
vt 0.000000 0.724858
vt 0.000000 0.926096
vt 0.198559 0.926096
vt 0.000000 0.932880
vt 0.198559 0.932880
vt 0.881440 0.794237
vt 0.870844 0.992796
vt 0.870844 0.794237
vt 0.881440 0.992796
vt 0.896432 0.794237
vt 0.896432 0.992796
vt 0.333784 0.724858
vt 0.350914 0.923418
vt 0.333784 0.923418
vt 0.350914 0.724858
vt 0.624698 0.724858
vt 0.624698 0.923418
vt 0.972993 0.794237
vt 0.956046 0.794237
vt 0.972993 0.595678
vt 0.745771 0.724858
vt 0.749585 0.923418
vt 0.745771 0.923418
vt 0.749585 0.724858
vt -0.000000 0.941545
vt 0.198559 0.941545
vt 0.328382 0.724858
vt 0.328382 0.923418
vt 0.967078 0.992796
vt 0.967078 0.794237
vt 0.919929 0.794237
vt 0.924149 0.992796
vt 0.919929 0.992796
vt 0.924149 0.794237
vt 0.834777 0.794237
vt 0.831463 0.992796
vt 0.831463 0.794237
vt 0.834777 0.992796
vt 0.837183 0.992796
vt 0.837183 0.794237
vt 0.980164 0.794237
vt 0.992233 0.992796
vt 0.980164 0.992796
vt 0.992233 0.794237
vt 0.915835 0.794237
vt 0.915835 0.992796
s 1
f 1/1/1 2/2/2 3/3/1
f 2/2/2 1/1/1 4/4/2
f 1/5/3 5/6/3 6/7/3
f 5/6/3 1/5/3 3/8/3
f 2/2/2 6/9/4 5/10/4
f 6/9/4 2/2/2 4/4/2
f 5/11/5 3/12/5 2/13/5
f 6/14/6 4/15/6 1/16/6
f 7/17/6 8/18/6 9/19/6
f 8/18/6 7/17/6 10/20/6
f 8/18/6 10/20/6 11/21/6
f 8/18/6 11/21/6 12/22/6
f 12/22/6 11/21/6 13/23/6
f 14/24/6 15/25/6 16/26/6
f 15/25/6 14/24/6 17/27/6
f 18/28/6 19/29/6 20/30/6
f 19/29/6 18/28/6 21/31/6
f 19/29/6 21/31/6 22/32/6
f 22/32/6 21/31/6 23/33/6
f 22/32/6 23/33/6 24/34/6
f 22/32/6 24/34/6 25/35/6
f 25/35/6 24/34/6 13/23/6
f 25/35/6 13/23/6 26/36/6
f 26/36/6 13/23/6 27/37/6
f 27/37/6 13/23/6 11/21/6
f 27/37/6 11/21/6 28/38/6
f 27/37/6 28/38/6 29/39/6
f 29/39/6 28/38/6 30/40/6
f 30/40/6 28/38/6 31/41/6
f 31/41/6 28/38/6 32/42/6
f 32/42/6 28/38/6 33/43/6
f 33/43/6 28/38/6 34/44/6
f 33/43/6 34/44/6 35/45/6
f 35/45/6 34/44/6 36/46/6
f 36/46/6 34/44/6 37/47/6
f 36/46/6 37/47/6 38/48/6
f 38/48/6 37/47/6 39/49/6
f 39/49/6 37/47/6 40/50/6
f 40/50/6 37/47/6 41/51/6
f 40/50/6 41/51/6 42/52/6
f 42/52/6 41/51/6 43/53/6
f 43/53/6 41/51/6 44/54/6
f 43/53/6 44/54/6 45/55/6
f 45/55/6 44/54/6 46/56/6
f 46/56/6 44/54/6 47/57/6
f 47/57/6 44/54/6 48/58/6
f 48/58/6 44/54/6 49/59/6
f 49/59/6 44/54/6 50/60/6
f 50/60/6 44/54/6 51/61/6
f 50/60/6 51/61/6 52/62/6
f 52/62/6 51/61/6 53/63/6
f 53/63/6 51/61/6 54/64/6
f 53/63/6 54/64/6 55/65/6
f 55/65/6 54/64/6 56/66/6
f 55/65/6 56/66/6 57/67/6
f 57/67/6 56/66/6 58/68/6
f 57/67/6 58/68/6 59/69/6
f 57/67/6 59/69/6 60/70/6
f 57/67/6 60/70/6 61/71/6
f 61/71/6 60/70/6 62/72/6
f 62/72/6 60/70/6 63/73/6
f 64/74/6 65/75/6 66/76/6
f 65/75/6 64/74/6 67/77/6
f 65/75/6 67/77/6 68/78/6
f 65/75/6 68/78/6 46/56/6
f 46/56/6 68/78/6 45/55/6
f 69/79/6 70/80/6 71/81/6
f 70/80/6 69/79/6 1/16/6
f 70/80/6 1/16/6 4/15/6
f 70/80/6 4/15/6 72/82/6
f 72/82/6 4/15/6 6/14/6
f 72/82/6 6/14/6 73/83/6
f 72/82/6 73/83/6 74/84/6
f 74/84/6 73/83/6 75/85/6
f 75/85/6 73/83/6 76/86/6
f 76/86/6 73/83/6 77/87/6
f 77/87/6 73/83/6 78/88/6
f 78/88/6 73/83/6 79/89/6
f 79/89/6 73/83/6 80/90/6
f 80/90/6 73/83/6 81/91/6
f 81/91/6 73/83/6 82/92/6
f 82/92/6 73/83/6 83/93/6
f 82/92/6 83/93/6 84/94/6
f 84/94/6 83/93/6 85/95/6
f 85/95/6 83/93/6 86/96/6
f 86/96/6 83/93/6 87/97/6
f 87/97/6 83/93/6 88/98/6
f 87/97/6 88/98/6 89/99/6
f 89/99/6 88/98/6 12/22/6
f 89/99/6 12/22/6 13/23/6
f 90/100/6 91/101/6 92/102/6
f 91/101/6 90/100/6 78/88/6
f 78/88/6 90/100/6 77/87/6
f 93/103/6 94/104/6 95/105/6
f 94/104/6 93/103/6 75/85/6
f 75/85/6 93/103/6 74/84/6
f 58/68/6 96/106/6 59/69/6
f 96/106/6 58/68/6 97/107/6
f 96/106/6 97/107/6 98/108/6
f 98/108/6 97/107/6 99/109/6
f 99/109/6 97/107/6 100/110/6
f 99/109/6 100/110/6 17/27/6
f 17/27/6 100/110/6 15/25/6
f 15/25/6 100/110/6 101/111/6
f 101/111/6 100/110/6 102/112/6
f 102/112/6 100/110/6 103/113/6
f 101/111/6 102/112/6 104/114/6
f 104/114/6 102/112/6 105/115/6
f 105/115/6 102/112/6 106/116/6
f 105/115/6 106/116/6 107/117/6
f 107/117/6 106/116/6 108/118/6
f 108/118/6 106/116/6 109/119/6
f 102/112/6 103/113/6 110/120/6
f 110/120/6 103/113/6 111/121/6
f 111/121/6 103/113/6 112/122/6
f 111/121/6 112/122/6 113/123/6
f 114/124/6 115/125/7 116/126/6
f 115/125/7 114/124/6 117/127/6
f 117/127/6 114/124/6 118/128/6
f 118/128/6 114/124/6 119/129/6
f 119/129/6 114/124/6 120/130/6
f 119/129/6 120/130/6 121/131/6
f 121/131/6 120/130/6 122/132/6
f 122/132/6 120/130/6 123/133/6
f 123/133/6 120/130/6 124/134/6
f 123/133/6 124/134/6 125/135/6
f 125/135/6 124/134/6 126/136/6
f 125/135/6 126/136/6 127/137/6
f 127/137/6 126/136/6 128/138/6
f 127/137/6 128/138/6 129/139/6
f 129/139/6 128/138/6 130/140/6
f 129/139/6 130/140/6 131/141/6
f 131/141/6 130/140/6 132/142/6
f 131/141/6 132/142/6 133/143/6
f 131/141/6 133/143/6 134/144/6
f 134/144/6 133/143/6 135/145/6
f 134/144/6 135/145/6 136/146/6
f 136/146/6 135/145/6 137/147/6
f 136/146/6 137/147/6 138/148/6
f 138/148/6 137/147/6 139/149/6
f 139/149/6 137/147/6 140/150/6
f 140/150/6 137/147/6 141/151/6
f 141/151/6 137/147/6 142/152/6
f 141/151/6 142/152/6 143/153/6
f 106/116/6 144/154/6 109/119/6
f 144/154/6 106/116/6 145/155/6
f 144/154/6 145/155/6 146/156/6
f 144/154/6 146/156/6 147/157/6
f 144/154/6 147/157/6 116/126/6
f 144/154/6 116/126/6 148/158/6
f 144/154/6 148/158/6 149/159/6
f 148/158/6 116/126/6 115/125/7
f 149/159/6 148/158/6 150/160/6
f 149/159/6 150/160/6 151/161/6
f 149/159/6 151/161/6 152/162/6
f 152/162/6 151/161/6 153/163/6
f 154/164/5 155/165/5 156/166/5
f 155/165/5 154/164/5 157/167/5
f 157/167/5 154/164/5 158/168/5
f 159/169/5 160/170/5 161/171/5
f 160/170/5 159/169/5 162/172/5
f 160/170/5 162/172/5 163/173/5
f 164/174/5 165/175/5 166/176/5
f 165/175/5 164/174/5 3/12/5
f 3/12/5 164/174/5 2/13/5
f 2/13/5 164/174/5 167/177/5
f 2/13/5 167/177/5 168/178/5
f 168/178/5 167/177/5 169/179/5
f 169/179/5 167/177/5 157/167/5
f 169/179/5 157/167/5 158/168/5
f 169/179/5 158/168/5 170/180/5
f 169/179/5 170/180/5 163/173/5
f 169/179/5 163/173/5 162/172/5
f 169/179/5 162/172/5 171/181/5
f 169/179/5 171/181/5 172/182/5
f 169/179/5 172/182/5 173/183/5
f 169/179/5 173/183/5 174/184/5
f 169/179/5 174/184/5 175/185/5
f 175/185/5 174/184/5 176/186/5
f 175/185/5 176/186/5 177/187/5
f 175/185/5 177/187/5 178/188/5
f 175/185/5 178/188/5 179/189/5
f 175/185/5 179/189/5 180/190/5
f 180/190/5 179/189/5 181/191/5
f 180/190/5 181/191/5 182/192/5
f 182/192/5 181/191/5 183/193/5
f 184/194/5 185/195/5 186/196/5
f 185/195/5 184/194/5 187/197/5
f 187/197/5 184/194/5 188/198/5
f 188/198/5 184/194/5 189/199/5
f 188/198/5 189/199/5 190/200/5
f 191/201/5 192/202/5 193/203/5
f 192/202/5 191/201/5 194/204/5
f 194/204/5 191/201/5 195/205/5
f 195/205/5 191/201/5 182/192/5
f 195/205/5 182/192/5 183/193/5
f 196/206/5 197/207/5 198/208/5
f 197/207/5 196/206/5 199/209/5
f 199/209/5 196/206/5 200/210/5
f 199/209/5 200/210/5 201/211/5
f 201/211/5 200/210/5 202/212/5
f 202/212/5 200/210/5 203/213/5
f 202/212/5 203/213/5 183/193/5
f 183/193/5 203/213/5 204/214/5
f 183/193/5 204/214/5 205/215/5
f 183/193/5 205/215/5 195/205/5
f 195/205/5 205/215/5 206/216/5
f 206/216/5 205/215/5 207/217/5
f 206/216/5 207/217/5 208/218/5
f 206/216/5 208/218/5 209/219/5
f 206/216/5 209/219/5 210/220/5
f 206/216/5 210/220/5 211/221/5
f 206/216/5 211/221/5 212/222/5
f 212/222/5 211/221/5 213/223/5
f 212/222/5 213/223/5 214/224/5
f 212/222/5 214/224/5 215/225/5
f 215/225/5 214/224/5 216/226/5
f 215/225/5 216/226/5 217/227/5
f 215/225/5 217/227/5 218/228/5
f 215/225/5 218/228/5 219/229/5
f 219/229/5 218/228/5 220/230/5
f 219/229/5 220/230/5 221/231/5
f 219/229/5 221/231/5 222/232/5
f 222/232/5 221/231/5 190/200/5
f 222/232/5 190/200/5 189/199/5
f 222/232/5 189/199/5 223/233/5
f 222/232/5 223/233/5 224/234/5
f 222/232/5 224/234/5 225/59/5
f 222/232/5 225/59/5 226/235/5
f 222/232/5 226/235/5 227/236/5
f 227/236/5 226/235/5 228/237/5
f 227/236/5 228/237/5 229/238/5
f 227/236/5 229/238/5 230/239/5
f 230/239/5 229/238/5 231/240/5
f 230/239/5 231/240/5 232/241/5
f 232/241/5 231/240/5 233/242/5
f 232/241/5 233/242/5 234/243/5
f 234/243/5 233/242/5 235/244/5
f 235/244/5 233/242/5 236/245/5
f 236/245/5 233/242/5 237/246/5
f 236/245/5 237/246/5 238/247/5
f 236/245/5 238/247/5 239/248/5
f 240/249/5 241/250/5 242/251/5
f 241/250/5 240/249/5 243/252/5
f 243/252/5 240/249/5 244/253/5
f 244/253/5 240/249/5 245/254/5
f 245/254/5 240/249/5 246/255/5
f 246/255/5 240/249/5 247/256/5
f 247/256/5 240/249/5 248/257/5
f 246/255/5 247/256/5 249/258/8
f 247/256/5 248/257/5 250/259/5
f 250/259/5 248/257/5 251/260/5
f 251/260/5 248/257/5 252/261/5
f 251/260/5 252/261/5 253/262/5
f 249/258/8 254/263/5 246/255/5
f 254/263/5 249/258/8 255/264/5
f 254/263/5 255/264/5 256/265/5
f 254/263/5 256/265/5 257/266/5
f 254/263/5 257/266/5 258/267/5
f 258/267/5 257/266/5 259/268/5
f 258/267/5 259/268/5 260/269/5
f 258/267/5 260/269/5 261/270/5
f 258/267/5 261/270/5 262/271/5
f 262/271/5 261/270/5 263/272/5
f 262/271/5 263/272/5 264/273/5
f 264/273/5 263/272/5 265/274/5
f 264/273/5 265/274/5 266/275/5
f 266/275/5 265/274/5 267/276/5
f 266/275/5 267/276/5 268/277/5
f 268/277/5 267/276/5 269/278/5
f 268/277/5 269/278/5 270/279/5
f 270/279/5 269/278/5 271/280/5
f 271/280/5 269/278/5 272/281/5
f 271/280/5 272/281/5 273/282/5
f 273/282/5 272/281/5 274/283/5
f 273/282/5 274/283/5 275/284/5
f 275/284/5 274/283/5 276/285/5
f 275/284/5 276/285/5 277/286/5
f 275/284/5 277/286/5 278/287/5
f 275/284/5 278/287/5 279/288/5
f 275/284/5 279/288/5 280/289/5
f 280/289/5 279/288/5 281/290/5
f 282/291/5 283/292/5 284/293/5
f 283/292/5 282/291/5 285/294/5
f 234/243/5 286/295/5 287/296/5
f 286/295/5 234/243/5 235/244/5
f 287/296/5 286/295/5 288/297/5
f 287/296/5 288/297/5 289/298/5
f 287/296/5 289/298/5 290/299/5
f 290/299/5 289/298/5 285/294/5
f 290/299/5 285/294/5 282/291/5
f 290/299/5 282/291/5 291/300/5
f 290/299/5 291/300/5 292/301/5
f 290/299/5 292/301/5 293/302/5
f 292/301/5 291/300/5 294/303/5
f 292/301/5 294/303/5 295/304/5
f 292/301/5 295/304/5 241/250/5
f 241/250/5 295/304/5 296/305/5
f 241/250/5 296/305/5 297/306/5
f 241/250/5 297/306/5 242/251/5
f 293/302/5 292/301/5 298/307/5
f 293/302/5 298/307/5 299/308/5
f 293/302/5 299/308/5 300/309/5
f 300/309/5 299/308/5 301/310/5
f 5/11/5 2/13/5 168/178/5
f 82/311/9 176/312/9 174/313/9
f 176/312/9 82/311/9 84/314/9
f 91/315/10 162/316/10 159/317/10
f 162/316/10 91/315/10 78/318/10
f 87/319/11 181/320/12 179/321/11
f 181/320/12 87/319/11 89/322/12
f 76/323/13 163/324/14 170/325/13
f 163/324/14 76/323/13 77/326/14
f 89/322/12 183/327/15 181/320/12
f 183/327/15 89/322/12 13/328/15
f 91/329/16 161/330/17 92/331/17
f 161/330/17 91/329/16 159/332/16
f 82/311/18 173/333/19 81/334/19
f 173/333/19 82/311/18 174/313/18
f 79/335/20 172/336/21 171/337/20
f 172/336/21 79/335/20 80/338/21
f 13/328/22 202/339/23 183/327/22
f 202/339/23 13/328/22 24/340/23
f 24/340/23 201/341/24 202/339/23
f 201/341/24 24/340/23 23/342/24
f 21/343/25 201/341/26 23/342/26
f 201/341/26 21/343/25 199/344/25
f 92/331/17 160/345/27 90/346/27
f 160/345/27 92/331/17 161/330/17
f 81/334/19 172/347/28 80/348/28
f 172/347/28 81/334/19 173/333/19
f 75/349/29 170/325/13 158/350/29
f 170/325/13 75/349/29 76/323/13
f 90/346/27 163/351/30 77/352/30
f 163/351/30 90/346/27 160/345/27
f 87/319/11 178/353/31 86/354/31
f 178/353/31 87/319/11 179/321/11
f 84/355/32 177/356/33 176/357/32
f 177/356/33 84/355/32 85/358/33
f 177/356/33 86/359/34 178/360/34
f 86/359/34 177/356/33 85/358/33
f 73/361/35 5/362/36 169/363/35
f 5/362/36 73/361/35 6/364/36
f 169/179/5 5/11/5 168/178/5
f 30/365/37 209/366/38 208/367/37
f 209/366/38 30/365/37 31/368/38
f 210/369/39 33/370/40 211/371/40
f 33/370/40 210/369/39 32/372/39
f 214/373/41 38/374/42 216/375/42
f 38/374/42 214/373/41 36/376/41
f 39/377/43 218/378/44 217/379/43
f 218/378/44 39/377/43 40/380/44
f 68/381/45 190/382/45 45/383/45
f 190/382/45 68/381/45 188/384/45
f 67/385/46 188/384/47 68/381/47
f 188/384/47 67/385/46 187/386/46
f 18/387/48 199/344/25 21/343/25
f 199/344/25 18/387/48 197/388/48
f 20/389/49 197/388/48 18/387/48
f 197/388/48 20/389/49 198/390/49
f 19/391/50 200/392/51 196/393/50
f 200/392/51 19/391/50 22/394/51
f 66/395/52 185/396/53 64/397/53
f 185/396/53 66/395/52 186/398/52
f 47/399/54 189/400/55 46/401/55
f 189/400/55 47/399/54 223/402/54
f 48/403/56 223/402/54 47/399/54
f 223/402/54 48/403/56 224/404/56
f 48/382/57 225/405/57 224/406/57
f 225/405/57 48/382/57 49/407/57
f 64/397/53 187/386/46 67/385/46
f 187/386/46 64/397/53 185/396/53
f 50/408/58 228/409/59 226/410/58
f 228/409/59 50/408/58 52/411/59
f 228/409/59 53/412/60 229/413/60
f 53/412/60 228/409/59 52/411/59
f 27/414/61 207/415/62 205/416/61
f 207/415/62 27/414/61 29/417/62
f 29/417/62 208/367/37 207/415/62
f 208/367/37 29/417/62 30/365/37
f 225/405/63 50/408/58 226/410/58
f 50/408/58 225/405/63 49/407/63
f 43/418/38 190/419/37 221/420/38
f 190/419/37 43/418/38 45/421/37
f 22/394/51 203/422/64 200/392/51
f 203/422/64 22/394/51 25/423/64
f 19/424/65 198/390/49 20/389/49
f 198/390/49 19/424/65 196/425/65
f 26/426/66 205/416/61 204/427/66
f 205/416/61 26/426/66 27/414/61
f 38/374/42 217/379/67 216/375/42
f 217/379/67 38/374/42 39/377/67
f 40/380/44 220/428/68 218/378/44
f 220/428/68 40/380/44 42/429/69
f 42/429/69 221/420/38 220/428/68
f 221/420/38 42/429/69 43/418/38
f 211/371/40 35/430/70 213/431/70
f 35/430/70 211/371/40 33/370/40
f 213/431/70 36/376/41 214/373/41
f 36/376/41 213/431/70 35/430/70
f 46/401/55 184/432/71 65/433/71
f 184/432/71 46/401/55 189/400/55
f 65/433/71 186/398/72 66/395/72
f 186/398/72 65/433/71 184/432/71
f 25/423/64 204/427/66 203/422/64
f 204/427/66 25/423/64 26/426/66
f 31/368/38 210/369/73 209/366/38
f 210/369/73 31/368/38 32/372/73
f 238/434/74 63/435/75 239/436/75
f 63/435/75 238/434/74 62/437/74
f 15/438/76 284/439/77 16/440/77
f 284/439/77 15/438/76 282/441/76
f 233/442/78 61/443/79 237/444/79
f 61/443/79 233/442/78 57/445/78
f 16/440/77 283/446/80 14/447/80
f 283/446/80 16/440/77 284/439/77
f 14/447/80 285/404/81 17/403/81
f 285/404/81 14/447/80 283/446/80
f 98/448/82 289/449/83 288/450/82
f 289/449/83 98/448/82 99/451/83
f 96/452/84 288/450/82 286/453/84
f 288/450/82 96/452/84 98/448/82
f 236/454/85 59/455/86 235/456/86
f 59/455/86 236/454/85 60/457/85
f 99/451/83 285/458/87 289/449/83
f 285/458/87 99/451/83 17/459/87
f 55/460/88 233/442/78 231/461/88
f 233/442/78 55/460/88 57/445/78
f 53/412/60 231/461/88 229/413/60
f 231/461/88 53/412/60 55/460/88
f 235/456/86 96/462/89 286/463/89
f 96/462/89 235/456/86 59/455/86
f 237/464/79 62/437/74 238/434/74
f 62/437/74 237/464/79 61/465/79
f 239/436/75 60/457/85 236/454/85
f 60/457/85 239/436/75 63/435/75
f 302/466/90 287/467/91 290/468/90
f 287/467/91 302/466/90 97/469/91
f 97/469/91 302/466/90 100/470/90
f 103/471/92 290/472/93 293/473/94
f 100/474/95 302/475/96 103/471/92
f 28/476/97 195/477/98 206/478/97
f 195/477/98 28/476/97 11/479/98
f 103/471/92 302/475/96 290/472/93
f 78/318/99 171/337/20 162/316/99
f 171/337/20 78/318/99 79/335/20
f 303/480/5 154/164/5 156/166/5
f 154/164/5 303/480/5 158/168/5
f 94/481/100 158/350/29 303/482/101
f 158/350/29 94/481/100 75/349/29
f 94/483/102 156/484/103 95/485/103
f 156/484/103 94/483/102 303/486/102
f 242/487/104 144/488/105 240/489/105
f 144/488/105 242/487/104 109/490/104
f 108/491/106 242/487/104 297/492/106
f 242/487/104 108/491/106 109/490/104
f 253/493/107 151/494/108 251/495/108
f 151/494/108 253/493/107 153/496/107
f 250/497/109 148/498/110 247/499/110
f 148/498/110 250/497/109 150/500/109
f 247/499/110 115/501/111 249/502/111
f 115/501/111 247/499/110 148/498/110
f 240/489/105 149/503/112 248/504/112
f 149/503/112 240/489/105 144/488/105
f 121/505/113 257/506/114 119/507/114
f 257/506/114 121/505/113 259/508/113
f 104/509/115 295/453/116 294/510/115
f 295/453/116 104/509/115 105/511/116
f 267/512/117 131/513/118 269/514/118
f 131/513/118 267/512/117 129/515/117
f 259/516/119 122/517/120 260/518/120
f 122/517/120 259/516/119 121/393/119
f 272/519/121 136/520/122 274/521/122
f 136/520/122 272/519/121 134/522/121
f 125/523/123 265/524/124 263/525/123
f 265/524/124 125/523/123 127/526/124
f 138/527/125 277/528/126 276/529/125
f 277/528/126 138/527/125 139/530/126
f 277/528/126 140/531/127 278/532/127
f 140/531/127 277/528/126 139/530/126
f 278/532/127 141/533/128 279/534/128
f 141/533/128 278/532/127 140/531/127
f 101/535/129 282/441/76 15/438/76
f 282/441/76 101/535/129 291/536/130
f 274/521/122 138/527/125 276/529/125
f 138/527/125 274/521/122 136/520/122
f 117/537/131 256/538/131 255/539/131
f 256/538/131 117/537/131 118/540/131
f 296/541/132 108/491/38 297/492/38
f 108/491/38 296/541/132 107/542/132
f 127/526/124 267/512/117 265/524/124
f 267/512/117 127/526/124 129/515/117
f 279/534/128 143/465/133 281/543/133
f 143/465/133 279/534/128 141/533/128
f 123/544/134 263/525/123 261/545/134
f 263/525/123 123/544/134 125/523/123
f 281/546/135 142/547/135 280/548/135
f 142/547/135 281/546/135 143/549/135
f 251/495/108 150/500/109 250/497/109
f 150/500/109 251/495/108 151/494/108
f 119/507/114 256/550/136 118/551/136
f 256/550/136 119/507/114 257/506/114
f 269/514/118 134/522/121 272/519/121
f 134/522/121 269/514/118 131/513/118
f 248/504/112 152/552/137 252/553/137
f 152/552/137 248/504/112 149/503/112
f 105/554/116 296/541/132 295/362/116
f 296/541/132 105/554/116 107/542/132
f 249/555/138 117/537/138 255/539/138
f 117/537/138 249/555/138 115/556/138
f 122/517/120 261/545/134 260/518/120
f 261/545/134 122/517/120 123/544/134
f 252/553/137 153/557/139 253/558/139
f 153/557/139 252/553/137 152/552/137
f 101/535/129 294/510/115 291/536/130
f 294/510/115 101/535/129 104/509/115
f 126/559/140 262/560/141 264/561/140
f 262/560/141 126/559/140 124/562/141
f 137/563/142 273/564/143 275/565/142
f 273/564/143 137/563/142 135/566/143
f 120/567/144 254/568/145 258/569/144
f 254/568/145 120/567/144 114/570/145
f 133/571/146 270/572/147 271/573/146
f 270/572/147 133/571/146 132/574/147
f 116/575/148 245/576/148 246/577/148
f 245/576/148 116/575/148 147/578/148
f 124/562/141 258/569/144 262/560/141
f 258/569/144 124/562/141 120/567/144
f 114/570/145 246/577/148 254/568/145
f 246/577/148 114/570/145 116/575/148
f 245/576/149 146/579/150 244/580/150
f 146/579/150 245/576/149 147/578/149
f 244/580/150 145/581/151 243/582/151
f 145/581/151 244/580/150 146/579/150
f 130/583/152 266/584/153 268/585/152
f 266/584/153 130/583/152 128/586/153
f 280/548/154 137/563/142 275/565/142
f 137/563/142 280/548/154 142/547/154
f 270/572/147 130/587/148 268/588/148
f 130/587/148 270/572/147 132/574/147
f 273/564/143 133/571/155 271/573/155
f 133/571/155 273/564/143 135/566/143
f 128/586/153 264/550/140 266/584/153
f 264/550/140 128/586/153 126/551/140
f 41/589/156 215/590/157 219/591/156
f 215/590/157 41/589/156 37/592/157
f 299/593/158 113/594/159 301/595/159
f 113/594/159 299/593/158 111/596/158
f 51/597/160 222/598/161 227/599/160
f 222/598/161 51/597/160 44/600/161
f 37/592/157 212/601/162 215/590/157
f 212/601/162 37/592/157 34/602/162
f 241/603/163 102/604/163 292/605/163
f 102/604/163 241/603/163 106/606/163
f 44/600/161 219/591/156 222/598/161
f 219/591/156 44/600/161 41/589/156
f 34/602/162 206/478/97 212/601/162
f 206/478/97 34/602/162 28/476/97
f 11/479/98 194/607/164 195/477/98
f 194/607/164 11/479/98 10/608/164
f 243/582/151 106/606/165 241/603/165
f 106/606/165 243/582/151 145/581/151
f 54/609/166 227/599/160 230/610/166
f 227/599/160 54/609/166 51/597/160
f 56/611/167 230/610/166 232/612/167
f 230/610/166 56/611/167 54/609/166
f 9/613/168 192/614/169 7/615/169
f 192/614/169 9/613/168 193/616/168
f 8/617/170 193/616/171 9/613/171
f 193/616/171 8/617/170 191/618/170
f 88/619/172 175/620/173 180/621/172
f 175/620/173 88/619/172 83/622/173
f 83/622/173 169/363/35 175/620/173
f 169/363/35 83/622/173 73/361/35
f 112/623/174 293/473/94 300/624/174
f 293/473/94 112/623/174 103/471/92
f 102/587/175 298/625/176 292/626/175
f 298/625/176 102/587/175 110/627/176
f 298/625/176 111/596/158 299/593/158
f 111/596/158 298/625/176 110/627/176
f 8/628/170 182/629/177 191/630/170
f 182/629/177 8/628/170 12/631/177
f 58/632/178 232/612/167 234/633/178
f 232/612/167 58/632/178 56/611/167
f 12/634/179 180/621/172 182/635/179
f 180/621/172 12/634/179 88/619/172
f 301/605/159 112/623/180 300/624/180
f 112/623/180 301/605/159 113/604/159
f 7/615/169 194/486/181 10/483/181
f 194/486/181 7/615/169 192/614/169
f 97/469/91 234/636/178 287/467/91
f 234/636/178 97/469/91 58/637/178
f 71/638/182 164/639/183 166/640/182
f 164/639/183 71/638/182 70/641/183
f 74/642/184 167/643/184 72/644/184
f 167/643/184 74/642/184 157/645/184
f 74/642/185 155/646/186 157/645/185
f 155/646/186 74/642/185 93/647/186
f 70/648/183 167/649/187 164/650/183
f 167/649/187 70/648/183 72/651/187
f 69/652/188 3/8/189 1/5/189
f 3/8/189 69/652/188 165/653/188
f 71/638/190 165/653/188 69/652/188
f 165/653/188 71/638/190 166/640/190
f 95/485/103 155/646/186 93/647/186
f 155/646/186 95/485/103 156/484/103
