# Blender 4.4.1
# www.blender.org
o dino6
v -1.466858 -4.507233 4.000000
v -1.619385 -4.753693 -4.000000
v -1.619385 -4.753693 4.000000
v -1.466858 -4.507233 -4.000000
v -1.548218 -4.453369 4.000000
v -1.766785 -4.308594 -4.000000
v -1.548218 -4.453369 -4.000000
v -1.766785 -4.308594 4.000000
v -2.158936 -3.734497 4.000000
v -2.158936 -3.734497 -4.000000
v -3.354004 -0.820435 4.000000
v -3.885742 -0.449768 -4.000000
v -3.354004 -0.820434 -4.000000
v -3.885742 -0.449768 4.000000
v -5.884216 0.303222 4.000000
v -5.700623 -0.217529 -4.000000
v -5.700623 -0.217529 4.000000
v -5.884216 0.303223 -4.000000
v -5.684082 0.844543 4.000000
v -5.205994 1.029663 -4.000000
v -5.684082 0.844544 -4.000000
v -5.205994 1.029663 4.000000
v -3.086060 -1.345764 -4.000000
v -3.086060 -1.345764 4.000000
v -2.734192 -2.640198 -4.000000
v -2.734192 -2.640198 4.000000
v -1.982117 -5.305054 4.000000
v -2.402039 -6.089752 -4.000000
v -2.402039 -6.089752 4.000000
v -1.982117 -5.305054 -4.000000
v -5.159241 -0.418823 -4.000000
v -5.159241 -0.418823 4.000000
v -4.009644 1.130798 -4.000000
v -4.009644 1.130798 4.000000
v -3.451416 1.226196 -4.000000
v -3.451416 1.226196 4.000000
v -2.614929 -6.564178 -4.000000
v -2.614929 -6.564178 4.000000
v -3.559509 1.572876 4.000000
v -3.439514 1.438294 -4.000000
v -3.439514 1.438293 4.000000
v -3.559509 1.572876 -4.000000
v -2.774292 -7.153015 4.000000
v -2.864929 -7.480682 -4.000000
v -2.864929 -7.480682 4.000000
v -2.774292 -7.153015 -4.000000
v 0.270081 -8.588867 4.000000
v -2.643127 -8.537201 -4.000000
v 0.270081 -8.588867 -4.000000
v -2.643127 -8.537201 4.000000
v -2.967102 -8.240387 -4.000000
v -2.967102 -8.240387 4.000000
v 0.537354 -8.551361 4.000000
v 0.537354 -8.551361 -4.000000
v -3.949768 2.957580 4.000000
v -3.717651 1.883728 -4.000000
v -3.717651 1.883728 4.000000
v -3.949768 2.957581 -4.000000
v -4.071838 3.816528 4.000000
v -4.493652 3.883484 -4.000000
v -4.071838 3.816529 -4.000000
v -4.493652 3.883484 4.000000
v -5.775757 3.786987 4.000000
v -7.048340 3.860413 -4.000000
v -5.775757 3.786988 -4.000000
v -7.048340 3.860412 4.000000
v -3.998901 3.599304 4.000000
v -3.998901 3.599304 -4.000000
v -8.302307 4.273621 4.000000
v -8.226807 4.098816 -4.000000
v -8.226807 4.098816 4.000000
v -8.302307 4.273621 -4.000000
v -7.684631 3.897094 4.000000
v -7.684631 3.897095 -4.000000
v -8.333069 4.488464 4.000000
v -8.333069 4.488464 -4.000000
v -8.533569 4.713074 4.000000
v -8.500488 4.540710 -4.000000
v -8.500488 4.540710 4.000000
v -8.533569 4.713074 -4.000000
v -9.406799 5.871948 4.000000
v -8.908508 4.862610 -4.000000
v -8.908508 4.862610 4.000000
v -9.406799 5.871948 -4.000000
v 8.980042 -4.292114 -4.000000
v 9.123474 -5.445709 4.000000
v 9.123474 -5.445709 -4.000000
v 8.980042 -4.292114 4.000000
v 9.302185 -6.007202 4.000000
v 9.302185 -6.007202 -4.000000
v 11.057983 -7.167999 4.000000
v 11.502869 -7.532562 -4.000000
v 11.057983 -7.167999 -4.000000
v 11.502869 -7.532562 4.000000
v 12.086121 -8.413208 4.000000
v 11.130249 -8.781433 -4.000000
v 12.086121 -8.413208 -4.000000
v 11.130249 -8.781433 4.000000
v 10.432007 -6.284332 -4.000000
v 10.832153 -6.688873 4.000000
v 10.832153 -6.688873 -4.000000
v 10.432007 -6.284332 4.000000
v 11.950256 -7.854858 -4.000000
v 11.950256 -7.854858 4.000000
v 0.899902 -8.149017 -4.000000
v 0.845459 -8.357513 4.000000
v 0.845459 -8.357513 -4.000000
v 0.899902 -8.149017 4.000000
v 2.630493 -7.571411 4.000000
v 1.460938 -7.249847 -4.000000
v 2.630493 -7.571411 -4.000000
v 1.460938 -7.249847 4.000000
v 6.046204 -8.657501 4.000000
v 3.663208 -8.054382 -4.000000
v 6.046204 -8.657501 -4.000000
v 3.663208 -8.054382 4.000000
v 8.439819 -4.091187 4.000000
v 8.439819 -4.091187 -4.000000
v 9.799805 -6.205475 4.000000
v 9.799805 -6.205475 -4.000000
v 1.249451 -7.237640 -4.000000
v 1.020935 -7.520905 4.000000
v 1.020935 -7.520905 -4.000000
v 1.249451 -7.237640 4.000000
v -9.312622 7.310852 4.000000
v -9.478088 6.735352 4.000000
v -8.698669 7.921997 4.000000
v -8.217529 8.150452 4.000000
v -7.660767 8.203735 4.000000
v -6.377197 8.300537 4.000000
v -6.164856 8.288269 4.000000
v -5.952515 8.276001 4.000000
v -5.900574 8.443848 4.000000
v -5.702332 8.945068 4.000000
v -5.565430 9.108032 4.000000
v -5.260925 9.218689 4.000000
v -4.616577 9.309692 4.000000
v -2.306274 8.706421 4.000000
v -1.193176 8.044189 4.000000
v -0.811768 5.760010 4.000000
v -0.872742 7.684082 4.000000
v -0.458801 5.227905 4.000000
v 0.040771 5.028503 4.000000
v 1.161255 5.262390 4.000000
v 1.757874 5.270630 4.000000
v 1.867188 3.473999 4.000000
v 1.962585 2.914673 4.000000
v 2.466675 2.800415 4.000000
v 3.744019 2.811950 4.000000
v 4.525391 1.617248 4.000000
v 4.382751 2.817688 4.000000
v 4.477722 2.258545 4.000000
v 4.747498 1.051147 4.000000
v 5.333557 0.889709 4.000000
v 5.971985 0.895447 4.000000
v 6.178955 0.798401 4.000000
v 6.173767 -1.455017 4.000000
v 6.248657 -0.184021 4.000000
v 6.243774 0.454284 4.000000
v 6.288330 -1.674072 4.000000
v 7.518433 -3.868286 4.000000
v 6.664612 -1.780762 4.000000
v 7.292542 -1.944458 4.000000
v 7.499329 -2.041321 4.000000
v 7.802246 -4.096863 4.000000
v 7.606323 -2.387329 4.000000
v 7.530945 -3.656800 4.000000
v 7.568665 -3.022156 4.000000
v 1.940674 4.748352 4.000000
v -0.781616 7.038452 4.000000
v -9.312622 7.310852 -4.000000
v -9.478088 6.735352 -4.000000
v -8.698669 7.921997 -4.000000
v -8.217529 8.150452 -4.000000
v -7.660767 8.203735 -4.000000
v -6.377197 8.300537 -4.000000
v -6.164856 8.288269 -4.000000
v -5.952515 8.276001 -4.000000
v -5.900574 8.443848 -4.000000
v -5.702332 8.945068 -4.000000
v -5.565430 9.108032 -4.000000
v -5.260925 9.218689 -4.000000
v -4.616577 9.309692 -4.000000
v -2.306274 8.706421 -4.000000
v -1.193176 8.044189 -4.000000
v -0.781616 7.038452 -4.000000
v -0.811768 5.760010 -4.000000
v -0.872742 7.684082 -4.000000
v 1.940674 4.748352 -4.000000
v 1.867188 3.473999 -4.000000
v 1.757874 5.270630 -4.000000
v -0.458801 5.227905 -4.000000
v 0.040771 5.028503 -4.000000
v 1.161255 5.262390 -4.000000
v 1.962585 2.914673 -4.000000
v 2.466675 2.800415 -4.000000
v 3.744019 2.811951 -4.000000
v 4.525391 1.617249 -4.000000
v 4.382751 2.817688 -4.000000
v 4.477722 2.258545 -4.000000
v 4.747498 1.051148 -4.000000
v 5.333557 0.889710 -4.000000
v 5.971985 0.895447 -4.000000
v 6.178955 0.798401 -4.000000
v 6.173767 -1.455017 -4.000000
v 6.248657 -0.184021 -4.000000
v 6.243774 0.454285 -4.000000
v 7.606323 -2.387329 -4.000000
v 7.518433 -3.868286 -4.000000
v 7.499329 -2.041321 -4.000000
v 7.530945 -3.656799 -4.000000
v 7.568665 -3.022156 -4.000000
v 6.288330 -1.674072 -4.000000
v 6.664612 -1.780762 -4.000000
v 7.292542 -1.944458 -4.000000
v 7.802246 -4.096863 -4.000000
vn -0.8503 0.5262 -0.0000
vn -0.8430 0.5380 -0.0000
vn -0.5521 -0.8338 -0.0000
vn -0.7021 -0.7121 -0.0000
vn -0.8569 -0.5155 -0.0000
vn -0.7539 -0.6570 -0.0000
vn -0.5719 -0.8204 -0.0000
vn -0.9431 -0.3325 -0.0000
vn -0.3611 0.9325 -0.0000
vn -0.2249 0.9744 -0.0000
vn -0.9329 -0.3603 -0.0000
vn -0.9306 -0.3660 -0.0000
vn -0.8594 0.5112 -0.0000
vn -0.8976 0.4409 -0.0000
vn -0.0243 -0.9997 -0.0000
vn -0.1890 -0.9820 -0.0000
vn -0.1265 0.9920 -0.0000
vn -0.1685 0.9857 -0.0000
vn -0.9417 0.3364 -0.0000
vn -0.8257 -0.5641 -0.0000
vn -0.7464 -0.6655 -0.0000
vn -0.9645 0.2639 -0.0000
vn -0.9797 0.2004 -0.0000
vn 0.0608 -0.9981 -0.0000
vn -0.0177 -0.9998 -0.0000
vn -0.5520 -0.8338 -0.0000
vn -0.9911 0.1333 -0.0000
vn -0.9379 0.3468 -0.0000
vn -0.9984 0.0560 -0.0000
vn 0.3434 -0.9392 -0.0000
vn -0.3485 -0.9373 -0.0000
vn -0.6755 -0.7373 -0.0000
vn -0.9896 -0.1441 -0.0000
vn -0.9422 -0.3351 -0.0000
vn -0.1568 -0.9876 -0.0000
vn -0.0411 -0.9992 -0.0000
vn 0.0087 -1.0000 -0.0000
vn -0.0576 -0.9983 -0.0000
vn -0.9800 -0.1988 -0.0000
vn -0.9624 -0.2715 -0.0000
vn -0.9180 -0.3965 -0.0000
vn -0.2054 -0.9787 -0.0000
vn -0.3487 -0.9372 -0.0000
vn -0.9480 -0.3183 -0.0000
vn -0.9899 -0.1417 -0.0000
vn -0.9821 -0.1885 -0.0000
vn -0.9636 -0.2672 -0.0000
vn -0.8967 -0.4427 -0.0000
vn -0.3705 -0.9289 -0.0000
vn -0.2979 -0.9546 -0.0000
vn 0.9924 0.1234 -0.0000
vn 0.9768 0.2142 -0.0000
vn 0.9529 0.3033 -0.0000
vn 0.7885 0.6150 -0.0000
vn 0.6095 0.7928 -0.0000
vn 0.3595 -0.9332 -0.0000
vn 0.1708 -0.9853 -0.0000
vn 0.7110 0.7032 -0.0000
vn 0.8195 0.5730 -0.0000
vn 0.9716 0.2364 -0.0000
vn 0.9753 -0.2210 -0.0000
vn 0.9676 -0.2527 -0.0000
vn -0.3456 -0.9384 -0.0000
vn -0.1623 -0.9867 -0.0000
vn 0.5325 -0.8464 -0.0000
vn -0.1357 -0.9907 -0.0000
vn -0.3360 -0.9419 -0.0000
vn 0.1727 0.9850 -0.0000
vn 0.3486 0.9373 -0.0000
vn 0.2490 0.9685 -0.0000
vn 0.1238 0.9923 -0.0000
vn 0.3701 0.9290 -0.0000
vn 0.7783 -0.6279 -0.0000
vn 0.9070 -0.4210 -0.0000
vn 0.5845 0.8114 -0.0000
vn -0.0000 -0.0000 1.0000
vn -0.0000 -0.0000 -1.0000
vn 0.9982 -0.0593 -0.0000
vn 0.9982 -0.0592 -0.0000
vn 0.2211 0.9753 -0.0000
vn 0.1067 0.9943 -0.0000
vn -0.0089 1.0000 -0.0000
vn -0.0090 1.0000 -0.0000
vn 0.3707 0.9288 -0.0000
vn 0.9859 0.1675 -0.0000
vn 0.9927 0.1209 -0.0000
vn -0.2043 0.9789 -0.0000
vn -0.1096 0.9940 -0.0000
vn 0.2656 0.9641 -0.0000
vn 0.1295 0.9916 -0.0000
vn 0.9983 0.0583 -0.0000
vn 0.9997 -0.0236 -0.0000
vn 0.9750 0.2222 -0.0000
vn -0.0138 0.9999 -0.0000
vn 0.9997 -0.0256 -0.0000
vn 0.9983 -0.0588 -0.0000
vn 0.2131 0.9770 -0.0000
vn 0.9953 0.0968 -0.0000
vn 0.2625 0.9649 -0.0000
vn 0.3396 0.9406 -0.0000
vn 0.6367 0.7711 -0.0000
vn 0.7471 0.6648 -0.0000
vn 0.8861 0.4634 -0.0000
vn 0.9985 0.0556 -0.0000
vn 0.9858 0.1681 -0.0000
vn 0.2728 0.9621 -0.0000
vn 0.9928 0.1200 -0.0000
vn 0.9902 0.1398 -0.0000
vn 0.9827 0.1851 -0.0000
vn 0.9309 0.3652 -0.0000
vn 0.9983 -0.0591 -0.0000
vn 0.9439 0.3304 -0.0000
vn 0.9903 0.1391 -0.0000
vn 0.6272 0.7788 -0.0000
vn 0.4245 0.9054 -0.0000
vn 0.8333 0.5528 -0.0000
vn 0.4242 0.9056 -0.0000
vn 0.9554 0.2954 -0.0000
vn 0.3858 0.9226 -0.0000
vn 0.0577 0.9983 -0.0000
vn -0.8589 0.5121 -0.0000
vn -0.9433 0.3320 -0.0000
vn -0.9553 0.2956 -0.0000
vn -0.0852 0.9964 -0.0000
vn -0.0088 1.0000 -0.0000
vn -0.9951 0.0986 -0.0000
vn -0.5755 0.8178 -0.0000
vn -0.2661 0.9639 -0.0000
vn -0.5731 0.8195 -0.0000
vn -0.2420 0.9703 -0.0000
vn -0.8609 0.5088 -0.0000
vn 0.0575 0.9983 -0.0000
vt 0.106361 0.686738
vt 0.099157 0.905421
vt 0.099157 0.686738
vt 0.106361 0.905421
vt 0.992381 0.515963
vt 0.998956 0.734646
vt 0.992381 0.734646
vt 0.998956 0.515963
vt 0.817592 0.515963
vt 0.803356 0.734646
vt 0.803356 0.515963
vt 0.817592 0.734646
vt 0.428494 0.686738
vt 0.444577 0.905421
vt 0.428494 0.905421
vt 0.444577 0.686738
vt 0.963773 0.000000
vt 0.950274 0.218683
vt 0.950274 0.000000
vt 0.963773 0.218683
vt 0.690179 0.734646
vt 0.702077 0.953329
vt 0.690179 0.953329
vt 0.702077 0.734646
vt 0.892560 0.515963
vt 0.879224 0.734646
vt 0.879224 0.515963
vt 0.892560 0.734646
vt 0.845313 0.734646
vt 0.845313 0.515963
vt 0.082967 0.686738
vt 0.060255 0.905421
vt 0.060255 0.686738
vt 0.082967 0.905421
vt 0.479000 0.905421
vt 0.479000 0.686738
vt 0.733694 0.953329
vt 0.733694 0.734646
vt 0.748201 0.953329
vt 0.748201 0.734646
vt 0.046662 0.905421
vt 0.046662 0.686738
vt 0.999069 0.734646
vt 0.995196 0.953329
vt 0.995196 0.734646
vt 0.999069 0.953329
vt 0.030149 0.686738
vt 0.020953 0.905421
vt 0.020953 0.686738
vt 0.030149 0.905421
vt 0.120741 0.686738
vt 0.199394 0.905421
vt 0.120741 0.905421
vt 0.199394 0.686738
vt 0.989934 0.515963
vt 0.989934 0.734646
vt 0.000000 0.905421
vt 0.000000 0.686738
vt 0.979136 0.000000
vt 0.979136 0.218683
vt 0.689735 0.686738
vt 0.683942 0.905421
vt 0.683942 0.686738
vt 0.689735 0.905421
vt 0.113726 0.686738
vt 0.113726 0.905421
vt 0.494533 0.905421
vt 0.494533 0.686738
vt 0.209533 0.905421
vt 0.209533 0.686738
vt 0.928788 0.515963
vt 0.900452 0.734646
vt 0.900452 0.515963
vt 0.928788 0.734646
vt 0.690179 0.515963
vt 0.701852 0.734646
vt 0.690179 0.734646
vt 0.701852 0.515963
vt 0.735898 0.515963
vt 0.770499 0.734646
vt 0.735898 0.734646
vt 0.770499 0.515963
vt 0.946025 0.515963
vt 0.946025 0.734646
vt 0.994278 0.297280
vt 0.989793 0.515963
vt 0.989793 0.297280
vt 0.994278 0.515963
vt 0.787800 0.515963
vt 0.787800 0.734646
vt 0.951669 0.515963
vt 0.951669 0.734646
vt 1.000000 0.297280
vt 1.000000 0.515963
vt 0.997085 0.000000
vt 0.992522 0.218683
vt 0.992522 0.000000
vt 0.997085 0.218683
vt 0.235212 0.686738
vt 0.209533 0.905421
vt 0.209533 0.686738
vt 0.235212 0.905421
vt 0.979128 0.515963
vt 0.979128 0.734646
vt 0.798106 0.734646
vt 0.802862 0.953329
vt 0.798106 0.953329
vt 0.802862 0.734646
vt 0.845299 0.953329
vt 0.876988 0.734646
vt 0.876988 0.953329
vt 0.845299 0.734646
vt 0.892560 0.734646
vt 0.892560 0.953329
vt 0.965472 0.734646
vt 0.965472 0.515963
vt 0.690179 0.297280
vt 0.908862 0.273313
vt 0.908862 0.297280
vt 0.690179 0.273313
vt 0.927167 0.515963
vt 0.939973 0.297280
vt 0.939973 0.515963
vt 0.927167 0.297280
vt 0.974366 0.515963
vt 0.989794 0.297280
vt 0.989794 0.515963
vt 0.974366 0.297280
vt 0.965693 0.953329
vt 0.971312 0.734646
vt 0.971312 0.953329
vt 0.965693 0.734646
vt 0.690179 0.038765
vt 0.908862 0.005750
vt 0.908862 0.038765
vt 0.690179 0.005750
vt 0.690179 0.135888
vt 0.908862 0.068868
vt 0.908862 0.135888
vt 0.690179 0.068868
vt 0.934743 0.000000
vt 0.950274 0.218683
vt 0.934743 0.218683
vt 0.950274 0.000000
vt 0.909787 0.297280
vt 0.909787 0.515963
vt 0.895413 0.297280
vt 0.895413 0.515963
vt 0.941282 0.953329
vt 0.948707 0.734646
vt 0.948707 0.953329
vt 0.941282 0.734646
vt 0.979128 0.734646
vt 0.979128 0.515963
vt 0.908862 0.000000
vt 0.690179 -0.000000
vt 0.059522 0.456160
vt 0.076007 0.480063
vt 0.063245 0.470788
vt 0.068781 0.443371
vt 0.089687 0.477021
vt 0.118428 0.461176
vt 0.097272 0.423352
vt 0.132570 0.454878
vt 0.103743 0.406857
vt 0.136057 0.459521
vt 0.067600 0.650857
vt 0.091566 0.682151
vt 0.079074 0.671573
vt 0.063623 0.620345
vt 0.114798 0.686737
vt 0.069881 0.611258
vt 0.129205 0.684635
vt 0.068019 0.606836
vt 0.071034 0.603109
vt 0.068475 0.597756
vt 0.067541 0.592636
vt 0.076811 0.579825
vt 0.142674 0.677402
vt 0.090725 0.569340
vt 0.173333 0.660135
vt 0.118551 0.548368
vt 0.177976 0.656636
vt 0.182618 0.653136
vt 0.186345 0.656165
vt 0.198456 0.664557
vt 0.149172 0.531117
vt 0.204041 0.666186
vt 0.212644 0.664084
vt 0.228678 0.656381
vt 0.272067 0.607620
vt 0.157749 0.523196
vt 0.156113 0.517150
vt 0.147497 0.501811
vt 0.136488 0.473869
vt 0.135370 0.464402
vt 0.101868 0.390847
vt 0.090237 0.356072
vt 0.086722 0.322461
vt 0.287337 0.575677
vt 0.086932 0.303458
vt 0.089707 0.296850
vt 0.090740 0.294391
vt 0.002866 0.220585
vt 0.013846 0.247976
vt -0.000000 0.232249
vt 0.020877 0.254053
vt 0.033433 0.265027
vt 0.068333 0.175224
vt 0.045470 0.272587
vt 0.066921 0.284063
vt 0.083533 0.291100
vt 0.261365 0.517947
vt 0.289162 0.562628
vt 0.261322 0.500492
vt 0.269658 0.488381
vt 0.298687 0.476705
vt 0.074980 0.172023
vt 0.084927 0.171758
vt 0.089327 0.175674
vt 0.101606 0.188123
vt 0.111099 0.191098
vt 0.312380 0.467843
vt 0.115724 0.187613
vt 0.287616 0.425327
vt 0.137444 0.162561
vt 0.281302 0.411160
vt 0.291032 0.400916
vt 0.320256 0.381804
vt 0.153604 0.135914
vt 0.198649 0.086054
vt 0.319905 0.342784
vt 0.334869 0.372247
vt 0.328548 0.358091
vt 0.316370 0.326541
vt 0.327249 0.313981
vt 0.341855 0.304428
vt 0.345089 0.299082
vt 0.310793 0.247914
vt 0.331774 0.275683
vt 0.341344 0.290273
vt 0.310076 0.241195
vt 0.304770 0.172638
vt 0.312388 0.006124
vt 0.317015 0.233062
vt 0.328812 0.219815
vt 0.332045 0.214476
vt 0.307757 0.163135
vt 0.312893 0.096941
vt 0.322342 0.153594
vt 0.317345 0.112421
vt 0.331580 0.140831
vt 0.321202 0.084885
vt 0.334383 0.073502
vt 0.337347 0.058233
vt 0.335216 0.043912
vt 0.339804 0.028874
vt 0.339711 -0.000000
vt 0.345089 0.014758
vt 0.329231 0.204984
vt 0.689735 0.727291
vt 0.689735 0.686737
vt 0.689736 0.692529
vt 0.689737 0.721500
vt 0.689737 0.686738
vt 0.689738 0.704116
vt 0.308615 0.453193
vt 0.281442 0.546563
vt 0.598613 0.682151
vt 0.622579 0.650857
vt 0.611105 0.671573
vt 0.626556 0.620345
vt 0.575381 0.686738
vt 0.620298 0.611258
vt 0.560974 0.684635
vt 0.622160 0.606836
vt 0.619145 0.603109
vt 0.621704 0.597756
vt 0.622638 0.592636
vt 0.613368 0.579825
vt 0.547505 0.677402
vt 0.599454 0.569340
vt 0.516846 0.660135
vt 0.571628 0.548368
vt 0.512203 0.656636
vt 0.507560 0.653136
vt 0.503833 0.656165
vt 0.491723 0.664557
vt 0.541007 0.531117
vt 0.486138 0.666186
vt 0.477535 0.664084
vt 0.461501 0.656381
vt 0.418111 0.607620
vt 0.532430 0.523196
vt 0.534066 0.517150
vt 0.542682 0.501811
vt 0.553691 0.473869
vt 0.554809 0.464402
vt 0.554122 0.459521
vt 0.586436 0.406857
vt 0.588311 0.390847
vt 0.599942 0.356072
vt 0.603457 0.322461
vt 0.402842 0.575677
vt 0.603247 0.303458
vt 0.600472 0.296850
vt 0.599439 0.294391
vt 0.408737 0.546563
vt 0.428814 0.517947
vt 0.401017 0.562628
vt 0.381563 0.453193
vt 0.402563 0.425327
vt 0.377799 0.467843
vt 0.614172 0.480063
vt 0.630657 0.456160
vt 0.626934 0.470788
vt 0.621398 0.443371
vt 0.600492 0.477021
vt 0.571751 0.461176
vt 0.592907 0.423352
vt 0.557609 0.454878
vt 0.676333 0.247976
vt 0.687313 0.220585
vt 0.690179 0.232249
vt 0.669302 0.254053
vt 0.656746 0.265027
vt 0.621846 0.175224
vt 0.644709 0.272587
vt 0.623258 0.284063
vt 0.606646 0.291100
vt 0.428857 0.500492
vt 0.420521 0.488381
vt 0.391492 0.476705
vt 0.615199 0.172023
vt 0.605252 0.171758
vt 0.600852 0.175674
vt 0.588573 0.188123
vt 0.579080 0.191098
vt 0.574455 0.187613
vt 0.552735 0.162561
vt 0.408877 0.411160
vt 0.399147 0.400916
vt 0.369923 0.381804
vt 0.536575 0.135914
vt 0.491530 0.086054
vt 0.370274 0.342784
vt 0.355310 0.372247
vt 0.361631 0.358091
vt 0.373809 0.326541
vt 0.362930 0.313981
vt 0.348324 0.304428
vt 0.345089 0.299082
vt 0.379386 0.247914
vt 0.358405 0.275683
vt 0.348835 0.290273
vt 0.360948 0.204984
vt 0.385409 0.172638
vt 0.358134 0.214476
vt 0.689738 0.686737
vt 0.689738 0.727291
vt 0.689736 0.692529
vt 0.689739 0.686738
vt 0.689739 0.721500
vt 0.689738 0.704116
vt 0.377791 0.006124
vt 0.380103 0.241195
vt 0.373164 0.233062
vt 0.361367 0.219815
vt 0.382422 0.163135
vt 0.377286 0.096941
vt 0.367837 0.153594
vt 0.372834 0.112421
vt 0.358599 0.140831
vt 0.368977 0.084885
vt 0.355796 0.073502
vt 0.352832 0.058233
vt 0.354963 0.043912
vt 0.350375 0.028874
vt 0.350468 -0.000000
vt 0.345089 0.014758
vt 0.775073 0.953329
vt 0.792349 0.734646
vt 0.792349 0.953329
vt 0.775073 0.734646
vt 0.494533 0.686738
vt 0.508653 0.905421
vt 0.494533 0.905421
vt 0.508653 0.686738
vt 0.917648 0.000000
vt 0.917648 0.218683
vt 0.542901 0.686738
vt 0.560027 0.905421
vt 0.542901 0.905421
vt 0.560027 0.686738
vt 0.624625 0.686738
vt 0.639057 0.905421
vt 0.624625 0.905421
vt 0.639057 0.686738
vt 0.892560 0.953329
vt 0.907954 0.734646
vt 0.907954 0.953329
vt 0.892560 0.734646
vt 0.667961 0.905421
vt 0.667961 0.686738
vt 0.805568 0.734646
vt 0.822129 0.953329
vt 0.805568 0.953329
vt 0.822129 0.734646
vt 0.378627 0.905421
vt 0.413490 0.686738
vt 0.413490 0.905421
vt 0.378627 0.686738
vt 0.925527 0.734646
vt 0.925527 0.953329
vt 0.320142 0.905421
vt 0.354741 0.686738
vt 0.354741 0.905421
vt 0.320142 0.686738
vt 0.839247 0.953329
vt 0.839247 0.734646
vt 0.302708 0.905421
vt 0.302708 0.686738
vt 0.950622 0.297280
vt 0.968319 0.515963
vt 0.950622 0.515963
vt 0.968319 0.297280
vt 0.813021 0.515963
vt 0.823459 0.297280
vt 0.823459 0.515963
vt 0.813021 0.297280
vt 0.360877 0.686738
vt 0.360877 0.905421
vt 0.609226 0.905421
vt 0.609226 0.686738
vt 0.939973 0.297280
vt 0.939973 0.515963
vt 0.757792 0.953329
vt 0.757792 0.734646
vt 0.293225 0.905421
vt 0.293225 0.686738
vt 0.941282 0.734646
vt 0.941282 0.953329
vt 0.574533 0.686738
vt 0.574533 0.905421
vt 0.908862 0.000000
vt 0.908862 0.218683
vt 0.845299 0.953329
vt 0.845299 0.734646
vt 0.428494 0.686738
vt 0.428494 0.905421
vt 0.974366 0.297280
vt 0.779756 0.297280
vt 0.779756 0.515963
vt 0.889647 0.297280
vt 0.895413 0.515963
vt 0.889647 0.515963
vt 0.895413 0.297280
vt 0.990310 0.734646
vt 0.976041 0.953329
vt 0.976041 0.734646
vt 0.990310 0.953329
vt 0.849901 0.297280
vt 0.883882 0.515963
vt 0.849901 0.515963
vt 0.883882 0.297280
vt 0.258387 0.686738
vt 0.258387 0.905421
vt 0.835219 0.515963
vt 0.835219 0.297280
vt 0.690179 0.297280
vt 0.697794 0.515963
vt 0.690179 0.515963
vt 0.697794 0.297280
vt 0.274559 0.905421
vt 0.293225 0.686738
vt 0.293225 0.905421
vt 0.274559 0.686738
vt 0.714637 0.297280
vt 0.714637 0.515963
s 1
f 1/1/1 2/2/2 3/3/2
f 2/2/2 1/1/1 4/4/1
f 5/5/3 6/6/4 7/7/3
f 6/6/4 5/5/3 8/8/4
f 9/9/5 6/10/4 8/11/4
f 6/10/4 9/9/5 10/12/5
f 11/13/6 12/14/7 13/15/6
f 12/14/7 11/13/6 14/16/7
f 15/17/8 16/18/8 17/19/8
f 16/18/8 15/17/8 18/20/8
f 19/21/9 20/22/10 21/23/9
f 20/22/10 19/21/9 22/24/10
f 11/25/6 23/26/11 24/27/11
f 23/26/11 11/25/6 13/28/6
f 24/27/11 25/29/12 26/30/12
f 25/29/12 24/27/11 23/26/11
f 27/31/13 28/32/14 29/33/14
f 28/32/14 27/31/13 30/34/13
f 14/16/15 31/35/16 12/14/15
f 31/35/16 14/16/15 32/36/16
f 22/24/10 33/37/17 20/22/10
f 33/37/17 22/24/10 34/38/17
f 34/38/17 35/39/18 33/37/17
f 35/39/18 34/38/17 36/40/18
f 29/33/14 37/41/19 38/42/19
f 37/41/19 29/33/14 28/32/14
f 39/43/20 40/44/21 41/45/21
f 40/44/21 39/43/20 42/46/20
f 43/47/22 44/48/23 45/49/23
f 44/48/23 43/47/22 46/50/22
f 38/42/19 46/50/22 43/47/22
f 46/50/22 38/42/19 37/41/19
f 47/51/24 48/52/25 49/53/24
f 48/52/25 47/51/24 50/54/25
f 1/55/26 7/7/3 4/56/26
f 7/7/3 1/55/26 5/5/3
f 26/30/12 10/12/5 9/9/5
f 10/12/5 26/30/12 25/29/12
f 3/3/2 30/34/13 27/31/13
f 30/34/13 3/3/2 2/2/2
f 45/49/23 51/57/27 52/58/27
f 51/57/27 45/49/23 44/48/23
f 19/59/28 18/20/28 15/17/28
f 18/20/28 19/59/28 21/60/28
f 41/61/29 35/62/29 36/63/29
f 35/62/29 41/61/29 40/64/29
f 53/65/30 49/53/24 54/66/30
f 49/53/24 53/65/30 47/51/24
f 32/36/16 16/67/31 31/35/16
f 16/67/31 32/36/16 17/68/31
f 50/54/32 51/69/32 48/52/32
f 51/69/32 50/54/32 52/70/32
f 55/71/33 56/72/34 57/73/34
f 56/72/34 55/71/33 58/74/33
f 59/75/35 60/76/36 61/77/35
f 60/76/36 59/75/35 62/78/36
f 63/79/37 64/80/38 65/81/37
f 64/80/38 63/79/37 66/82/38
f 67/83/39 58/74/33 55/71/33
f 58/74/33 67/83/39 68/84/39
f 69/85/40 70/86/41 71/87/41
f 70/86/41 69/85/40 72/88/40
f 73/89/42 70/10/43 74/90/42
f 70/10/43 73/89/42 71/11/43
f 59/91/44 68/84/39 67/83/39
f 68/84/39 59/91/44 61/92/44
f 75/93/45 72/88/40 69/85/40
f 72/88/40 75/93/45 76/94/45
f 77/95/46 78/96/46 79/97/46
f 78/96/46 77/95/46 80/98/46
f 62/78/36 65/81/37 60/76/36
f 65/81/37 62/78/36 63/79/37
f 81/99/47 82/100/48 83/101/48
f 82/100/48 81/99/47 84/102/47
f 66/82/38 74/90/42 64/80/38
f 74/90/42 66/82/38 73/89/42
f 77/103/49 82/56/49 80/104/49
f 82/56/49 77/103/49 83/55/49
f 75/105/50 78/106/50 76/107/50
f 78/106/50 75/105/50 79/108/50
f 85/109/51 86/110/52 87/111/52
f 86/110/52 85/109/51 88/112/51
f 87/111/52 89/113/53 90/114/53
f 89/113/53 87/111/52 86/110/52
f 91/91/54 92/115/55 93/92/54
f 92/115/55 91/91/54 94/116/55
f 95/117/56 96/118/57 97/119/56
f 96/118/57 95/117/56 98/120/57
f 99/121/58 100/122/59 101/123/59
f 100/122/59 99/121/58 102/124/58
f 103/125/60 95/126/60 97/127/60
f 95/126/60 103/125/60 104/128/60
f 105/129/61 106/130/62 107/131/62
f 106/130/62 105/129/61 108/132/61
f 109/133/63 110/134/64 111/135/63
f 110/134/64 109/133/63 112/136/64
f 106/1/65 54/66/30 107/4/65
f 54/66/30 106/1/65 53/65/30
f 113/137/66 114/138/67 115/139/66
f 114/138/67 113/137/66 116/140/67
f 117/141/68 85/142/69 118/143/68
f 85/142/69 117/141/68 88/144/69
f 119/145/70 99/121/71 120/146/70
f 99/121/71 119/145/70 102/124/71
f 89/147/72 120/146/70 90/148/72
f 120/146/70 89/147/72 119/145/70
f 121/149/73 122/150/74 123/151/74
f 122/150/74 121/149/73 124/152/73
f 98/120/57 115/139/66 96/118/57
f 115/139/66 98/120/57 113/137/66
f 123/151/74 108/132/61 105/129/61
f 108/132/61 123/151/74 122/150/74
f 94/116/55 103/153/75 92/115/55
f 103/153/75 94/116/55 104/154/75
f 112/136/64 121/155/38 110/134/64
f 121/155/38 112/136/64 124/156/38
f 116/140/67 111/135/63 114/138/67
f 111/135/63 116/140/67 109/133/63
f 101/60/59 91/97/54 93/96/54
f 91/97/54 101/60/59 100/59/59
f 17/157/76 19/158/76 15/159/76
f 19/158/76 17/157/76 32/160/76
f 19/158/76 32/160/76 22/161/76
f 22/161/76 32/160/76 34/162/76
f 34/162/76 32/160/76 14/163/76
f 34/162/76 14/163/76 36/164/76
f 36/164/76 14/163/76 11/165/76
f 36/164/76 11/165/76 41/166/76
f 81/167/76 125/168/76 126/169/76
f 125/168/76 81/167/76 83/170/76
f 125/168/76 83/170/76 127/171/76
f 127/171/76 83/170/76 77/172/76
f 127/171/76 77/172/76 128/173/76
f 128/173/76 77/172/76 79/174/76
f 128/173/76 79/174/76 75/175/76
f 128/173/76 75/175/76 69/176/76
f 128/173/76 69/176/76 71/177/76
f 128/173/76 71/177/76 73/178/76
f 128/173/76 73/178/76 129/179/76
f 129/179/76 73/178/76 66/180/76
f 129/179/76 66/180/76 130/181/76
f 130/181/76 66/180/76 63/182/76
f 130/181/76 63/182/76 131/183/76
f 131/183/76 63/182/76 132/184/76
f 132/184/76 63/182/76 133/185/76
f 133/185/76 63/182/76 134/186/76
f 134/186/76 63/182/76 62/187/76
f 134/186/76 62/187/76 135/188/76
f 135/188/76 62/187/76 136/189/76
f 136/189/76 62/187/76 137/190/76
f 137/190/76 62/187/76 138/191/76
f 138/191/76 62/187/76 59/192/76
f 138/191/76 59/192/76 67/193/76
f 138/191/76 67/193/76 55/194/76
f 138/191/76 55/194/76 57/195/76
f 138/191/76 57/195/76 39/196/76
f 138/191/76 39/196/76 41/166/76
f 138/191/76 41/166/76 11/165/76
f 138/191/76 11/165/76 24/197/76
f 138/191/76 24/197/76 26/198/76
f 138/191/76 26/198/76 9/199/76
f 138/191/76 9/199/76 139/200/76
f 139/200/76 9/199/76 8/201/76
f 139/200/76 8/201/76 5/202/76
f 139/200/76 5/202/76 1/203/76
f 50/204/76 45/205/76 52/206/76
f 45/205/76 50/204/76 43/207/76
f 43/207/76 50/204/76 38/208/76
f 38/208/76 50/204/76 47/209/76
f 38/208/76 47/209/76 29/210/76
f 29/210/76 47/209/76 27/211/76
f 27/211/76 47/209/76 3/212/76
f 3/212/76 47/209/76 1/203/76
f 1/203/76 47/209/76 139/200/76
f 139/200/76 47/209/76 140/213/76
f 139/200/76 140/213/76 141/214/76
f 140/213/76 47/209/76 142/215/76
f 142/215/76 47/209/76 143/216/76
f 143/216/76 47/209/76 144/217/76
f 144/217/76 47/209/76 53/218/76
f 144/217/76 53/218/76 106/219/76
f 144/217/76 106/219/76 108/220/76
f 144/217/76 108/220/76 122/221/76
f 144/217/76 122/221/76 124/222/76
f 144/217/76 124/222/76 145/223/76
f 145/223/76 124/222/76 112/224/76
f 145/223/76 112/224/76 146/225/76
f 146/225/76 112/224/76 109/226/76
f 146/225/76 109/226/76 147/227/76
f 147/227/76 109/226/76 148/228/76
f 148/228/76 109/226/76 149/229/76
f 149/229/76 109/226/76 116/230/76
f 149/229/76 116/230/76 113/231/76
f 149/229/76 113/231/76 150/232/76
f 149/229/76 150/232/76 151/233/76
f 151/233/76 150/232/76 152/234/76
f 150/232/76 113/231/76 153/235/76
f 153/235/76 113/231/76 154/236/76
f 154/236/76 113/231/76 155/237/76
f 155/237/76 113/231/76 156/238/76
f 156/238/76 113/231/76 157/239/76
f 156/238/76 157/239/76 158/240/76
f 156/238/76 158/240/76 159/241/76
f 113/231/76 160/242/76 157/239/76
f 160/242/76 113/231/76 161/243/76
f 161/243/76 113/231/76 98/244/76
f 160/242/76 161/243/76 162/245/76
f 162/245/76 161/243/76 163/246/76
f 163/246/76 161/243/76 164/247/76
f 161/243/76 98/244/76 165/248/76
f 165/248/76 98/244/76 89/249/76
f 165/248/76 89/249/76 117/250/76
f 117/250/76 89/249/76 86/251/76
f 117/250/76 86/251/76 88/252/76
f 89/249/76 98/244/76 119/253/76
f 119/253/76 98/244/76 102/254/76
f 102/254/76 98/244/76 100/255/76
f 100/255/76 98/244/76 91/256/76
f 91/256/76 98/244/76 94/257/76
f 94/257/76 98/244/76 95/258/76
f 94/257/76 95/258/76 104/259/76
f 161/243/76 166/260/76 164/247/76
f 166/261/77 161/262/77 167/263/77
f 166/264/76 167/265/76 168/266/76
f 169/267/76 145/223/76 146/225/76
f 170/268/76 141/214/76 140/213/76
f 171/269/77 84/270/77 172/271/77
f 84/270/77 171/269/77 82/272/77
f 82/272/77 171/269/77 173/273/77
f 82/272/77 173/273/77 80/274/77
f 80/274/77 173/273/77 174/275/77
f 80/274/77 174/275/77 78/276/77
f 78/276/77 174/275/77 76/277/77
f 76/277/77 174/275/77 72/278/77
f 72/278/77 174/275/77 70/279/77
f 70/279/77 174/275/77 74/280/77
f 74/280/77 174/275/77 175/281/77
f 74/280/77 175/281/77 64/282/77
f 64/282/77 175/281/77 176/283/77
f 64/282/77 176/283/77 65/284/77
f 65/284/77 176/283/77 177/285/77
f 65/284/77 177/285/77 178/286/77
f 65/284/77 178/286/77 179/287/77
f 65/284/77 179/287/77 180/288/77
f 65/284/77 180/288/77 60/289/77
f 60/289/77 180/288/77 181/290/77
f 60/289/77 181/290/77 182/291/77
f 60/289/77 182/291/77 183/292/77
f 60/289/77 183/292/77 184/293/77
f 60/289/77 184/293/77 61/294/77
f 61/294/77 184/293/77 68/295/77
f 68/295/77 184/293/77 58/296/77
f 58/296/77 184/293/77 56/297/77
f 56/297/77 184/293/77 42/298/77
f 42/298/77 184/293/77 40/299/77
f 40/299/77 184/293/77 13/300/77
f 13/300/77 184/293/77 23/301/77
f 23/301/77 184/293/77 25/302/77
f 25/302/77 184/293/77 10/303/77
f 10/303/77 184/293/77 185/304/77
f 10/303/77 185/304/77 6/305/77
f 6/305/77 185/304/77 7/306/77
f 7/306/77 185/304/77 4/307/77
f 186/308/77 187/309/77 188/310/77
f 189/311/77 190/312/77 191/313/77
f 21/314/77 16/315/77 18/316/77
f 16/315/77 21/314/77 31/317/77
f 31/317/77 21/314/77 20/318/77
f 31/317/77 20/318/77 33/319/77
f 31/317/77 33/319/77 12/320/77
f 12/320/77 33/319/77 35/321/77
f 12/320/77 35/321/77 13/300/77
f 13/300/77 35/321/77 40/299/77
f 44/322/77 48/323/77 51/324/77
f 48/323/77 44/322/77 46/325/77
f 48/323/77 46/325/77 37/326/77
f 48/323/77 37/326/77 49/327/77
f 49/327/77 37/326/77 28/328/77
f 49/327/77 28/328/77 30/329/77
f 49/327/77 30/329/77 2/330/77
f 49/327/77 2/330/77 4/307/77
f 49/327/77 4/307/77 185/304/77
f 49/327/77 185/304/77 187/309/77
f 187/309/77 185/304/77 188/310/77
f 49/327/77 187/309/77 192/331/77
f 49/327/77 192/331/77 193/332/77
f 49/327/77 193/332/77 194/333/77
f 49/327/77 194/333/77 54/334/77
f 54/334/77 194/333/77 107/335/77
f 107/335/77 194/333/77 105/336/77
f 105/336/77 194/333/77 123/337/77
f 123/337/77 194/333/77 121/338/77
f 121/338/77 194/333/77 191/313/77
f 121/338/77 191/313/77 110/339/77
f 110/339/77 191/313/77 190/312/77
f 110/339/77 190/312/77 111/340/77
f 111/340/77 190/312/77 195/341/77
f 111/340/77 195/341/77 196/342/77
f 111/340/77 196/342/77 197/343/77
f 111/340/77 197/343/77 114/344/77
f 114/344/77 197/343/77 115/345/77
f 115/345/77 197/343/77 198/346/77
f 198/346/77 197/343/77 199/347/77
f 198/346/77 199/347/77 200/348/77
f 115/345/77 198/346/77 201/349/77
f 115/345/77 201/349/77 202/350/77
f 115/345/77 202/350/77 203/351/77
f 115/345/77 203/351/77 204/352/77
f 115/345/77 204/352/77 205/353/77
f 205/353/77 204/352/77 206/354/77
f 206/354/77 204/352/77 207/355/77
f 208/356/77 209/357/77 210/358/77
f 209/359/76 208/360/76 211/361/76
f 211/362/77 208/363/77 212/364/77
f 115/345/77 209/357/77 96/365/77
f 209/357/77 115/345/77 213/366/77
f 213/366/77 115/345/77 205/353/77
f 209/357/77 213/366/77 214/367/77
f 209/357/77 214/367/77 215/368/77
f 209/357/77 215/368/77 210/358/77
f 96/365/77 209/357/77 216/369/77
f 96/365/77 216/369/77 90/370/77
f 90/370/77 216/369/77 118/371/77
f 90/370/77 118/371/77 87/372/77
f 87/372/77 118/371/77 85/373/77
f 96/365/77 90/370/77 120/374/77
f 96/365/77 120/374/77 99/375/77
f 96/365/77 99/375/77 101/376/77
f 96/365/77 101/376/77 93/377/77
f 96/365/77 93/377/77 92/378/77
f 96/365/77 92/378/77 97/379/77
f 97/379/77 92/378/77 103/380/77
f 212/381/78 167/382/79 211/383/79
f 167/382/79 212/381/78 168/384/78
f 147/385/80 196/386/81 195/387/80
f 196/386/81 147/385/80 148/388/81
f 165/389/82 118/143/68 216/390/82
f 118/143/68 165/389/82 117/141/68
f 149/391/83 199/392/83 197/393/83
f 199/392/83 149/391/83 151/394/83
f 142/395/84 193/396/84 192/397/84
f 193/396/84 142/395/84 143/398/84
f 199/399/85 152/400/86 200/401/86
f 152/400/86 199/399/85 151/402/85
f 148/388/81 197/393/83 196/386/81
f 197/393/83 148/388/81 149/391/83
f 143/398/87 194/403/88 193/396/87
f 194/403/88 143/398/87 144/404/88
f 153/405/89 202/406/90 201/407/89
f 202/406/90 153/405/89 154/408/90
f 186/409/91 140/410/92 187/411/92
f 140/410/92 186/409/91 170/412/91
f 200/401/86 150/413/93 198/414/93
f 150/413/93 200/401/86 152/400/86
f 144/404/88 191/62/94 194/403/88
f 191/62/94 144/404/88 145/63/94
f 206/415/95 157/416/96 205/417/96
f 157/416/96 206/415/95 158/418/95
f 154/408/90 203/419/97 202/406/90
f 203/419/97 154/408/90 155/420/97
f 207/421/98 158/418/95 206/415/95
f 158/418/95 207/421/98 159/422/98
f 162/423/99 215/424/100 214/425/99
f 215/424/100 162/423/99 163/426/100
f 185/427/101 141/428/102 188/429/102
f 141/428/102 185/427/101 139/430/101
f 205/417/103 160/431/103 213/432/103
f 160/431/103 205/417/103 157/416/103
f 190/433/104 147/395/105 195/397/105
f 147/395/105 190/433/104 146/434/104
f 160/435/106 214/425/99 213/436/106
f 214/425/99 160/435/106 162/423/99
f 208/437/107 168/384/78 212/381/78
f 168/384/78 208/437/107 166/438/107
f 188/432/108 170/412/91 186/409/91
f 170/412/91 188/432/108 141/431/108
f 204/439/109 159/422/98 207/421/98
f 159/422/98 204/439/109 156/440/109
f 198/414/93 153/441/110 201/442/110
f 153/441/110 198/414/93 150/413/93
f 211/383/79 161/105/111 209/107/111
f 161/105/111 211/383/79 167/382/79
f 191/392/112 169/443/113 189/444/113
f 169/443/113 191/392/112 145/394/112
f 161/445/114 216/390/114 209/446/114
f 216/390/114 161/445/114 165/389/114
f 155/420/97 204/447/115 203/419/97
f 204/447/115 155/420/97 156/448/115
f 187/411/116 142/449/116 192/450/116
f 142/449/116 187/411/116 140/410/116
f 163/426/100 210/125/117 215/424/100
f 210/125/117 163/426/100 164/451/117
f 189/444/113 146/434/104 190/433/104
f 146/434/104 189/444/113 169/443/113
f 210/39/118 166/438/107 208/437/107
f 166/438/107 210/39/118 164/40/118
f 138/452/119 185/427/101 184/453/119
f 185/427/101 138/452/119 139/430/101
f 131/454/120 178/455/120 177/456/120
f 178/455/120 131/454/120 132/457/120
f 134/458/121 179/459/122 133/460/122
f 179/459/122 134/458/121 180/461/121
f 133/460/122 178/131/123 132/130/123
f 178/131/123 133/460/122 179/459/122
f 129/462/124 176/463/125 175/464/124
f 176/463/125 129/462/124 130/465/125
f 126/466/126 84/102/47 81/99/47
f 84/102/47 126/466/126 172/467/126
f 127/428/127 174/468/128 173/429/127
f 174/468/128 127/428/127 128/469/128
f 128/469/128 175/464/124 174/468/128
f 175/464/124 128/469/128 129/462/124
f 135/45/129 180/461/121 134/458/121
f 180/461/121 135/45/129 181/44/129
f 135/470/129 182/471/130 181/472/129
f 182/471/130 135/470/129 136/473/130
f 171/474/131 127/475/127 173/476/127
f 127/475/127 171/474/131 125/477/131
f 137/478/132 184/453/119 183/479/132
f 184/453/119 137/478/132 138/452/119
f 130/465/125 177/456/120 176/463/125
f 177/456/120 130/465/125 131/454/120
f 136/473/130 183/479/132 182/471/130
f 183/479/132 136/473/130 137/478/132
f 125/477/131 172/467/126 126/466/126
f 172/467/126 125/477/131 171/474/131
f 57/73/34 42/28/20 39/25/20
f 42/28/20 57/73/34 56/72/34
