# Blender 4.4.1
# www.blender.org
o dino2
v 18.086609 1.918335 -3.984190
v 17.984467 1.685303 4.015810
v 17.984467 1.685303 -3.984190
v 18.086609 1.918335 4.015810
v -1.542877 2.803741 4.015810
v -1.336761 2.976135 -3.984190
v -1.542877 2.803742 -3.984190
v -1.336761 2.976135 4.015810
v 1.914917 4.354065 4.015810
v 2.615845 4.486877 -3.984190
v 1.914917 4.354065 -3.984190
v 2.615845 4.486877 4.015810
v 6.990417 4.894196 4.015810
v 7.716980 4.877808 -3.984190
v 6.990417 4.894196 -3.984190
v 7.716980 4.877808 4.015810
v -1.539825 2.951203 -3.984190
v -1.539825 2.951202 4.015810
v -1.160065 3.119812 -3.984190
v -1.160065 3.119812 4.015810
v -1.460480 3.984986 -3.984190
v -1.504791 3.245788 4.015810
v -1.504791 3.245789 -3.984190
v -1.460480 3.984985 4.015810
v -0.135468 3.599457 4.015810
v 1.298279 4.100677 -3.984190
v -0.135468 3.599457 -3.984190
v 1.298279 4.100677 4.015810
v 4.078217 4.781219 4.015810
v 5.537323 4.927032 -3.984190
v 4.078217 4.781219 -3.984190
v 5.537323 4.927032 4.015810
v 8.467407 4.741638 4.015810
v 9.875732 4.382355 -3.984190
v 8.467407 4.741638 -3.984190
v 9.875732 4.382355 4.015810
v 12.776184 3.722718 -3.984190
v 12.776184 3.722717 4.015810
v -0.751709 3.258332 -3.984190
v -0.751709 3.258331 4.015810
v 15.167786 2.928314 -3.984190
v 15.167786 2.928314 4.015810
v 16.600159 2.659546 -3.984190
v 16.600159 2.659546 4.015810
v 17.319580 2.584259 -3.984190
v 17.319580 2.584259 4.015810
v 17.938477 2.304718 -3.984190
v 17.938477 2.304718 4.015810
v 18.067444 2.066009 4.015810
v 18.067444 2.066010 -3.984190
v 11.461670 -2.100860 -3.984190
v 11.747833 -2.655182 4.015810
v 11.747833 -2.655182 -3.984190
v 11.461670 -2.100861 4.015810
v 13.071472 -4.062927 4.015810
v 13.180603 -4.151215 -3.984190
v 13.071472 -4.062927 -3.984190
v 13.180603 -4.151215 4.015810
v 13.654388 0.230255 4.015810
v 12.981750 0.041199 -3.984190
v 13.654388 0.230255 -3.984190
v 12.981750 0.041199 4.015810
v 13.090454 -4.234985 -3.984190
v 13.090454 -4.234985 4.015810
v 17.445923 1.403625 4.015810
v 16.794647 1.154205 -3.984190
v 17.445923 1.403626 -3.984190
v 16.794647 1.154205 4.015810
v 12.643829 -3.537628 4.015810
v 12.837097 -3.656677 -3.984190
v 12.643829 -3.537628 -3.984190
v 12.837097 -3.656677 4.015810
v 16.209045 1.020843 4.015810
v 16.209045 1.020844 -3.984190
v 11.395050 -1.723694 -3.984190
v 11.395050 -1.723694 4.015810
v 12.300507 -0.322235 4.015810
v 11.788116 -0.776001 -3.984190
v 12.300507 -0.322235 -3.984190
v 11.788116 -0.776001 4.015810
v 11.409790 -1.434601 -3.984190
v 11.409790 -1.434601 4.015810
v 12.741119 -4.369995 -3.984190
v 12.741119 -4.369995 4.015810
v 12.120392 -3.181336 4.015810
v 12.120392 -3.181335 -3.984190
v -9.309479 -3.843323 4.015810
v -9.594025 -3.836883 -3.984190
v -9.309479 -3.843323 -3.984190
v -9.594025 -3.836884 4.015810
v -9.964142 -3.999909 4.015810
v -10.191711 -4.051849 -3.984190
v -9.964142 -3.999908 -3.984190
v -10.191711 -4.051849 4.015810
v -10.589905 -3.900086 4.015810
v -11.074097 -3.488891 -3.984190
v -10.589905 -3.900085 -3.984190
v -11.074097 -3.488892 4.015810
v -11.217651 -2.797760 4.015810
v -11.217651 -2.797760 -3.984190
v -3.324799 -5.118439 4.015810
v -3.620056 -5.821136 -3.984190
v -3.620056 -5.821136 4.015810
v -3.324799 -5.118439 -3.984190
v -11.218903 -2.078797 4.015810
v -11.218903 -2.078796 -3.984190
v -11.963684 -1.485077 4.015810
v -11.820007 -1.690399 -3.984190
v -11.820007 -1.690399 4.015810
v -11.963684 -1.485077 -3.984190
v -3.291595 -4.834778 4.015810
v -3.291595 -4.834778 -3.984190
v -3.369659 -4.405670 4.015810
v -3.369659 -4.405670 -3.984190
v -5.891876 -3.634583 4.015810
v -6.604248 -3.675689 -3.984190
v -5.891876 -3.634582 -3.984190
v -6.604248 -3.675690 4.015810
v -7.232544 -3.918793 4.015810
v -7.888153 -4.103882 -3.984190
v -7.232544 -3.918792 -3.984190
v -7.888153 -4.103882 4.015810
v -8.627563 -4.087189 -3.984190
v -8.627563 -4.087189 4.015810
v -3.883850 -6.380951 4.015810
v -3.747772 -6.722778 -3.984190
v -3.747772 -6.722778 4.015810
v -3.883850 -6.380951 -3.984190
v -5.180756 -3.707855 4.015810
v -5.180756 -3.707855 -3.984190
v -4.471039 -3.866883 4.015810
v -4.471039 -3.866882 -3.984190
v -3.523438 -6.840637 4.015810
v -3.523438 -6.840637 -3.984190
v -3.565857 -4.230072 -3.984190
v -3.565857 -4.230072 4.015810
v -10.127502 4.923462 4.015810
v -9.807770 5.124664 -3.984190
v -10.127502 4.923462 -3.984190
v -9.807770 5.124664 4.015810
v -9.575470 5.059845 -3.984190
v -9.575470 5.059845 4.015810
v -4.989227 4.688385 4.015810
v -4.433502 4.973480 -3.984190
v -4.989227 4.688385 -3.984190
v -4.433502 4.973480 4.015810
v -9.299561 -0.241516 4.015810
v -9.443542 -0.441589 -3.984190
v -9.443542 -0.441590 4.015810
v -9.299561 -0.241516 -3.984190
v -8.862579 1.499267 4.015810
v -9.122803 1.212372 -3.984190
v -9.122803 1.212372 4.015810
v -8.862579 1.499268 -3.984190
v -12.053741 -0.324555 4.015810
v -11.882202 -0.154144 -3.984190
v -12.053741 -0.324554 -3.984190
v -11.882202 -0.154144 4.015810
v -11.451996 -0.047577 -3.984190
v -11.451996 -0.047577 4.015810
v -10.160706 -0.599518 4.015810
v -9.874084 -0.664001 -3.984190
v -10.160706 -0.599518 -3.984190
v -9.874084 -0.664002 4.015810
v -11.164856 -0.112213 4.015810
v -10.848938 -0.380829 -3.984190
v -11.164856 -0.112213 -3.984190
v -10.848938 -0.380829 4.015810
v -9.152496 0.920685 -3.984190
v -9.152496 0.920685 4.015810
v -9.285889 4.725983 -3.984190
v -8.852173 4.270599 4.015810
v -8.852173 4.270599 -3.984190
v -9.285889 4.725983 4.015810
v -7.549316 3.944641 -3.984190
v -7.549316 3.944641 4.015810
v -9.355804 0.196075 4.015810
v -9.355804 0.196076 -3.984190
v -12.051086 -1.049408 4.015810
v -12.051086 -1.049408 -3.984190
v -10.214813 4.628052 4.015810
v -10.099396 3.883759 -3.984190
v -10.099396 3.883758 4.015810
v -10.214813 4.628052 -3.984190
v -9.355042 0.487427 -3.984190
v -9.355042 0.487427 4.015810
v -9.926300 3.317840 4.015810
v -9.667023 2.721955 -3.984190
v -9.667023 2.721954 4.015810
v -9.926300 3.317841 -3.984190
v -6.824402 3.987549 -3.984190
v -6.824402 3.987549 4.015810
v -9.379547 2.156433 4.015810
v -8.891052 1.587830 -3.984190
v -8.891052 1.587829 4.015810
v -9.379547 2.156433 -3.984190
v -1.661133 6.975708 -3.984190
v -1.400482 5.471588 4.015810
v -1.400482 5.471588 -3.984190
v -1.661133 6.975708 4.015810
v -2.551788 7.778961 4.015810
v -2.257111 7.893036 -3.984190
v -2.551788 7.778961 -3.984190
v -2.257111 7.893036 4.015810
v -3.874329 5.437927 -3.984190
v -3.874329 5.437927 4.015810
v -2.906830 7.545715 4.015810
v -3.057068 7.308105 -3.984190
v -3.057068 7.308105 4.015810
v -2.906830 7.545715 -3.984190
v -1.941254 7.584198 -3.984190
v -1.941254 7.584198 4.015810
v -3.156769 6.588959 4.015810
v -3.156769 6.588959 -3.984190
v -6.155182 4.239380 4.015810
v -4.103180 -4.018066 4.015810
v 10.877197 -4.653137 4.015810
v 0.684021 -6.201508 4.015810
v 1.085205 -5.842407 4.015810
v 1.441162 -5.282928 4.015810
v 1.591919 -4.973541 4.015810
v 1.824005 -4.807983 4.015810
v 2.403381 -4.450500 4.015810
v 3.620148 -3.792206 4.015810
v 4.224091 -3.634064 4.015810
v 4.939423 -3.564270 4.015810
v 6.360748 -3.682312 4.015810
v 6.922363 -3.895416 4.015810
v 7.421692 -4.221252 4.015810
v 7.890656 -4.574463 4.015810
v 8.596344 -4.704498 4.015810
v 10.017517 -4.736603 4.015810
v -6.534058 4.040283 -3.984190
v -6.155182 4.239380 -3.984190
v -4.103180 -4.018066 -3.984190
v 0.684021 -6.201508 -3.984190
v 1.085205 -5.842407 -3.984190
v 1.441162 -5.282928 -3.984190
v 1.591919 -4.973541 -3.984190
v 1.824005 -4.807983 -3.984190
v 2.403381 -4.450500 -3.984190
v 3.620148 -3.792206 -3.984190
v 4.224091 -3.634063 -3.984190
v 4.939423 -3.564270 -3.984190
v 6.360748 -3.682312 -3.984190
v 6.922363 -3.895416 -3.984190
v 7.421692 -4.221252 -3.984190
v 7.890656 -4.574463 -3.984190
v 8.596344 -4.704498 -3.984190
v 10.017517 -4.736603 -3.984190
v 10.877197 -4.653137 -3.984190
v 11.447540 -4.597748 4.015810
v 11.447540 -4.597748 -3.984190
vn 0.9159 -0.4014 -0.0000
vn -0.6416 0.7671 -0.0000
vn -0.6362 0.7715 -0.0000
vn -0.2846 0.9587 -0.0000
vn -0.1917 0.9814 -0.0000
vn 0.0226 0.9997 -0.0000
vn 0.1009 0.9949 -0.0000
vn 0.9976 -0.0695 -0.0000
vn 0.9998 -0.0207 -0.0000
vn -0.4837 0.8752 -0.0000
vn 0.9987 -0.0501 -0.0000
vn 0.9960 -0.0890 -0.0000
vn -0.4086 0.9127 -0.0000
vn -0.3552 0.9348 -0.0000
vn -0.1486 0.9889 -0.0000
vn -0.0385 0.9993 -0.0000
vn 0.2130 0.9771 -0.0000
vn 0.2345 0.9721 -0.0000
vn 0.2688 0.9632 -0.0000
vn -0.4044 0.9146 -0.0000
vn 0.2504 0.9681 -0.0000
vn 0.1444 0.9895 -0.0000
vn 0.2612 0.9653 -0.0000
vn 0.4116 0.9113 -0.0000
vn 0.8798 0.4753 -0.0000
vn 0.9517 0.3072 -0.0000
vn 0.9917 0.1287 -0.0000
vn 0.9474 0.3200 -0.0000
vn 0.8544 0.5196 -0.0000
vn 0.7604 0.6495 -0.0000
vn 0.6290 0.7774 -0.0000
vn 0.2831 -0.9591 -0.0000
vn 0.3728 -0.9279 -0.0000
vn 0.6807 -0.7325 -0.0000
vn 0.5301 -0.8479 -0.0000
vn 0.4112 -0.9115 -0.0000
vn 0.2906 -0.9569 -0.0000
vn 0.5437 0.8393 -0.0000
vn 0.7172 0.6968 -0.0000
vn 0.4635 -0.8861 -0.0000
vn 0.2590 -0.9659 -0.0000
vn 0.9981 0.0619 -0.0000
vn 0.5708 -0.8211 -0.0000
vn 0.7752 -0.6317 -0.0000
vn 0.9593 -0.2823 -0.0000
vn 0.2569 -0.9664 -0.0000
vn 0.7005 0.7136 -0.0000
vn -0.1820 -0.9833 -0.0000
vn 0.1949 -0.9808 -0.0000
vn 0.3142 -0.9493 -0.0000
vn 0.2225 -0.9749 -0.0000
vn -0.5091 -0.8607 -0.0000
vn -0.6473 -0.7622 -0.0000
vn -0.9947 -0.1031 -0.0000
vn -0.9791 -0.2034 -0.0000
vn -0.9671 0.2543 -0.0000
vn -0.9135 0.4069 -0.0000
vn -0.3561 -0.9344 -0.0000
vn -1.0000 -0.0017 -0.0000
vn -0.9194 -0.3934 -0.0000
vn -0.6939 -0.7200 -0.0000
vn -0.9995 -0.0317 -0.0000
vn -0.9839 -0.1790 -0.0000
vn -0.0225 -0.9997 -0.0000
vn 0.2118 -0.9773 -0.0000
vn 0.3166 -0.9486 -0.0000
vn 0.1260 -0.9920 -0.0000
vn -0.9291 -0.3699 -0.0000
vn -0.5427 -0.8399 -0.0000
vn -0.1609 -0.9870 -0.0000
vn -0.3005 -0.9538 -0.0000
vn -0.4651 -0.8853 -0.0000
vn -0.9046 0.4263 -0.0000
vn -0.6669 -0.7451 -0.0000
vn -0.5252 -0.8510 -0.0000
vn -0.5326 0.8464 -0.0000
vn -0.4085 0.9128 -0.0000
vn -0.5510 0.8345 -0.0000
vn -0.8117 0.5841 -0.0000
vn -0.6533 0.7571 -0.0000
vn -0.7407 0.6718 -0.0000
vn -0.7048 0.7094 -0.0000
vn -0.2404 0.9707 -0.0000
vn -0.0107 0.9999 -0.0000
vn 0.2614 0.9652 -0.0000
vn 0.2195 0.9756 -0.0000
vn 0.4467 0.8947 -0.0000
vn 0.4848 0.8746 -0.0000
vn -0.9949 0.1013 -0.0000
vn -0.9639 0.2661 -0.0000
vn 0.7400 0.6726 -0.0000
vn 0.7241 0.6897 -0.0000
vn 0.2427 0.9701 -0.0000
vn 0.0929 0.9957 -0.0000
vn -0.9980 -0.0626 -0.0000
vn -0.9918 -0.1275 -0.0000
vn -0.9949 -0.1007 -0.0000
vn -0.9978 0.0667 -0.0000
vn -0.9747 -0.2234 -0.0000
vn 0.7554 0.6552 -0.0000
vn -1.0000 -0.0037 -0.0000
vn -0.4590 0.8885 -0.0000
vn -0.9759 0.2182 -0.0000
vn -0.9381 -0.3463 -0.0000
vn -0.9046 -0.4263 -0.0000
vn -0.9590 0.2834 -0.0000
vn -0.2080 0.9781 -0.0000
vn -0.8309 -0.5564 -0.0000
vn -0.8725 -0.4885 -0.0000
vn -0.9520 -0.3061 -0.0000
vn 0.9549 0.2970 -0.0000
vn 0.9978 0.0656 -0.0000
vn -0.4576 0.8892 -0.0000
vn -0.3610 0.9326 -0.0000
vn -0.7534 0.6576 -0.0000
vn -0.7132 0.7009 -0.0000
vn -0.9391 0.3436 -0.0000
vn 0.8173 0.5762 -0.0000
vn 0.6991 0.7150 -0.0000
vn -0.9402 0.3406 -0.0000
vn -0.0000 -0.0000 1.0000
vn -0.0000 -0.0000 -1.0000
vn 0.1235 -0.9924 -0.0000
vn 0.1502 -0.9887 -0.0000
vn 0.1758 -0.9844 -0.0000
vn 0.3672 -0.9301 -0.0000
vn 0.5007 -0.8656 -0.0000
vn -0.4533 -0.8914 -0.0000
vn -0.2209 -0.9753 -0.0000
vn -0.5744 -0.8186 -0.0000
vn 0.5532 -0.8330 -0.0000
vn 0.0072 -1.0000 -0.0000
vn 0.7634 -0.6460 -0.0000
vn 0.8727 -0.4882 -0.0000
vn -0.4022 -0.9156 -0.0000
vn 0.0371 -0.9993 -0.0000
vn -0.1022 -0.9948 -0.0000
vn 0.7625 -0.6470 -0.0000
vn 0.6669 -0.7451 -0.0000
vn -0.3736 -0.9276 -0.0000
vn -0.3558 0.9346 -0.0000
vt 0.000000 0.909315
vt 0.005215 0.710028
vt 0.005215 0.909315
vt 0.000000 0.710028
vt 0.724983 0.565716
vt 0.731655 0.765003
vt 0.724983 0.765003
vt 0.731655 0.565716
vt 0.817585 0.565716
vt 0.833742 0.765003
vt 0.817585 0.765003
vt 0.833742 0.565716
vt 0.724983 0.274465
vt 0.924270 0.258814
vt 0.924270 0.274465
vt 0.724983 0.258814
vt 0.960213 0.199287
vt 0.962207 0.000000
vt 0.962207 0.199287
vt 0.960213 0.000000
vt 0.737316 0.765003
vt 0.737316 0.565716
vt 0.945000 0.199287
vt 0.955614 0.000000
vt 0.955614 0.199287
vt 0.945000 0.000000
vt 0.765048 0.565716
vt 0.801404 0.765003
vt 0.765048 0.765003
vt 0.801404 0.565716
vt 0.867698 0.565716
vt 0.899448 0.765003
vt 0.867698 0.765003
vt 0.899448 0.565716
vt 0.724983 0.241098
vt 0.924270 0.206503
vt 0.924270 0.241098
vt 0.724983 0.206503
vt 0.924270 0.136297
vt 0.724983 0.136297
vt 0.724983 0.305766
vt 0.924270 0.305766
vt 0.747610 0.765003
vt 0.747610 0.565716
vt 0.924270 0.075151
vt 0.724983 0.075151
vt 0.924270 0.041222
vt 0.724983 0.041222
vt 0.924270 0.024957
vt 0.724983 0.024957
vt 0.924270 0.008172
vt 0.724983 0.008172
vt 0.724983 0.002327
vt 0.924270 0.002328
vt 0.724983 -0.000000
vt 0.924270 -0.000000
vt 0.821901 0.964290
vt 0.835189 0.765003
vt 0.835189 0.964290
vt 0.821901 0.765003
vt 0.881619 0.765003
vt 0.885086 0.964290
vt 0.881619 0.964290
vt 0.885086 0.765003
vt 0.116037 0.710028
vt 0.132768 0.909315
vt 0.116037 0.909315
vt 0.132768 0.710028
vt 0.446984 0.710028
vt 0.449992 0.909315
vt 0.446984 0.909315
vt 0.449992 0.710028
vt 0.020316 0.710028
vt 0.037385 0.909315
vt 0.020316 0.909315
vt 0.037385 0.710028
vt 0.865702 0.765003
vt 0.871356 0.964290
vt 0.865702 0.964290
vt 0.871356 0.765003
vt 0.051542 0.710028
vt 0.051542 0.909315
vt 0.815581 0.964290
vt 0.815581 0.765003
vt 0.151964 0.710028
vt 0.168763 0.909315
vt 0.151964 0.909315
vt 0.168763 0.710028
vt 0.185402 0.909315
vt 0.189499 0.710028
vt 0.189499 0.909315
vt 0.185402 0.710028
vt 0.459163 0.909315
vt 0.459163 0.710028
vt 0.849947 0.765003
vt 0.849947 0.964290
vt 0.291742 0.710028
vt 0.297688 0.909315
vt 0.291742 0.909315
vt 0.297688 0.710028
vt 0.307667 0.710028
vt 0.313170 0.909315
vt 0.307667 0.909315
vt 0.313170 0.710028
vt 0.564645 0.710028
vt 0.577716 0.909315
vt 0.564645 0.909315
vt 0.577716 0.710028
vt 0.595265 0.710028
vt 0.595265 0.909315
vt 0.956181 0.765003
vt 0.940055 0.964290
vt 0.940055 0.765003
vt 0.956181 0.964290
vt 0.319623 0.909315
vt 0.319623 0.710028
vt 0.612544 0.710028
vt 0.612544 0.909315
vt 0.631717 0.710028
vt 0.625838 0.909315
vt 0.625838 0.710028
vt 0.631717 0.909315
vt 0.930865 0.199287
vt 0.924270 0.398574
vt 0.924270 0.199287
vt 0.930865 0.398574
vt 0.941688 0.199287
vt 0.941688 0.398574
vt 0.216573 0.710028
vt 0.232210 0.909315
vt 0.216573 0.909315
vt 0.232210 0.710028
vt 0.248708 0.710028
vt 0.265027 0.909315
vt 0.248708 0.909315
vt 0.265027 0.710028
vt 0.280480 0.909315
vt 0.280480 0.710028
vt 0.993189 0.199287
vt 0.984080 0.398574
vt 0.984080 0.199287
vt 0.993189 0.398574
vt 0.202460 0.710028
vt 0.202460 0.909315
vt 0.189499 0.710028
vt 0.189499 0.909315
vt 0.979770 0.199287
vt 0.979770 0.398574
vt 0.926628 0.964290
vt 0.926628 0.765003
vt 0.947200 0.398574
vt 0.947200 0.199287
vt 0.990439 0.565716
vt 0.999836 0.765003
vt 0.990439 0.765003
vt 0.999836 0.565716
vt 0.660190 0.710028
vt 0.665969 0.909315
vt 0.660190 0.909315
vt 0.665969 0.710028
vt 0.382361 0.710028
vt 0.397762 0.909315
vt 0.382361 0.909315
vt 0.397762 0.710028
vt 0.979970 0.000000
vt 0.974161 0.199287
vt 0.974161 0.000000
vt 0.979970 0.199287
vt 0.999751 0.000000
vt 0.990329 0.199287
vt 0.990329 0.000000
vt 0.999751 0.199287
vt 0.978877 0.765003
vt 0.984819 0.964290
vt 0.978877 0.964290
vt 0.984819 0.765003
vt 0.995096 0.964290
vt 0.995096 0.765003
vt 0.919700 0.765003
vt 0.919700 0.964290
vt 0.892027 0.765003
vt 0.902233 0.964290
vt 0.892027 0.964290
vt 0.902233 0.765003
vt 1.000000 0.199287
vt 0.993189 0.398574
vt 0.993189 0.199287
vt 1.000000 0.398574
vt 0.676463 0.909315
vt 0.691600 0.710028
vt 0.691600 0.909315
vt 0.676463 0.710028
vt 0.723521 0.909315
vt 0.723521 0.710028
vt 0.972776 0.199287
vt 0.961893 0.398574
vt 0.961893 0.199287
vt 0.972776 0.398574
vt 0.642760 0.710028
vt 0.642760 0.909315
vt 0.809060 0.765003
vt 0.790419 0.964290
vt 0.790419 0.765003
vt 0.809060 0.964290
vt 0.660190 0.710028
vt 0.660190 0.909315
vt 0.962207 0.000000
vt 0.962207 0.199287
vt 0.990329 0.000000
vt 0.990329 0.199287
vt 0.775683 0.765003
vt 0.759659 0.964290
vt 0.759659 0.765003
vt 0.775683 0.964290
vt 0.815580 0.765003
vt 0.815580 0.964290
vt 0.319623 0.710028
vt 0.334972 0.909315
vt 0.319623 0.909315
vt 0.334972 0.710028
vt 0.744178 0.765003
vt 0.727298 0.964290
vt 0.727298 0.765003
vt 0.744178 0.964290
vt 0.724983 0.964290
vt 0.724983 0.765003
vt 0.924040 0.765003
vt 0.949137 0.565716
vt 0.949137 0.765003
vt 0.924040 0.565716
vt 0.966189 0.565716
vt 0.973821 0.765003
vt 0.966189 0.765003
vt 0.973821 0.565716
vt 0.415817 0.909315
vt 0.415817 0.710028
vt 0.955614 0.565716
vt 0.949137 0.765003
vt 0.949137 0.565716
vt 0.955614 0.765003
vt 0.910175 0.765003
vt 0.910175 0.565716
vt 0.899448 0.565716
vt 0.899448 0.765003
vt 0.973821 0.765003
vt 0.973821 0.565716
vt 0.924270 0.000000
vt 0.083637 0.705238
vt 0.106263 0.707015
vt 0.101047 0.710028
vt 0.073732 0.700296
vt 0.069733 0.695503
vt 0.111630 0.697366
vt 0.064314 0.678519
vt 0.111948 0.690041
vt 0.047036 0.673801
vt 0.031356 0.665844
vt 0.107549 0.680694
vt 0.024626 0.651522
vt 0.106779 0.662722
vt 0.023574 0.640959
vt 0.026306 0.635826
vt 0.107097 0.655410
vt 0.032639 0.627990
vt 0.115251 0.646509
vt 0.034339 0.621107
vt 0.121000 0.644352
vt 0.032922 0.603122
vt 0.149902 0.648393
vt 0.157108 0.649581
vt 0.165702 0.645195
vt 0.232400 0.663014
vt 0.233058 0.629564
vt 0.037341 0.585236
vt 0.046066 0.570680
vt 0.238816 0.612415
vt 0.056007 0.557159
vt 0.249233 0.597968
vt 0.061640 0.540300
vt 0.267630 0.572862
vt 0.064515 0.522725
vt 0.065318 0.504625
vt 0.278108 0.561360
vt 0.064082 0.494795
vt 0.292920 0.550944
vt 0.062488 0.480494
vt 0.325272 0.541197
vt 0.059545 0.474632
vt 0.049738 0.469958
vt 0.214968 0.690478
vt 0.239782 0.697932
vt 0.232110 0.698106
vt 0.246704 0.691557
vt 0.202490 0.682627
vt 0.189854 0.672508
vt 0.246660 0.685549
vt 0.178132 0.661909
vt 0.240521 0.676410
vt 0.167646 0.646457
vt 0.138164 0.650438
vt 0.131155 0.648557
vt 0.146483 0.130488
vt 0.211657 0.133076
vt 0.220290 0.137137
vt 0.200195 0.122582
vt 0.165443 0.087520
vt 0.189974 0.110194
vt 0.184821 0.095286
vt 0.183218 0.089864
vt 0.170966 0.080002
vt 0.174979 0.081580
vt 0.173568 0.078381
vt 0.001371 0.468616
vt 0.023881 0.471424
vt 0.008702 0.474116
vt -0.000000 0.462454
vt 0.042701 0.468906
vt 0.042798 0.365463
vt 0.343213 0.543488
vt 0.349905 0.541426
vt 0.244788 0.477716
vt 0.357828 0.534410
vt 0.362491 0.528069
vt 0.357125 0.518462
vt 0.344322 0.507759
vt 0.250277 0.473884
vt 0.254883 0.470573
vt 0.260876 0.461658
vt 0.273096 0.449066
vt 0.294494 0.417863
vt 0.054048 0.358159
vt 0.069820 0.353248
vt 0.304606 0.404689
vt 0.078241 0.351641
vt 0.083735 0.347140
vt 0.096107 0.335541
vt 0.312369 0.388703
vt 0.119867 0.310579
vt 0.328981 0.355463
vt 0.127607 0.297090
vt 0.341999 0.321333
vt 0.133949 0.280346
vt 0.140377 0.245404
vt 0.350684 0.286183
vt 0.138915 0.230512
vt 0.134337 0.216383
vt 0.355027 0.268608
vt 0.128902 0.202805
vt 0.356646 0.249678
vt 0.130377 0.184991
vt 0.357190 0.213475
vt 0.138871 0.150613
vt 0.360241 0.139440
vt 0.227337 0.138667
vt 0.245638 0.133865
vt 0.259888 0.124505
vt 0.273068 0.110495
vt 0.356734 0.076761
vt 0.281999 0.095556
vt 0.317662 0.039290
vt 0.359611 0.040571
vt 0.324687 0.026080
vt 0.362491 0.022783
vt 0.334930 0.012048
vt 0.359806 0.006081
vt 0.345213 0.000936
vt 0.354907 0.001424
vt 0.351482 -0.000000
vt 0.248354 0.478604
vt 0.309859 0.491686
vt 0.255665 0.479682
vt 0.273726 0.483436
vt 0.586819 0.650438
vt 0.603982 0.644352
vt 0.593828 0.648557
vt 0.575081 0.648393
vt 0.485201 0.697932
vt 0.510015 0.690478
vt 0.492873 0.698106
vt 0.478279 0.691557
vt 0.522493 0.682627
vt 0.535129 0.672508
vt 0.478323 0.685549
vt 0.546851 0.661909
vt 0.484462 0.676410
vt 0.557337 0.646457
vt 0.492583 0.663014
vt 0.559281 0.645195
vt 0.618720 0.707015
vt 0.641346 0.705238
vt 0.623936 0.710028
vt 0.651250 0.700296
vt 0.655250 0.695503
vt 0.613353 0.697366
vt 0.660669 0.678519
vt 0.613035 0.690041
vt 0.677947 0.673801
vt 0.693627 0.665844
vt 0.617434 0.680694
vt 0.700357 0.651522
vt 0.618204 0.662722
vt 0.701409 0.640959
vt 0.698677 0.635826
vt 0.617886 0.655410
vt 0.692344 0.627990
vt 0.609731 0.646509
vt 0.690644 0.621107
vt 0.692061 0.603122
vt 0.567875 0.649581
vt 0.491925 0.629564
vt 0.687642 0.585236
vt 0.678917 0.570680
vt 0.486167 0.612415
vt 0.668976 0.557159
vt 0.483006 0.605779
vt 0.663343 0.540300
vt 0.475749 0.597968
vt 0.457352 0.572862
vt 0.660468 0.522725
vt 0.659664 0.504625
vt 0.446875 0.561360
vt 0.660901 0.494795
vt 0.432063 0.550944
vt 0.662495 0.480494
vt 0.399710 0.541197
vt 0.665437 0.474632
vt 0.675245 0.469958
vt 0.380661 0.507759
vt 0.476629 0.478604
vt 0.480194 0.477716
vt 0.415124 0.491686
vt 0.469318 0.479682
vt 0.451257 0.483436
vt 0.701101 0.471424
vt 0.723612 0.468616
vt 0.716281 0.474116
vt 0.724983 0.462454
vt 0.682282 0.468906
vt 0.682185 0.365463
vt 0.381770 0.543488
vt 0.375078 0.541426
vt 0.367155 0.534410
vt 0.362491 0.528069
vt 0.367857 0.518462
vt 0.474706 0.473884
vt 0.470099 0.470573
vt 0.464107 0.461658
vt 0.451887 0.449066
vt 0.430489 0.417863
vt 0.670935 0.358159
vt 0.655163 0.353248
vt 0.420376 0.404689
vt 0.646742 0.351641
vt 0.641248 0.347140
vt 0.628876 0.335541
vt 0.412613 0.388703
vt 0.605116 0.310579
vt 0.396002 0.355463
vt 0.597376 0.297090
vt 0.382983 0.321333
vt 0.591034 0.280346
vt 0.584606 0.245404
vt 0.374299 0.286183
vt 0.586067 0.230512
vt 0.590646 0.216383
vt 0.369956 0.268608
vt 0.596080 0.202805
vt 0.368337 0.249678
vt 0.594606 0.184991
vt 0.367793 0.213475
vt 0.586112 0.150613
vt 0.364742 0.139440
vt 0.497646 0.138667
vt 0.578500 0.130488
vt 0.504693 0.137137
vt 0.479345 0.133865
vt 0.465094 0.124505
vt 0.451915 0.110495
vt 0.368249 0.076761
vt 0.442984 0.095556
vt 0.407320 0.039290
vt 0.365372 0.040571
vt 0.400296 0.026080
vt 0.362491 0.022783
vt 0.390053 0.012048
vt 0.365177 0.006081
vt 0.379770 0.000936
vt 0.370076 0.001424
vt 0.373501 -0.000000
vt 0.524788 0.122582
vt 0.559540 0.087520
vt 0.513326 0.133076
vt 0.535009 0.110194
vt 0.540162 0.095286
vt 0.541765 0.089864
vt 0.554017 0.080002
vt 0.550004 0.081580
vt 0.551415 0.078381
vt 0.502375 0.909315
vt 0.502375 0.710028
vt 0.724983 0.403310
vt 0.924270 0.305766
vt 0.924270 0.403310
vt 0.724983 0.511947
vt 0.924270 0.497076
vt 0.924270 0.511947
vt 0.724983 0.497076
vt 0.924270 0.462670
vt 0.724983 0.462670
vt 0.724983 0.565716
vt 0.924270 0.556602
vt 0.924270 0.565716
vt 0.724983 0.556602
vt 0.967758 0.765003
vt 0.967758 0.964290
vt 0.924270 0.445711
vt 0.724983 0.445711
vt 0.924270 0.528022
vt 0.724983 0.528022
vt 0.924270 0.438625
vt 0.724983 0.438625
vt 0.724983 0.431380
vt 0.924270 0.431380
vt 0.956181 0.765003
vt 0.956181 0.964290
vt 0.521689 0.710028
vt 0.551390 0.909315
vt 0.521689 0.909315
vt 0.551390 0.710028
vt 0.724983 0.416513
vt 0.924270 0.416513
vt 0.955836 0.199287
vt 0.961893 0.398574
vt 0.955836 0.398574
vt 0.961893 0.199287
vt 0.151533 0.117136
vt 0.573450 0.117136
vt 0.352199 0.909315
vt 0.352199 0.710028
s 1
f 1/1/1 2/2/1 3/3/1
f 2/2/1 1/1/1 4/4/1
f 5/5/2 6/6/3 7/7/2
f 6/6/3 5/5/2 8/8/3
f 9/9/4 10/10/5 11/11/4
f 10/10/5 9/9/4 12/12/5
f 13/13/6 14/14/7 15/15/6
f 14/14/7 13/13/6 16/16/7
f 17/17/8 5/18/9 7/19/9
f 5/18/9 17/17/8 18/20/8
f 8/8/3 19/21/10 6/6/3
f 19/21/10 8/8/3 20/22/10
f 21/23/11 22/24/12 23/25/12
f 22/24/12 21/23/11 24/26/11
f 25/27/13 26/28/14 27/29/13
f 26/28/14 25/27/13 28/30/14
f 28/30/14 11/11/4 26/28/14
f 11/11/4 28/30/14 9/9/4
f 29/31/15 30/32/16 31/33/15
f 30/32/16 29/31/15 32/34/16
f 33/35/17 34/36/18 35/37/17
f 34/36/18 33/35/17 36/38/18
f 36/38/18 37/39/19 34/36/18
f 37/39/19 36/38/18 38/40/19
f 32/41/16 15/15/6 30/42/16
f 15/15/6 32/41/16 13/13/6
f 20/22/10 39/43/20 19/21/10
f 39/43/20 20/22/10 40/44/20
f 12/12/5 31/33/15 10/10/5
f 31/33/15 12/12/5 29/31/15
f 23/25/12 18/20/8 17/17/8
f 18/20/8 23/25/12 22/24/12
f 16/16/7 35/37/17 14/14/7
f 35/37/17 16/16/7 33/35/17
f 38/40/19 41/45/21 37/39/19
f 41/45/21 38/40/19 42/46/21
f 42/46/21 43/47/22 41/45/21
f 43/47/22 42/46/21 44/48/22
f 40/44/20 27/29/13 39/43/20
f 27/29/13 40/44/20 25/27/13
f 44/48/22 45/49/23 43/47/22
f 45/49/23 44/48/22 46/50/23
f 46/50/23 47/51/24 45/49/23
f 47/51/24 46/50/23 48/52/24
f 47/51/25 49/53/26 50/54/26
f 49/53/26 47/51/25 48/52/25
f 50/54/26 4/55/27 1/56/27
f 4/55/27 50/54/26 49/53/26
f 51/57/28 52/58/29 53/59/29
f 52/58/29 51/57/28 54/60/28
f 55/61/30 56/62/31 57/63/30
f 56/62/31 55/61/30 58/64/31
f 59/65/32 60/66/33 61/67/32
f 60/66/33 59/65/32 62/68/33
f 58/69/34 63/70/35 56/71/34
f 63/70/35 58/69/34 64/72/35
f 65/73/36 66/74/37 67/75/36
f 66/74/37 65/73/36 68/76/37
f 69/77/38 70/78/39 71/79/38
f 70/78/39 69/77/38 72/80/39
f 2/2/40 67/75/36 3/3/40
f 67/75/36 2/2/40 65/73/36
f 73/81/41 61/67/32 74/82/41
f 61/67/32 73/81/41 59/65/32
f 75/83/42 54/60/28 51/57/28
f 54/60/28 75/83/42 76/84/42
f 77/85/43 78/86/44 79/87/43
f 78/86/44 77/85/43 80/88/44
f 81/89/45 76/90/42 75/91/42
f 76/90/42 81/89/45 82/92/45
f 64/72/35 83/93/46 63/70/35
f 83/93/46 64/72/35 84/94/46
f 85/95/47 71/79/38 86/96/47
f 71/79/38 85/95/47 69/77/38
f 62/68/33 79/87/43 60/66/33
f 79/87/43 62/68/33 77/85/43
f 53/59/29 85/95/47 86/96/47
f 85/95/47 53/59/29 52/58/29
f 78/86/44 82/92/45 81/89/45
f 82/92/45 78/86/44 80/88/44
f 70/78/39 55/61/30 57/63/30
f 55/61/30 70/78/39 72/80/39
f 87/97/48 88/98/49 89/99/48
f 88/98/49 87/97/48 90/100/49
f 91/101/50 92/102/51 93/103/50
f 92/102/51 91/101/50 94/104/51
f 95/105/52 96/106/53 97/107/52
f 96/106/53 95/105/52 98/108/53
f 99/109/54 96/106/55 98/108/55
f 96/106/55 99/109/54 100/110/54
f 101/111/56 102/112/57 103/113/57
f 102/112/57 101/111/56 104/114/56
f 94/104/58 97/115/52 92/102/58
f 97/115/52 94/104/58 95/116/52
f 105/117/59 100/110/54 99/109/54
f 100/110/54 105/117/59 106/118/59
f 107/119/60 108/120/61 109/121/61
f 108/120/61 107/119/60 110/122/60
f 111/123/62 104/124/56 101/125/56
f 104/124/56 111/123/62 112/126/62
f 113/127/63 112/126/62 111/123/62
f 112/126/62 113/127/63 114/128/63
f 115/129/64 116/130/65 117/131/64
f 116/130/65 115/129/64 118/132/65
f 119/133/66 120/134/67 121/135/66
f 120/134/67 119/133/66 122/136/67
f 122/136/67 123/137/48 120/134/67
f 123/137/48 122/136/67 124/138/48
f 124/138/48 89/99/48 123/137/48
f 89/99/48 124/138/48 87/97/48
f 90/100/49 93/103/50 88/98/49
f 93/103/50 90/100/49 91/101/50
f 125/139/68 126/140/68 127/141/68
f 126/140/68 125/139/68 128/142/68
f 105/117/69 108/120/61 106/118/69
f 108/120/61 105/117/69 109/121/61
f 129/143/70 117/131/64 130/144/70
f 117/131/64 129/143/70 115/129/64
f 131/145/71 130/144/70 132/146/71
f 130/144/70 131/145/71 129/143/70
f 118/132/65 121/135/66 116/130/65
f 121/135/66 118/132/65 119/133/66
f 133/147/72 126/140/72 134/148/72
f 126/140/72 133/147/72 127/141/72
f 103/113/57 128/149/73 125/150/73
f 128/149/73 103/113/57 102/112/57
f 113/127/74 135/151/75 114/128/74
f 135/151/75 113/127/74 136/152/75
f 137/153/76 138/154/76 139/155/76
f 138/154/76 137/153/76 140/156/76
f 140/157/19 141/158/19 138/159/19
f 141/158/19 140/157/19 142/160/19
f 143/161/77 144/162/78 145/163/77
f 144/162/78 143/161/77 146/164/78
f 147/165/79 148/166/80 149/167/80
f 148/166/80 147/165/79 150/168/79
f 151/169/81 152/170/81 153/171/81
f 152/170/81 151/169/81 154/172/81
f 155/173/82 156/174/82 157/175/82
f 156/174/82 155/173/82 158/176/82
f 158/176/83 159/177/84 156/174/83
f 159/177/84 158/176/83 160/178/84
f 161/179/85 162/149/86 163/180/85
f 162/149/86 161/179/85 164/150/86
f 165/181/87 166/182/88 167/183/87
f 166/182/88 165/181/87 168/184/88
f 153/185/89 169/186/90 170/187/90
f 169/186/90 153/185/89 152/188/89
f 171/189/91 172/190/92 173/191/92
f 172/190/92 171/189/91 174/192/91
f 172/190/93 175/193/94 173/191/93
f 175/193/94 172/190/93 176/194/94
f 177/195/95 150/196/96 147/197/96
f 150/196/96 177/195/95 178/198/95
f 168/184/88 163/180/85 166/182/88
f 163/180/85 168/184/88 161/179/85
f 179/199/97 110/122/60 107/119/60
f 110/122/60 179/199/97 180/200/97
f 181/201/98 182/202/99 183/203/99
f 182/202/99 181/201/98 184/204/98
f 141/158/100 174/192/91 171/189/91
f 174/192/91 141/158/100 142/160/100
f 155/205/101 180/200/97 179/199/97
f 180/200/97 155/205/101 157/206/101
f 160/64/84 167/183/87 159/62/84
f 167/183/87 160/64/84 165/181/87
f 164/207/102 148/166/80 162/208/102
f 148/166/80 164/207/102 149/167/80
f 170/209/90 185/168/103 186/165/103
f 185/168/103 170/209/90 169/210/90
f 187/211/104 188/212/105 189/213/105
f 188/212/105 187/211/104 190/214/104
f 186/147/103 178/198/95 177/195/95
f 178/198/95 186/147/103 185/148/103
f 137/215/106 184/204/98 181/201/98
f 184/204/98 137/215/106 139/216/106
f 176/217/94 191/218/107 175/219/94
f 191/218/107 176/217/94 192/220/107
f 193/221/108 194/222/109 195/223/109
f 194/222/109 193/221/108 196/224/108
f 183/203/99 190/214/104 187/211/104
f 190/214/104 183/203/99 182/202/99
f 189/213/105 196/224/108 193/221/108
f 196/224/108 189/213/105 188/212/105
f 195/223/109 154/225/110 151/226/110
f 154/225/110 195/223/109 194/222/109
f 197/227/111 198/228/112 199/229/112
f 198/228/112 197/227/111 200/230/111
f 201/231/113 202/232/114 203/233/113
f 202/232/114 201/231/113 204/234/114
f 146/164/78 205/235/115 144/162/78
f 205/235/115 146/164/78 206/236/115
f 207/237/116 208/238/117 209/239/117
f 208/238/117 207/237/116 210/240/116
f 207/237/116 203/233/113 210/240/116
f 203/233/113 207/237/116 201/231/113
f 211/241/118 200/230/111 197/227/111
f 200/230/111 211/241/118 212/242/118
f 204/243/119 211/241/118 202/244/119
f 211/241/118 204/243/119 212/242/118
f 213/69/120 205/235/115 206/236/115
f 205/235/115 213/69/120 214/71/120
f 209/153/117 214/245/120 213/246/120
f 214/245/120 209/153/117 208/155/117
f 199/125/112 24/26/11 21/23/11
f 24/26/11 199/125/112 198/247/112
f 179/248/121 158/249/121 155/250/121
f 158/249/121 179/248/121 107/251/121
f 158/249/121 107/251/121 109/252/121
f 158/249/121 109/252/121 160/253/121
f 160/253/121 109/252/121 105/254/121
f 160/253/121 105/254/121 165/255/121
f 165/255/121 105/254/121 99/256/121
f 165/255/121 99/256/121 98/257/121
f 165/255/121 98/257/121 168/258/121
f 168/258/121 98/257/121 95/259/121
f 168/258/121 95/259/121 161/260/121
f 161/260/121 95/259/121 94/261/121
f 161/260/121 94/261/121 91/262/121
f 161/260/121 91/262/121 164/263/121
f 164/263/121 91/262/121 90/264/121
f 164/263/121 90/264/121 149/265/121
f 149/265/121 90/264/121 87/266/121
f 149/265/121 87/266/121 147/267/121
f 147/267/121 87/266/121 124/268/121
f 147/267/121 124/268/121 170/269/121
f 170/269/121 124/268/121 153/270/121
f 153/270/121 124/268/121 151/271/121
f 151/271/121 124/268/121 172/272/121
f 172/272/121 124/268/121 176/273/121
f 176/273/121 124/268/121 122/274/121
f 176/273/121 122/274/121 119/275/121
f 176/273/121 119/275/121 192/276/121
f 192/276/121 119/275/121 118/277/121
f 192/276/121 118/277/121 215/278/121
f 215/278/121 118/277/121 115/279/121
f 215/278/121 115/279/121 143/280/121
f 143/280/121 115/279/121 129/281/121
f 143/280/121 129/281/121 131/282/121
f 143/280/121 131/282/121 146/283/121
f 146/283/121 131/282/121 216/284/121
f 146/283/121 216/284/121 206/285/121
f 206/285/121 216/284/121 136/286/121
f 206/285/121 136/286/121 213/287/121
f 213/287/121 136/286/121 113/288/121
f 213/287/121 113/288/121 111/289/121
f 183/290/121 137/291/121 181/292/121
f 137/291/121 183/290/121 140/293/121
f 140/293/121 183/290/121 187/294/121
f 140/293/121 187/294/121 189/295/121
f 140/293/121 189/295/121 142/296/121
f 142/296/121 189/295/121 193/297/121
f 142/296/121 193/297/121 174/298/121
f 174/298/121 193/297/121 195/299/121
f 174/298/121 195/299/121 172/272/121
f 172/272/121 195/299/121 151/271/121
f 147/267/121 186/300/121 177/301/121
f 186/300/121 147/267/121 170/269/121
f 217/302/121 54/303/121 76/304/121
f 54/303/121 217/302/121 52/305/121
f 52/305/121 217/302/121 84/306/121
f 52/305/121 84/306/121 85/307/121
f 85/307/121 84/306/121 69/308/121
f 69/308/121 84/306/121 72/309/121
f 72/309/121 84/306/121 64/310/121
f 72/309/121 64/310/121 55/311/121
f 55/311/121 64/310/121 58/312/121
f 127/313/121 103/314/121 125/315/121
f 103/314/121 127/313/121 133/316/121
f 103/314/121 133/316/121 101/317/121
f 101/317/121 133/316/121 218/318/121
f 101/317/121 218/318/121 111/289/121
f 111/289/121 218/318/121 213/287/121
f 213/287/121 218/318/121 209/319/121
f 209/319/121 218/318/121 207/320/121
f 207/320/121 218/318/121 5/321/121
f 207/320/121 5/321/121 201/322/121
f 201/322/121 5/321/121 204/323/121
f 204/323/121 5/321/121 212/324/121
f 212/324/121 5/321/121 200/325/121
f 5/321/121 218/318/121 8/326/121
f 8/326/121 218/318/121 20/327/121
f 20/327/121 218/318/121 40/328/121
f 40/328/121 218/318/121 25/329/121
f 25/329/121 218/318/121 28/330/121
f 28/330/121 218/318/121 219/331/121
f 28/330/121 219/331/121 220/332/121
f 28/330/121 220/332/121 9/333/121
f 9/333/121 220/332/121 221/334/121
f 9/333/121 221/334/121 222/335/121
f 9/333/121 222/335/121 223/336/121
f 9/333/121 223/336/121 12/337/121
f 12/337/121 223/336/121 224/338/121
f 12/337/121 224/338/121 29/339/121
f 29/339/121 224/338/121 225/340/121
f 29/339/121 225/340/121 32/341/121
f 32/341/121 225/340/121 226/342/121
f 32/341/121 226/342/121 227/343/121
f 32/341/121 227/343/121 13/344/121
f 13/344/121 227/343/121 228/345/121
f 13/344/121 228/345/121 229/346/121
f 13/344/121 229/346/121 16/347/121
f 16/347/121 229/346/121 230/348/121
f 16/347/121 230/348/121 33/349/121
f 33/349/121 230/348/121 231/350/121
f 33/349/121 231/350/121 36/351/121
f 36/351/121 231/350/121 232/352/121
f 36/351/121 232/352/121 38/353/121
f 38/353/121 232/352/121 82/354/121
f 82/354/121 232/352/121 217/302/121
f 82/354/121 217/302/121 76/304/121
f 38/353/121 82/354/121 80/355/121
f 38/353/121 80/355/121 77/356/121
f 38/353/121 77/356/121 62/357/121
f 38/353/121 62/357/121 42/358/121
f 42/358/121 62/357/121 59/359/121
f 42/358/121 59/359/121 73/360/121
f 42/358/121 73/360/121 44/361/121
f 44/361/121 73/360/121 68/362/121
f 44/361/121 68/362/121 46/363/121
f 46/363/121 68/362/121 65/364/121
f 46/363/121 65/364/121 48/365/121
f 48/365/121 65/364/121 2/366/121
f 48/365/121 2/366/121 49/367/121
f 49/367/121 2/366/121 4/368/121
f 200/325/121 18/369/121 198/370/121
f 18/369/121 200/325/121 5/321/121
f 198/370/121 18/369/121 22/371/121
f 198/370/121 22/371/121 24/372/121
f 185/373/122 150/374/122 178/375/122
f 150/374/122 185/373/122 169/376/122
f 139/377/122 182/378/122 184/379/122
f 182/378/122 139/377/122 138/380/122
f 182/378/122 138/380/122 190/381/122
f 190/381/122 138/380/122 188/382/122
f 188/382/122 138/380/122 141/383/122
f 188/382/122 141/383/122 196/384/122
f 196/384/122 141/383/122 171/385/122
f 196/384/122 171/385/122 194/386/122
f 194/386/122 171/385/122 173/387/122
f 194/386/122 173/387/122 154/388/122
f 156/389/122 180/390/122 157/391/122
f 180/390/122 156/389/122 110/392/122
f 110/392/122 156/389/122 108/393/122
f 108/393/122 156/389/122 159/394/122
f 108/393/122 159/394/122 106/395/122
f 106/395/122 159/394/122 167/396/122
f 106/395/122 167/396/122 100/397/122
f 100/397/122 167/396/122 96/398/122
f 96/398/122 167/396/122 166/399/122
f 96/398/122 166/399/122 97/400/122
f 97/400/122 166/399/122 163/401/122
f 97/400/122 163/401/122 92/402/122
f 92/402/122 163/401/122 93/403/122
f 93/403/122 163/401/122 162/404/122
f 93/403/122 162/404/122 88/405/122
f 88/405/122 162/404/122 148/406/122
f 88/405/122 148/406/122 89/407/122
f 89/407/122 148/406/122 150/374/122
f 89/407/122 150/374/122 123/408/122
f 123/408/122 150/374/122 169/376/122
f 123/408/122 169/376/122 152/409/122
f 123/408/122 152/409/122 154/388/122
f 123/408/122 154/388/122 173/387/122
f 123/408/122 173/387/122 175/410/122
f 123/408/122 175/410/122 120/411/122
f 120/411/122 175/410/122 121/412/122
f 121/412/122 175/410/122 191/413/122
f 121/412/122 191/413/122 116/414/122
f 116/414/122 191/413/122 233/415/122
f 116/414/122 233/415/122 117/416/122
f 117/416/122 233/415/122 234/417/122
f 117/416/122 234/417/122 145/418/122
f 117/416/122 145/418/122 130/419/122
f 130/419/122 145/418/122 132/420/122
f 132/420/122 145/418/122 144/421/122
f 132/420/122 144/421/122 235/422/122
f 235/422/122 144/421/122 205/423/122
f 235/422/122 205/423/122 135/424/122
f 135/424/122 205/423/122 214/425/122
f 135/424/122 214/425/122 114/426/122
f 114/426/122 214/425/122 112/427/122
f 197/428/122 17/429/122 7/430/122
f 17/429/122 197/428/122 199/431/122
f 17/429/122 199/431/122 23/432/122
f 23/432/122 199/431/122 21/433/122
f 102/434/122 126/435/122 128/436/122
f 126/435/122 102/434/122 134/437/122
f 134/437/122 102/434/122 104/438/122
f 134/437/122 104/438/122 236/439/122
f 236/439/122 104/438/122 112/427/122
f 236/439/122 112/427/122 214/425/122
f 236/439/122 214/425/122 208/440/122
f 236/439/122 208/440/122 210/441/122
f 236/439/122 210/441/122 7/430/122
f 7/430/122 210/441/122 203/442/122
f 7/430/122 203/442/122 202/443/122
f 7/430/122 202/443/122 211/444/122
f 7/430/122 211/444/122 197/428/122
f 236/439/122 7/430/122 6/445/122
f 236/439/122 6/445/122 19/446/122
f 236/439/122 19/446/122 39/447/122
f 236/439/122 39/447/122 27/448/122
f 236/439/122 27/448/122 26/449/122
f 236/439/122 26/449/122 237/450/122
f 237/450/122 26/449/122 238/451/122
f 238/451/122 26/449/122 11/452/122
f 238/451/122 11/452/122 239/453/122
f 239/453/122 11/452/122 240/454/122
f 240/454/122 11/452/122 241/455/122
f 241/455/122 11/452/122 10/456/122
f 241/455/122 10/456/122 242/457/122
f 242/457/122 10/456/122 31/458/122
f 242/457/122 31/458/122 243/459/122
f 243/459/122 31/458/122 30/460/122
f 243/459/122 30/460/122 244/461/122
f 244/461/122 30/460/122 245/462/122
f 245/462/122 30/460/122 15/463/122
f 245/462/122 15/463/122 246/464/122
f 246/464/122 15/463/122 247/465/122
f 247/465/122 15/463/122 14/466/122
f 247/465/122 14/466/122 248/467/122
f 248/467/122 14/466/122 35/468/122
f 248/467/122 35/468/122 249/469/122
f 249/469/122 35/468/122 34/470/122
f 249/469/122 34/470/122 250/471/122
f 250/471/122 34/470/122 37/472/122
f 250/471/122 37/472/122 81/473/122
f 250/471/122 81/473/122 251/474/122
f 251/474/122 81/473/122 75/475/122
f 81/473/122 37/472/122 78/476/122
f 78/476/122 37/472/122 79/477/122
f 79/477/122 37/472/122 60/478/122
f 60/478/122 37/472/122 41/479/122
f 60/478/122 41/479/122 61/480/122
f 61/480/122 41/479/122 74/481/122
f 74/481/122 41/479/122 43/482/122
f 74/481/122 43/482/122 66/483/122
f 66/483/122 43/482/122 45/484/122
f 66/483/122 45/484/122 67/485/122
f 67/485/122 45/484/122 47/486/122
f 67/485/122 47/486/122 3/487/122
f 3/487/122 47/486/122 50/488/122
f 3/487/122 50/488/122 1/489/122
f 251/474/122 53/490/122 83/491/122
f 53/490/122 251/474/122 51/492/122
f 51/492/122 251/474/122 75/475/122
f 83/491/122 53/490/122 86/493/122
f 83/491/122 86/493/122 71/494/122
f 83/491/122 71/494/122 70/495/122
f 83/491/122 70/495/122 63/496/122
f 63/496/122 70/495/122 57/497/122
f 63/496/122 57/497/122 56/498/122
f 84/94/46 251/499/123 83/93/46
f 251/499/123 84/94/46 217/500/123
f 218/501/124 134/502/124 236/503/124
f 134/502/124 218/501/124 133/41/124
f 225/504/125 242/505/126 243/506/125
f 242/505/126 225/504/125 224/507/126
f 224/507/126 241/508/127 242/505/126
f 241/508/127 224/507/126 223/509/127
f 228/510/128 245/511/129 246/512/128
f 245/511/129 228/510/128 227/513/129
f 229/514/130 246/175/128 247/515/130
f 246/175/128 229/514/130 228/173/128
f 223/509/127 240/516/131 241/508/127
f 240/516/131 223/509/127 222/517/131
f 227/513/129 244/518/132 245/511/129
f 244/518/132 227/513/129 226/519/132
f 226/519/132 243/506/125 244/518/132
f 243/506/125 226/519/132 225/504/125
f 222/517/131 239/520/133 240/516/131
f 239/520/133 222/517/131 221/521/133
f 239/520/133 220/522/134 238/523/134
f 220/522/134 239/520/133 221/521/133
f 230/524/135 247/515/130 248/525/135
f 247/515/130 230/524/135 229/514/130
f 232/526/136 249/527/137 250/528/136
f 249/527/137 232/526/136 231/529/137
f 231/529/137 248/107/135 249/527/137
f 248/107/135 231/529/137 230/105/135
f 217/500/123 250/528/136 251/499/123
f 250/528/136 217/500/123 232/526/136
f 238/523/134 219/530/138 237/531/138
f 219/530/138 238/523/134 220/522/134
f 219/530/138 236/503/139 237/531/138
f 236/503/139 219/530/138 218/501/139
f 216/532/140 132/533/71 235/534/140
f 132/533/71 216/532/140 131/535/71
f 84/306/121 217/302/121 252/536/121
f 83/491/122 253/537/122 251/474/122
f 136/152/75 235/534/140 135/151/75
f 235/534/140 136/152/75 216/532/140
f 68/76/37 74/82/41 66/74/37
f 74/82/41 68/76/37 73/81/41
f 234/417/122 233/415/122 191/413/122
f 192/220/107 234/538/141 191/218/107
f 234/538/141 192/220/107 215/539/141
f 215/539/141 145/163/77 234/538/141
f 145/163/77 215/539/141 143/161/77
