# Blender 4.4.1
# www.blender.org
o dino1-verde
v -3.137314 9.223503 -3.999999
v -3.536469 9.215988 -3.999999
v -3.137314 9.223503 4.000001
v -3.536469 9.215988 4.000001
v -3.923866 9.190331 -3.999999
v -3.923866 9.190331 4.000001
v -4.301041 9.147224 -3.999999
v -4.301041 9.147224 4.000001
v -4.669479 9.087364 -3.999999
v -4.669479 9.087364 4.000001
v -5.030708 9.011429 -3.999999
v -5.030708 9.011429 4.000001
v -5.386238 8.920113 -3.999999
v -5.386238 8.920113 4.000001
v -5.737572 8.814102 -3.999999
v -5.737572 8.814102 4.000001
v -6.086227 8.694092 -3.999999
v -6.086227 8.694092 4.000001
v -6.433716 8.560768 -3.999999
v -6.433716 8.560768 4.000001
v -6.781540 8.414818 -3.999999
v -6.781540 8.414818 4.000001
v -7.131218 8.256935 -3.999999
v -7.131218 8.256935 4.000001
v -7.484261 8.087807 -3.999999
v -7.484261 8.087807 4.000000
v -7.842171 7.908120 -3.999999
v -7.842171 7.908119 4.000000
v -8.206474 7.718575 -3.999999
v -8.206474 7.718575 4.000000
v -8.578667 7.519845 -3.999999
v -8.578667 7.519844 4.000000
v -8.960274 7.312631 -3.999999
v -8.960274 7.312630 4.000000
v 2.728409 7.250833 -3.999999
v 2.717873 7.369392 -3.999999
v 2.728409 7.250832 4.000000
v 2.717873 7.369391 4.000000
v 2.686874 7.484437 -3.999999
v 2.686874 7.484436 4.000000
v 2.636345 7.595941 -3.999999
v 2.636345 7.595940 4.000000
v 2.567223 7.703880 -3.999999
v 2.567223 7.703879 4.000000
v 2.480431 7.808267 -3.999999
v 2.480431 7.808266 4.000000
v 2.376907 7.909059 -3.999999
v 2.376907 7.909058 4.000000
v 2.257584 8.006256 -3.999999
v 2.257584 8.006256 4.000000
v 2.123390 8.099838 -3.999999
v 2.123390 8.099838 4.000000
v 1.975250 8.189796 -3.999999
v 1.975250 8.189796 4.000001
v 1.814110 8.276108 -3.999999
v 1.814110 8.276108 4.000001
v 1.640884 8.358765 -3.999999
v 1.640884 8.358765 4.000001
v 1.456520 8.437752 -3.999999
v 1.456520 8.437752 4.000001
v 1.058067 8.584641 -3.999999
v 1.058067 8.584641 4.000001
v 0.626213 8.716667 -3.999999
v 0.626213 8.716667 4.000001
v 0.168396 8.833710 -3.999999
v 0.168396 8.833710 4.000001
v -0.307930 8.935654 -3.999999
v -0.307930 8.935654 4.000001
v -0.795311 9.022369 -3.999999
v -0.795311 9.022369 4.000001
v -1.286301 9.093750 -3.999999
v -1.286301 9.093750 4.000001
v -1.773445 9.149673 -3.999999
v -1.773445 9.149673 4.000001
v -2.249298 9.190018 -3.999999
v -2.249298 9.190018 4.000001
v -2.706406 9.214668 -3.999999
v -2.706406 9.214668 4.000001
v 1.953598 6.271629 -4.000000
v 2.072876 6.261064 -4.000000
v 1.953598 6.271628 4.000000
v 2.072876 6.261063 4.000000
v 2.201004 6.244148 -4.000000
v 2.201004 6.244147 4.000000
v 2.330360 6.243051 -4.000000
v 2.330360 6.243050 4.000000
v 2.393112 6.255363 -4.000000
v 2.393112 6.255363 4.000000
v 2.453308 6.279945 -4.000000
v 2.453308 6.279944 4.000000
v 2.509995 6.319565 -4.000000
v 2.509995 6.319564 4.000000
v 2.562218 6.376999 -4.000000
v 2.562218 6.376998 4.000000
v 2.609024 6.455018 -4.000000
v 2.609024 6.455017 4.000000
v 2.649460 6.556389 -4.000000
v 2.649460 6.556388 4.000000
v 2.682571 6.683885 -4.000000
v 2.682571 6.683884 4.000000
v 2.707405 6.840271 -3.999999
v 2.707405 6.840271 4.000000
v 2.723000 7.028337 -3.999999
v 2.723000 7.028336 4.000000
v -0.209213 6.846795 -3.999999
v 0.049927 6.839547 -3.999999
v -0.209213 6.846794 4.000000
v 0.049927 6.839546 4.000000
v 0.286324 6.820710 -3.999999
v 0.286324 6.820709 4.000000
v 0.501320 6.791946 -4.000000
v 0.501320 6.791945 4.000000
v 0.696243 6.754913 -4.000000
v 0.696243 6.754912 4.000000
v 0.872421 6.711281 -4.000000
v 0.872421 6.711280 4.000000
v 1.031181 6.662721 -4.000000
v 1.031181 6.662720 4.000000
v 1.173866 6.610878 -4.000000
v 1.173866 6.610878 4.000000
v 1.301788 6.557426 -4.000000
v 1.301788 6.557425 4.000000
v 1.416283 6.504036 -4.000000
v 1.416283 6.504035 4.000000
v 1.518692 6.452363 -4.000000
v 1.518692 6.452362 4.000000
v 1.610329 6.404068 -4.000000
v 1.610329 6.404068 4.000000
v 1.692535 6.360826 -4.000000
v 1.692535 6.360825 4.000000
v 1.766632 6.324296 -4.000000
v 1.766632 6.324295 4.000000
v 1.833954 6.296144 -4.000000
v 1.833954 6.296143 4.000000
v 1.895836 6.278030 -4.000000
v 1.895836 6.278029 4.000000
v -2.376770 5.154572 -4.000000
v -2.367523 5.343614 -4.000000
v -2.376770 5.154572 4.000000
v -2.367523 5.343613 4.000000
v -2.341537 5.523629 -4.000000
v -2.341537 5.523628 4.000000
v -2.298805 5.694177 -4.000000
v -2.298805 5.694176 4.000000
v -2.239296 5.854814 -4.000000
v -2.239296 5.854813 4.000000
v -2.162994 6.005082 -4.000000
v -2.162994 6.005081 4.000000
v -2.069870 6.144547 -4.000000
v -2.069870 6.144547 4.000000
v -1.959915 6.272758 -4.000000
v -1.959915 6.272758 4.000000
v -1.833099 6.389276 -4.000000
v -1.833099 6.389275 4.000000
v -1.689407 6.493646 -4.000000
v -1.689407 6.493645 4.000000
v -1.528816 6.585426 -4.000000
v -1.528816 6.585425 4.000000
v -1.351303 6.664177 -4.000000
v -1.351303 6.664176 4.000000
v -1.156853 6.729439 -4.000000
v -1.156853 6.729438 4.000000
v -0.945435 6.780786 -4.000000
v -0.945435 6.780785 4.000000
v -0.717041 6.817750 -4.000000
v -0.717041 6.817749 4.000000
v -0.471634 6.839905 -3.999999
v -0.471634 6.839904 4.000000
v -0.475403 2.625748 -4.000000
v -0.709091 2.753265 -4.000000
v -0.475403 2.625748 4.000000
v -0.709091 2.753265 4.000000
v -0.927147 2.884529 -4.000000
v -0.927147 2.884529 4.000000
v -1.129631 3.019608 -4.000000
v -1.129631 3.019608 4.000000
v -1.316612 3.158577 -4.000000
v -1.316612 3.158577 4.000000
v -1.488159 3.301498 -4.000000
v -1.488159 3.301498 4.000000
v -1.644356 3.448441 -4.000000
v -1.644356 3.448441 4.000000
v -1.785255 3.599480 -4.000000
v -1.785255 3.599480 4.000000
v -1.910934 3.754684 -4.000000
v -1.910934 3.754684 4.000000
v -2.021461 3.914124 -4.000000
v -2.021461 3.914124 4.000000
v -2.116913 4.077867 -4.000000
v -2.116913 4.077866 4.000000
v -2.197350 4.245979 -4.000000
v -2.197350 4.245978 4.000000
v -2.262840 4.418533 -4.000000
v -2.262840 4.418532 4.000000
v -2.313454 4.595596 -4.000000
v -2.313454 4.595595 4.000000
v -2.349274 4.777253 -4.000000
v -2.349274 4.777252 4.000000
v -2.370354 4.963548 -4.000000
v -2.370354 4.963547 4.000000
v 4.753372 -2.603020 -4.000000
v 4.571396 -2.271660 -4.000000
v 4.753372 -2.603020 4.000000
v 4.571396 -2.271660 4.000000
v 4.389198 -1.955544 -4.000000
v 4.389198 -1.955544 4.000000
v 4.206924 -1.654221 -4.000000
v 4.206924 -1.654221 4.000000
v 4.024712 -1.367264 -4.000000
v 4.024712 -1.367264 4.000000
v 3.842705 -1.094223 -4.000000
v 3.842705 -1.094223 4.000000
v 3.661049 -0.834656 -4.000000
v 3.661049 -0.834656 4.000000
v 3.479881 -0.588135 -4.000000
v 3.479881 -0.588135 4.000000
v 3.299339 -0.354202 -4.000000
v 3.299339 -0.354202 4.000000
v 3.119576 -0.132439 -4.000000
v 3.119576 -0.132439 4.000000
v 2.940727 0.077614 -4.000000
v 2.940727 0.077614 4.000000
v 2.762932 0.276390 -4.000000
v 2.762932 0.276390 4.000000
v 2.586334 0.464333 -4.000000
v 2.586334 0.464333 4.000000
v 2.237305 0.809464 -4.000000
v 2.237305 0.809464 4.000000
v 1.894775 1.116531 -4.000000
v 1.894775 1.116531 4.000000
v 1.559875 1.389069 -4.000000
v 1.559875 1.389069 4.000000
v 1.233742 1.630592 -4.000000
v 1.233742 1.630592 4.000000
v 0.917511 1.844620 -4.000000
v 0.917511 1.844620 4.000000
v 0.612320 2.034691 -4.000000
v 0.612320 2.034691 4.000000
v 0.319290 2.204308 -4.000000
v 0.319290 2.204308 4.000000
v 0.039574 2.357010 -4.000000
v 0.039574 2.357010 4.000000
v -0.225700 2.496315 -4.000000
v -0.225700 2.496315 4.000000
v 9.368950 -8.387943 -4.000001
v 9.135536 -8.271065 -4.000001
v 9.368950 -8.387943 3.999999
v 9.135536 -8.271065 3.999999
v 8.896698 -8.128063 -4.000000
v 8.896698 -8.128063 3.999999
v 8.652023 -7.957546 -4.000000
v 8.652023 -7.957547 3.999999
v 8.401108 -7.758113 -4.000000
v 8.401108 -7.758114 3.999999
v 8.143532 -7.528380 -4.000000
v 8.143532 -7.528381 3.999999
v 7.878883 -7.266953 -4.000000
v 7.878883 -7.266953 3.999999
v 7.606766 -6.972435 -4.000000
v 7.606766 -6.972435 3.999999
v 7.326752 -6.643435 -4.000000
v 7.326752 -6.643436 4.000000
v 7.038445 -6.278563 -4.000000
v 7.038445 -6.278564 4.000000
v 6.741425 -5.876427 -4.000000
v 6.741425 -5.876428 4.000000
v 6.435280 -5.435630 -4.000000
v 6.435280 -5.435631 4.000000
v 6.278664 -5.200302 -4.000000
v 6.278664 -5.200303 4.000000
v 6.119606 -4.954781 -4.000000
v 6.119606 -4.954782 4.000000
v 5.958069 -4.698905 -4.000000
v 5.958069 -4.698906 4.000000
v 5.793991 -4.432487 -4.000000
v 5.793991 -4.432487 4.000000
v 5.627327 -4.155365 -4.000000
v 5.627327 -4.155365 4.000000
v 5.458015 -3.867363 -4.000000
v 5.458015 -3.867363 4.000000
v 5.286018 -3.568298 -4.000000
v 5.286018 -3.568298 4.000000
v 5.111282 -3.258003 -4.000000
v 5.111282 -3.258003 4.000000
v 4.933746 -2.936302 -4.000000
v 4.933746 -2.936302 4.000000
v 12.919762 -10.408150 3.999999
v 12.919762 -10.408150 -4.000001
v 12.913071 -10.326981 -0.000001
v 12.913071 -10.326981 -4.000001
v 12.893410 -10.247437 -4.000001
v 12.893410 -10.247437 -0.000001
v 12.861404 -10.169472 -4.000001
v 12.861404 -10.169472 -0.000001
v 12.817680 -10.093040 -4.000001
v 12.817680 -10.093040 -0.000001
v 12.762863 -10.018093 -4.000001
v 12.762863 -10.018093 -0.000001
v 12.697571 -9.944588 -4.000001
v 12.697571 -9.944588 -0.000001
v 12.538078 -9.801716 -4.000001
v 12.538078 -9.801716 -0.000001
v 12.344177 -9.664051 -4.000001
v 12.344177 -9.664051 -0.000001
v 12.120880 -9.531227 -4.000001
v 12.120880 -9.531227 -0.000001
v 11.873169 -9.402870 -4.000001
v 11.873169 -9.402870 -0.000001
v 11.606033 -9.278618 -4.000001
v 11.606033 -9.278618 -0.000001
v 11.033478 -9.040936 -4.000001
v 11.033478 -9.040936 -0.000001
v 10.443153 -8.815231 -4.000001
v 10.443153 -8.815231 -0.000001
v 10.153809 -8.705948 -4.000001
v 10.153809 -8.705948 -0.000001
v 9.874992 -8.598553 -4.000001
v 9.874992 -8.598553 -0.000001
v 9.611710 -8.492672 -4.000001
v 9.611710 -8.492672 -0.000001
v 9.611710 -8.492672 3.999999
v 9.874992 -8.598553 3.999999
v 10.153809 -8.705948 3.999999
v 10.443153 -8.815231 3.999999
v 11.033478 -9.040936 3.999999
v 11.606033 -9.278618 3.999999
v 11.873169 -9.402870 3.999999
v 12.120880 -9.531227 3.999999
v 12.344177 -9.664051 3.999999
v 12.538078 -9.801716 3.999999
v 12.697571 -9.944588 3.999999
v 12.762863 -10.018093 3.999999
v 12.817680 -10.093040 3.999999
v 12.861404 -10.169472 3.999999
v 12.893410 -10.247437 3.999999
v 12.913071 -10.326981 3.999999
v 11.574539 -11.297039 3.999999
v 11.574539 -11.297039 -4.000001
v 11.839783 -11.294720 -0.000001
v 11.839783 -11.294720 -4.000001
v 12.089546 -11.281147 -4.000001
v 12.089546 -11.281147 -0.000001
v 12.317688 -11.246407 -4.000001
v 12.317688 -11.246407 -0.000001
v 12.421745 -11.217999 -4.000001
v 12.421745 -11.217999 -0.000001
v 12.518097 -11.180580 -4.000001
v 12.518097 -11.180580 -0.000001
v 12.605980 -11.132915 -4.000001
v 12.605980 -11.132915 -0.000001
v 12.684631 -11.073761 -4.000001
v 12.684631 -11.073761 -0.000001
v 12.753288 -11.001877 -4.000001
v 12.753288 -11.001877 -0.000001
v 12.811172 -10.916023 -4.000001
v 12.811172 -10.916023 -0.000001
v 12.857529 -10.814964 -4.000001
v 12.857529 -10.814964 -0.000001
v 12.891594 -10.697460 -4.000001
v 12.891594 -10.697460 -0.000001
v 12.912590 -10.562267 -4.000001
v 12.912590 -10.562267 -0.000001
v 12.912590 -10.562267 3.999999
v 12.891594 -10.697460 3.999999
v 12.857529 -10.814964 3.999999
v 12.811172 -10.916023 3.999999
v 12.753288 -11.001877 3.999999
v 12.684631 -11.073761 3.999999
v 12.605980 -11.132915 3.999999
v 12.518097 -11.180580 3.999999
v 12.421745 -11.217999 3.999999
v 12.317688 -11.246407 3.999999
v 12.089546 -11.281147 3.999999
v 11.839783 -11.294720 3.999999
v 5.238220 -11.297039 -4.000001
v 5.238220 -11.297039 3.999999
v 0.251869 -9.395668 -4.000001
v 0.434822 -9.555676 -4.000001
v 0.251869 -9.395668 3.999999
v 0.434822 -9.555676 3.999999
v 0.654663 -9.718929 -4.000001
v 0.654663 -9.718929 3.999999
v 0.907150 -9.883564 -4.000001
v 0.907150 -9.883564 3.999999
v 1.188072 -10.047707 -4.000001
v 1.188072 -10.047707 3.999999
v 1.493202 -10.209480 -4.000001
v 1.493202 -10.209480 3.999999
v 1.818306 -10.367012 -4.000001
v 1.818306 -10.367012 3.999999
v 2.159157 -10.518433 -4.000001
v 2.159157 -10.518433 3.999999
v 2.511536 -10.661865 -4.000001
v 2.511536 -10.661865 3.999999
v 2.871208 -10.795437 -4.000001
v 2.871208 -10.795437 3.999999
v 3.233955 -10.917278 -4.000001
v 3.233955 -10.917278 3.999999
v 3.595543 -11.025513 -4.000001
v 3.595543 -11.025513 3.999999
v 3.951752 -11.118267 -4.000001
v 3.951752 -11.118267 3.999999
v 4.298347 -11.193672 -4.000001
v 4.298347 -11.193672 3.999999
v 4.631111 -11.249847 -4.000001
v 4.631111 -11.249847 3.999999
v 4.945808 -11.284931 -4.000001
v 4.945808 -11.284931 3.999999
v -0.423111 -11.263767 -4.000001
v -0.423111 -11.263767 3.999999
v -4.496803 -11.263767 -4.000001
v -4.496803 -11.263767 3.999999
v -5.262108 -10.313080 -4.000001
v -5.262108 -10.313080 3.999999
v -3.294189 -6.253654 -4.000000
v -3.294189 -6.253654 4.000000
v -4.829544 -4.029053 -4.000000
v -4.478996 -4.607535 -4.000000
v -4.829544 -4.029054 4.000000
v -4.478996 -4.607536 4.000000
v -4.105858 -5.171715 4.000000
v -4.105858 -5.171714 -4.000000
v -3.710716 -5.720703 -4.000000
v -3.710716 -5.720704 4.000000
v -5.547310 -1.652336 -4.000000
v -5.414162 -2.259628 -4.000000
v -5.547310 -1.652336 4.000000
v -5.414162 -2.259628 4.000000
v -5.249847 -2.859245 -4.000000
v -5.249847 -2.859245 4.000000
v -5.054802 -3.449577 -4.000000
v -5.054802 -3.449577 4.000000
v -7.296562 -1.699867 -4.000000
v -7.145500 -1.700165 -4.000000
v -7.296562 -1.699867 4.000000
v -7.145500 -1.700165 4.000000
v -6.975121 -1.698685 -4.000000
v -6.975121 -1.698685 4.000000
v -6.785423 -1.695412 -4.000000
v -6.785423 -1.695412 4.000000
v -6.576424 -1.690361 -4.000000
v -6.576424 -1.690361 4.000000
v -6.348114 -1.683533 -4.000000
v -6.348114 -1.683533 4.000000
v -6.100487 -1.674911 -4.000000
v -6.100487 -1.674911 4.000000
v -5.833549 -1.664520 -4.000000
v -5.833549 -1.664520 4.000000
v -8.423134 -0.597076 4.000000
v -8.423134 -0.597076 -4.000000
v -8.421768 -0.604340 -0.000000
v -8.369362 -0.799850 -4.000000
v -8.356934 -0.833992 -0.000000
v -8.285248 -0.992035 -4.000000
v -8.253204 -1.048897 -0.000000
v -8.172752 -1.169106 -4.000000
v -8.113731 -1.242531 -0.000000
v -8.034523 -1.326912 -4.000000
v -7.942757 -1.408997 -0.000000
v -7.873802 -1.461746 -4.000000
v -7.745468 -1.543243 -0.000000
v -7.694374 -1.570435 -4.000000
v -7.527870 -1.641197 -0.000000
v -7.500443 -1.650436 -4.000000
v -7.500443 -1.650436 4.000000
v -7.694374 -1.570435 4.000000
v -7.873802 -1.461746 4.000000
v -8.034523 -1.326912 4.000000
v -8.172752 -1.169106 4.000000
v -8.285248 -0.992035 4.000000
v -8.369362 -0.799850 4.000000
v -7.077911 0.686348 4.000000
v -7.077911 0.686348 -4.000000
v -7.235008 0.676315 0.000000
v -7.304405 0.665985 -4.000000
v -7.466003 0.627289 0.000000
v -7.524300 0.608025 -4.000000
v -7.684975 0.538887 0.000000
v -7.731400 0.514099 -4.000000
v -7.885277 0.413803 0.000000
v -7.919876 0.386856 -4.000000
v -8.060806 0.255844 0.000000
v -8.084412 0.229881 -4.000000
v -8.206245 0.069801 0.000000
v -8.220367 0.047600 -4.000000
v -8.317169 -0.138672 -0.000000
v -8.323921 -0.154861 -4.000000
v -8.390205 -0.363243 -0.000000
v -8.392151 -0.371788 -4.000000
v -8.392151 -0.371788 4.000000
v -8.323921 -0.154861 4.000000
v -8.220367 0.047600 4.000000
v -8.084412 0.229881 4.000000
v -7.919876 0.386856 4.000000
v -7.731400 0.514099 4.000000
v -7.524300 0.608025 4.000000
v -7.304405 0.665985 4.000000
v -5.737442 0.786171 -4.000000
v -5.737442 0.786171 4.000000
v -5.827759 3.681007 -4.000000
v -5.827759 3.681007 4.000000
v -9.335793 2.730324 -4.000000
v -8.811684 2.755287 -4.000000
v -9.335793 2.730324 4.000000
v -8.811684 2.755287 4.000000
v -8.290749 2.818069 -4.000000
v -8.290749 2.818069 4.000000
v -7.775719 2.918343 -4.000000
v -7.775719 2.918343 4.000000
v -7.269287 3.055588 -4.000000
v -7.269287 3.055588 4.000000
v -6.774101 3.229088 -4.000000
v -6.774101 3.229088 4.000000
v -6.292755 3.437920 -4.000000
v -6.292755 3.437920 4.000000
v -11.645958 4.489090 -4.000000
v -11.628189 4.162407 -4.000000
v -11.645958 4.489089 4.000000
v -11.628189 4.162406 4.000000
v -11.601944 4.001999 -4.000000
v -11.601944 4.001998 4.000000
v -11.561729 3.845299 -4.000000
v -11.561729 3.845299 4.000000
v -11.505753 3.693611 -4.000000
v -11.505753 3.693611 4.000000
v -11.432220 3.548248 -4.000000
v -11.432220 3.548248 4.000000
v -11.339325 3.410515 -4.000000
v -11.339325 3.410515 4.000000
v -11.225281 3.281723 -4.000000
v -11.225281 3.281723 4.000000
v -11.088280 3.163177 -4.000000
v -11.088280 3.163177 4.000000
v -10.926537 3.056190 -4.000000
v -10.926537 3.056190 4.000000
v -10.738251 2.962074 -4.000000
v -10.738251 2.962074 4.000000
v -10.521622 2.882133 -4.000000
v -10.521622 2.882133 4.000000
v -10.274857 2.817680 -4.000000
v -10.274857 2.817680 4.000000
v -9.996162 2.770020 -4.000000
v -9.996162 2.770020 4.000000
v -9.683739 2.740463 -4.000000
v -9.683739 2.740463 4.000000
v -9.330353 7.104875 -3.999999
v -9.330353 7.104874 4.000000
v -9.667778 6.903732 -3.999999
v -9.667778 6.903731 4.000000
v -9.973778 6.708673 -4.000000
v -9.973778 6.708672 4.000000
v -10.249565 6.519174 -4.000000
v -10.249565 6.519173 4.000000
v -10.496353 6.334724 -4.000000
v -10.496353 6.334723 4.000000
v -10.715370 6.154786 -4.000000
v -10.715370 6.154785 4.000000
v -10.907829 5.978851 -4.000000
v -10.907829 5.978850 4.000000
v -11.074951 5.806382 -4.000000
v -11.074951 5.806381 4.000000
v -11.217949 5.636871 -4.000000
v -11.217949 5.636870 4.000000
v -11.338051 5.469789 -4.000000
v -11.338051 5.469788 4.000000
v -11.436470 5.304619 -4.000000
v -11.436470 5.304618 4.000000
v -11.514420 5.140831 -4.000000
v -11.514420 5.140831 4.000000
v -11.573128 4.977905 -4.000000
v -11.573128 4.977904 4.000000
v -11.613808 4.815323 -4.000000
v -11.613808 4.815322 4.000000
v -11.637672 4.652557 -4.000000
v -11.637672 4.652556 4.000000
vn -0.0188 0.9998 -0.0000
vn -0.0661 0.9978 -0.0000
vn -0.1135 0.9935 -0.0000
vn -0.1136 0.9935 -0.0000
vn -0.1604 0.9871 -0.0000
vn -0.2057 0.9786 -0.0000
vn -0.2488 0.9686 -0.0000
vn -0.2889 0.9574 -0.0000
vn -0.3255 0.9456 -0.0000
vn -0.3582 0.9336 -0.0000
vn -0.3869 0.9221 -0.0000
vn -0.4115 0.9114 -0.0000
vn -0.4320 0.9019 -0.0000
vn -0.4487 0.8937 -0.0000
vn -0.4616 0.8871 -0.0000
vn -0.4710 0.8821 -0.0000
vn -0.4772 0.8788 -0.0000
vn -0.4895 0.8720 -0.0000
vn 0.9961 0.0885 -0.0000
vn 0.9656 0.2602 -0.0000
vn 0.9108 0.4128 -0.0000
vn 0.8421 0.5393 -0.0000
vn 0.7689 0.6393 -0.0000
vn 0.6976 0.7165 -0.0000
vn 0.6316 0.7753 -0.0000
vn 0.5720 0.8202 -0.0000
vn 0.5190 0.8547 -0.0000
vn 0.4722 0.8815 -0.0000
vn 0.4306 0.9025 -0.0000
vn 0.3938 0.9192 -0.0000
vn 0.3459 0.9383 -0.0000
vn 0.2924 0.9563 -0.0000
vn 0.2477 0.9688 -0.0000
vn 0.2093 0.9779 -0.0000
vn 0.1752 0.9845 -0.0000
vn 0.1439 0.9896 -0.0000
vn 0.1140 0.9935 -0.0000
vn 0.0845 0.9964 -0.0000
vn 0.0538 0.9985 -0.0000
vn 0.0205 0.9998 -0.0000
vn -0.0882 -0.9961 -0.0000
vn -0.1309 -0.9914 -0.0000
vn -0.0085 -1.0000 -0.0000
vn 0.1925 -0.9813 -0.0000
vn 0.3781 -0.9258 -0.0000
vn 0.5729 -0.8196 -0.0000
vn 0.7399 -0.6727 -0.0000
vn 0.8575 -0.5145 -0.0000
vn 0.9288 -0.3705 -0.0000
vn 0.9679 -0.2514 -0.0000
vn 0.9876 -0.1568 -0.0000
vn 0.9966 -0.0826 -0.0000
vn 0.9997 -0.0243 -0.0000
vn -0.0280 -0.9996 -0.0000
vn -0.0794 -0.9968 -0.0000
vn -0.1326 -0.9912 -0.0000
vn -0.1866 -0.9824 -0.0000
vn -0.2404 -0.9707 -0.0000
vn -0.2925 -0.9563 -0.0000
vn -0.3415 -0.9399 -0.0000
vn -0.3855 -0.9227 -0.0000
vn -0.4226 -0.9063 -0.0000
vn -0.4505 -0.8928 -0.0000
vn -0.4662 -0.8847 -0.0000
vn -0.4659 -0.8848 -0.0000
vn -0.4656 -0.8850 -0.0000
vn -0.4655 -0.8850 -0.0000
vn -0.4422 -0.8969 -0.0000
vn -0.3858 -0.9226 -0.0000
vn -0.2809 -0.9597 -0.0000
vn -0.1101 -0.9939 -0.0000
vn 0.9988 -0.0489 -0.0000
vn 0.9897 -0.1429 -0.0000
vn 0.9700 -0.2430 -0.0000
vn 0.9377 -0.3474 -0.0000
vn 0.8916 -0.4527 -0.0000
vn 0.8916 -0.4528 -0.0000
vn 0.8316 -0.5553 -0.0000
vn 0.7591 -0.6510 -0.0000
vn 0.6766 -0.7364 -0.0000
vn 0.5877 -0.8091 -0.0000
vn 0.4962 -0.8682 -0.0000
vn 0.4055 -0.9141 -0.0000
vn 0.3182 -0.9480 -0.0000
vn 0.2360 -0.9718 -0.0000
vn 0.1598 -0.9872 -0.0000
vn 0.0899 -0.9959 -0.0000
vn 0.0262 -0.9997 -0.0000
vn 0.4790 0.8778 -0.0000
vn 0.5157 0.8567 -0.0000
vn 0.5550 0.8319 -0.0000
vn 0.5965 0.8026 -0.0000
vn 0.6401 0.7683 -0.0000
vn 0.6852 0.7284 -0.0000
vn 0.7312 0.6821 -0.0000
vn 0.7772 0.6293 -0.0000
vn 0.8218 0.5697 -0.0000
vn 0.8639 0.5036 -0.0000
vn 0.9021 0.4316 -0.0000
vn 0.9349 0.3548 -0.0000
vn 0.9615 0.2748 -0.0000
vn 0.9811 0.1935 -0.0000
vn 0.9937 0.1124 -0.0000
vn 0.9994 0.0336 -0.0000
vn 0.8795 0.4760 -0.0000
vn 0.8765 0.4814 -0.0000
vn 0.8664 0.4994 -0.0000
vn 0.8556 0.5176 -0.0000
vn 0.8442 0.5360 -0.0000
vn 0.8321 0.5547 -0.0000
vn 0.8193 0.5734 -0.0000
vn 0.8058 0.5922 -0.0000
vn 0.7917 0.6110 -0.0000
vn 0.7768 0.6297 -0.0000
vn 0.7614 0.6483 -0.0000
vn 0.7453 0.6667 -0.0000
vn 0.7288 0.6848 -0.0000
vn 0.7031 0.7111 -0.0000
vn 0.6675 0.7446 -0.0000
vn 0.6312 0.7756 -0.0000
vn 0.5951 0.8036 -0.0000
vn 0.5605 0.8282 -0.0000
vn 0.5287 0.8488 -0.0000
vn 0.5010 0.8655 -0.0000
vn 0.4792 0.8777 -0.0000
vn 0.4649 0.8853 -0.0000
vn 0.4602 0.8878 -0.0000
vn 0.4477 0.8942 -0.0000
vn 0.5137 0.8580 -0.0000
vn 0.5718 0.8204 -0.0000
vn 0.6222 0.7828 -0.0000
vn 0.6656 0.7463 -0.0000
vn 0.7028 0.7114 -0.0000
vn 0.7345 0.6786 -0.0000
vn 0.7615 0.6481 -0.0000
vn 0.7846 0.6200 -0.0000
vn 0.8044 0.5941 -0.0000
vn 0.8213 0.5704 -0.0000
vn 0.8325 0.5540 -0.0000
vn 0.8393 0.5437 -0.0000
vn 0.8456 0.5338 -0.0000
vn 0.8515 0.5244 -0.0000
vn 0.8570 0.5154 -0.0000
vn 0.8621 0.5068 -0.0000
vn 0.8669 0.4985 -0.0000
vn 0.8713 0.4907 -0.0000
vn 0.8755 0.4832 -0.0000
vn 0.9966 0.0822 -0.0000
vn 0.9708 0.2399 -0.0000
vn 0.9251 0.3798 -0.0000
vn 0.8680 0.4966 -0.0000
vn 0.8071 0.5904 -0.0000
vn 0.7476 0.6641 -0.0000
vn 0.6672 0.7449 -0.0000
vn 0.5789 0.8154 -0.0000
vn 0.5112 0.8594 -0.0000
vn 0.4601 0.8879 -0.0000
vn 0.4217 0.9067 -0.0000
vn 0.3834 0.9236 -0.0000
vn 0.3571 0.9341 -0.0000
vn 0.3552 0.9348 -0.0000
vn 0.3533 0.9355 -0.0000
vn 0.3564 0.9343 -0.0000
vn 0.3594 0.9332 -0.0000
vn 0.3731 0.9278 -0.0000
vn 0.3961 0.9182 -0.0000
vn 0.0087 -1.0000 -0.0000
vn 0.0044 -1.0000 -0.0000
vn 0.0543 -0.9985 -0.0000
vn 0.1505 -0.9886 -0.0000
vn 0.2634 -0.9647 -0.0000
vn 0.3620 -0.9322 -0.0000
vn 0.4768 -0.8790 -0.0000
vn 0.6011 -0.7992 -0.0000
vn 0.7232 -0.6907 -0.0000
vn 0.8292 -0.5590 -0.0000
vn 0.9089 -0.4169 -0.0000
vn 0.9605 -0.2784 -0.0000
vn 0.9882 -0.1535 -0.0000
vn 0.9989 -0.0465 -0.0000
vn 0.2633 -0.9647 -0.0000
vn -0.0000 -1.0000 -0.0000
vn -0.6583 -0.7527 -0.0000
vn -0.5962 -0.8028 -0.0000
vn -0.5462 -0.8377 -0.0000
vn -0.5045 -0.8634 -0.0000
vn -0.4684 -0.8835 -0.0000
vn -0.4361 -0.8999 -0.0000
vn -0.4060 -0.9139 -0.0000
vn -0.3770 -0.9262 -0.0000
vn -0.3481 -0.9374 -0.0000
vn -0.3184 -0.9480 -0.0000
vn -0.2868 -0.9580 -0.0000
vn -0.2520 -0.9677 -0.0000
vn -0.2126 -0.9771 -0.0000
vn -0.1665 -0.9860 -0.0000
vn -0.1108 -0.9938 -0.0000
vn -0.0414 -0.9991 -0.0000
vn 0.9405 -0.3398 -0.0000
vn -0.7790 -0.6271 -0.0000
vn -0.8998 0.4362 -0.0000
vn -0.8552 -0.5183 -0.0000
vn -0.8341 -0.5516 -0.0000
vn -0.8116 -0.5842 -0.0000
vn -0.7879 -0.6158 -0.0000
vn -0.9768 -0.2142 -0.0000
vn -0.9644 -0.2643 -0.0000
vn -0.9495 -0.3137 -0.0000
vn -0.9321 -0.3623 -0.0000
vn -0.0020 -1.0000 -0.0000
vn 0.0173 -0.9999 -0.0000
vn 0.0242 -0.9997 -0.0000
vn 0.0299 -0.9996 -0.0000
vn 0.0348 -0.9994 -0.0000
vn 0.0389 -0.9992 -0.0000
vn 0.0424 -0.9991 -0.0000
vn 0.0425 -0.9991 -0.0000
vn -0.9828 -0.1848 -0.0000
vn -0.9666 -0.2563 -0.0001
vn -0.9624 -0.2717 -0.0000
vn -0.9624 -0.2717 0.0007
vn -0.9161 -0.4010 -0.0006
vn -0.9006 -0.4347 -0.0000
vn -0.9006 -0.4347 0.0010
vn -0.8441 -0.5362 -0.0009
vn -0.8114 -0.5845 -0.0000
vn -0.8114 -0.5845 0.0012
vn -0.7522 -0.6589 -0.0010
vn -0.6976 -0.7165 -0.0000
vn -0.6976 -0.7165 0.0013
vn -0.6427 -0.7661 -0.0010
vn -0.5626 -0.8268 -0.0000
vn -0.5626 -0.8268 0.0012
vn -0.5181 -0.8553 -0.0008
vn -0.4105 -0.9119 -0.0000
vn -0.4105 -0.9119 0.0010
vn -0.3813 -0.9244 -0.0005
vn -0.2539 -0.9672 0.0005
vn -0.2356 -0.9718 -0.0000
vn -0.2356 -0.9718 -0.0006
vn -0.3813 -0.9244 0.0005
vn -0.4105 -0.9119 -0.0010
vn -0.5181 -0.8553 0.0008
vn -0.5626 -0.8268 -0.0012
vn -0.6427 -0.7661 0.0010
vn -0.6976 -0.7165 -0.0013
vn -0.7522 -0.6589 0.0010
vn -0.8114 -0.5845 -0.0012
vn -0.8441 -0.5362 0.0009
vn -0.9006 -0.4347 -0.0010
vn -0.9161 -0.4010 0.0006
vn -0.9624 -0.2717 -0.0007
vn -0.9666 -0.2563 0.0001
vn -0.0667 0.9978 -0.0000
vn -0.0681 0.9977 -0.0000
vn -0.0637 0.9980 -0.0000
vn -0.0895 0.9960 -0.0010
vn -0.2076 0.9782 -0.0000
vn -0.2076 0.9782 0.0011
vn -0.2549 0.9670 -0.0009
vn -0.3744 0.9273 -0.0000
vn -0.3744 0.9273 0.0010
vn -0.4130 0.9107 -0.0008
vn -0.5297 0.8482 -0.0000
vn -0.5297 0.8482 0.0009
vn -0.5595 0.8288 -0.0007
vn -0.6689 0.7433 -0.0000
vn -0.6689 0.7433 0.0008
vn -0.6903 0.7235 -0.0006
vn -0.7878 0.6159 -0.0000
vn -0.7878 0.6159 0.0007
vn -0.8016 0.5979 -0.0005
vn -0.8828 0.4697 -0.0000
vn -0.8828 0.4697 0.0005
vn -0.8903 0.4554 -0.0003
vn -0.9510 0.3093 -0.0000
vn -0.9518 0.3067 0.0002
vn -0.9531 0.3026 -0.0000
vn -0.9539 0.3000 -0.0002
vn -0.9904 0.1380 -0.0001
vn -0.9901 0.1406 0.0001
vn -0.9902 0.1399 0.0002
vn -0.9907 0.1362 -0.0000
vn -0.9907 0.1362 -0.0002
vn -0.9539 0.3000 0.0002
vn -0.9518 0.3067 -0.0002
vn -0.8903 0.4554 0.0003
vn -0.8828 0.4697 -0.0005
vn -0.8016 0.5979 0.0005
vn -0.7878 0.6159 -0.0007
vn -0.6903 0.7235 0.0006
vn -0.6689 0.7433 -0.0008
vn -0.5595 0.8288 0.0007
vn -0.5297 0.8482 -0.0009
vn -0.4130 0.9107 0.0008
vn -0.3744 0.9273 -0.0010
vn -0.2549 0.9670 0.0009
vn -0.2076 0.9782 -0.0011
vn -0.0895 0.9960 0.0010
vn -0.0743 0.9972 -0.0000
vn -0.9995 -0.0312 -0.0000
vn 0.0476 -0.9989 -0.0000
vn 0.1197 -0.9928 -0.0000
vn 0.1911 -0.9816 -0.0000
vn 0.2616 -0.9652 -0.0000
vn 0.3307 -0.9437 -0.0000
vn 0.3980 -0.9174 -0.0000
vn 0.4633 -0.8862 -0.0000
vn -0.9985 -0.0543 -0.0000
vn -0.9869 -0.1615 -0.0000
vn -0.9686 -0.2486 -0.0000
vn -0.9382 -0.3462 -0.0000
vn -0.8923 -0.4514 -0.0000
vn -0.8291 -0.5592 -0.0000
vn -0.7487 -0.6629 -0.0000
vn -0.6543 -0.7562 -0.0000
vn -0.5517 -0.8340 -0.0000
vn -0.4471 -0.8945 -0.0000
vn -0.3462 -0.9382 -0.0000
vn -0.2527 -0.9675 -0.0000
vn -0.1686 -0.9857 -0.0000
vn -0.0942 -0.9956 -0.0000
vn -0.0291 -0.9996 -0.0000
vn -0.5120 0.8590 -0.0000
vn -0.5375 0.8432 -0.0000
vn -0.5663 0.8242 -0.0000
vn -0.5987 0.8010 -0.0000
vn -0.6348 0.7727 -0.0000
vn -0.6747 0.7381 -0.0000
vn -0.7182 0.6959 -0.0000
vn -0.7644 0.6448 -0.0000
vn -0.7643 0.6448 -0.0000
vn -0.8120 0.5837 -0.0000
vn -0.8591 0.5119 -0.0000
vn -0.9030 0.4297 -0.0000
vn -0.9408 0.3390 -0.0000
vn -0.9701 0.2427 -0.0000
vn -0.9894 0.1451 -0.0000
vn -0.9987 0.0506 -0.0000
vn -0.0000 -0.0000 1.0000
vn -0.0000 -0.0000 -1.0000
vt 0.374275 0.763346
vt 0.374275 0.772505
vt 0.187137 0.763346
vt 0.187137 0.772505
vt 0.374275 0.781319
vt 0.187137 0.781319
vt 0.374275 0.789826
vt 0.187137 0.789826
vt 0.374275 0.798062
vt 0.187137 0.798062
vt 0.374275 0.806066
vt 0.187137 0.806066
vt 0.374275 0.813875
vt 0.187137 0.813875
vt 0.374275 0.821527
vt 0.187137 0.821527
vt 0.374275 0.829059
vt 0.187137 0.829059
vt 0.374275 0.836510
vt 0.187137 0.836510
vt 0.374275 0.843916
vt 0.187137 0.843916
vt 0.374275 0.851315
vt 0.187137 0.851315
vt 0.374275 0.858746
vt 0.187137 0.858746
vt 0.374275 0.866245
vt 0.187137 0.866245
vt 0.374275 0.873850
vt 0.187137 0.873850
vt 0.374275 0.881600
vt 0.187137 0.881600
vt 0.374275 0.889531
vt 0.187137 0.889531
vt 0.583634 0.812863
vt 0.586362 0.812863
vt 0.583634 1.000000
vt 0.586362 1.000000
vt 0.588954 0.812863
vt 0.588954 1.000000
vt 0.591412 0.812863
vt 0.591412 1.000000
vt 0.593738 0.812863
vt 0.593738 1.000000
vt 0.187137 0.625725
vt 0.374275 0.625725
vt 0.374275 0.628155
vt 0.187137 0.628155
vt 0.374275 0.630955
vt 0.187137 0.630955
vt 0.374275 0.634103
vt 0.187137 0.634103
vt 0.374275 0.637579
vt 0.187137 0.637579
vt 0.374275 0.641362
vt 0.187137 0.641362
vt 0.374275 0.645428
vt 0.187137 0.645428
vt 0.374275 0.649758
vt 0.187137 0.649758
vt 0.374275 0.654329
vt 0.187137 0.654329
vt 0.374275 0.664110
vt 0.187137 0.664110
vt 0.374275 0.674598
vt 0.187137 0.674598
vt 0.374275 0.685623
vt 0.187137 0.685623
vt 0.374275 0.697011
vt 0.187137 0.697011
vt 0.374275 0.708591
vt 0.187137 0.708591
vt 0.374275 0.720191
vt 0.187137 0.720191
vt 0.374275 0.731638
vt 0.187137 0.731638
vt 0.374275 0.742761
vt 0.187137 0.742761
vt 0.374275 0.753388
vt 0.187137 0.753388
vt 0.751142 0.561412
vt 0.748342 0.561412
vt 0.751142 0.374275
vt 0.748342 0.374275
vt 0.745326 0.561412
vt 0.745326 0.374275
vt 0.742304 0.561412
vt 0.742304 0.374275
vt 0.740858 0.561412
vt 0.740858 0.374275
vt 0.739490 0.561412
vt 0.739490 0.374275
vt 0.738226 0.561412
vt 0.738226 0.374275
vt 0.561412 1.000000
vt 0.561412 0.812863
vt 0.562885 0.812863
vt 0.562885 1.000000
vt 0.564822 0.812863
vt 0.564822 1.000000
vt 0.567285 0.812863
vt 0.567285 1.000000
vt 0.570335 0.812863
vt 0.570335 1.000000
vt 0.574036 0.812863
vt 0.574036 1.000000
vt 0.578448 0.812863
vt 0.578448 1.000000
vt 0.802497 0.561412
vt 0.796436 0.561412
vt 0.802497 0.374275
vt 0.796436 0.374275
vt 0.790890 0.561412
vt 0.790890 0.374275
vt 0.785828 0.561412
vt 0.785828 0.374275
vt 0.781222 0.561412
vt 0.781222 0.374275
vt 0.777043 0.561412
vt 0.777043 0.374275
vt 0.773264 0.561412
vt 0.773264 0.374275
vt 0.769855 0.561412
vt 0.769855 0.374275
vt 0.766789 0.561412
vt 0.766789 0.374275
vt 0.764035 0.561412
vt 0.764035 0.374275
vt 0.761567 0.561412
vt 0.761567 0.374275
vt 0.759355 0.561412
vt 0.759355 0.374275
vt 0.757371 0.561412
vt 0.757371 0.374275
vt 0.755586 0.561412
vt 0.755586 0.374275
vt 0.753972 0.561412
vt 0.753972 0.374275
vt 0.752500 0.561412
vt 0.752500 0.374275
vt 0.957304 0.625726
vt 0.961722 0.625726
vt 0.957304 0.812863
vt 0.961722 0.812863
vt 0.965975 0.625726
vt 0.965975 0.812863
vt 0.970052 0.625726
vt 0.970051 0.812863
vt 0.973942 0.625726
vt 0.973942 0.812863
vt 0.977637 0.625726
vt 0.977636 0.812863
vt 0.981124 0.625726
vt 0.981124 0.812863
vt 0.984394 0.625726
vt 0.984394 0.812863
vt 0.987438 0.625726
vt 0.987438 0.812863
vt 0.839715 0.374275
vt 0.839715 0.561412
vt 0.836518 0.561412
vt 0.836518 0.374275
vt 0.832907 0.561412
vt 0.832907 0.374275
vt 0.828882 0.561412
vt 0.828882 0.374275
vt 0.824441 0.561412
vt 0.824441 0.374275
vt 0.819583 0.561412
vt 0.819583 0.374275
vt 0.814307 0.561412
vt 0.814307 0.374275
vt 0.808612 0.561412
vt 0.808612 0.374275
vt 0.812993 0.625726
vt 0.818900 0.625726
vt 0.812993 0.812863
vt 0.818900 0.812863
vt 0.824462 0.625726
vt 0.824462 0.812863
vt 0.829682 0.625726
vt 0.829682 0.812863
vt 0.834561 0.625726
vt 0.834561 0.812863
vt 0.839101 0.625726
vt 0.839101 0.812863
vt 0.843304 0.625726
vt 0.843304 0.812863
vt 0.847172 0.625726
vt 0.847172 0.812863
vt 0.850706 0.625726
vt 0.850706 0.812863
vt 0.925997 0.812863
vt 0.925997 0.625726
vt 0.929411 0.625726
vt 0.929411 0.812863
vt 0.932965 0.625726
vt 0.932965 0.812863
vt 0.936660 0.625726
vt 0.936660 0.812863
vt 0.940497 0.625726
vt 0.940497 0.812863
vt 0.944479 0.625726
vt 0.944479 0.812863
vt 0.948607 0.625726
vt 0.948607 0.812863
vt 0.952881 0.625726
vt 0.952881 0.812863
vt 0.817619 0.187137
vt 0.824840 0.187137
vt 0.817619 0.374275
vt 0.824840 0.374275
vt 0.831706 0.187137
vt 0.831706 0.374275
vt 0.838228 0.187137
vt 0.838228 0.374275
vt 0.844416 0.187137
vt 0.844416 0.374275
vt 0.850281 0.187137
vt 0.850281 0.374275
vt 0.855834 0.187137
vt 0.855834 0.374275
vt 0.861086 0.187137
vt 0.861085 0.374275
vt 0.708654 0.812863
vt 0.708654 0.625726
vt 0.713777 0.625726
vt 0.713777 0.812863
vt 0.718832 0.625726
vt 0.718832 0.812863
vt 0.723817 0.625726
vt 0.723817 0.812863
vt 0.728731 0.625726
vt 0.728731 0.812863
vt 0.733573 0.625726
vt 0.733573 0.812863
vt 0.743034 0.625726
vt 0.743034 0.812863
vt 0.752189 0.625726
vt 0.752189 0.812863
vt 0.761025 0.625726
vt 0.761025 0.812863
vt 0.769531 0.625726
vt 0.769531 0.812863
vt 0.777696 0.625726
vt 0.777696 0.812863
vt 0.785508 0.625726
vt 0.785508 0.812863
vt 0.792955 0.625726
vt 0.792955 0.812863
vt 0.800026 0.625726
vt 0.800026 0.812863
vt 0.806709 0.625726
vt 0.806709 0.812863
vt 0.646286 0.625725
vt 0.652143 0.625725
vt 0.646286 0.812863
vt 0.652143 0.812863
vt 0.658233 0.625725
vt 0.658233 0.812863
vt 0.664571 0.625725
vt 0.664570 0.812863
vt 0.671171 0.625725
vt 0.671171 0.812863
vt 0.678050 0.625725
vt 0.678050 0.812863
vt 0.685223 0.625725
vt 0.685223 0.812863
vt 0.692704 0.625725
vt 0.692704 0.812863
vt 0.700510 0.625725
vt 0.700510 0.812863
vt 0.708654 0.625725
vt 0.708654 0.812863
vt 0.738226 0.374275
vt 0.738226 0.187137
vt 0.746788 0.187137
vt 0.746788 0.374275
vt 0.756225 0.187137
vt 0.756225 0.374275
vt 0.761281 0.187137
vt 0.761281 0.374275
vt 0.766567 0.187137
vt 0.766567 0.374275
vt 0.772087 0.187137
vt 0.772087 0.374275
vt 0.777846 0.187137
vt 0.777846 0.374275
vt 0.783847 0.187137
vt 0.783847 0.374275
vt 0.790094 0.187137
vt 0.790094 0.374275
vt 0.796590 0.187137
vt 0.796590 0.374275
vt 0.803341 0.187137
vt 0.803341 0.374275
vt 0.810349 0.187137
vt 0.810349 0.374275
vt 0.989788 0.187137
vt 0.989788 0.000000
vt 0.991657 0.093569
vt 0.991657 0.000000
vt 0.993454 0.000000
vt 0.993454 0.093569
vt 0.995181 0.000000
vt 0.995181 0.093569
vt 0.996842 0.000000
vt 0.996842 0.093569
vt 0.998439 0.000000
vt 0.998439 0.093569
vt 0.561412 0.719294
vt 0.561412 0.625725
vt 0.563219 0.625725
vt 0.563219 0.719294
vt 0.567481 0.625725
vt 0.567481 0.719294
vt 0.572514 0.625725
vt 0.572514 0.719294
vt 0.578203 0.625725
vt 0.578203 0.719294
vt 0.584437 0.625725
vt 0.584437 0.719294
vt 0.591101 0.625725
vt 0.591101 0.719294
vt 0.605265 0.625725
vt 0.605265 0.719294
vt 0.619789 0.625725
vt 0.619789 0.719294
vt 0.626902 0.625725
vt 0.626902 0.719294
vt 0.633765 0.625725
vt 0.633765 0.719294
vt 0.640265 0.625725
vt 0.640265 0.719294
vt 0.640265 0.812863
vt 0.633765 0.812863
vt 0.626902 0.812863
vt 0.619789 0.812863
vt 0.605265 0.812863
vt 0.591101 0.812863
vt 0.584437 0.812863
vt 0.578203 0.812863
vt 0.572514 0.812863
vt 0.567481 0.812863
vt 0.563219 0.812863
vt 0.561412 0.812863
vt 0.998439 0.187137
vt 0.996842 0.187137
vt 0.995181 0.187137
vt 0.993454 0.187137
vt 0.991657 0.187137
vt 0.187137 0.651303
vt 0.000000 0.651303
vt 0.093569 0.645115
vt 0.000000 0.645114
vt 0.000000 0.639305
vt 0.093569 0.639305
vt 0.000000 0.634031
vt 0.093569 0.634031
vt 0.000000 0.631645
vt 0.093569 0.631645
vt -0.000000 0.629452
vt 0.093569 0.629452
vt 0.000000 0.627472
vt 0.093569 0.627472
vt 0.000000 0.625726
vt 0.093569 0.625726
vt 0.973696 0.093569
vt 0.973696 0.000000
vt 0.975548 0.000000
vt 0.975548 0.093569
vt 0.977697 0.000000
vt 0.977697 0.093569
vt 0.980168 0.000000
vt 0.980168 0.093569
vt 0.982989 0.000000
vt 0.982989 0.093569
vt 0.986187 0.000000
vt 0.986187 0.093569
vt 0.986187 0.187137
vt 0.982989 0.187137
vt 0.980168 0.187137
vt 0.977697 0.187137
vt 0.975548 0.187137
vt 0.973696 0.187137
vt 0.187137 0.625726
vt 0.187137 0.627472
vt 0.187137 0.629452
vt 0.187137 0.631645
vt 0.187137 0.634031
vt 0.187137 0.639305
vt 0.187137 0.645115
vt 0.000000 0.799215
vt 0.187137 0.799215
vt 0.000000 0.918479
vt -0.000000 0.913967
vt 0.187137 0.918479
vt 0.187137 0.913967
vt 0.000000 0.908589
vt 0.187137 0.908589
vt 0.000000 0.902447
vt 0.187137 0.902447
vt 0.000000 0.895642
vt 0.187137 0.895642
vt 0.000000 0.888276
vt 0.187137 0.888276
vt 0.000000 0.880449
vt 0.187137 0.880449
vt 0.000000 0.872265
vt 0.187137 0.872265
vt 0.000000 0.863823
vt 0.187137 0.863823
vt 0.000000 0.855226
vt 0.187137 0.855225
vt 0.000000 0.846574
vt 0.187137 0.846574
vt 0.000000 0.837970
vt 0.187137 0.837970
vt 0.000000 0.829515
vt 0.187137 0.829515
vt 0.000000 0.821311
vt 0.187137 0.821311
vt 0.000000 0.813458
vt 0.187137 0.813458
vt 0.000000 0.806059
vt 0.187137 0.806059
vt 0.928494 0.000000
vt 0.973696 0.000000
vt 0.928494 0.187137
vt 0.973696 0.187137
vt 0.934809 0.561412
vt 0.839715 0.561412
vt 0.934809 0.374275
vt 0.839715 0.374275
vt 0.374275 0.645606
vt 0.561412 0.645606
vt 0.561412 0.625725
vt 0.374275 0.745485
vt 0.561412 0.745485
vt 0.374275 0.792737
vt 0.374275 0.780310
vt 0.561412 0.792737
vt 0.561412 0.780310
vt 0.561412 0.768280
vt 0.374275 0.768280
vt 0.374275 0.756665
vt 0.561412 0.756665
vt 0.374275 0.845861
vt 0.374275 0.832143
vt 0.561412 0.845861
vt 0.561412 0.832143
vt 0.374275 0.818692
vt 0.561412 0.818692
vt 0.374275 0.805545
vt 0.561412 0.805545
vt 0.907241 0.187137
vt 0.903714 0.187137
vt 0.907241 0.000000
vt 0.903714 0.000000
vt 0.899739 0.187137
vt 0.899739 0.000000
vt 0.895316 0.187137
vt 0.895316 0.000000
vt 0.890445 0.187137
vt 0.890445 0.000000
vt 0.885125 0.187137
vt 0.885125 0.000000
vt 0.879358 0.187137
vt 0.879358 0.000000
vt 0.873142 0.187137
vt 0.873142 0.000000
vt 0.866479 0.187137
vt 0.866479 0.000000
vt 0.959818 0.561412
vt 0.959818 0.374275
vt 0.959983 0.467843
vt 0.964372 0.374275
vt 0.965129 0.467843
vt 0.968593 0.374275
vt 0.969821 0.467843
vt 0.972382 0.374275
vt 0.973917 0.467843
vt 0.927006 0.093569
vt 0.928494 0.187137
vt 0.925029 0.187137
vt 0.922764 0.093569
vt 0.921075 0.187137
vt 0.917956 0.093569
vt 0.916722 0.187137
vt 0.912729 0.093569
vt 0.912075 0.187137
vt 0.912075 0.000000
vt 0.916722 0.000000
vt 0.921074 0.000000
vt 0.925029 0.000000
vt 0.928494 0.000000
vt 0.972382 0.561412
vt 0.968593 0.561412
vt 0.964372 0.561412
vt 0.958487 0.374275
vt 0.958487 0.187137
vt 0.962062 0.280706
vt 0.963618 0.187137
vt 0.967179 0.280706
vt 0.968441 0.187137
vt 0.971856 0.280706
vt 0.972822 0.187137
vt 0.975951 0.280706
vt 0.976636 0.187137
vt 0.934809 0.467843
vt 0.935534 0.374275
vt 0.938979 0.467843
vt 0.939649 0.374275
vt 0.943715 0.467843
vt 0.944271 0.374275
vt 0.948872 0.467843
vt 0.949267 0.374275
vt 0.954295 0.467843
vt 0.954499 0.374275
vt 0.954499 0.561412
vt 0.949267 0.561412
vt 0.944271 0.561412
vt 0.939649 0.561412
vt 0.935534 0.561412
vt 0.976636 0.374275
vt 0.972822 0.374275
vt 0.968441 0.374275
vt 0.963618 0.374275
vt 0.928034 0.187137
vt 0.928034 0.374275
vt 0.861085 0.187137
vt 0.928034 0.187137
vt 0.861086 0.374275
vt 0.928035 0.374275
vt 0.818684 0.187137
vt 0.806487 0.187137
vt 0.818684 -0.000000
vt 0.806487 0.000000
vt 0.794421 0.187137
vt 0.794421 0.000000
vt 0.782550 0.187137
vt 0.782550 0.000000
vt 0.770935 0.187137
vt 0.770935 0.000000
vt 0.759637 0.187137
vt 0.759637 0.000000
vt 0.748715 0.187137
vt 0.748715 0.000000
vt 0.738226 0.187137
vt 0.738226 0.000000
vt 0.901835 0.625726
vt 0.909368 0.625726
vt 0.901835 0.812863
vt 0.909368 0.812863
vt 0.913017 0.625726
vt 0.913017 0.812863
vt 0.916540 0.625726
vt 0.916540 0.812863
vt 0.919901 0.625726
vt 0.919901 0.812863
vt 0.923066 0.625726
vt 0.923066 0.812863
vt 0.925997 0.812863
vt 0.866479 0.000000
vt 0.863622 0.187137
vt 0.863622 0.000000
vt 0.860246 0.187137
vt 0.860246 0.000000
vt 0.856309 0.187137
vt 0.856309 0.000000
vt 0.851772 0.187137
vt 0.851772 0.000000
vt 0.846595 0.187137
vt 0.846595 0.000000
vt 0.840737 0.187137
vt 0.840737 0.000000
vt 0.834159 0.187137
vt 0.834159 -0.000000
vt 0.826822 0.187137
vt 0.826822 -0.000000
vt 0.374275 0.897194
vt 0.187137 0.897194
vt 0.374275 0.904133
vt 0.187137 0.904133
vt 0.374275 0.910374
vt 0.187137 0.910374
vt 0.374275 0.915941
vt 0.187137 0.915941
vt 0.850706 0.812863
vt 0.850706 0.625726
vt 0.855695 0.625726
vt 0.855695 0.812863
vt 0.860499 0.625726
vt 0.860499 0.812863
vt 0.865135 0.625726
vt 0.865135 0.812863
vt 0.869617 0.625726
vt 0.869617 0.812863
vt 0.873962 0.625726
vt 0.873962 0.812863
vt 0.878185 0.625726
vt 0.878185 0.812863
vt 0.882301 0.625726
vt 0.882301 0.812863
vt 0.886327 0.625726
vt 0.886327 0.812863
vt 0.890278 0.625726
vt 0.890278 0.812863
vt 0.894169 0.625726
vt 0.894169 0.812863
vt 0.898016 0.625726
vt 0.898016 0.812863
vt 0.140855 0.625367
vt 0.130700 0.625619
vt 0.302681 0.514058
vt 0.120773 0.625726
vt 0.111585 0.625585
vt 0.103105 0.625201
vt 0.151830 0.515439
vt 0.249948 0.517636
vt 0.253249 0.519792
vt 0.095302 0.624578
vt 0.088147 0.623718
vt 0.081607 0.622626
vt 0.075652 0.621304
vt 0.036863 0.581951
vt 0.139566 0.515937
vt 0.127371 0.517320
vt 0.115307 0.519580
vt 0.103438 0.522708
vt 0.091826 0.526685
vt 0.080532 0.531491
vt 0.069616 0.537100
vt 0.062680 0.541366
vt 0.056691 0.545611
vt 0.051597 0.549829
vt 0.047346 0.554016
vt 0.036657 0.578146
vt 0.043887 0.558164
vt 0.036934 0.574270
vt 0.037743 0.570328
vt 0.070251 0.619758
vt 0.037498 0.585680
vt 0.038511 0.589326
vt 0.039851 0.592884
vt 0.065374 0.617990
vt 0.043303 0.599715
vt 0.045378 0.602932
vt 0.047762 0.605954
vt 0.050483 0.608775
vt 0.060989 0.616004
vt 0.057067 0.613804
vt 0.053575 0.611393
vt 0.039137 0.566326
vt 0.041168 0.562269
vt 0.119881 0.455696
vt 0.232836 0.466614
vt 0.232099 0.471227
vt 0.231718 0.475749
vt 0.091540 0.469314
vt 0.095281 0.404039
vt 0.251581 0.426050
vt 0.248029 0.431588
vt 0.086710 0.471544
vt 0.081576 0.472935
vt 0.076281 0.473447
vt 0.070975 0.473067
vt 0.065808 0.471804
vt 0.060924 0.469695
vt 0.056463 0.466799
vt 0.052548 0.463197
vt 0.048015 0.454253
vt 0.047478 0.449375
vt 0.047692 0.444473
vt 0.048653 0.439660
vt 0.049291 0.458992
vt 0.050338 0.435051
vt 0.052707 0.430754
vt 0.055706 0.426869
vt 0.059262 0.423488
vt 0.062321 0.421719
vt 0.065793 0.419761
vt 0.069677 0.417614
vt 0.073973 0.415277
vt 0.078681 0.412751
vt 0.083802 0.410037
vt 0.089335 0.407132
vt 0.090894 0.390173
vt 0.274861 0.382766
vt 0.271067 0.391468
vt 0.267153 0.399497
vt 0.087228 0.376099
vt 0.281831 0.363110
vt 0.278470 0.373332
vt 0.084294 0.361855
vt 0.287552 0.340064
vt 0.286267 0.346169
vt 0.284880 0.352040
vt 0.082098 0.347479
vt 0.289784 0.327125
vt 0.288727 0.333719
vt 0.082455 0.331660
vt 0.290714 0.320276
vt 0.291510 0.313164
vt 0.292164 0.305781
vt 0.083437 0.315868
vt 0.292668 0.298122
vt 0.293014 0.290178
vt 0.085041 0.300127
vt 0.293193 0.281942
vt 0.293198 0.273407
vt 0.087267 0.284461
vt 0.293021 0.264566
vt 0.292789 0.255704
vt 0.292634 0.247110
vt 0.292556 0.238781
vt 0.292553 0.230710
vt 0.122494 0.179382
vt 0.292625 0.222896
vt 0.292770 0.215333
vt 0.292988 0.208017
vt 0.293277 0.200944
vt 0.293636 0.194110
vt 0.294065 0.187512
vt 0.295129 0.175003
vt 0.296458 0.163384
vt 0.298045 0.152622
vt 0.299883 0.142685
vt 0.301963 0.133538
vt 0.304278 0.125150
vt 0.306819 0.117487
vt 0.309579 0.110516
vt 0.312550 0.104204
vt 0.315723 0.098517
vt 0.319091 0.093424
vt 0.322791 0.088468
vt 0.326893 0.083249
vt 0.331293 0.077818
vt 0.335883 0.072226
vt 0.345218 0.060762
vt 0.354052 0.049262
vt 0.148061 0.134363
vt 0.153531 0.127343
vt 0.000000 0.225125
vt 0.004422 0.196921
vt 0.087011 0.149385
vt 0.124336 0.174003
vt 0.126888 0.168128
vt 0.130086 0.161844
vt 0.133866 0.155238
vt 0.138165 0.148397
vt 0.142917 0.141410
vt 0.159264 0.120438
vt 0.165197 0.113735
vt 0.201399 0.082648
vt 0.171265 0.107321
vt 0.177404 0.101284
vt 0.183551 0.095711
vt 0.189642 0.090689
vt 0.195612 0.086305
vt 0.329860 0.008709
vt 0.358018 0.043626
vt 0.361542 0.038133
vt 0.364519 0.032834
vt 0.335265 0.005660
vt 0.366844 0.027781
vt 0.340487 0.003021
vt 0.365562 0.007991
vt 0.363559 0.005495
vt 0.345518 0.001063
vt 0.361497 0.003511
vt 0.347959 0.000425
vt 0.350349 0.000059
vt 0.352687 0.000000
vt 0.359378 0.002003
vt 0.357202 0.000938
vt 0.354972 0.000282
vt 0.367506 0.011032
vt 0.368317 0.012756
vt 0.368847 0.014598
vt 0.369108 0.016552
vt 0.369113 0.018612
vt 0.368876 0.020771
vt 0.368410 0.023023
vt 0.263184 0.406912
vt 0.259222 0.413770
vt 0.255333 0.420130
vt 0.244779 0.436900
vt 0.241890 0.442106
vt 0.239361 0.447207
vt 0.237192 0.452206
vt 0.235382 0.457106
vt 0.233930 0.461907
vt 0.231694 0.480182
vt 0.232025 0.484529
vt 0.232711 0.488792
vt 0.233751 0.492972
vt 0.235144 0.497073
vt 0.236891 0.501096
vt 0.238990 0.505044
vt 0.241383 0.508768
vt 0.244011 0.512115
vt 0.246867 0.515074
vt 0.256764 0.521533
vt 0.260489 0.522849
vt 0.264420 0.523732
vt 0.268551 0.524171
vt 0.272878 0.524158
vt 0.277396 0.523683
vt 0.282099 0.522737
vt 0.286985 0.521311
vt 0.292047 0.519395
vt 0.297280 0.516981
vt 0.307850 0.510887
vt 0.333522 0.549934
vt 0.325055 0.557559
vt 0.316186 0.565004
vt 0.341438 0.542219
vt 0.312423 0.507747
vt 0.348653 0.534503
vt 0.316446 0.504655
vt 0.355017 0.526875
vt 0.357833 0.523122
vt 0.360380 0.519425
vt 0.362640 0.515795
vt 0.364594 0.512243
vt 0.366222 0.508779
vt 0.367507 0.505416
vt 0.368430 0.502165
vt 0.368971 0.499036
vt 0.366953 0.487970
vt 0.369113 0.496041
vt 0.368836 0.493191
vt 0.368122 0.490497
vt 0.319966 0.501629
vt 0.361736 0.479892
vt 0.364247 0.483522
vt 0.359407 0.477011
vt 0.323029 0.498689
vt 0.325681 0.495852
vt 0.357248 0.474812
vt 0.327968 0.493136
vt 0.329938 0.490559
vt 0.331636 0.488141
vt 0.355246 0.473229
vt 0.333110 0.485898
vt 0.353386 0.472193
vt 0.334404 0.483850
vt 0.335566 0.482014
vt 0.351657 0.471638
vt 0.336642 0.480409
vt 0.337678 0.479052
vt 0.350046 0.471497
vt 0.338721 0.477963
vt 0.348539 0.471701
vt 0.339818 0.477159
vt 0.342113 0.475553
vt 0.344513 0.473715
vt 0.347123 0.472183
vt 0.307064 0.572181
vt 0.297841 0.578999
vt 0.288664 0.585370
vt 0.279684 0.591204
vt 0.271051 0.596411
vt 0.262871 0.600917
vt 0.254718 0.604917
vt 0.246568 0.608444
vt 0.238400 0.611530
vt 0.230191 0.614206
vt 0.221917 0.616503
vt 0.213557 0.618454
vt 0.205088 0.620089
vt 0.196487 0.621441
vt 0.187733 0.622541
vt 0.178801 0.623420
vt 0.169670 0.624111
vt 0.160317 0.624645
vt 0.150719 0.625053
vt 0.698375 0.592884
vt 0.694923 0.599715
vt 0.672852 0.617990
vt 0.692848 0.602932
vt 0.690465 0.605953
vt 0.687743 0.608775
vt 0.677237 0.616004
vt 0.681160 0.613804
vt 0.684651 0.611393
vt 0.667975 0.619758
vt 0.699715 0.589326
vt 0.700728 0.585680
vt 0.701363 0.581951
vt 0.662575 0.621304
vt 0.586396 0.515439
vt 0.656620 0.622625
vt 0.650080 0.623718
vt 0.642924 0.624577
vt 0.635121 0.625201
vt 0.626642 0.625585
vt 0.617454 0.625725
vt 0.435545 0.514058
vt 0.440946 0.516980
vt 0.446180 0.519395
vt 0.607526 0.625619
vt 0.597372 0.625367
vt 0.587507 0.625053
vt 0.577909 0.624645
vt 0.568556 0.624111
vt 0.559425 0.623420
vt 0.550494 0.622541
vt 0.541739 0.621441
vt 0.533138 0.620089
vt 0.524669 0.618454
vt 0.516309 0.616503
vt 0.508036 0.614206
vt 0.499826 0.611530
vt 0.491658 0.608444
vt 0.483508 0.604917
vt 0.475355 0.600916
vt 0.467175 0.596411
vt 0.458542 0.591204
vt 0.449562 0.585370
vt 0.440386 0.578999
vt 0.431162 0.572181
vt 0.422041 0.565004
vt 0.413171 0.557559
vt 0.404704 0.549934
vt 0.430376 0.510887
vt 0.396788 0.542219
vt 0.425803 0.507747
vt 0.389574 0.534503
vt 0.421780 0.504655
vt 0.383209 0.526875
vt 0.418260 0.501629
vt 0.380393 0.523122
vt 0.415198 0.498689
vt 0.377846 0.519425
vt 0.412546 0.495852
vt 0.375586 0.515795
vt 0.373633 0.512243
vt 0.410258 0.493136
vt 0.372004 0.508779
vt 0.370719 0.505416
vt 0.408288 0.490559
vt 0.369796 0.502165
vt 0.369255 0.499036
vt 0.369113 0.496041
vt 0.369390 0.493191
vt 0.370104 0.490497
vt 0.371274 0.487970
vt 0.406590 0.488141
vt 0.373980 0.483522
vt 0.405117 0.485898
vt 0.376490 0.479891
vt 0.403822 0.483850
vt 0.402660 0.482014
vt 0.378819 0.477011
vt 0.401584 0.480409
vt 0.398408 0.477159
vt 0.400548 0.479052
vt 0.399505 0.477963
vt 0.396114 0.475553
vt 0.380978 0.474812
vt 0.382981 0.473229
vt 0.393713 0.473715
vt 0.384840 0.472193
vt 0.386569 0.471638
vt 0.388180 0.471497
vt 0.391104 0.472183
vt 0.389688 0.471701
vt 0.451241 0.521311
vt 0.456127 0.522737
vt 0.460831 0.523683
vt 0.465348 0.524158
vt 0.469675 0.524171
vt 0.473806 0.523732
vt 0.477737 0.522849
vt 0.481462 0.521533
vt 0.484978 0.519792
vt 0.488278 0.517636
vt 0.491359 0.515074
vt 0.494216 0.512115
vt 0.496843 0.508768
vt 0.499236 0.505044
vt 0.501335 0.501096
vt 0.503082 0.497073
vt 0.504475 0.492972
vt 0.505516 0.488792
vt 0.506201 0.484529
vt 0.506532 0.480182
vt 0.506508 0.475749
vt 0.506128 0.471227
vt 0.505391 0.466614
vt 0.618345 0.455696
vt 0.504297 0.461907
vt 0.502845 0.457106
vt 0.501034 0.452206
vt 0.498865 0.447207
vt 0.496336 0.442106
vt 0.493447 0.436900
vt 0.490198 0.431588
vt 0.486645 0.426050
vt 0.642946 0.404039
vt 0.482893 0.420130
vt 0.479004 0.413770
vt 0.475042 0.406912
vt 0.471073 0.399497
vt 0.467159 0.391468
vt 0.463366 0.382766
vt 0.647333 0.390173
vt 0.459756 0.373332
vt 0.456395 0.363110
vt 0.650998 0.376099
vt 0.453346 0.352040
vt 0.451959 0.346169
vt 0.450674 0.340064
vt 0.653933 0.361855
vt 0.449499 0.333719
vt 0.448443 0.327125
vt 0.447512 0.320276
vt 0.446716 0.313164
vt 0.446062 0.305781
vt 0.445558 0.298122
vt 0.445212 0.290178
vt 0.445033 0.281942
vt 0.445028 0.273407
vt 0.445205 0.264566
vt 0.445438 0.255704
vt 0.445592 0.247110
vt 0.445671 0.238780
vt 0.656128 0.347478
vt 0.445673 0.230710
vt 0.445602 0.222896
vt 0.655771 0.331660
vt 0.445456 0.215333
vt 0.445239 0.208017
vt 0.654790 0.315868
vt 0.444950 0.200944
vt 0.444590 0.194110
vt 0.653185 0.300127
vt 0.444161 0.187512
vt 0.443098 0.175003
vt 0.650959 0.284461
vt 0.441769 0.163384
vt 0.738226 0.225125
vt 0.440181 0.152622
vt 0.438343 0.142685
vt 0.436263 0.133538
vt 0.433949 0.125150
vt 0.431407 0.117487
vt 0.428647 0.110516
vt 0.615732 0.179382
vt 0.651215 0.149385
vt 0.425677 0.104204
vt 0.422503 0.098517
vt 0.419135 0.093424
vt 0.415435 0.088468
vt 0.411333 0.083249
vt 0.406934 0.077818
vt 0.402343 0.072226
vt 0.393009 0.060762
vt 0.384174 0.049262
vt 0.380208 0.043626
vt 0.408366 0.008709
vt 0.536827 0.082647
vt 0.573029 0.113735
vt 0.566962 0.107321
vt 0.560822 0.101284
vt 0.554676 0.095711
vt 0.548585 0.090689
vt 0.542614 0.086305
vt 0.376684 0.038133
vt 0.373707 0.032834
vt 0.402961 0.005660
vt 0.371382 0.027781
vt 0.397739 0.003021
vt 0.372664 0.007991
vt 0.374668 0.005495
vt 0.369816 0.023023
vt 0.369350 0.020771
vt 0.369113 0.018612
vt 0.369119 0.016552
vt 0.369379 0.014598
vt 0.369909 0.012756
vt 0.370721 0.011032
vt 0.392709 0.001063
vt 0.376729 0.003511
vt 0.390267 0.000425
vt 0.387877 0.000059
vt 0.385539 -0.000000
vt 0.378849 0.002003
vt 0.381024 0.000938
vt 0.383255 0.000281
vt 0.578962 0.120438
vt 0.584695 0.127343
vt 0.590166 0.134363
vt 0.595309 0.141410
vt 0.600062 0.148397
vt 0.604360 0.155238
vt 0.608140 0.161844
vt 0.611338 0.168128
vt 0.613890 0.174003
vt 0.733804 0.196921
vt 0.648891 0.407132
vt 0.682521 0.426869
vt 0.646686 0.469314
vt 0.654424 0.410037
vt 0.659545 0.412751
vt 0.664253 0.415277
vt 0.668549 0.417613
vt 0.672433 0.419761
vt 0.675905 0.421719
vt 0.678964 0.423488
vt 0.685519 0.430754
vt 0.687888 0.435051
vt 0.689573 0.439660
vt 0.690534 0.444473
vt 0.690749 0.449375
vt 0.681764 0.466799
vt 0.690211 0.454253
vt 0.685678 0.463197
vt 0.688935 0.458991
vt 0.677302 0.469695
vt 0.672418 0.471804
vt 0.667251 0.473067
vt 0.661945 0.473447
vt 0.656650 0.472935
vt 0.651516 0.471544
vt 0.598660 0.515936
vt 0.610855 0.517320
vt 0.622919 0.519580
vt 0.634788 0.522708
vt 0.646400 0.526685
vt 0.657694 0.531491
vt 0.668611 0.537100
vt 0.675547 0.541366
vt 0.681536 0.545611
vt 0.686630 0.549829
vt 0.690881 0.554016
vt 0.701569 0.578146
vt 0.694340 0.558164
vt 0.701293 0.574270
vt 0.700484 0.570328
vt 0.697059 0.562269
vt 0.699089 0.566326
s 1
f 1/1/1 2/2/1 3/3/1
f 3/3/1 2/2/1 4/4/1
f 4/4/2 2/2/2 5/5/2
f 4/4/2 5/5/2 6/6/2
f 6/6/3 5/5/4 7/7/4
f 6/6/3 7/7/4 8/8/3
f 8/8/5 7/7/5 9/9/5
f 8/8/5 9/9/5 10/10/5
f 10/10/6 9/9/6 11/11/6
f 10/10/6 11/11/6 12/12/6
f 12/12/7 11/11/7 13/13/7
f 12/12/7 13/13/7 14/14/7
f 14/14/8 13/13/8 15/15/8
f 14/14/8 15/15/8 16/16/8
f 16/16/9 15/15/9 17/17/9
f 16/16/9 17/17/9 18/18/9
f 18/18/10 17/17/10 19/19/10
f 18/18/10 19/19/10 20/20/10
f 20/20/11 19/19/11 21/21/11
f 20/20/11 21/21/11 22/22/11
f 22/22/12 21/21/12 23/23/12
f 22/22/12 23/23/12 24/24/12
f 24/24/13 23/23/13 25/25/13
f 24/24/13 25/25/13 26/26/13
f 26/26/14 25/25/14 27/27/14
f 26/26/14 27/27/14 28/28/14
f 28/28/15 27/27/15 29/29/15
f 28/28/15 29/29/15 30/30/16
f 30/30/16 29/29/15 31/31/16
f 30/30/16 31/31/16 32/32/17
f 32/32/17 31/31/16 33/33/17
f 32/32/17 33/33/17 34/34/18
f 35/35/19 36/36/19 37/37/19
f 37/37/19 36/36/19 38/38/19
f 38/38/20 36/36/20 39/39/20
f 38/38/20 39/39/20 40/40/20
f 40/40/21 39/39/21 41/41/21
f 40/40/21 41/41/21 42/42/21
f 42/42/22 41/41/22 43/43/22
f 42/42/22 43/43/22 44/44/22
f 44/45/23 43/46/23 45/47/23
f 44/45/23 45/47/23 46/48/23
f 46/48/24 45/47/24 47/49/24
f 46/48/24 47/49/24 48/50/24
f 48/50/25 47/49/25 49/51/25
f 48/50/25 49/51/25 50/52/25
f 50/52/26 49/51/26 51/53/26
f 50/52/26 51/53/26 52/54/26
f 52/54/27 51/53/27 53/55/27
f 52/54/27 53/55/27 54/56/27
f 54/56/28 53/55/28 55/57/28
f 54/56/28 55/57/28 56/58/28
f 56/58/29 55/57/29 57/59/29
f 56/58/29 57/59/29 58/60/29
f 58/60/30 57/59/30 59/61/30
f 58/60/30 59/61/30 60/62/30
f 60/62/31 59/61/31 61/63/31
f 60/62/31 61/63/31 62/64/31
f 62/64/32 61/63/32 63/65/32
f 62/64/32 63/65/32 64/66/32
f 64/66/33 63/65/33 65/67/33
f 64/66/33 65/67/33 66/68/33
f 66/68/34 65/67/34 67/69/34
f 66/68/34 67/69/34 68/70/34
f 68/70/35 67/69/35 69/71/35
f 68/70/35 69/71/35 70/72/35
f 70/72/36 69/71/36 71/73/36
f 70/72/36 71/73/36 72/74/36
f 72/74/37 71/73/37 73/75/37
f 72/74/37 73/75/37 74/76/37
f 74/76/38 73/75/38 75/77/38
f 74/76/38 75/77/38 76/78/38
f 76/78/39 75/77/39 77/79/39
f 76/78/39 77/79/39 78/80/39
f 78/80/40 77/79/40 1/1/40
f 78/80/40 1/1/40 3/3/40
f 79/81/41 80/82/41 81/83/41
f 81/83/41 80/82/41 82/84/41
f 82/84/42 80/82/42 83/85/42
f 82/84/42 83/85/42 84/86/42
f 84/86/43 83/85/43 85/87/43
f 84/86/43 85/87/43 86/88/43
f 86/88/44 85/87/44 87/89/44
f 86/88/44 87/89/44 88/90/44
f 88/90/45 87/89/45 89/91/45
f 88/90/45 89/91/45 90/92/45
f 90/92/46 89/91/46 91/93/46
f 90/92/46 91/93/46 92/94/46
f 92/95/47 91/96/47 93/97/47
f 92/95/47 93/97/47 94/98/47
f 94/98/48 93/97/48 95/99/48
f 94/98/48 95/99/48 96/100/48
f 96/100/49 95/99/49 97/101/49
f 96/100/49 97/101/49 98/102/49
f 98/102/50 97/101/50 99/103/50
f 98/102/50 99/103/50 100/104/50
f 100/104/51 99/103/51 101/105/51
f 100/104/51 101/105/51 102/106/51
f 102/106/52 101/105/52 103/107/52
f 102/106/52 103/107/52 104/108/52
f 104/108/53 103/107/53 35/35/53
f 104/108/53 35/35/53 37/37/53
f 105/109/54 106/110/54 107/111/54
f 107/111/54 106/110/54 108/112/54
f 108/112/55 106/110/55 109/113/55
f 108/112/55 109/113/55 110/114/55
f 110/114/56 109/113/56 111/115/56
f 110/114/56 111/115/56 112/116/56
f 112/116/57 111/115/57 113/117/57
f 112/116/57 113/117/57 114/118/57
f 114/118/58 113/117/58 115/119/58
f 114/118/58 115/119/58 116/120/58
f 116/120/59 115/119/59 117/121/59
f 116/120/59 117/121/59 118/122/59
f 118/122/60 117/121/60 119/123/60
f 118/122/60 119/123/60 120/124/60
f 120/124/61 119/123/61 121/125/61
f 120/124/61 121/125/61 122/126/61
f 122/126/62 121/125/62 123/127/62
f 122/126/62 123/127/62 124/128/62
f 124/128/63 123/127/63 125/129/63
f 124/128/63 125/129/63 126/130/63
f 126/130/64 125/129/64 127/131/65
f 126/130/64 127/131/65 128/132/65
f 128/132/65 127/131/65 129/133/66
f 128/132/65 129/133/66 130/134/67
f 130/134/68 129/133/68 131/135/68
f 130/134/68 131/135/68 132/136/68
f 132/136/69 131/135/69 133/137/69
f 132/136/69 133/137/69 134/138/69
f 134/138/70 133/137/70 135/139/70
f 134/138/70 135/139/70 136/140/70
f 136/140/71 135/139/71 79/81/71
f 136/140/71 79/81/71 81/83/71
f 137/141/72 138/142/72 139/143/72
f 139/143/72 138/142/72 140/144/72
f 140/144/73 138/142/73 141/145/73
f 140/144/73 141/145/73 142/146/73
f 142/146/74 141/145/74 143/147/74
f 142/146/74 143/147/74 144/148/74
f 144/148/75 143/147/75 145/149/75
f 144/148/75 145/149/75 146/150/75
f 146/150/76 145/149/77 147/151/77
f 146/150/76 147/151/77 148/152/76
f 148/152/78 147/151/78 149/153/78
f 148/152/78 149/153/78 150/154/78
f 150/154/79 149/153/79 151/155/79
f 150/154/79 151/155/79 152/156/79
f 152/156/80 151/155/80 153/157/80
f 152/156/80 153/157/80 154/158/80
f 154/159/81 153/160/81 155/161/81
f 154/159/81 155/161/81 156/162/81
f 156/162/82 155/161/82 157/163/82
f 156/162/82 157/163/82 158/164/82
f 158/164/83 157/163/83 159/165/83
f 158/164/83 159/165/83 160/166/83
f 160/166/84 159/165/84 161/167/84
f 160/166/84 161/167/84 162/168/84
f 162/168/85 161/167/85 163/169/85
f 162/168/85 163/169/85 164/170/85
f 164/170/86 163/169/86 165/171/86
f 164/170/86 165/171/86 166/172/86
f 166/172/87 165/171/87 167/173/87
f 166/172/87 167/173/87 168/174/87
f 168/174/88 167/173/88 105/109/88
f 168/174/88 105/109/88 107/111/88
f 169/175/89 170/176/89 171/177/89
f 171/177/89 170/176/89 172/178/89
f 172/178/90 170/176/90 173/179/90
f 172/178/90 173/179/90 174/180/90
f 174/180/91 173/179/91 175/181/91
f 174/180/91 175/181/91 176/182/91
f 176/182/92 175/181/92 177/183/92
f 176/182/92 177/183/92 178/184/92
f 178/184/93 177/183/93 179/185/93
f 178/184/93 179/185/93 180/186/93
f 180/186/94 179/185/94 181/187/94
f 180/186/94 181/187/94 182/188/94
f 182/188/95 181/187/95 183/189/95
f 182/188/95 183/189/95 184/190/95
f 184/190/96 183/189/96 185/191/96
f 184/190/96 185/191/96 186/192/96
f 186/193/97 185/194/97 187/195/97
f 186/193/97 187/195/97 188/196/97
f 188/196/98 187/195/98 189/197/98
f 188/196/98 189/197/98 190/198/98
f 190/198/99 189/197/99 191/199/99
f 190/198/99 191/199/99 192/200/99
f 192/200/100 191/199/100 193/201/100
f 192/200/100 193/201/100 194/202/100
f 194/202/101 193/201/101 195/203/101
f 194/202/101 195/203/101 196/204/101
f 196/204/102 195/203/102 197/205/102
f 196/204/102 197/205/102 198/206/102
f 198/206/103 197/205/103 199/207/103
f 198/206/103 199/207/103 200/208/103
f 200/208/104 199/207/104 137/141/104
f 200/208/104 137/141/104 139/143/104
f 201/209/105 202/210/106 203/211/106
f 203/211/106 202/210/106 204/212/106
f 204/212/107 202/210/107 205/213/107
f 204/212/107 205/213/107 206/214/107
f 206/214/108 205/213/108 207/215/108
f 206/214/108 207/215/108 208/216/108
f 208/216/109 207/215/109 209/217/109
f 208/216/109 209/217/109 210/218/109
f 210/218/110 209/217/110 211/219/110
f 210/218/110 211/219/110 212/220/110
f 212/220/111 211/219/111 213/221/111
f 212/220/111 213/221/111 214/222/111
f 214/222/112 213/221/112 215/223/112
f 214/222/112 215/223/112 216/224/112
f 216/225/113 215/226/113 217/227/113
f 216/225/113 217/227/113 218/228/113
f 218/228/114 217/227/114 219/229/114
f 218/228/114 219/229/114 220/230/114
f 220/230/115 219/229/115 221/231/115
f 220/230/115 221/231/115 222/232/115
f 222/232/116 221/231/116 223/233/116
f 222/232/116 223/233/116 224/234/116
f 224/234/117 223/233/117 225/235/117
f 224/234/117 225/235/117 226/236/117
f 226/236/118 225/235/118 227/237/118
f 226/236/118 227/237/118 228/238/118
f 228/238/119 227/237/119 229/239/119
f 228/238/119 229/239/119 230/240/119
f 230/240/120 229/239/120 231/241/120
f 230/240/120 231/241/120 232/242/120
f 232/242/121 231/241/121 233/243/121
f 232/242/121 233/243/121 234/244/121
f 234/244/122 233/243/122 235/245/122
f 234/244/122 235/245/122 236/246/122
f 236/246/123 235/245/123 237/247/123
f 236/246/123 237/247/123 238/248/123
f 238/248/124 237/247/124 239/249/124
f 238/248/124 239/249/124 240/250/124
f 240/250/125 239/249/125 241/251/125
f 240/250/125 241/251/125 242/252/125
f 242/252/126 241/251/126 243/253/126
f 242/252/126 243/253/126 244/254/127
f 244/254/127 243/253/126 169/175/127
f 244/254/127 169/175/127 171/177/127
f 245/255/128 246/256/128 247/257/128
f 247/257/128 246/256/128 248/258/128
f 248/258/129 246/256/129 249/259/129
f 248/258/129 249/259/129 250/260/129
f 250/260/130 249/259/130 251/261/130
f 250/260/130 251/261/130 252/262/130
f 252/262/131 251/261/131 253/263/131
f 252/262/131 253/263/131 254/264/131
f 254/264/132 253/263/132 255/265/132
f 254/264/132 255/265/132 256/266/132
f 256/266/133 255/265/133 257/267/133
f 256/266/133 257/267/133 258/268/133
f 258/268/134 257/267/134 259/269/134
f 258/268/134 259/269/134 260/270/134
f 260/270/135 259/269/135 261/271/135
f 260/270/135 261/271/135 262/272/135
f 262/272/136 261/271/136 263/273/136
f 262/272/136 263/273/136 264/274/136
f 264/275/137 263/276/137 265/277/137
f 264/275/137 265/277/137 266/278/137
f 266/278/138 265/277/138 267/279/138
f 266/278/138 267/279/138 268/280/138
f 268/280/139 267/279/139 269/281/139
f 268/280/139 269/281/139 270/282/140
f 270/282/140 269/281/139 271/283/140
f 270/282/140 271/283/140 272/284/141
f 272/284/141 271/283/140 273/285/141
f 272/284/141 273/285/141 274/286/142
f 274/286/142 273/285/141 275/287/142
f 274/286/142 275/287/142 276/288/143
f 276/288/143 275/287/142 277/289/143
f 276/288/143 277/289/143 278/290/144
f 278/290/144 277/289/143 279/291/144
f 278/290/144 279/291/144 280/292/145
f 280/292/145 279/291/144 281/293/145
f 280/292/145 281/293/145 282/294/146
f 282/294/146 281/293/145 283/295/146
f 282/294/146 283/295/146 284/296/147
f 284/296/147 283/295/146 285/297/147
f 284/296/147 285/297/147 286/298/105
f 286/298/105 285/297/147 201/209/105
f 286/298/105 201/209/105 203/211/106
f 287/299/148 288/300/148 289/301/148
f 289/301/148 288/300/148 290/302/148
f 289/301/149 290/302/149 291/303/149
f 289/301/149 291/303/149 292/304/149
f 292/304/150 291/303/150 293/305/150
f 292/304/150 293/305/150 294/306/150
f 294/306/151 293/305/151 295/307/151
f 294/306/151 295/307/151 296/308/151
f 296/308/152 295/307/152 297/309/152
f 296/308/152 297/309/152 298/310/152
f 298/311/153 297/312/153 299/313/153
f 298/311/153 299/313/153 300/314/153
f 300/314/154 299/313/154 301/315/154
f 300/314/154 301/315/154 302/316/154
f 302/316/155 301/315/155 303/317/155
f 302/316/155 303/317/155 304/318/155
f 304/318/156 303/317/156 305/319/156
f 304/318/156 305/319/156 306/320/156
f 306/320/157 305/319/157 307/321/157
f 306/320/157 307/321/157 308/322/157
f 308/322/158 307/321/158 309/323/158
f 308/322/158 309/323/158 310/324/158
f 310/324/159 309/323/159 311/325/159
f 310/324/159 311/325/159 312/326/159
f 312/326/160 311/325/160 313/327/160
f 312/326/160 313/327/160 314/328/161
f 314/328/161 313/327/160 315/329/162
f 314/328/161 315/329/162 316/330/163
f 316/330/163 315/329/162 317/331/164
f 316/330/163 317/331/164 318/332/164
f 318/332/165 317/331/165 319/333/165
f 318/332/165 319/333/165 320/334/165
f 320/334/166 319/333/166 245/255/166
f 320/334/166 245/255/166 247/257/166
f 247/257/166 321/335/166 320/334/166
f 320/334/165 321/335/165 322/336/165
f 320/334/165 322/336/165 318/332/165
f 318/332/164 322/336/164 323/337/164
f 318/332/164 323/337/164 316/330/163
f 316/330/163 323/337/164 324/338/162
f 316/330/163 324/338/162 314/328/161
f 314/328/161 324/338/162 325/339/160
f 314/328/161 325/339/160 312/326/160
f 312/326/159 325/339/159 326/340/159
f 312/326/159 326/340/159 310/324/159
f 310/324/158 326/340/158 327/341/158
f 310/324/158 327/341/158 308/322/158
f 308/322/157 327/341/157 328/342/157
f 308/322/157 328/342/157 306/320/157
f 306/320/156 328/342/156 329/343/156
f 306/320/156 329/343/156 304/318/156
f 304/318/155 329/343/155 330/344/155
f 304/318/155 330/344/155 302/316/155
f 302/316/154 330/344/154 331/345/154
f 302/316/154 331/345/154 300/314/154
f 300/314/153 331/345/153 332/346/153
f 300/314/153 332/346/153 298/311/153
f 298/310/152 332/347/152 333/348/152
f 298/310/152 333/348/152 296/308/152
f 296/308/151 333/348/151 334/349/151
f 296/308/151 334/349/151 294/306/151
f 294/306/150 334/349/150 335/350/150
f 294/306/150 335/350/150 292/304/150
f 292/304/149 335/350/149 336/351/149
f 292/304/149 336/351/149 289/301/149
f 289/301/148 336/351/148 287/299/148
f 337/352/167 338/353/168 339/354/167
f 339/354/167 338/353/168 340/355/167
f 339/354/169 340/355/169 341/356/169
f 339/354/169 341/356/169 342/357/169
f 342/357/170 341/356/170 343/358/170
f 342/357/170 343/358/170 344/359/170
f 344/359/171 343/358/171 345/360/171
f 344/359/171 345/360/171 346/361/171
f 346/361/172 345/360/172 347/362/172
f 346/361/172 347/362/172 348/363/172
f 348/363/173 347/362/173 349/364/173
f 348/363/173 349/364/173 350/365/173
f 350/365/174 349/364/174 351/366/174
f 350/365/174 351/366/174 352/367/174
f 352/368/175 351/369/175 353/370/175
f 352/368/175 353/370/175 354/371/175
f 354/371/176 353/370/176 355/372/176
f 354/371/176 355/372/176 356/373/176
f 356/373/177 355/372/177 357/374/177
f 356/373/177 357/374/177 358/375/177
f 358/375/178 357/374/178 359/376/178
f 358/375/178 359/376/178 360/377/178
f 360/377/179 359/376/179 361/378/179
f 360/377/179 361/378/179 362/379/179
f 362/379/180 361/378/180 288/300/180
f 362/379/180 288/300/180 287/299/180
f 287/299/180 363/380/180 362/379/180
f 362/379/179 363/380/179 364/381/179
f 362/379/179 364/381/179 360/377/179
f 360/377/178 364/381/178 365/382/178
f 360/377/178 365/382/178 358/375/178
f 358/375/177 365/382/177 366/383/177
f 358/375/177 366/383/177 356/373/177
f 356/373/176 366/383/176 367/384/176
f 356/373/176 367/384/176 354/371/176
f 354/371/175 367/384/175 368/385/175
f 354/371/175 368/385/175 352/368/175
f 352/367/174 368/386/174 369/387/174
f 352/367/174 369/387/174 350/365/174
f 350/365/173 369/387/173 370/388/173
f 350/365/173 370/388/173 348/363/173
f 348/363/172 370/388/172 371/389/172
f 348/363/172 371/389/172 346/361/172
f 346/361/171 371/389/181 372/390/181
f 346/361/171 372/390/181 344/359/171
f 344/359/170 372/390/170 373/391/170
f 344/359/170 373/391/170 342/357/170
f 342/357/169 373/391/169 374/392/169
f 342/357/169 374/392/169 339/354/169
f 339/354/167 374/392/167 337/352/167
f 375/393/182 338/353/168 376/394/182
f 376/394/182 338/353/168 337/352/167
f 377/395/183 378/396/183 379/397/183
f 379/397/183 378/396/183 380/398/183
f 380/398/184 378/396/184 381/399/184
f 380/398/184 381/399/184 382/400/184
f 382/400/185 381/399/185 383/401/185
f 382/400/185 383/401/185 384/402/185
f 384/402/186 383/401/186 385/403/186
f 384/402/186 385/403/186 386/404/186
f 386/404/187 385/403/187 387/405/187
f 386/404/187 387/405/187 388/406/187
f 388/406/188 387/405/188 389/407/188
f 388/406/188 389/407/188 390/408/188
f 390/408/189 389/407/189 391/409/189
f 390/408/189 391/409/189 392/410/189
f 392/410/190 391/409/190 393/411/190
f 392/410/190 393/411/190 394/412/190
f 394/412/191 393/411/191 395/413/191
f 394/412/191 395/413/191 396/414/191
f 396/414/192 395/413/192 397/415/192
f 396/414/192 397/415/192 398/416/192
f 398/416/193 397/415/193 399/417/193
f 398/416/193 399/417/193 400/418/193
f 400/418/194 399/417/194 401/419/194
f 400/418/194 401/419/194 402/420/194
f 402/420/195 401/419/195 403/421/195
f 402/420/195 403/421/195 404/422/195
f 404/422/196 403/421/196 405/423/196
f 404/422/196 405/423/196 406/424/196
f 406/424/197 405/423/197 407/425/197
f 406/424/197 407/425/197 408/426/197
f 408/426/198 407/425/198 375/393/198
f 408/426/198 375/393/198 376/394/198
f 409/427/199 377/428/199 410/429/199
f 410/429/199 377/428/199 379/430/199
f 411/431/182 409/432/182 412/433/182
f 412/433/182 409/432/182 410/434/182
f 413/435/200 411/46/200 414/436/200
f 414/436/200 411/46/200 412/437/200
f 415/438/201 413/435/201 416/439/201
f 416/439/201 413/435/201 414/436/201
f 417/440/202 418/441/202 419/442/202
f 419/442/202 418/441/202 420/443/202
f 420/443/203 418/441/203 421/444/203
f 421/444/203 418/441/203 422/445/203
f 421/444/204 422/445/204 423/446/204
f 421/444/204 423/446/204 424/447/204
f 424/447/205 423/446/205 415/438/205
f 424/447/205 415/438/205 416/439/205
f 425/448/206 426/449/206 427/450/206
f 427/450/206 426/449/206 428/451/206
f 428/451/207 426/449/207 429/452/207
f 428/451/207 429/452/207 430/453/207
f 430/453/208 429/452/208 431/454/208
f 430/453/208 431/454/208 432/455/208
f 432/455/209 431/454/209 417/440/209
f 432/455/209 417/440/209 419/442/209
f 433/456/210 434/457/210 435/458/210
f 435/458/210 434/457/210 436/459/167
f 436/459/167 434/457/210 437/460/167
f 436/459/167 437/460/167 438/461/211
f 438/461/211 437/460/167 439/462/211
f 438/461/211 439/462/211 440/463/212
f 440/463/212 439/462/211 441/464/212
f 440/463/212 441/464/212 442/465/213
f 442/465/213 441/464/212 443/466/213
f 442/465/213 443/466/213 444/467/214
f 444/467/214 443/466/213 445/468/214
f 444/467/214 445/468/214 446/469/215
f 446/469/215 445/468/214 447/470/215
f 446/469/215 447/470/215 448/471/216
f 448/471/216 447/470/215 425/472/217
f 448/471/216 425/472/217 427/473/217
f 449/474/218 450/475/218 451/476/218
f 451/476/219 450/475/219 452/477/219
f 451/476/220 452/477/221 453/478/220
f 453/478/222 452/477/222 454/479/222
f 453/478/223 454/479/224 455/480/223
f 455/480/225 454/479/225 456/481/225
f 455/480/226 456/481/227 457/482/226
f 457/483/228 456/484/228 458/485/228
f 457/483/229 458/485/230 459/486/229
f 459/486/231 458/485/231 460/487/231
f 459/486/232 460/487/233 461/488/232
f 461/488/234 460/487/234 462/489/234
f 461/488/235 462/489/236 463/490/235
f 463/490/237 462/489/237 464/491/237
f 463/490/238 464/491/238 435/458/238
f 435/458/239 464/491/239 433/456/239
f 435/458/240 465/492/240 463/490/240
f 463/490/241 465/492/241 466/493/241
f 463/490/235 466/493/242 461/488/235
f 461/488/243 466/493/243 467/494/243
f 461/488/232 467/494/244 459/486/232
f 459/486/245 467/494/245 468/495/245
f 459/486/229 468/495/246 457/483/229
f 457/483/247 468/495/247 469/496/247
f 457/482/226 469/497/248 455/480/226
f 455/480/249 469/497/249 470/498/249
f 455/480/223 470/498/250 453/478/223
f 453/478/251 470/498/251 471/499/251
f 453/478/220 471/499/252 451/476/220
f 451/476/253 471/499/253 449/474/253
f 472/500/254 473/501/255 474/502/256
f 474/502/257 473/501/257 475/503/257
f 474/502/258 475/503/259 476/504/258
f 476/504/260 475/503/260 477/505/260
f 476/504/261 477/505/262 478/506/261
f 478/506/263 477/505/263 479/507/263
f 478/506/264 479/507/265 480/508/264
f 480/508/266 479/507/266 481/509/266
f 480/510/267 481/511/268 482/512/267
f 482/512/269 481/511/269 483/513/269
f 482/512/270 483/513/271 484/514/270
f 484/514/272 483/513/272 485/515/272
f 484/514/273 485/515/274 486/516/273
f 486/516/275 485/515/275 487/517/275
f 486/516/276 487/517/277 488/518/278
f 488/518/278 487/517/277 489/519/279
f 488/518/280 489/519/281 449/474/282
f 449/474/282 489/519/281 450/475/283
f 449/474/282 490/520/284 488/518/280
f 488/518/278 490/520/285 491/521/286
f 488/518/278 491/521/286 486/516/276
f 486/516/287 491/521/287 492/522/287
f 486/516/273 492/522/288 484/514/273
f 484/514/289 492/522/289 493/523/289
f 484/514/270 493/523/290 482/512/270
f 482/512/291 493/523/291 494/524/291
f 482/512/267 494/524/292 480/510/267
f 480/508/293 494/525/293 495/526/293
f 480/508/264 495/526/294 478/506/264
f 478/506/295 495/526/295 496/527/295
f 478/506/261 496/527/296 476/504/261
f 476/504/297 496/527/297 497/528/297
f 476/504/258 497/528/298 474/502/258
f 474/502/299 497/528/299 472/500/299
f 498/529/300 473/501/255 499/530/300
f 499/530/300 473/501/255 472/500/254
f 500/531/301 498/532/301 501/533/301
f 501/533/301 498/532/301 499/534/301
f 502/535/302 503/536/302 504/537/302
f 504/537/302 503/536/302 505/538/302
f 505/538/303 503/536/303 506/539/303
f 505/538/303 506/539/303 507/540/303
f 507/540/304 506/539/304 508/541/304
f 507/540/304 508/541/304 509/542/304
f 509/542/305 508/541/305 510/543/305
f 509/542/305 510/543/305 511/544/305
f 511/544/306 510/543/306 512/545/306
f 511/544/306 512/545/306 513/546/306
f 513/546/307 512/545/307 514/547/307
f 513/546/307 514/547/307 515/548/307
f 515/548/308 514/547/308 500/549/308
f 515/548/308 500/549/308 501/550/308
f 516/551/309 517/552/309 518/553/309
f 518/553/309 517/552/309 519/554/309
f 519/554/310 517/552/310 520/555/310
f 519/554/310 520/555/310 521/556/310
f 521/556/311 520/555/311 522/557/311
f 521/556/311 522/557/311 523/558/311
f 523/558/312 522/557/312 524/559/312
f 523/558/312 524/559/312 525/560/312
f 525/560/313 524/559/313 526/561/313
f 525/560/313 526/561/313 527/562/313
f 527/562/314 526/561/314 528/194/314
f 527/562/314 528/194/314 529/563/314
f 529/564/315 528/472/315 530/565/315
f 529/564/315 530/565/315 531/566/315
f 531/566/316 530/565/316 532/567/316
f 531/566/316 532/567/316 533/568/316
f 533/568/317 532/567/317 534/569/317
f 533/568/317 534/569/317 535/570/317
f 535/570/318 534/569/318 536/571/318
f 535/570/318 536/571/318 537/572/318
f 537/572/319 536/571/319 538/573/319
f 537/572/319 538/573/319 539/574/319
f 539/574/320 538/573/320 540/575/320
f 539/574/320 540/575/320 541/576/320
f 541/576/321 540/575/321 542/577/321
f 541/576/321 542/577/321 543/578/321
f 543/578/322 542/577/322 544/579/322
f 543/578/322 544/579/322 545/580/322
f 545/580/323 544/579/323 502/535/323
f 545/580/323 502/535/323 504/537/323
f 33/33/17 546/581/18 34/34/18
f 34/34/18 546/581/18 547/582/18
f 547/582/324 546/581/324 548/583/324
f 547/582/324 548/583/324 549/584/324
f 549/584/325 548/583/325 550/585/325
f 549/584/325 550/585/325 551/586/325
f 551/586/326 550/585/326 552/587/326
f 551/586/326 552/587/326 553/588/326
f 553/589/327 552/590/327 554/591/327
f 553/589/327 554/591/327 555/592/327
f 555/592/328 554/591/328 556/593/328
f 555/592/328 556/593/328 557/594/328
f 557/594/329 556/593/329 558/595/329
f 557/594/329 558/595/329 559/596/329
f 559/596/330 558/595/330 560/597/330
f 559/596/330 560/597/330 561/598/330
f 561/598/331 560/597/332 562/599/332
f 561/598/331 562/599/332 563/600/331
f 563/600/333 562/599/333 564/601/333
f 563/600/333 564/601/333 565/602/333
f 565/602/334 564/601/334 566/603/334
f 565/602/334 566/603/334 567/604/334
f 567/604/335 566/603/335 568/605/335
f 567/604/335 568/605/335 569/606/335
f 569/606/336 568/605/336 570/607/336
f 569/606/336 570/607/336 571/608/336
f 571/608/337 570/607/337 572/609/337
f 571/608/337 572/609/337 573/610/337
f 573/610/338 572/609/338 574/611/338
f 573/610/338 574/611/338 575/612/338
f 575/612/339 574/611/339 516/551/339
f 575/612/339 516/551/339 518/553/339
f 32/613/340 34/614/340 107/615/340
f 107/615/340 34/614/340 547/616/340
f 107/615/340 547/616/340 549/617/340
f 551/618/340 501/619/340 549/617/340
f 549/617/340 501/619/340 146/620/340
f 549/617/340 146/620/340 148/621/340
f 551/618/340 553/622/340 501/619/340
f 501/619/340 553/622/340 555/623/340
f 501/619/340 555/623/340 557/624/340
f 557/624/340 559/625/340 501/619/340
f 501/619/340 559/625/340 525/626/340
f 501/619/340 525/626/340 515/627/340
f 515/627/340 525/626/340 513/628/340
f 513/628/340 525/626/340 511/629/340
f 511/629/340 525/626/340 509/630/340
f 509/630/340 525/626/340 507/631/340
f 507/631/340 525/626/340 505/632/340
f 505/632/340 525/626/340 504/633/340
f 504/633/340 525/626/340 545/634/340
f 545/634/340 525/626/340 543/635/340
f 543/635/340 525/626/340 541/636/340
f 541/636/340 525/626/340 539/637/340
f 539/637/340 525/626/340 527/638/340
f 539/637/340 527/638/340 537/639/340
f 537/639/340 527/638/340 529/640/340
f 537/639/340 529/640/340 531/641/340
f 559/625/340 561/642/340 525/626/340
f 525/626/340 561/642/340 523/643/340
f 523/643/340 561/642/340 521/644/340
f 521/644/340 561/642/340 519/645/340
f 519/645/340 561/642/340 563/646/340
f 519/645/340 563/646/340 518/647/340
f 518/647/340 563/646/340 575/648/340
f 575/648/340 563/646/340 573/649/340
f 573/649/340 563/646/340 571/650/340
f 571/650/340 563/646/340 565/651/340
f 571/650/340 565/651/340 567/652/340
f 567/652/340 569/653/340 571/650/340
f 533/654/340 535/655/340 531/641/340
f 531/641/340 535/655/340 537/639/340
f 499/656/340 184/657/340 501/619/340
f 501/619/340 184/657/340 186/658/340
f 501/619/340 186/658/340 188/659/340
f 472/660/340 427/661/340 499/656/340
f 499/656/340 427/661/340 244/662/340
f 499/656/340 244/662/340 171/663/340
f 497/664/340 496/665/340 472/660/340
f 472/660/340 496/665/340 495/666/340
f 472/660/340 495/666/340 494/667/340
f 494/667/340 493/668/340 472/660/340
f 472/660/340 493/668/340 492/669/340
f 472/660/340 492/669/340 491/670/340
f 490/671/340 471/672/340 491/670/340
f 491/670/340 471/672/340 470/673/340
f 491/670/340 470/673/340 472/660/340
f 472/660/340 470/673/340 469/674/340
f 472/660/340 469/674/340 468/675/340
f 490/671/340 449/676/340 471/672/340
f 468/675/340 467/677/340 472/660/340
f 472/660/340 467/677/340 466/678/340
f 472/660/340 466/678/340 465/679/340
f 435/680/340 436/681/340 465/679/340
f 465/679/340 436/681/340 438/682/340
f 465/679/340 438/682/340 440/683/340
f 440/683/340 442/684/340 465/679/340
f 465/679/340 442/684/340 444/685/340
f 465/679/340 444/685/340 446/686/340
f 446/686/340 448/687/340 465/679/340
f 465/679/340 448/687/340 427/661/340
f 465/679/340 427/661/340 472/660/340
f 428/688/340 232/689/340 427/661/340
f 427/661/340 232/689/340 234/690/340
f 427/661/340 234/690/340 236/691/340
f 430/692/340 228/693/340 428/688/340
f 428/688/340 228/693/340 230/694/340
f 428/688/340 230/694/340 232/689/340
f 432/695/340 222/696/340 430/692/340
f 430/692/340 222/696/340 224/697/340
f 430/692/340 224/697/340 226/698/340
f 419/699/340 218/700/340 432/695/340
f 432/695/340 218/700/340 220/701/340
f 432/695/340 220/701/340 222/696/340
f 419/699/340 420/702/340 218/700/340
f 218/700/340 420/702/340 216/703/340
f 216/703/340 420/702/340 214/704/340
f 214/704/340 420/702/340 212/705/340
f 212/705/340 420/702/340 421/706/340
f 212/705/340 421/706/340 210/707/340
f 210/707/340 421/706/340 208/708/340
f 208/708/340 421/706/340 424/709/340
f 208/708/340 424/709/340 206/710/340
f 206/710/340 424/709/340 204/711/340
f 204/711/340 424/709/340 416/712/340
f 204/711/340 416/712/340 203/713/340
f 203/713/340 416/712/340 286/714/340
f 286/714/340 416/712/340 284/715/340
f 284/715/340 416/712/340 282/716/340
f 282/716/340 416/712/340 280/717/340
f 280/717/340 416/712/340 379/718/340
f 280/717/340 379/718/340 278/719/340
f 278/719/340 379/718/340 276/720/340
f 276/720/340 379/718/340 274/721/340
f 274/721/340 379/718/340 272/722/340
f 272/722/340 379/718/340 270/723/340
f 270/723/340 379/718/340 268/724/340
f 268/724/340 379/718/340 266/725/340
f 266/725/340 379/718/340 264/726/340
f 264/726/340 379/718/340 262/727/340
f 262/727/340 379/718/340 260/728/340
f 260/728/340 379/718/340 258/729/340
f 258/729/340 379/718/340 256/730/340
f 256/730/340 379/718/340 254/731/340
f 254/731/340 379/718/340 252/732/340
f 252/732/340 379/718/340 250/733/340
f 250/733/340 379/718/340 248/734/340
f 248/734/340 379/718/340 247/735/340
f 247/735/340 379/718/340 321/736/340
f 321/736/340 379/718/340 322/737/340
f 322/737/340 379/718/340 323/738/340
f 323/738/340 379/718/340 324/739/340
f 324/739/340 379/718/340 325/740/340
f 325/740/340 379/718/340 326/741/340
f 326/741/340 379/718/340 392/742/340
f 326/741/340 392/742/340 394/743/340
f 416/712/340 414/744/340 379/718/340
f 379/718/340 414/744/340 412/745/340
f 379/718/340 412/745/340 410/746/340
f 380/747/340 382/748/340 379/718/340
f 379/718/340 382/748/340 384/749/340
f 379/718/340 384/749/340 386/750/340
f 386/750/340 388/751/340 379/718/340
f 379/718/340 388/751/340 390/752/340
f 379/718/340 390/752/340 392/742/340
f 394/743/340 396/753/340 326/741/340
f 326/741/340 396/753/340 398/754/340
f 326/741/340 398/754/340 376/755/340
f 376/755/340 398/754/340 400/756/340
f 376/755/340 400/756/340 402/757/340
f 402/757/340 404/758/340 376/755/340
f 376/755/340 404/758/340 406/759/340
f 376/755/340 406/759/340 408/760/340
f 376/755/340 337/761/340 326/741/340
f 326/741/340 337/761/340 327/762/340
f 327/762/340 337/761/340 328/763/340
f 328/763/340 337/761/340 329/764/340
f 329/764/340 337/761/340 374/765/340
f 329/764/340 374/765/340 330/766/340
f 330/766/340 374/765/340 373/767/340
f 330/766/340 373/767/340 363/768/340
f 363/768/340 373/767/340 364/769/340
f 364/769/340 373/767/340 372/770/340
f 364/769/340 372/770/340 365/771/340
f 365/771/340 372/770/340 371/772/340
f 365/771/340 371/772/340 370/773/340
f 370/773/340 369/774/340 365/771/340
f 365/771/340 369/774/340 366/775/340
f 366/775/340 369/774/340 367/776/340
f 367/776/340 369/774/340 368/777/340
f 363/768/340 287/778/340 330/766/340
f 330/766/340 287/778/340 336/779/340
f 330/766/340 336/779/340 335/780/340
f 335/780/340 334/781/340 330/766/340
f 330/766/340 334/781/340 333/782/340
f 330/766/340 333/782/340 332/783/340
f 332/783/340 331/784/340 330/766/340
f 226/698/340 228/693/340 430/692/340
f 236/691/340 238/785/340 427/661/340
f 427/661/340 238/785/340 240/786/340
f 427/661/340 240/786/340 242/787/340
f 242/787/340 244/662/340 427/661/340
f 171/663/340 172/788/340 499/656/340
f 499/656/340 172/788/340 174/789/340
f 499/656/340 174/789/340 176/790/340
f 176/790/340 178/791/340 499/656/340
f 499/656/340 178/791/340 180/792/340
f 499/656/340 180/792/340 182/793/340
f 182/793/340 184/657/340 499/656/340
f 188/659/340 190/794/340 501/619/340
f 501/619/340 190/794/340 192/795/340
f 501/619/340 192/795/340 194/796/340
f 194/796/340 196/797/340 501/619/340
f 501/619/340 196/797/340 198/798/340
f 501/619/340 198/798/340 200/799/340
f 200/799/340 139/800/340 501/619/340
f 501/619/340 139/800/340 140/801/340
f 501/619/340 140/801/340 142/802/340
f 142/802/340 144/803/340 501/619/340
f 501/619/340 144/803/340 146/620/340
f 148/621/340 150/804/340 549/617/340
f 549/617/340 150/804/340 152/805/340
f 549/617/340 152/805/340 154/806/340
f 154/806/340 156/807/340 549/617/340
f 549/617/340 156/807/340 158/808/340
f 549/617/340 158/808/340 160/809/340
f 160/809/340 162/810/340 549/617/340
f 549/617/340 162/810/340 164/811/340
f 549/617/340 164/811/340 166/812/340
f 166/812/340 168/813/340 549/617/340
f 549/617/340 168/813/340 107/615/340
f 108/814/340 66/815/340 107/615/340
f 107/615/340 66/815/340 68/816/340
f 107/615/340 68/816/340 70/817/340
f 66/815/340 108/814/340 64/818/340
f 64/818/340 108/814/340 110/819/340
f 64/818/340 110/819/340 62/820/340
f 62/820/340 110/819/340 112/821/340
f 62/820/340 112/821/340 60/822/340
f 60/822/340 112/821/340 58/823/340
f 58/823/340 112/821/340 56/824/340
f 56/824/340 112/821/340 54/825/340
f 54/825/340 112/821/340 52/826/340
f 52/826/340 112/821/340 50/827/340
f 50/827/340 112/821/340 48/828/340
f 48/828/340 112/821/340 46/829/340
f 46/829/340 112/821/340 44/830/340
f 44/830/340 112/821/340 37/831/340
f 44/830/340 37/831/340 42/832/340
f 42/832/340 37/831/340 40/833/340
f 40/833/340 37/831/340 38/834/340
f 114/835/340 102/836/340 112/821/340
f 112/821/340 102/836/340 104/837/340
f 112/821/340 104/837/340 37/831/340
f 102/836/340 114/835/340 100/838/340
f 100/838/340 114/835/340 116/839/340
f 100/838/340 116/839/340 118/840/340
f 100/838/340 118/840/340 98/841/340
f 98/841/340 118/840/340 120/842/340
f 98/841/340 120/842/340 122/843/340
f 122/843/340 124/844/340 98/841/340
f 98/841/340 124/844/340 96/845/340
f 96/845/340 124/844/340 126/846/340
f 96/845/340 126/846/340 94/847/340
f 94/847/340 126/846/340 128/848/340
f 94/847/340 128/848/340 130/849/340
f 94/847/340 130/849/340 92/850/340
f 92/850/340 130/849/340 132/851/340
f 92/850/340 132/851/340 134/852/340
f 92/850/340 134/852/340 90/853/340
f 90/853/340 134/852/340 136/854/340
f 90/853/340 136/854/340 88/855/340
f 88/855/340 136/854/340 81/856/340
f 88/855/340 81/856/340 82/857/340
f 82/857/340 84/858/340 88/855/340
f 88/855/340 84/858/340 86/859/340
f 70/817/340 72/860/340 107/615/340
f 107/615/340 72/860/340 74/861/340
f 107/615/340 74/861/340 76/862/340
f 76/862/340 78/863/340 107/615/340
f 107/615/340 78/863/340 3/864/340
f 107/615/340 3/864/340 4/865/340
f 4/865/340 6/866/340 107/615/340
f 107/615/340 6/866/340 8/867/340
f 107/615/340 8/867/340 10/868/340
f 10/868/340 12/869/340 107/615/340
f 107/615/340 12/869/340 14/870/340
f 107/615/340 14/870/340 16/871/340
f 16/871/340 18/872/340 107/615/340
f 107/615/340 18/872/340 20/873/340
f 107/615/340 20/873/340 22/874/340
f 22/874/340 24/875/340 107/615/340
f 107/615/340 24/875/340 26/876/340
f 107/615/340 26/876/340 28/877/340
f 28/877/340 30/878/340 107/615/340
f 107/615/340 30/878/340 32/613/340
f 517/879/341 516/880/341 562/881/341
f 562/881/341 516/880/341 574/882/341
f 562/881/341 574/882/341 572/883/341
f 572/883/341 570/884/341 562/881/341
f 562/881/341 570/884/341 564/885/341
f 564/885/341 570/884/341 566/886/341
f 566/886/341 570/884/341 568/887/341
f 562/881/341 560/888/341 517/879/341
f 517/879/341 560/888/341 520/889/341
f 520/889/341 560/888/341 522/890/341
f 522/890/341 560/888/341 524/891/341
f 524/891/341 560/888/341 558/892/341
f 524/891/341 558/892/341 500/893/341
f 500/893/341 558/892/341 556/894/341
f 500/893/341 556/894/341 554/895/341
f 554/895/341 552/896/341 500/893/341
f 500/893/341 552/896/341 550/897/341
f 500/893/341 550/897/341 548/898/341
f 546/899/341 105/900/341 548/898/341
f 548/898/341 105/900/341 167/901/341
f 548/898/341 167/901/341 165/902/341
f 546/899/341 33/903/341 105/900/341
f 105/900/341 33/903/341 31/904/341
f 105/900/341 31/904/341 29/905/341
f 29/905/341 27/906/341 105/900/341
f 105/900/341 27/906/341 25/907/341
f 105/900/341 25/907/341 23/908/341
f 23/908/341 21/909/341 105/900/341
f 105/900/341 21/909/341 19/910/341
f 105/900/341 19/910/341 17/911/341
f 17/911/341 15/912/341 105/900/341
f 105/900/341 15/912/341 13/913/341
f 105/900/341 13/913/341 11/914/341
f 11/914/341 9/915/341 105/900/341
f 105/900/341 9/915/341 7/916/341
f 105/900/341 7/916/341 5/917/341
f 5/917/341 2/918/341 105/900/341
f 105/900/341 2/918/341 1/919/341
f 105/900/341 1/919/341 77/920/341
f 77/920/341 75/921/341 105/900/341
f 105/900/341 75/921/341 73/922/341
f 105/900/341 73/922/341 71/923/341
f 71/923/341 69/924/341 105/900/341
f 105/900/341 69/924/341 67/925/341
f 105/900/341 67/925/341 65/926/341
f 105/900/341 65/926/341 106/927/341
f 106/927/341 65/926/341 63/928/341
f 106/927/341 63/928/341 109/929/341
f 109/929/341 63/928/341 61/930/341
f 109/929/341 61/930/341 111/931/341
f 111/931/341 61/930/341 59/932/341
f 111/931/341 59/932/341 113/933/341
f 113/933/341 59/932/341 57/934/341
f 113/933/341 57/934/341 115/935/341
f 115/935/341 57/934/341 55/936/341
f 115/935/341 55/936/341 117/937/341
f 117/937/341 55/936/341 53/938/341
f 117/937/341 53/938/341 51/939/341
f 117/937/341 51/939/341 119/940/341
f 119/940/341 51/939/341 49/941/341
f 119/940/341 49/941/341 47/942/341
f 119/940/341 47/942/341 121/943/341
f 121/943/341 47/942/341 45/944/341
f 121/943/341 45/944/341 43/945/341
f 43/945/341 41/946/341 121/943/341
f 121/943/341 41/946/341 39/947/341
f 121/943/341 39/947/341 36/948/341
f 36/948/341 35/949/341 121/943/341
f 121/943/341 35/949/341 123/950/341
f 123/950/341 35/949/341 103/951/341
f 123/950/341 103/951/341 125/952/341
f 125/952/341 103/951/341 101/953/341
f 125/952/341 101/953/341 127/954/341
f 127/954/341 101/953/341 129/955/341
f 129/955/341 101/953/341 99/956/341
f 129/955/341 99/956/341 131/957/341
f 131/957/341 99/956/341 79/958/341
f 131/957/341 79/958/341 133/959/341
f 133/959/341 79/958/341 135/960/341
f 79/958/341 99/956/341 80/961/341
f 80/961/341 99/956/341 97/962/341
f 80/961/341 97/962/341 95/963/341
f 80/961/341 95/963/341 83/964/341
f 83/964/341 95/963/341 93/965/341
f 83/964/341 93/965/341 91/966/341
f 91/966/341 89/967/341 83/964/341
f 83/964/341 89/967/341 85/968/341
f 85/968/341 89/967/341 87/969/341
f 165/902/341 163/970/341 548/898/341
f 548/898/341 163/970/341 161/971/341
f 548/898/341 161/971/341 159/972/341
f 159/972/341 157/973/341 548/898/341
f 548/898/341 157/973/341 155/974/341
f 548/898/341 155/974/341 153/975/341
f 153/975/341 151/976/341 548/898/341
f 548/898/341 151/976/341 149/977/341
f 548/898/341 149/977/341 147/978/341
f 147/978/341 145/979/341 548/898/341
f 548/898/341 145/979/341 500/893/341
f 145/979/341 143/980/341 500/893/341
f 500/893/341 143/980/341 141/981/341
f 500/893/341 141/981/341 138/982/341
f 138/982/341 137/983/341 500/893/341
f 500/893/341 137/983/341 199/984/341
f 500/893/341 199/984/341 197/985/341
f 197/985/341 195/986/341 500/893/341
f 500/893/341 195/986/341 193/987/341
f 500/893/341 193/987/341 191/988/341
f 191/988/341 189/989/341 500/893/341
f 500/893/341 189/989/341 187/990/341
f 500/893/341 187/990/341 185/991/341
f 185/991/341 183/992/341 500/893/341
f 500/893/341 183/992/341 498/993/341
f 498/993/341 183/992/341 181/994/341
f 498/993/341 181/994/341 179/995/341
f 179/995/341 177/996/341 498/993/341
f 498/993/341 177/996/341 175/997/341
f 498/993/341 175/997/341 173/998/341
f 173/998/341 170/999/341 498/993/341
f 498/993/341 170/999/341 169/1000/341
f 498/993/341 169/1000/341 243/1001/341
f 498/993/341 243/1001/341 425/1002/341
f 425/1002/341 243/1001/341 241/1003/341
f 425/1002/341 241/1003/341 239/1004/341
f 239/1004/341 237/1005/341 425/1002/341
f 425/1002/341 237/1005/341 235/1006/341
f 425/1002/341 235/1006/341 233/1007/341
f 233/1007/341 231/1008/341 425/1002/341
f 425/1002/341 231/1008/341 426/1009/341
f 426/1009/341 231/1008/341 229/1010/341
f 426/1009/341 229/1010/341 227/1011/341
f 426/1009/341 227/1011/341 429/1012/341
f 429/1012/341 227/1011/341 225/1013/341
f 429/1012/341 225/1013/341 223/1014/341
f 223/1014/341 221/1015/341 429/1012/341
f 429/1012/341 221/1015/341 431/1016/341
f 431/1016/341 221/1015/341 219/1017/341
f 431/1016/341 219/1017/341 217/1018/341
f 217/1018/341 215/1019/341 431/1016/341
f 431/1016/341 215/1019/341 213/1020/341
f 431/1016/341 213/1020/341 211/1021/341
f 211/1021/341 209/1022/341 431/1016/341
f 431/1016/341 209/1022/341 207/1023/341
f 431/1016/341 207/1023/341 205/1024/341
f 205/1024/341 202/1025/341 431/1016/341
f 431/1016/341 202/1025/341 201/1026/341
f 431/1016/341 201/1026/341 285/1027/341
f 285/1027/341 283/1028/341 431/1016/341
f 431/1016/341 283/1028/341 281/1029/341
f 431/1016/341 281/1029/341 417/1030/341
f 417/1030/341 281/1029/341 279/1031/341
f 417/1030/341 279/1031/341 277/1032/341
f 417/1030/341 277/1032/341 418/1033/341
f 418/1033/341 277/1032/341 275/1034/341
f 418/1033/341 275/1034/341 273/1035/341
f 418/1033/341 273/1035/341 422/1036/341
f 422/1036/341 273/1035/341 271/1037/341
f 422/1036/341 271/1037/341 269/1038/341
f 422/1036/341 269/1038/341 423/1039/341
f 423/1039/341 269/1038/341 267/1040/341
f 423/1039/341 267/1040/341 265/1041/341
f 423/1039/341 265/1041/341 415/1042/341
f 415/1042/341 265/1041/341 263/1043/341
f 415/1042/341 263/1043/341 413/1044/341
f 413/1044/341 263/1043/341 261/1045/341
f 413/1044/341 261/1045/341 259/1046/341
f 259/1046/341 257/1047/341 413/1044/341
f 413/1044/341 257/1047/341 255/1048/341
f 413/1044/341 255/1048/341 253/1049/341
f 253/1049/341 251/1050/341 413/1044/341
f 413/1044/341 251/1050/341 377/1051/341
f 413/1044/341 377/1051/341 409/1052/341
f 251/1050/341 249/1053/341 377/1051/341
f 377/1051/341 249/1053/341 246/1054/341
f 377/1051/341 246/1054/341 245/1055/341
f 245/1055/341 319/1056/341 377/1051/341
f 377/1051/341 319/1056/341 317/1057/341
f 377/1051/341 317/1057/341 315/1058/341
f 315/1058/341 313/1059/341 377/1051/341
f 377/1051/341 313/1059/341 311/1060/341
f 377/1051/341 311/1060/341 309/1061/341
f 307/1062/341 338/1063/341 309/1061/341
f 309/1061/341 338/1063/341 375/1064/341
f 309/1061/341 375/1064/341 397/1065/341
f 397/1065/341 375/1064/341 399/1066/341
f 399/1066/341 375/1064/341 401/1067/341
f 401/1067/341 375/1064/341 403/1068/341
f 403/1068/341 375/1064/341 405/1069/341
f 405/1069/341 375/1064/341 407/1070/341
f 307/1062/341 305/1071/341 338/1063/341
f 338/1063/341 305/1071/341 303/1072/341
f 338/1063/341 303/1072/341 340/1073/341
f 340/1073/341 303/1072/341 301/1074/341
f 340/1073/341 301/1074/341 341/1075/341
f 341/1075/341 301/1074/341 361/1076/341
f 341/1075/341 361/1076/341 359/1077/341
f 299/1078/341 297/1079/341 301/1074/341
f 301/1074/341 297/1079/341 295/1080/341
f 301/1074/341 295/1080/341 293/1081/341
f 293/1081/341 291/1082/341 301/1074/341
f 301/1074/341 291/1082/341 290/1083/341
f 301/1074/341 290/1083/341 288/1084/341
f 288/1084/341 361/1076/341 301/1074/341
f 341/1075/341 359/1077/341 343/1085/341
f 343/1085/341 359/1077/341 357/1086/341
f 343/1085/341 357/1086/341 345/1087/341
f 345/1087/341 357/1086/341 347/1088/341
f 347/1088/341 357/1086/341 349/1089/341
f 349/1089/341 357/1086/341 355/1090/341
f 349/1089/341 355/1090/341 353/1091/341
f 353/1091/341 351/1092/341 349/1089/341
f 397/1065/341 395/1093/341 309/1061/341
f 309/1061/341 395/1093/341 393/1094/341
f 309/1061/341 393/1094/341 391/1095/341
f 309/1061/341 391/1095/341 377/1051/341
f 377/1051/341 391/1095/341 389/1096/341
f 377/1051/341 389/1096/341 387/1097/341
f 387/1097/341 385/1098/341 377/1051/341
f 377/1051/341 385/1098/341 383/1099/341
f 377/1051/341 383/1099/341 381/1100/341
f 381/1100/341 378/1101/341 377/1051/341
f 409/1052/341 411/1102/341 413/1044/341
f 447/1103/341 464/1104/341 425/1002/341
f 425/1002/341 464/1104/341 473/1105/341
f 425/1002/341 473/1105/341 498/993/341
f 447/1103/341 445/1106/341 464/1104/341
f 464/1104/341 445/1106/341 443/1107/341
f 464/1104/341 443/1107/341 441/1108/341
f 441/1108/341 439/1109/341 464/1104/341
f 464/1104/341 439/1109/341 437/1110/341
f 464/1104/341 437/1110/341 434/1111/341
f 434/1111/341 433/1112/341 464/1104/341
f 464/1104/341 462/1113/341 473/1105/341
f 473/1105/341 462/1113/341 460/1114/341
f 473/1105/341 460/1114/341 458/1115/341
f 458/1115/341 456/1116/341 473/1105/341
f 473/1105/341 456/1116/341 454/1117/341
f 473/1105/341 454/1117/341 487/1118/341
f 487/1118/341 454/1117/341 452/1119/341
f 487/1118/341 452/1119/341 489/1120/341
f 489/1120/341 452/1119/341 450/1121/341
f 487/1118/341 485/1122/341 473/1105/341
f 473/1105/341 485/1122/341 483/1123/341
f 473/1105/341 483/1123/341 481/1124/341
f 481/1124/341 479/1125/341 473/1105/341
f 473/1105/341 479/1125/341 477/1126/341
f 473/1105/341 477/1126/341 475/1127/341
f 500/893/341 514/1128/341 524/891/341
f 524/891/341 514/1128/341 512/1129/341
f 524/891/341 512/1129/341 510/1130/341
f 510/1130/341 508/1131/341 524/891/341
f 524/891/341 508/1131/341 506/1132/341
f 524/891/341 506/1132/341 503/1133/341
f 503/1133/341 502/1134/341 524/891/341
f 524/891/341 502/1134/341 544/1135/341
f 524/891/341 544/1135/341 542/1136/341
f 542/1136/341 540/1137/341 524/891/341
f 524/891/341 540/1137/341 538/1138/341
f 524/891/341 538/1138/341 526/1139/341
f 526/1139/341 538/1138/341 536/1140/341
f 526/1139/341 536/1140/341 528/1141/341
f 528/1141/341 536/1140/341 530/1142/341
f 530/1142/341 536/1140/341 534/1143/341
f 530/1142/341 534/1143/341 532/1144/341
